<svg width="11" height="9" viewBox="0 0 11 9" fill="none" xmlns="http://www.w3.org/2000/svg">
<path id="Vector" d="M5.7799 0.116474C5.61107 -0.0443583 5.34379 -0.0378284 5.18295 0.130999C5.02212 0.299825 5.02865 0.56711 5.19748 0.727942L8.7166 4.07998L0.422207 4.07998C0.18903 4.07998 0 4.26896 0 4.50219C0 4.73536 0.18903 4.9244 0.422207 4.9244L8.71682 4.9244L5.19748 8.27659C5.02865 8.43742 5.02212 8.70467 5.18295 8.87351C5.34379 9.04235 5.61107 9.04885 5.7799 8.88802L9.95631 4.90987C10.0515 4.81924 10.1077 4.70361 10.1251 4.58337C10.1303 4.55708 10.133 4.52994 10.133 4.50219C10.133 4.47421 10.1303 4.44685 10.125 4.42039C10.1075 4.30043 10.0513 4.18508 9.95631 4.09462L5.7799 0.116474Z" fill="#FF7043"/>
</svg>
