<svg width="22" height="18" viewBox="0 0 22 18" fill="none" xmlns="http://www.w3.org/2000/svg">
<path d="M0 17.392V11.5707C0 9.41468 0.359339 7.40238 1.07802 5.53382C1.84461 3.66525 3.13823 1.82065 4.95888 0L8.19293 2.51537C6.75557 3.95273 5.77338 5.29426 5.24635 6.53996C4.76723 7.78567 4.52767 9.07929 4.52767 10.4208L2.51537 8.83973H8.55226V17.392H0ZM13.0799 17.392V11.5707C13.0799 9.41468 13.4393 7.40238 14.158 5.53382C14.9245 3.66525 16.2182 1.82065 18.0388 0L21.2729 2.51537C19.8355 3.95273 18.8533 5.29426 18.3263 6.53996C17.8472 7.78567 17.6076 9.07929 17.6076 10.4208L15.5953 8.83973H21.6322V17.392H13.0799Z" fill="#203A72"/>
</svg>
