<svg width="46" height="55" viewBox="0 0 46 55" fill="none" xmlns="http://www.w3.org/2000/svg">
<g id="Group">
<path id="Vector" d="M10.176 9.3263H24.0682C24.9669 9.3263 25.7198 8.59768 25.7198 7.67477V5.07603C25.7198 4.1774 24.9912 3.4245 24.0682 3.4245H21.4938C21.0081 1.45724 19.2351 0 17.1221 0C15.0091 0 13.2362 1.45724 12.7504 3.4245H10.176C9.27733 3.4245 8.52441 4.15312 8.52441 5.07603V7.67477C8.52441 8.5734 9.25304 9.3263 10.176 9.3263ZM17.1221 2.67159C18.1422 2.67159 18.9679 3.49736 18.9679 4.51743C18.9679 5.53749 18.1422 6.36325 17.1221 6.36325C16.1021 6.36325 15.2763 5.53749 15.2763 4.51743C15.2763 3.49736 16.1021 2.67159 17.1221 2.67159Z" fill="white"/>
<path id="Vector_2" d="M34.245 32.9091V9.90913C34.245 7.65041 32.3992 5.82886 30.1647 5.82886H28.1246V7.69898C28.1246 9.9334 26.303 11.7549 24.0686 11.7549H10.1763C7.9419 11.7549 6.12037 9.9334 6.12037 7.69898V5.82886H4.08027C1.82155 5.82886 0 7.6747 0 9.90913V42.114C0 44.3727 1.84584 46.1942 4.08027 46.1942H24.0201C23.9715 45.7814 23.9472 45.3928 23.9472 44.9799C23.9472 38.9081 28.4161 33.832 34.245 32.9091ZM16.321 19.1383H27.3231C27.9789 19.1383 28.5375 19.6726 28.5375 20.3526C28.5375 21.0327 28.0032 21.567 27.3231 21.567H16.321C15.6653 21.567 15.1066 21.0327 15.1066 20.3526C15.1066 19.6726 15.641 19.1383 16.321 19.1383ZM16.321 28.0517H27.3231C27.9789 28.0517 28.5375 28.586 28.5375 29.266C28.5375 29.9461 28.0032 30.4804 27.3231 30.4804H16.321C15.6653 30.4804 15.1066 29.9461 15.1066 29.266C15.1066 28.586 15.641 28.0517 16.321 28.0517ZM13.2122 35.8236L9.69058 39.7581C9.472 40.001 9.13199 40.1467 8.79197 40.1467C8.45195 40.1467 8.13622 40.001 7.89335 39.7581L6.02325 37.6694C5.58608 37.1837 5.61034 36.4065 6.12037 35.9693C6.60612 35.5322 7.38331 35.5564 7.82048 36.0665L8.79197 37.1351L11.415 34.2206C11.8522 33.7349 12.6294 33.6863 13.1151 34.1478C13.6009 34.585 13.6494 35.3621 13.2122 35.8479V35.8236ZM13.2122 26.9345L9.69058 30.869C9.472 31.1119 9.13199 31.2819 8.79197 31.2819C8.45195 31.2819 8.13622 31.1362 7.89335 30.869L6.02325 28.7803C5.58608 28.2946 5.61034 27.5174 6.12037 27.0802C6.60612 26.643 7.38331 26.6673 7.82048 27.1773L8.79197 28.246L11.415 25.3315C11.8522 24.8458 12.6294 24.7972 13.1151 25.2344C13.6009 25.6715 13.6494 26.4487 13.2122 26.9345ZM13.2122 18.0454L9.69058 21.9799C9.472 22.2227 9.13199 22.3928 8.79197 22.3928C8.45195 22.3928 8.13622 22.247 7.89335 21.9799L6.02325 19.8912C5.58608 19.4054 5.61034 18.6282 6.12037 18.1911C6.60612 17.7539 7.38331 17.7782 7.82048 18.2882L8.79197 19.3569L11.415 16.4424C11.8522 15.9566 12.6294 15.9081 13.1151 16.3452C13.6009 16.7824 13.6494 17.5596 13.2122 18.0454ZM20.4741 39.3452H16.321C15.6653 39.3452 15.1066 38.8109 15.1066 38.1309C15.1066 37.4508 15.641 36.9165 16.321 36.9165H20.4741C21.1299 36.9165 21.6885 37.4508 21.6885 38.1309C21.6885 38.8109 21.1542 39.3452 20.4741 39.3452Z" fill="white"/>
<path id="Vector_3" d="M36.1876 35.1921C30.7715 35.1921 26.3755 39.5881 26.3755 45.0042C26.3755 50.4202 30.7715 54.8162 36.1876 54.8162C41.6036 54.8162 45.9996 50.4202 45.9996 45.0042C45.9996 39.5881 41.6036 35.1921 36.1876 35.1921ZM40.195 46.1943H36.1876C35.5318 46.1943 34.9732 45.6599 34.9732 44.9799V39.5881C34.9732 38.9324 35.5075 38.3738 36.1876 38.3738C36.8676 38.3738 37.4019 38.9081 37.4019 39.5881V43.7655H40.2192C40.875 43.7655 41.4336 44.2998 41.4336 44.9799C41.4336 45.6599 40.8993 46.1943 40.2192 46.1943H40.195Z" fill="#FF7043"/>
</g>
</svg>
