<svg width="54" height="46" viewBox="0 0 54 46" fill="none" xmlns="http://www.w3.org/2000/svg">
<g id="Group">
<path id="Vector" d="M8.31395 21.0585C11.1813 21.0585 13.5034 18.7364 13.5034 15.8489C13.5034 12.9614 11.1813 10.6594 8.31395 10.6594C5.44663 10.6594 3.12451 12.9816 3.12451 15.8489C3.12451 18.7162 5.44663 21.0585 8.31395 21.0585Z" fill="#0055FF"/>
<path id="Vector_2" d="M16.6332 30.9528L16.1889 27.2979C15.886 24.8143 14.0687 22.8758 11.7264 22.3104L9.40426 28.1258L8.89945 23.9258H9.24271C9.44463 23.9258 9.60618 23.7643 9.60618 23.5623V22.4316C9.60618 22.2296 9.44463 22.0681 9.24271 22.0681H7.40523C7.20331 22.0681 7.04176 22.2296 7.04176 22.4316V23.5623C7.04176 23.7643 7.20331 23.9258 7.40523 23.9258H7.74849L7.24368 28.1258L4.92155 22.3104C2.57923 22.8758 0.761897 24.8143 0.459011 27.2979L0.0147875 30.9528C-0.126559 32.1643 0.761897 33.2547 1.97344 33.3355C2.17537 33.3355 2.3975 33.3759 2.59943 33.3759C6.61772 33.6788 10.6764 33.6787 14.6947 33.3355C15.9062 33.2345 16.7947 32.1643 16.6332 30.9528Z" fill="#0055FF"/>
<path id="Vector_3" d="M45.1853 21.0585C48.0526 21.0585 50.3748 18.7364 50.3748 15.8489C50.3748 12.9614 48.0526 10.6594 45.1853 10.6594C42.318 10.6594 39.9958 12.9816 39.9958 15.8489C39.9958 18.7162 42.318 21.0585 45.1853 21.0585Z" fill="#0055FF"/>
<path id="Vector_4" d="M53.0602 27.2979C52.7573 24.8143 50.94 22.8758 48.5977 22.3104L46.2756 28.1258L45.7708 23.9258H46.114C46.316 23.9258 46.4775 23.7643 46.4775 23.5623V22.4316C46.4775 22.2296 46.316 22.0681 46.114 22.0681H44.2765C44.0746 22.0681 43.9131 22.2296 43.9131 22.4316V23.5623C43.9131 23.7643 44.0746 23.9258 44.2765 23.9258H44.6198L44.115 28.1258L41.7929 22.3104C39.4506 22.8758 37.6332 24.8143 37.3303 27.2979L36.8861 30.9528C36.7448 32.1643 37.6332 33.2547 38.8448 33.3355C39.0467 33.3355 39.2688 33.3759 39.4708 33.3759C43.4891 33.6788 47.5477 33.6787 51.566 33.3355C52.7775 33.2345 53.666 32.1643 53.5045 30.9528L53.0602 27.2979Z" fill="#0055FF"/>
<path id="Vector_5" d="M14.5332 9.73054C15.1996 10.1344 16.0476 9.97285 16.512 9.38727C18.7534 6.49975 22.1861 4.70263 25.9217 4.44013C26.2044 4.44013 26.5073 4.41994 26.8102 4.41994C29.3342 4.41994 31.8583 5.16706 33.9785 6.54014L34.5439 6.9036L31.8987 7.08533C31.4747 7.10552 31.1112 7.30745 30.8285 7.61034C30.566 7.93342 30.4246 8.31707 30.4448 8.74111C30.465 9.16515 30.6669 9.52861 30.9698 9.8113C31.2727 10.094 31.6766 10.2152 32.1006 10.195L38.2391 9.77093C39.0872 9.71035 39.7535 8.96323 39.6929 8.11515L39.2689 1.95646C39.2083 1.10838 38.4612 0.442029 37.6131 0.502606C36.765 0.563183 36.0987 1.3103 36.1593 2.15839L36.3006 4.35935L35.917 4.09685C32.9285 2.05742 29.2939 1.06799 25.6794 1.3103C21.0957 1.63338 16.8553 3.85455 14.0486 7.40841C13.7861 7.75168 13.6649 8.19591 13.7457 8.64015C13.8265 9.08438 14.0889 9.46803 14.4928 9.71034L14.5332 9.73054Z" fill="#0055FF"/>
<path id="Vector_6" d="M38.966 36.7884C38.2997 36.3845 37.4516 36.5461 36.9871 37.1317C34.7256 40.0192 31.313 41.8163 27.5775 42.0788C24.7505 42.2807 21.9034 41.5336 19.5207 39.9788L18.9553 39.6153L21.6005 39.4336C22.0246 39.4134 22.388 39.2115 22.6707 38.9086C22.9332 38.5855 23.0746 38.2019 23.0544 37.7778C22.9938 36.9499 22.3073 36.324 21.4996 36.324C20.6919 36.324 21.439 36.324 21.3986 36.324L15.2601 36.748C14.412 36.8086 13.7659 37.5557 13.8062 38.4038L14.2303 44.5423C14.2909 45.3904 15.0582 46.0567 15.8861 45.9961C16.7341 45.9356 17.3803 45.1884 17.3399 44.3404L17.1986 42.1394L17.5822 42.4019C20.5707 44.4413 24.2053 45.4308 27.8198 45.1884C32.4034 44.8654 36.6439 42.6442 39.4506 39.0903C39.7131 38.7471 39.8343 38.3028 39.7535 37.8586C39.6727 37.4144 39.4102 37.0307 39.0064 36.7884H38.966Z" fill="#0055FF"/>
<path id="Vector_7" d="M25.8612 32.2248H27.6381C27.9612 32.2248 28.2439 31.9623 28.2439 31.6191V29.9835C30.2429 29.5594 31.7372 27.9642 31.9189 26.0258C32.04 24.7335 31.6362 23.5017 30.7679 22.5527C29.9198 21.6036 28.6881 21.0786 27.416 21.0786H26.0631C25.639 21.0786 25.215 20.8969 24.9323 20.5738C24.6295 20.2507 24.5083 19.8267 24.5487 19.3825C24.6294 18.6152 25.3362 18.0094 26.1843 18.0094H27.7593C28.2237 18.0094 28.6275 18.3325 28.7285 18.7969C28.7891 19.0594 29.0314 19.2613 29.3141 19.2613H31.1112C31.2727 19.2613 31.4545 19.1806 31.5554 19.0594C31.6564 18.9382 31.717 18.7767 31.6968 18.6152C31.5151 16.7575 30.0612 15.3036 28.2237 15.0815V13.5267C28.2237 13.2036 27.9612 12.9209 27.6179 12.9209H25.841C25.5179 12.9209 25.2352 13.1834 25.2352 13.5267V15.1219C22.9333 15.5459 21.3179 17.6459 21.5602 20.0084C21.7823 22.2902 23.842 24.0671 26.2449 24.0671H27.416C27.84 24.0671 28.2641 24.2488 28.5468 24.5719C28.8497 24.895 28.9708 25.319 28.9304 25.7633C28.8496 26.5306 28.1429 27.1364 27.2948 27.1364H25.7198C25.2554 27.1364 24.8515 26.8133 24.7506 26.3489C24.69 26.0863 24.4477 25.9046 24.165 25.9046H22.3679C22.2063 25.9046 22.0246 25.9854 21.9236 26.1066C21.8227 26.2277 21.7621 26.3892 21.7823 26.5508C21.964 28.4085 23.4179 29.8623 25.2554 30.0844V31.6393C25.2554 31.9623 25.5179 32.245 25.8612 32.245V32.2248Z" fill="#FF7043"/>
</g>
</svg>
