<svg width="48" height="44" viewBox="0 0 48 44" fill="none" xmlns="http://www.w3.org/2000/svg">
<g id="Group">
<g id="Group_2">
<path id="Vector" d="M47.6002 27.4464C45.612 20.0942 42.0084 11.4166 35.8988 8.06148L40.0202 4.04366C41.532 2.57322 40.4965 0.00512695 38.3841 0.00512695H22.4577C20.3453 0.00512695 19.3098 2.57322 20.8216 4.04366L24.9223 8.06148C20.5938 10.4432 17.5287 15.4965 15.3955 20.8605C17.7565 21.6682 19.434 22.9523 19.434 24.7127V40.639C20.5524 41.1567 21.7743 41.4881 23.079 41.6124C25.2536 41.7988 27.6975 41.9437 30.4106 41.9437C33.1236 41.9437 35.5675 41.7988 37.7628 41.6124C44.7008 40.9496 49.4434 34.1773 47.6002 27.4464ZM34.8633 31.195C34.0556 32.0856 32.9372 32.6033 31.736 32.6655H31.6325V34.5915C31.6325 34.7365 31.5082 34.8608 31.3632 34.8608H29.4786C29.3336 34.8608 29.2094 34.7365 29.2094 34.5915V32.6655H29.1058C26.8691 32.5826 25.0465 30.8429 24.8394 28.6269C24.8394 28.5441 24.8394 28.482 24.9016 28.4198C24.943 28.3577 25.0258 28.337 25.0879 28.337H26.9933C27.1176 28.337 27.2211 28.4405 27.2625 28.5648C27.4282 29.5589 28.2774 30.2631 29.2715 30.2631H31.5496C32.1295 30.2631 32.6887 30.0145 33.0822 29.5796C33.4757 29.1447 33.6413 28.5441 33.5792 27.9642C33.455 26.9494 32.5644 26.2038 31.4875 26.2038H29.3957C26.9726 26.2038 24.9637 24.3606 24.8188 22.0203C24.7359 20.8191 25.1501 19.6593 25.9578 18.7688C26.7655 17.8782 27.8839 17.3398 29.0851 17.2983H29.1886V15.3723C29.1886 15.2273 29.3129 15.103 29.4579 15.103H31.3425C31.4875 15.103 31.6117 15.2273 31.6117 15.3723V17.2983H31.7153C33.952 17.3812 35.7745 19.1208 35.9816 21.3369C35.9816 21.4197 35.9816 21.4818 35.9195 21.544C35.8574 21.6061 35.7952 21.6268 35.7124 21.6268H33.8071C33.6828 21.6268 33.5793 21.5233 33.5585 21.399C33.3929 20.4049 32.5437 19.7007 31.5496 19.7007H29.2715C28.6916 19.7007 28.1324 19.9493 27.7389 20.3842C27.3454 20.8191 27.1797 21.4197 27.2419 21.9996C27.3661 23.0144 28.2774 23.76 29.3336 23.76H31.4254C33.8485 23.76 35.8574 25.6032 36.0024 27.9435C36.0645 29.1447 35.671 30.3045 34.8633 31.195Z" fill="#0055FF"/>
<path id="Vector_2" d="M8.83033 21.834C3.54917 21.834 0.194092 23.5322 0.194092 24.7127C0.194092 25.8932 3.56988 27.5915 8.83033 27.5915C14.0908 27.5915 17.4666 25.8932 17.4666 24.7127C17.4666 23.5322 14.0908 21.834 8.83033 21.834Z" fill="#0055FF"/>
<path id="Vector_3" d="M0.194092 38.2573V40.7012C0.194092 41.8817 3.56988 43.5799 8.83033 43.5799C14.0908 43.5799 17.4666 41.8817 17.4666 40.7012V38.2573C15.4163 39.5414 12.0612 40.2041 8.83033 40.2041C5.5995 40.2041 2.22371 39.5414 0.194092 38.2573Z" fill="#0055FF"/>
<path id="Vector_4" d="M0.194092 32.9348V35.3786C0.194092 36.5591 3.56988 38.2574 8.83033 38.2574C14.0908 38.2574 17.4666 36.5591 17.4666 35.3786V32.9348C15.4163 34.2189 12.0612 34.8816 8.83033 34.8816C5.5995 34.8816 2.22371 34.2189 0.194092 32.9348Z" fill="#0055FF"/>
<path id="Vector_5" d="M0.194092 27.5913V30.0351C0.194092 31.2156 3.56988 32.9139 8.83033 32.9139C14.0908 32.9139 17.4666 31.2156 17.4666 30.0351V27.5913C15.4163 28.8754 12.0612 29.5381 8.83033 29.5381C5.5995 29.5381 2.22371 28.8754 0.194092 27.5913Z" fill="#0055FF"/>
</g>
<path id="Vector_6" d="M3.59051 4.60289L7.774 0.419386C8.33319 -0.139795 9.34801 -0.139795 9.90719 0.419386L14.1114 4.60289C14.6913 5.20349 14.6913 6.15617 14.1114 6.75678C13.8007 7.04672 13.4279 7.19169 13.0552 7.19169C12.6824 7.19169 12.2682 7.02601 11.9782 6.75678L10.3628 5.14136V17.4019C10.3628 18.2303 9.67935 18.9138 8.85094 18.9138C8.02252 18.9138 7.33906 18.2303 7.33906 17.4019V5.14136L5.74437 6.75678C5.16448 7.33667 4.19108 7.33667 3.61119 6.75678C3.0313 6.15617 3.0313 5.20349 3.61119 4.60289H3.59051Z" fill="#FF7043"/>
</g>
</svg>
