<svg width="45" height="45" viewBox="0 0 45 45" fill="none" xmlns="http://www.w3.org/2000/svg">
<g id="Group">
<g id="Group_2">
<path id="Vector" d="M12.9196 26.2192C13.1229 24.5517 13.855 23.0468 14.9735 21.8673C14.2211 20.5252 12.9196 19.549 11.3944 19.183L9.17778 24.755L8.68972 20.7285H9.01511C9.21847 20.7285 9.36081 20.5658 9.36081 20.3828V19.305C9.36081 19.1017 9.19813 18.939 9.01511 18.939H7.24588C7.06285 18.939 6.90018 19.1017 6.90018 19.305V20.3828C6.90018 20.5862 7.06285 20.7285 7.24588 20.7285H7.57124L7.0832 24.755L4.84626 19.183C2.60932 19.7117 0.860415 21.5826 0.555377 23.9619L0.006319 28.5375C-0.0546885 29.1272 0.331692 29.6966 0.921432 29.8186C1.7552 30.0017 2.6093 30.144 3.48374 30.2457L4.11415 40.9627C4.15482 41.8168 4.84625 42.4675 5.70036 42.4675H10.581C11.4351 42.4675 12.1265 41.8168 12.1672 40.9627L12.6552 32.5233C12.4112 31.9946 12.3095 31.4048 12.3909 30.7744L12.9399 26.1989L12.9196 26.2192Z" fill="#0055FF"/>
<path id="Vector_2" d="M8.12047 17.9018C10.8658 17.9018 13.1027 15.6649 13.1027 12.9195C13.1027 10.1742 10.8658 7.93726 8.12047 7.93726C5.37513 7.93726 3.13818 10.1742 3.13818 12.9195C3.13818 15.6649 5.37513 17.9018 8.12047 17.9018Z" fill="#0055FF"/>
<path id="Vector_3" d="M44.4808 23.9619C44.1961 21.5826 42.4473 19.7117 40.19 19.183L37.9734 24.755L37.4853 20.7285H37.8107C38.0141 20.7285 38.1564 20.5658 38.1564 20.3828V19.305C38.1564 19.1017 37.9937 18.939 37.8107 18.939H36.0415C35.8381 18.939 35.6754 19.1017 35.6754 19.305V20.3828C35.6754 20.5862 35.8381 20.7285 36.0415 20.7285H36.3669L35.8788 24.755L33.6418 19.183C32.1167 19.549 30.8152 20.5252 30.0627 21.8673C31.1812 23.0468 31.9336 24.5517 32.1167 26.2192L32.6657 30.7948C32.7471 31.4252 32.625 32.0149 32.381 32.5436L32.8691 40.983C32.9097 41.8371 33.6012 42.4879 34.4553 42.4879H39.3359C40.19 42.4879 40.8814 41.8371 40.9221 40.983L41.5321 30.266C42.4066 30.144 43.2607 30.022 44.0945 29.839C44.6842 29.717 45.0706 29.1679 44.9892 28.5578L44.4402 23.9823L44.4808 23.9619Z" fill="#0055FF"/>
<path id="Vector_4" d="M31.9539 12.9195C31.9539 15.6649 34.1908 17.9018 36.9361 17.9018C39.6815 17.9018 41.9184 15.6649 41.9184 12.9195C41.9184 10.1742 39.6815 7.93726 36.9361 7.93726C34.1908 7.93726 31.9539 10.1742 31.9539 12.9195Z" fill="#0055FF"/>
<path id="Vector_5" d="M25.8125 21.664L23.5756 27.236L23.0875 23.2095H23.4129C23.6162 23.2095 23.7586 23.0468 23.7586 22.8638V21.786C23.7586 21.5827 23.5959 21.4403 23.4129 21.4403H21.6437C21.4403 21.4403 21.2979 21.603 21.2979 21.786V22.8638C21.2979 23.0672 21.4606 23.2095 21.6437 23.2095H21.969L21.481 27.236L19.244 21.664C17.0071 22.1927 15.2582 24.0636 14.9532 26.4633L14.4041 31.0388C14.3228 31.6286 14.7091 32.198 15.2989 32.32C16.1326 32.503 16.9868 32.625 17.8612 32.747L18.4916 43.464C18.5323 44.3181 19.244 44.9689 20.0778 44.9689H24.9584C25.8125 44.9689 26.5039 44.3181 26.5446 43.464L27.1547 32.747C28.0291 32.625 28.8832 32.503 29.717 32.32C30.3067 32.198 30.6931 31.6286 30.6118 31.0388L30.0627 26.4633C29.778 24.084 28.0291 22.2131 25.7718 21.664H25.8125Z" fill="#0055FF"/>
<path id="Vector_6" d="M22.5182 10.4182C19.7728 10.4182 17.5359 12.6552 17.5359 15.4005C17.5359 18.1458 19.7728 20.3828 22.5182 20.3828C25.2635 20.3828 27.5005 18.1458 27.5005 15.4005C27.5005 12.6552 25.2635 10.4182 22.5182 10.4182Z" fill="#0055FF"/>
</g>
<g id="Group_3">
<path id="Vector_7" d="M22.5386 5.82229C23.169 5.82229 23.6977 5.3139 23.6977 4.66315V1.47042C23.6977 0.840012 23.1893 0.311279 22.5386 0.311279C21.8878 0.311279 21.3794 0.819676 21.3794 1.47042V4.66315C21.3794 5.29356 21.8878 5.82229 22.5386 5.82229Z" fill="#FF7043"/>
<path id="Vector_8" d="M26.7888 6.69672C26.9311 6.75772 27.0938 6.7984 27.2362 6.7984C27.6836 6.7984 28.1106 6.53403 28.2936 6.10698L29.5341 3.15828C29.7781 2.56854 29.5138 1.89746 28.924 1.65343C28.3343 1.4094 27.6632 1.67376 27.4192 2.2635L26.1787 5.2122C25.9347 5.80194 26.199 6.47302 26.7888 6.71705V6.69672Z" fill="#FF7043"/>
<path id="Vector_9" d="M16.7633 6.08666C16.9463 6.53405 17.3733 6.77808 17.8207 6.77808C18.2681 6.77808 18.1258 6.75775 18.2681 6.6764C18.8579 6.43237 19.1222 5.76129 18.8782 5.17155L17.6174 2.22285C17.3733 1.63311 16.7022 1.36875 16.1125 1.61278C15.5228 1.85681 15.2584 2.52789 15.5024 3.11763L16.7633 6.06633V6.08666Z" fill="#FF7043"/>
</g>
</g>
</svg>
