<svg width="49" height="45" viewBox="0 0 49 45" fill="none" xmlns="http://www.w3.org/2000/svg">
<g id="Group">
<path id="Vector" d="M46.9713 31.6394H42.5907V26.1239C44.2235 25.4867 45.458 23.396 45.458 20.8872C45.458 18.3783 43.7257 15.4513 41.5752 15.4513C39.4248 15.4513 37.6726 17.9004 37.6726 20.8872C37.6726 23.8739 38.9071 25.4867 40.5398 26.1239V31.6394H34.5863V1.31415C34.5863 0.577429 33.989 0 33.2721 0H14.9934C14.2766 0 13.6991 0.577429 13.6991 1.31415V31.6394H7.72567V26.1239C9.35842 25.4867 10.5929 23.396 10.5929 20.8872C10.5929 18.3783 8.86061 15.4513 6.71017 15.4513C4.55972 15.4513 2.82742 17.9004 2.82742 20.8872C2.82742 23.8739 4.04205 25.4867 5.69471 26.1239V31.6394H1.31418C0.577453 31.6394 0 32.2168 0 32.9535V33.3319C0 34.0487 0.577453 34.646 1.31418 34.646H16.1881C17.562 31.5996 20.6283 29.4889 24.1726 29.4889C27.7168 29.4889 30.7832 31.5996 32.1372 34.646H47.0111C47.7279 34.646 48.3252 34.0487 48.3252 33.3319V32.9535C48.3252 32.2168 47.7279 31.6394 47.0111 31.6394H46.9713ZM21.9823 25.7257C21.9823 25.9646 21.7832 26.1438 21.5642 26.1438H18.3983C18.1792 26.1438 17.9801 25.9646 17.9801 25.7257V22.5796C17.9801 22.3407 18.1792 22.1615 18.3983 22.1615H21.5642C21.7832 22.1615 21.9823 22.3407 21.9823 22.5796V25.7257ZM21.9823 17.1239C21.9823 17.3628 21.7832 17.542 21.5642 17.542H18.3983C18.1792 17.542 17.9801 17.3628 17.9801 17.1239V13.9779C17.9801 13.739 18.1792 13.5597 18.3983 13.5597H21.5642C21.7832 13.5597 21.9823 13.739 21.9823 13.9779V17.1239ZM21.9823 8.54204C21.9823 8.76107 21.7832 8.96018 21.5642 8.96018H18.3983C18.1792 8.96018 17.9801 8.76107 17.9801 8.54204V5.37611C17.9801 5.15708 18.1792 4.95797 18.3983 4.95797H21.5642C21.7832 4.95797 21.9823 5.15708 21.9823 5.37611V8.54204ZM30.2655 25.7257C30.2655 25.9646 30.0863 26.1438 29.8474 26.1438H26.7013C26.4624 26.1438 26.2832 25.9646 26.2832 25.7257V22.5796C26.2832 22.3407 26.4624 22.1615 26.7013 22.1615H29.8474C30.0863 22.1615 30.2655 22.3407 30.2655 22.5796V25.7257ZM30.2655 17.1239C30.2655 17.3628 30.0863 17.542 29.8474 17.542H26.7013C26.4624 17.542 26.2832 17.3628 26.2832 17.1239V13.9779C26.2832 13.739 26.4624 13.5597 26.7013 13.5597H29.8474C30.0863 13.5597 30.2655 13.739 30.2655 13.9779V17.1239ZM30.2655 8.54204C30.2655 8.76107 30.0863 8.96018 29.8474 8.96018H26.7013C26.4624 8.96018 26.2832 8.76107 26.2832 8.54204V5.37611C26.2832 5.15708 26.4624 4.95797 26.7013 4.95797H29.8474C30.0863 4.95797 30.2655 5.15708 30.2655 5.37611V8.54204Z" fill="#0055FF"/>
<path id="Vector_2" d="M24.1129 31.5398C20.4094 31.5398 17.3828 34.5464 17.3828 38.2699C17.3828 41.9933 20.3895 45 24.1129 45C27.8364 45 30.843 41.9933 30.843 38.2699C30.843 34.5464 27.8364 31.5398 24.1129 31.5398ZM24.8696 41.9336V42.7101C24.8696 42.8694 24.7302 43.0088 24.5709 43.0088H23.6947C23.5355 43.0088 23.3961 42.8694 23.3961 42.7101V41.9535C22.5001 41.8341 21.7832 41.1172 21.7036 40.2212C21.7036 40.1416 21.7036 40.0619 21.7833 40.0022C21.843 39.9424 21.9226 39.9026 22.0222 39.9026H22.8983C23.0377 39.9026 23.1571 40.0022 23.197 40.1416C23.2368 40.3606 23.4359 40.5199 23.6549 40.5199H24.4315C24.8297 40.5199 25.1881 40.2212 25.2279 39.8628C25.2478 39.6438 25.1881 39.4447 25.0487 39.2854C24.9094 39.1261 24.7102 39.0464 24.4912 39.0464H23.8341C23.2169 39.0464 22.5996 38.7876 22.1815 38.3097C21.7634 37.8318 21.5443 37.2345 21.624 36.5973C21.7235 35.6416 22.4602 34.865 23.4359 34.646V33.8495C23.4359 33.6902 23.5753 33.5509 23.7346 33.5509H24.6107C24.77 33.5509 24.9094 33.6902 24.9094 33.8495V34.6062C25.8054 34.7256 26.5222 35.4424 26.6018 36.3385C26.6018 36.4181 26.6018 36.4977 26.5222 36.5575C26.4624 36.6172 26.3828 36.657 26.2832 36.657H25.4072C25.2678 36.657 25.1483 36.5575 25.1085 36.4181C25.0687 36.1991 24.8695 36.0398 24.6505 36.0398H23.874C23.4758 36.0398 23.1173 36.3385 23.0775 36.6969C23.0576 36.9159 23.1173 37.115 23.2567 37.2743C23.3961 37.4336 23.5952 37.5132 23.8142 37.5132H24.3917C25.5863 37.5132 26.5819 38.3893 26.7014 39.5243C26.8209 40.6792 26.0244 41.7146 24.8894 41.9336H24.8696Z" fill="#FF7043"/>
</g>
</svg>
