<svg width="52" height="53" viewBox="0 0 52 53" fill="none" xmlns="http://www.w3.org/2000/svg">
<g id="Group">
<g id="Group_2">
<path id="Vector" d="M51.1637 9.23591C51.1637 9.72725 50.7425 10.1016 50.2512 10.0782L42.8343 9.86764C42.5301 9.86764 42.2728 10.0782 42.226 10.3824C42.1792 10.6865 42.3664 10.9673 42.6705 11.0609L49.0112 12.7923C49.4557 12.9327 49.7131 13.3772 49.6195 13.8452C49.5025 14.3365 49.0345 14.6173 48.5666 14.5003C48.5666 14.5003 40.3776 12.6519 39.5821 12.5115C38.81 12.3711 38.5526 12.8859 38.9504 13.2836C39.3247 13.6814 39.6523 13.8686 40.1904 14.2195L42.2026 15.5064C42.5067 15.7169 42.6705 16.0913 42.6003 16.4656C42.5535 16.7464 42.3663 16.9804 42.1324 17.1208C41.875 17.2612 41.5942 17.2611 41.3369 17.1442L38.9971 16.1381C36.7276 15.1554 34.4347 14.0557 32.4693 11.1779C32.3523 10.9907 32.095 10.9205 31.8844 10.8971L18.5246 10.6163C18.5714 10.1718 18.5012 9.72725 18.2906 9.3061C17.9631 8.69777 17.4015 8.27662 16.723 8.15963C16.5826 8.13624 16.4422 8.11285 16.3019 8.11285C15.6701 8.11285 15.0852 8.37021 14.6641 8.83816C15.0384 7.20035 15.4362 5.32858 15.7871 3.85456L31.3931 4.13533C31.6504 4.13533 32.1886 4.06513 32.3758 3.87795C33.9434 2.31034 35.5578 1.70201 37.8975 1.7722C38.81 1.7722 39.5821 1.81899 40.1904 1.72541C41.2433 1.53823 42.1324 1.32766 42.9279 1.07029L46.0163 0.0408115C46.2503 -0.0293801 46.4843 -0.00598001 46.6948 0.0876088C46.9054 0.181198 47.0692 0.368371 47.1394 0.602343C47.3032 1.07029 47.0692 1.53823 46.6246 1.72541L41.9218 3.43341C41.641 3.527 41.4773 3.83116 41.5474 4.13533C41.6176 4.43949 41.8984 4.62667 42.2026 4.60327L48.6602 3.80776C49.1281 3.73757 49.5727 4.06512 49.6429 4.53307C49.6897 4.79044 49.6429 5.02442 49.5025 5.21159C49.3621 5.39877 49.1749 5.53915 48.941 5.58594L42.6003 6.66222C42.2962 6.70902 42.0856 6.96639 42.0856 7.29395C42.0856 7.59811 42.3429 7.85547 42.6471 7.85547L50.3214 8.34682C50.7893 8.37022 51.1637 8.76796 51.1403 9.25931L51.1637 9.23591Z" fill="#0055FF"/>
<path id="Vector_2" d="M17.1441 10.7567L16.1381 13.0965C15.1788 15.366 14.0557 17.6589 11.1779 19.6243C10.9907 19.7413 10.9205 19.9986 10.8971 20.2092L10.6164 33.569C10.5228 33.569 10.4526 33.569 10.359 33.569C9.98461 33.569 9.63365 33.6626 9.30609 33.8264C8.69776 34.1539 8.30003 34.7155 8.15965 35.394C8.01927 36.1661 8.27661 36.9382 8.83815 37.4529C7.20034 37.0786 5.35198 36.6808 3.85456 36.3299L4.13532 20.7239C4.13532 20.4666 4.06513 19.9284 3.87795 19.7179C2.31034 18.1503 1.70201 16.5359 1.7722 14.1961C1.7956 13.2836 1.81901 12.5115 1.72542 11.9032C1.53824 10.8503 1.32766 9.96124 1.07029 9.16573L0.0408066 6.0773C-0.029385 5.84333 -0.00597064 5.60935 0.0876181 5.39878C0.181207 5.1882 0.368373 5.02443 0.602345 4.95424C1.07029 4.79046 1.53824 5.02442 1.72542 5.46897L3.4334 10.1718C3.52699 10.4526 3.85455 10.6164 4.13532 10.5462C4.43948 10.476 4.62666 10.1952 4.60326 9.89104L3.80775 3.43342C3.73756 2.96548 4.06514 2.52093 4.53309 2.45074C4.76706 2.40394 5.0244 2.45073 5.21158 2.59111C5.39876 2.7315 5.53916 2.91868 5.58596 3.15265L6.66222 9.49329C6.70902 9.79745 6.98977 10.008 7.29394 10.008C7.5981 10.008 7.85548 9.75065 7.85548 9.44649L8.34681 1.77221C8.37021 1.30427 8.76797 0.929913 9.25931 0.953311C9.75065 0.953311 10.125 1.37447 10.1016 1.86581L9.89102 9.28272C9.89102 9.58688 10.1016 9.84425 10.4058 9.89104C10.7099 9.93784 10.9907 9.75065 11.0843 9.44649L12.8391 3.10586C12.9795 2.66131 13.424 2.38055 13.892 2.49753C14.3833 2.61452 14.6641 3.08246 14.5471 3.55041C14.5471 3.55041 12.6987 11.7628 12.5583 12.5349C12.4179 13.307 12.9561 13.5644 13.3304 13.1666C13.7282 12.7923 13.9154 12.4647 14.2663 11.9266L15.5532 9.91443C15.7637 9.61027 16.1381 9.44649 16.489 9.49329C16.7698 9.54008 17.0038 9.72726 17.1441 9.96123C17.2845 10.2186 17.2846 10.4994 17.1676 10.7567H17.1441Z" fill="#0055FF"/>
<path id="Vector_3" d="M37.4299 43.2086C37.0555 44.8464 36.6577 46.6948 36.3068 48.1922L20.7009 47.9114C20.4435 47.9114 19.9053 47.9816 19.7182 48.1688C18.1506 49.7364 16.5362 50.3447 14.1964 50.2746C13.2839 50.2512 12.4885 50.2278 11.9035 50.3213C10.8507 50.5085 9.96154 50.7191 9.18943 50.9765L6.10101 52.0059C5.86704 52.0761 5.63306 52.0527 5.42249 51.9592C5.21192 51.8656 5.04813 51.6784 4.97794 51.4444C4.81416 50.9765 5.04815 50.4851 5.49269 50.3213L10.1721 48.6134C10.4529 48.5198 10.6167 48.1922 10.5465 47.9114C10.4763 47.6073 10.1955 47.4201 9.89135 47.4435L3.43373 48.239C2.96578 48.3092 2.52125 47.9816 2.45106 47.5137C2.40426 47.2563 2.45105 47.0224 2.59143 46.8352C2.73182 46.648 2.919 46.5076 3.15297 46.4608L9.49361 45.3611C9.79777 45.3143 10.0083 45.057 9.98494 44.7294C9.98494 44.4253 9.72757 44.1679 9.4234 44.1679L1.74914 43.6766C1.2812 43.6532 0.906842 43.2554 0.930239 42.7641C0.930239 42.2727 1.35139 41.8984 1.84274 41.9218L9.25963 42.1323C9.5638 42.1323 9.82116 41.9218 9.86796 41.6176C9.91475 41.3134 9.72757 41.0327 9.4234 40.9391L3.08277 39.2077C2.63822 39.0673 2.35746 38.6228 2.47445 38.1548C2.59143 37.6635 3.05938 37.3827 3.52732 37.4997C3.52732 37.4997 11.7397 39.3481 12.5119 39.4885C13.284 39.6288 13.5179 39.0907 13.1436 38.7163C12.7692 38.3186 12.4417 38.1314 11.9035 37.7805L9.89135 36.4936C9.56379 36.283 9.40002 35.9087 9.47021 35.5577C9.51701 35.277 9.70419 35.043 9.93816 34.9026C10.1721 34.7622 10.4763 34.7622 10.7337 34.8792L13.0734 35.8853C15.3429 36.868 17.6358 37.9676 19.6012 40.8455C19.7182 41.0327 19.9755 41.1029 20.1861 41.1263L33.5459 41.407C33.4991 41.8516 33.5693 42.2961 33.8033 42.6939C34.1309 43.3022 34.6924 43.7233 35.3709 43.8403C35.5113 43.8637 35.6517 43.8637 35.7921 43.8637C36.4238 43.8637 37.0087 43.6064 37.4299 43.1618V43.2086Z" fill="#0055FF"/>
<path id="Vector_4" d="M51.9823 46.6714C51.8887 46.882 51.7016 47.0457 51.4676 47.1159C50.9996 47.2797 50.5317 47.0457 50.3445 46.6012L48.6365 41.9218C48.5429 41.641 48.2388 41.4772 47.9346 41.5474C47.6304 41.6176 47.4433 41.8984 47.4667 42.2025L48.2621 48.6602C48.3323 49.1281 48.0048 49.5726 47.5602 49.6428C47.3029 49.6896 47.0689 49.6428 46.8817 49.5024C46.6946 49.3621 46.5542 49.1749 46.5074 48.9409L45.4311 42.6003C45.3843 42.2961 45.1035 42.0855 44.7994 42.0855C44.4952 42.0855 44.2378 42.3429 44.2144 42.6471L43.7231 50.3213C43.6997 50.7893 43.302 51.1636 42.8106 51.1403C42.3193 51.1403 41.9449 50.7191 41.9683 50.2278L42.1789 42.8109C42.1789 42.5067 41.9683 42.2259 41.6641 42.2025C41.36 42.1557 41.0792 42.3429 40.9856 42.6471L39.2308 48.9877C39.1138 49.4323 38.6459 49.6896 38.178 49.596C37.6866 49.4791 37.4059 49.0111 37.5229 48.5432C37.5229 48.5432 39.3712 40.3307 39.5116 39.5586C39.652 38.7865 39.1139 38.5526 38.7395 38.9269C38.3417 39.3013 38.1546 39.6288 37.8036 40.167L36.5168 42.1791C36.3062 42.5067 35.9318 42.6705 35.5575 42.6003C35.2767 42.5535 35.0427 42.3663 34.9024 42.1323C34.762 41.8984 34.762 41.5942 34.879 41.3368L35.8851 38.9971C36.8443 36.7276 37.9674 34.4347 40.8452 32.4693C41.0324 32.3523 41.1026 32.0949 41.1026 31.8844L41.3834 18.5246C41.477 18.5246 41.5472 18.5246 41.6408 18.5246C42.0151 18.5246 42.3661 18.431 42.6936 18.2672C43.302 17.9396 43.6997 17.3781 43.8401 16.6996C43.9805 15.9275 43.7231 15.1788 43.1616 14.6406C44.7994 15.015 46.6711 15.4127 48.1452 15.7637L47.8644 31.3696C47.8644 31.627 47.9346 32.1651 48.1218 32.3757C49.6894 33.9433 50.2977 35.5577 50.2275 37.8974C50.2041 38.8099 50.1807 39.6054 50.2743 40.1904C50.4615 41.2432 50.6721 42.1323 50.9294 42.9278L51.9589 46.0163C52.0291 46.2502 52.0057 46.4842 51.9121 46.6948L51.9823 46.6714Z" fill="#0055FF"/>
</g>
<path id="Vector_5" d="M26.0354 15.9977C20.4903 15.9977 15.998 20.4899 15.998 26.0351C15.998 31.5802 20.4903 36.0725 26.0354 36.0725C31.5806 36.0725 36.0728 31.5802 36.0728 26.0351C36.0728 20.4899 31.5806 15.9977 26.0354 15.9977ZM30.7851 24.4909L25.7547 29.5213C25.4973 29.7786 25.123 29.919 24.772 29.919C24.421 29.919 24.0701 29.7786 23.7893 29.5213L21.2858 27.0178C20.7477 26.4796 20.7477 25.6139 21.2858 25.0758C21.8239 24.5377 22.6896 24.5377 23.2278 25.0758L24.7486 26.5966L28.7963 22.5489C29.3344 22.0108 30.2001 22.0108 30.7383 22.5489C31.2764 23.087 31.2764 23.9527 30.7383 24.4909H30.7851Z" fill="#FF7043"/>
</g>
</svg>
