<svg width="52" height="44" viewBox="0 0 52 44" fill="none" xmlns="http://www.w3.org/2000/svg">
<path d="M26.6741 27.0468C27.5966 26.0851 28.892 25.5159 30.2267 25.5159C31.5614 25.5159 32.6801 26.0066 33.6026 26.8702L34.7999 28.0086V20.1183C31.5417 20.6679 27.9499 20.9819 24.0833 21.1782C24.044 23.3568 22.2187 25.1233 20.0007 25.1233H17.1744C14.9565 25.1233 13.1704 23.3961 13.0918 21.1978C9.24485 21.0015 5.65299 20.7071 2.33594 20.1183V30.1087C2.33594 31.9733 3.84726 33.4847 5.67262 33.4847H20.5307L26.6545 27.0468H26.6741Z" fill="#0055FF"/>
<path d="M17.1741 14.0926H20.0201C22.2773 14.0926 24.083 15.8983 24.1223 18.1555C29.1469 17.9396 33.2295 17.4096 36.4484 16.7423C36.8998 16.6638 37.2335 16.2712 37.2335 15.7806V10.5793C37.2335 8.71464 35.7222 7.24257 33.8968 7.24257H26.458V4.78913C26.458 2.15904 24.3185 0 21.6688 0H15.5254C12.8953 0 10.7363 2.15904 10.7363 4.78913V7.24257H3.33668C1.47207 7.24257 0 8.71464 0 10.5793V15.7806C0 16.2516 0.333668 16.6638 0.785102 16.7619C4.00402 17.39 8.08656 17.92 13.1308 18.1359C13.1505 15.8787 14.9562 14.073 17.233 14.073L17.1741 14.0926ZM14.7992 4.80875C14.7992 4.43583 15.1132 4.12179 15.4861 4.12179H21.6296C22.0221 4.12179 22.3362 4.4162 22.3362 4.80875V6.94816H14.7796V4.80875H14.7992Z" fill="#0055FF"/>
<path d="M17.1547 17.1152C16.5659 17.1152 16.0752 17.6059 16.0752 18.1947V21.0211C16.0752 21.6296 16.5659 22.1006 17.1547 22.1006H19.9811C20.5699 22.1006 21.0606 21.6099 21.0606 21.0211V18.1947C21.0606 17.6059 20.5699 17.1152 19.9811 17.1152H17.1547Z" fill="#0055FF"/>
<path d="M51.5813 20.4519C51.3065 20.1771 50.914 20.0594 50.541 20.1379L43.4948 21.2567C43.0433 21.3352 42.6508 21.6492 42.5134 22.1006C42.376 22.5521 42.5134 23.0231 42.8471 23.3568L44.4565 24.8877L36.3896 33.3669L31.6986 28.8918C30.8546 28.087 29.5003 28.1263 28.6956 28.9703L18.2341 39.9617C17.4294 40.8057 17.4686 42.16 18.3126 42.9647C18.8426 43.475 19.5688 43.6517 20.2361 43.4947C20.6287 43.4162 21.0016 43.2003 21.3156 42.8862L30.3247 33.4257L35.0157 37.8812C35.4278 38.2737 35.9578 38.4896 36.527 38.47C37.0962 38.47 37.6261 38.2149 38.0187 37.8027L47.538 27.7926L49.1475 29.3236C49.4812 29.6573 49.9719 29.7554 50.4233 29.5787C50.8747 29.4217 51.1691 29.0292 51.228 28.5581L51.9935 21.4726C52.0327 21.08 51.8954 20.7267 51.6206 20.4519H51.5813Z" fill="#FF7043"/>
</svg>
