<svg width="52" height="46" viewBox="0 0 52 46" fill="none" xmlns="http://www.w3.org/2000/svg">
<g id="Group">
<path id="Vector" d="M9.00222 21.6912C9.00222 19.5763 9.51554 17.6052 10.419 15.8805L8.13988 13.6014C6.70262 15.9627 5.90186 18.755 5.90186 21.6912C5.90186 29.3908 11.4045 35.8379 18.6935 37.2546C18.5703 36.4949 18.5908 35.6942 18.7961 34.9139C18.8577 34.647 18.9604 34.4006 19.063 34.1337C13.3345 32.9018 9.02275 27.7893 9.02275 21.6912H9.00222Z" fill="#0055FF"/>
<path id="Vector_2" d="M21.7528 8.96125C27.8304 8.96125 32.9224 13.2525 34.1954 18.9605C35.1399 18.5088 36.2076 18.3445 37.2752 18.4882C35.7969 11.2814 29.4114 5.84033 21.7528 5.84033C14.0943 5.84033 16.0038 6.68216 13.6221 8.07836L15.9011 10.3574C17.6464 9.45401 19.638 8.9407 21.7323 8.9407L21.7528 8.96125Z" fill="#0055FF"/>
<path id="Vector_3" d="M12.5746 18.057C12.1023 19.1863 11.856 20.4182 11.856 21.7118C11.856 27.0091 16.0445 31.3619 21.2803 31.5878C21.6909 31.3414 22.1632 31.1566 22.6559 31.0129C23.3746 30.8281 24.0932 30.7665 24.7913 30.8692V28.5285C24.7913 28.241 24.8324 27.9536 24.894 27.6661C23.9495 28.1795 22.8613 28.4669 21.7115 28.4669C17.9746 28.4669 14.9358 25.4281 14.9358 21.6913C14.9358 17.9544 14.9563 20.911 15.0385 20.5414L12.5335 18.0365L12.5746 18.057Z" fill="#0055FF"/>
<path id="Vector_4" d="M21.7529 11.8357C20.4593 11.8357 19.2274 12.0821 18.0981 12.5543L20.6031 15.0593C20.9727 14.9977 21.3628 14.9566 21.7529 14.9566C25.4692 14.9566 28.5285 17.9954 28.5285 21.7322C28.5285 25.4691 28.2616 23.8881 27.7894 24.8121C28.0768 24.73 28.4053 24.6889 28.7133 24.6889H31.0745C31.0335 24.4425 31.0335 24.1961 31.0335 23.9497C31.0335 23.0669 31.2388 22.184 31.6495 21.4243C31.4852 16.1269 27.1323 11.8562 21.7734 11.8562L21.7529 11.8357Z" fill="#0055FF"/>
<path id="Vector_5" d="M18.1186 20.2745C17.9543 20.7262 17.8312 21.1985 17.8312 21.6912C17.8312 23.8471 19.5764 25.5924 21.7323 25.5924C23.8882 25.5924 25.6334 23.8471 25.6334 21.6912C25.6334 19.5353 23.8882 17.7901 21.7323 17.7901C19.5764 17.7901 20.7467 17.8927 20.3156 18.0775L9.82356 7.58553V4.36198C9.82356 4.05399 9.70038 3.74601 9.47452 3.54068L6.27147 0.337653C5.94295 0.00913659 5.42965 -0.0935398 4.99847 0.0912507C4.5673 0.276041 4.27984 0.707229 4.27984 1.17947V4.27984H1.17947C0.707232 4.27984 0.276044 4.56729 0.0912539 4.99847C-0.0935366 5.42965 0.00912732 5.94295 0.337644 6.27146L3.54069 9.47452C3.76654 9.70037 4.05399 9.82356 4.36198 9.82356H7.58554L18.0775 20.3155L18.1186 20.2745Z" fill="#0055FF"/>
<path id="Vector_6" d="M38.2196 33.8874L35.5504 36.5566L34.647 35.6532C34.1952 35.2015 33.415 35.2015 32.9633 35.6532C32.5116 36.1049 32.5116 36.8646 32.9633 37.3368L34.7085 39.082C34.9344 39.3079 35.2219 39.4311 35.5504 39.4311C35.8789 39.4311 36.1663 39.3079 36.3922 39.082L39.9032 35.571C40.1291 35.3452 40.2523 35.0577 40.2523 34.7292C40.2523 34.4007 40.1291 34.1132 39.9032 33.8874C39.4515 33.4357 38.6713 33.4357 38.2196 33.8874Z" fill="#FF7043"/>
<path id="Vector_7" d="M51.9151 35.5094C51.6481 34.4212 50.8063 33.5999 49.7181 33.3125C49.0816 33.1482 48.4656 33.1893 47.9113 33.3741C47.2132 33.5999 46.5151 33.7642 45.7964 33.8874V28.549C45.7964 27.7277 45.1189 27.0296 44.2771 27.0296H38.9592C39.0824 26.311 39.2466 25.5923 39.4725 24.9148C39.6573 24.3604 39.6983 23.7444 39.5136 23.1079C39.2261 22.0197 38.4048 21.1984 37.3166 20.911C35.2223 20.3771 33.3539 21.9376 33.3539 23.9292C33.3539 25.9208 33.4155 24.5862 33.4976 24.9148C33.7235 25.6129 33.8877 26.3315 34.0109 27.0501H28.652C27.8102 27.0501 27.1326 27.7277 27.1326 28.5695V33.9079C26.414 33.7847 25.7159 33.6205 25.0383 33.3946C24.4839 33.2098 23.868 33.1687 23.2315 33.333C22.1433 33.6205 21.322 34.4417 21.0345 35.5299C20.5007 37.6242 22.0611 39.4927 24.0528 39.4927C26.0444 39.4927 24.7098 39.4311 25.0178 39.3284C25.7159 39.1026 26.414 38.9383 27.1326 38.8151V44.1535C27.1326 44.9953 27.8102 45.6729 28.652 45.6729H44.236C45.0573 45.6729 45.7554 44.9953 45.7554 44.1535V38.8151C46.474 38.9383 47.1926 39.1026 47.8907 39.3284C48.1987 39.4311 48.5272 39.4927 48.8763 39.4927C50.8679 39.4927 52.4284 37.6242 51.8945 35.5299L51.9151 35.5094ZM36.5158 42.4288C33.1486 42.4288 30.3972 39.698 30.3972 36.3102C30.3972 32.9224 33.128 30.1915 36.5158 30.1915C39.9037 30.1915 42.6345 32.9224 42.6345 36.3102C42.6345 39.698 39.9037 42.4288 36.5158 42.4288Z" fill="#FF7043"/>
</g>
</svg>
