<svg width="52" height="46" viewBox="0 0 52 46" fill="none" xmlns="http://www.w3.org/2000/svg">
<g id="Group">
<path id="Vector" d="M42.505 33.3399H20.1336V29.263C19.8852 29.2423 19.6369 29.1802 19.4092 29.0974L17.8364 28.58V34.4781C17.8364 35.099 18.3538 35.6371 18.9953 35.6371H30.1914V43.3356H27.2941C26.6526 43.3356 26.1352 43.853 26.1352 44.4946C26.1352 45.1361 26.6526 45.6535 27.2941 45.6535H35.3859C36.0274 45.6535 36.5448 45.1361 36.5448 44.4946C36.5448 43.853 36.0274 43.3356 35.3859 43.3356H32.4886V35.6371H43.6846C44.3262 35.6371 44.8435 35.1197 44.8435 34.4781V25.8069C44.1192 26.3657 43.3535 26.8623 42.5257 27.2555V33.3399H42.505Z" fill="#0055FF"/>
<path id="Vector_2" d="M20.1338 21.4195V9.27146H24.7488C25.1627 8.44366 25.6594 7.67794 26.2388 6.95361H18.9748C18.3333 6.95361 17.8159 7.47099 17.8159 8.11254V19.4742L19.1197 21.0884L20.1338 21.4195Z" fill="#0055FF"/>
<path id="Vector_3" d="M22.2448 26.0758C22.5553 25.1445 22.0379 24.1512 21.1066 23.8408L17.9403 22.806L15.3534 19.619C14.4221 18.4807 13.0562 17.8185 11.5869 17.8185H8.13077C4.05383 17.8185 0.970269 24.7927 0.121769 26.9243C-0.230047 27.8349 0.20456 28.8697 1.11514 29.2215C1.3221 29.3043 1.54973 29.3457 1.77738 29.3457C2.48101 29.3457 3.14326 28.9318 3.43299 28.2281C4.15732 26.407 5.15069 24.6065 6.08197 23.3027L5.83361 30.2355L3.03977 43.2528C2.81213 44.3082 3.49508 45.3637 4.55053 45.5913C4.69539 45.612 4.81956 45.6327 4.96443 45.6327C5.87502 45.6327 6.7028 44.9912 6.88906 44.0806L9.66221 31.2082H10.4279V43.6667C10.4279 44.7635 11.3178 45.6327 12.394 45.6327C13.4701 45.6327 14.36 44.7428 14.36 43.6667V30.4011L14.1323 23.7373L15.5189 25.4343C15.7259 25.7033 16.0156 25.8896 16.3467 26.0137L20.0098 27.1934C20.941 27.5038 21.9551 26.9864 22.2448 26.0551V26.0758Z" fill="#0055FF"/>
<path id="Vector_4" d="M10.9999 16.5687C13.1244 16.0665 14.4395 13.9371 13.9373 11.8126C13.4351 9.68813 11.3057 8.373 9.18122 8.87521C7.05672 9.37742 5.7416 11.5068 6.24381 13.6313C6.74602 15.7558 8.87538 17.0709 10.9999 16.5687Z" fill="#0055FF"/>
<path id="Vector_5" d="M44.6784 11.2582C45.3199 12.4999 45.6717 13.8865 45.6717 15.3765C45.6717 20.3434 41.6362 24.3996 36.6694 24.3996C31.7025 24.3996 27.6463 20.3641 27.6463 15.3765C27.6463 10.389 31.6819 6.35347 36.6694 6.35347C41.6569 6.35347 39.5667 6.72598 40.7877 7.34684L42.4019 5.73262C40.7256 4.73925 38.7596 4.15979 36.6694 4.15979C30.4815 4.15979 25.4526 9.1887 25.4526 15.3765C25.4526 21.5644 30.4815 26.5933 36.6694 26.5933C42.8572 26.5933 47.8654 21.5644 47.8654 15.3765C47.8654 9.1887 47.286 11.3203 46.2719 9.64399L44.6577 11.2582H44.6784Z" fill="#0055FF"/>
<path id="Vector_6" d="M36.6692 10.5752C36.9383 10.5752 37.228 10.5958 37.4764 10.6579L39.2561 8.87815C38.449 8.54703 37.5798 8.38147 36.6692 8.38147C32.82 8.38147 29.6743 11.5064 29.6743 15.3557C29.6743 19.205 32.7993 22.3507 36.6692 22.3507C40.5392 22.3507 43.6435 19.2257 43.6435 15.3557C43.6435 11.4857 43.4779 13.5759 43.1468 12.7688L41.3671 14.5486C41.4291 14.8176 41.4498 15.0867 41.4498 15.3557C41.4498 18.0047 39.2975 20.157 36.6692 20.157C34.041 20.157 31.868 18.0047 31.868 15.3557C31.868 12.7067 34.0203 10.5752 36.6692 10.5752Z" fill="#0055FF"/>
<path id="Vector_7" d="M51.9633 3.53886C51.8392 3.22844 51.5287 3.02149 51.1976 3.02149H49.0039V0.827805C49.0039 0.496683 48.797 0.186256 48.4865 0.0620852C48.1761 -0.0620854 47.8243 2.22034e-07 47.5967 0.248342L45.3409 2.50411C45.196 2.64897 45.0926 2.87662 45.0926 3.08357V5.36003L37.663 12.7896C37.3526 12.6654 37.0215 12.5826 36.6489 12.5826C35.1175 12.5826 33.8965 13.8243 33.8965 15.3351C33.8965 16.8458 35.1382 18.0875 36.6489 18.0875C38.1597 18.0875 39.4014 16.8458 39.4014 15.3351C39.4014 13.8243 39.3186 14.6314 39.2151 14.321L46.6447 6.89147H48.9212C49.1488 6.89147 49.3557 6.80869 49.5006 6.64313L51.7564 4.38736C51.984 4.15972 52.0668 3.78721 51.9426 3.49747L51.9633 3.53886Z" fill="#FF7043"/>
</g>
</svg>
