<svg width="53" height="47" viewBox="0 0 53 47" fill="none" xmlns="http://www.w3.org/2000/svg">
<g id="Group">
<path id="Vector" d="M15.7653 10.2497C17.6522 8.36281 17.6523 5.3035 15.7653 3.41658C13.8784 1.52966 10.8191 1.52966 8.93217 3.41658C7.04525 5.3035 7.04529 8.36279 8.93221 10.2497C10.8191 12.1366 13.8784 12.1366 15.7653 10.2497Z" fill="#0055FF"/>
<path id="Vector_2" d="M25.7958 20.281L21.9264 19.0179L18.7587 15.1084C17.636 13.7251 15.9519 12.9231 14.1675 12.9231H9.93722C4.96512 12.9231 1.19594 21.4438 0.153402 24.0502C-0.287671 25.1729 0.253666 26.4159 1.3764 26.877C1.63703 26.9773 1.91772 27.0374 2.17835 27.0374C3.04045 27.0374 3.86247 26.5162 4.2033 25.6741C5.08544 23.4487 6.30839 21.2433 7.43112 19.6394L7.13039 28.1201L3.70208 44.0388C3.42139 45.342 4.24338 46.6251 5.54656 46.9058C5.72699 46.9459 5.88739 46.966 6.04778 46.966C7.17051 46.966 8.15289 46.1841 8.39347 45.0613L11.7617 29.3431H12.704V44.5601C12.704 45.8833 13.7866 46.966 15.1098 46.966C16.433 46.966 17.5157 45.8833 17.5157 44.5601V28.3406L17.235 20.1808L18.9191 22.2658C19.1797 22.5866 19.5406 22.8272 19.9416 22.9675L24.4325 24.4111C25.5753 24.792 26.7983 24.1504 27.1592 23.0076C27.52 21.8649 26.8985 20.6419 25.7557 20.281H25.7958Z" fill="#0055FF"/>
<g id="Group_2">
<path id="Vector_3" d="M33.7754 15.5094C31.3696 15.5094 29.4248 17.4541 29.4248 19.86C29.4248 22.2658 31.3696 24.2106 33.7754 24.2106C36.1813 24.2106 38.126 22.2658 38.126 19.86C38.126 17.4541 36.1813 15.5094 33.7754 15.5094ZM36.0209 19.3989L33.8155 21.6042C33.6551 21.7646 33.4747 21.8248 33.2742 21.8248C33.0737 21.8248 32.8732 21.7446 32.7329 21.6042L31.5299 20.4013C31.2292 20.1006 31.2292 19.6194 31.5299 19.3187C31.8307 19.0179 32.3119 19.0179 32.6126 19.3187L33.2742 19.9803L34.9382 18.3162C35.239 18.0155 35.7202 18.0155 36.0209 18.3162C36.3216 18.617 36.3216 19.0981 36.0209 19.3989Z" fill="#FF7043"/>
<path id="Vector_4" d="M41.7752 18.637H51.6392C52.3209 18.637 52.8823 19.1983 52.8823 19.88C52.8823 20.5617 52.3209 21.123 51.6392 21.123H41.7752C41.0936 21.123 40.5322 20.5617 40.5322 19.88C40.5322 19.1983 41.0936 18.637 41.7752 18.637Z" fill="#FF7043"/>
</g>
<g id="Group_3">
<path id="Vector_5" d="M33.7754 4.2218C31.3696 4.2218 29.4248 6.16655 29.4248 8.5724C29.4248 10.9783 31.3696 12.923 33.7754 12.923C36.1813 12.923 38.126 10.9783 38.126 8.5724C38.126 6.16655 36.1813 4.2218 33.7754 4.2218ZM36.0209 8.11127L33.8155 10.3166C33.6551 10.477 33.4747 10.5372 33.2742 10.5372C33.0737 10.5372 32.8732 10.457 32.7329 10.3166L31.5299 9.11371C31.2292 8.81298 31.2292 8.3318 31.5299 8.03107C31.8307 7.73034 32.3119 7.73034 32.6126 8.03107L33.2742 8.69269L34.9382 7.02863C35.239 6.7279 35.7202 6.7279 36.0209 7.02863C36.3216 7.32936 36.3216 7.81054 36.0209 8.11127Z" fill="#FF7043"/>
<path id="Vector_6" d="M41.7752 7.34937H51.6392C52.3209 7.34937 52.8823 7.91072 52.8823 8.59238C52.8823 9.27404 52.3209 9.8354 51.6392 9.8354H41.7752C41.0936 9.8354 40.5322 9.27404 40.5322 8.59238C40.5322 7.91072 41.0936 7.34937 41.7752 7.34937Z" fill="#FF7043"/>
</g>
<g id="Group_4">
<path id="Vector_7" d="M33.7754 26.8169C31.3696 26.8169 29.4248 28.7616 29.4248 31.1675C29.4248 33.5733 31.3696 35.5181 33.7754 35.5181C36.1813 35.5181 38.126 33.5733 38.126 31.1675C38.126 28.7616 36.1813 26.8169 33.7754 26.8169ZM36.0209 30.6863L33.8155 32.8917C33.6551 33.0521 33.4747 33.1122 33.2742 33.1122C33.0737 33.1122 32.8732 33.032 32.7329 32.8917L31.5299 31.6887C31.2292 31.388 31.2292 30.9069 31.5299 30.6061C31.8307 30.3054 32.3119 30.3054 32.6126 30.6061L33.2742 31.2677L34.9382 29.6037C35.239 29.3029 35.7202 29.3029 36.0209 29.6037C36.3216 29.9044 36.3216 30.3856 36.0209 30.6863Z" fill="#FF7043"/>
<path id="Vector_8" d="M51.6188 29.9246H41.7547C41.0731 29.9246 40.5117 30.4859 40.5117 31.1676C40.5117 31.8492 41.0731 32.4106 41.7547 32.4106H51.6188C52.3004 32.4106 52.8618 31.8492 52.8618 31.1676C52.8618 30.4859 52.3004 29.9246 51.6188 29.9246Z" fill="#FF7043"/>
</g>
<g id="Group_5">
<path id="Vector_9" d="M33.7754 38.1042C31.3696 38.1042 29.4248 40.049 29.4248 42.4549C29.4248 44.8607 31.3696 46.8054 33.7754 46.8054C36.1813 46.8054 38.126 44.8607 38.126 42.4549C38.126 40.049 36.1813 38.1042 33.7754 38.1042ZM36.0209 41.9937L33.8155 44.1991C33.6551 44.3595 33.4747 44.4196 33.2742 44.4196C33.0737 44.4196 32.8732 44.3394 32.7329 44.1991L31.5299 42.9962C31.2292 42.6954 31.2292 42.2143 31.5299 41.9135C31.8307 41.6128 32.3119 41.6128 32.6126 41.9135L33.2742 42.5751L34.9382 40.9111C35.239 40.6103 35.7202 40.6103 36.0209 40.9111C36.3216 41.2118 36.3216 41.693 36.0209 41.9937Z" fill="#FF7043"/>
<path id="Vector_10" d="M41.7752 41.2319H51.6392C52.3209 41.2319 52.8823 41.7933 52.8823 42.4749C52.8823 43.1566 52.3209 43.718 51.6392 43.718H41.7752C41.0936 43.718 40.5322 43.1566 40.5322 42.4749C40.5322 41.7933 41.0936 41.2319 41.7752 41.2319Z" fill="#FF7043"/>
</g>
</g>
</svg>
