<svg width="54" height="46" viewBox="0 0 54 46" fill="none" xmlns="http://www.w3.org/2000/svg">
<g id="Group">
<path id="Vector" d="M8.31346 20.5597C11.1808 20.5597 13.5029 18.2376 13.5029 15.3501C13.5029 12.4626 11.1808 10.1606 8.31346 10.1606C5.44614 10.1606 3.12402 12.4828 3.12402 15.3501C3.12402 18.2174 5.44614 20.5597 8.31346 20.5597Z" fill="#0055FF"/>
<path id="Vector_2" d="M16.6332 30.454L16.1889 26.7992C15.886 24.3155 14.0687 22.377 11.7264 21.8116L9.40426 27.6271L8.89945 23.427H9.24271C9.44463 23.427 9.60618 23.2655 9.60618 23.0636V21.9328C9.60618 21.7309 9.44463 21.5693 9.24271 21.5693H7.40523C7.20331 21.5693 7.04176 21.7309 7.04176 21.9328V23.0636C7.04176 23.2655 7.20331 23.427 7.40523 23.427H7.74849L7.24368 27.6271L4.92155 21.8116C2.57923 22.377 0.761897 24.3155 0.459011 26.7992L0.0147875 30.454C-0.126559 31.6655 0.761897 32.7559 1.97344 32.8367C2.17537 32.8367 2.3975 32.8771 2.59943 32.8771C6.61772 33.18 10.6764 33.18 14.6947 32.8367C15.9062 32.7357 16.7947 31.6655 16.6332 30.454Z" fill="#0055FF"/>
<path id="Vector_3" d="M45.1855 20.5597C48.0529 20.5597 50.375 18.2376 50.375 15.3501C50.375 12.4626 48.0529 10.1606 45.1855 10.1606C42.3182 10.1606 39.9961 12.4828 39.9961 15.3501C39.9961 18.2174 42.3182 20.5597 45.1855 20.5597Z" fill="#0055FF"/>
<path id="Vector_4" d="M53.06 26.7992C52.7571 24.3155 50.9398 22.377 48.5975 21.8116L46.2754 27.6271L45.7705 23.427H46.1138C46.3157 23.427 46.4773 23.2655 46.4773 23.0636V21.9328C46.4773 21.7309 46.3157 21.5693 46.1138 21.5693H44.2763C44.0743 21.5693 43.9128 21.7309 43.9128 21.9328V23.0636C43.9128 23.2655 44.0743 23.427 44.2763 23.427H44.6196L44.1148 27.6271L41.7926 21.8116C39.4503 22.377 37.633 24.3155 37.3301 26.7992L36.8859 30.454C36.7445 31.6655 37.633 32.7559 38.8445 32.8367C39.0465 32.8367 39.2686 32.8771 39.4705 32.8771C43.4888 33.18 47.5475 33.18 51.5658 32.8367C52.7773 32.7357 53.6658 31.6655 53.5042 30.454L53.06 26.7992Z" fill="#0055FF"/>
<path id="Vector_5" d="M14.533 9.23176C15.1993 9.63561 16.0474 9.47407 16.5118 8.88849C18.7531 6.00097 22.1859 4.20385 25.9215 3.94135C26.2042 3.94135 26.507 3.92116 26.8099 3.92116C29.334 3.92116 31.858 4.66828 33.9782 6.04136L34.5436 6.40482L31.8984 6.58655C31.4744 6.60674 31.1109 6.80867 30.8282 7.11156C30.5657 7.43464 30.4244 7.81829 30.4446 8.24233C30.4647 8.66637 30.6667 9.02983 30.9696 9.31252C31.2725 9.59522 31.6763 9.71638 32.1004 9.69618L38.2388 9.27215C39.0869 9.21157 39.7533 8.46445 39.6927 7.61637L39.2687 1.45768C39.2081 0.609601 38.4609 -0.0567508 37.6129 0.00382646C36.7648 0.0644037 36.0984 0.811525 36.159 1.65961L36.3004 3.86057L35.9167 3.59807C32.9282 1.55864 29.2936 0.569214 25.6792 0.811523C21.0955 1.1346 16.8551 3.35577 14.0483 6.90963C13.7858 7.2529 13.6647 7.69713 13.7454 8.14137C13.8262 8.5856 14.0887 8.96925 14.4926 9.21156L14.533 9.23176Z" fill="#0055FF"/>
<path id="Vector_6" d="M38.9662 36.2896C38.2999 35.8858 37.4518 36.0473 36.9874 36.6329C34.7258 39.5204 31.3133 41.3175 27.5777 41.58C24.7508 41.782 21.9036 41.0348 19.5209 39.48L18.9555 39.1165L21.6008 38.9348C22.0248 38.9146 22.3882 38.7127 22.6709 38.4098C22.9334 38.0867 23.0748 37.7031 23.0546 37.279C22.994 36.4512 22.3075 35.8252 21.4998 35.8252C20.6921 35.8252 21.4392 35.8252 21.3988 35.8252L15.2603 36.2492C14.4122 36.3098 13.7661 37.0569 13.8065 37.905L14.2305 44.0435C14.2911 44.8916 15.0584 45.5579 15.8863 45.4974C16.7344 45.4368 17.3805 44.6897 17.3402 43.8416L17.1988 41.6406L17.5825 41.9031C20.5709 43.9425 24.2056 44.932 27.82 44.6897C32.4037 44.3666 36.6441 42.1454 39.4508 38.5915C39.7133 38.2483 39.8345 37.804 39.7537 37.3598C39.673 36.9156 39.4105 36.5319 39.0066 36.2896H38.9662Z" fill="#0055FF"/>
<path id="Vector_7" d="M25.8612 31.7261H27.6381C27.9612 31.7261 28.2439 31.4636 28.2439 31.1203V29.4847C30.2429 29.0607 31.7372 27.4655 31.9189 25.527C32.04 24.2347 31.6362 23.0029 30.7679 22.0539C29.9198 21.1048 28.6881 20.5799 27.416 20.5799H26.0631C25.639 20.5799 25.215 20.3981 24.9323 20.075C24.6295 19.752 24.5083 19.3279 24.5487 18.8837C24.6294 18.1164 25.3362 17.5106 26.1843 17.5106H27.7593C28.2237 17.5106 28.6275 17.8337 28.7285 18.2981C28.7891 18.5606 29.0314 18.7625 29.3141 18.7625H31.1112C31.2727 18.7625 31.4545 18.6818 31.5554 18.5606C31.6564 18.4395 31.717 18.2779 31.6968 18.1164C31.5151 16.2587 30.0612 14.8048 28.2237 14.5827V13.0279C28.2237 12.7048 27.9612 12.4221 27.6179 12.4221H25.841C25.5179 12.4221 25.2352 12.6846 25.2352 13.0279V14.6231C22.9333 15.0471 21.3179 17.1471 21.5602 19.5097C21.7823 21.7914 23.842 23.5683 26.2449 23.5683H27.416C27.84 23.5683 28.2641 23.7501 28.5468 24.0731C28.8497 24.3962 28.9708 24.8203 28.9304 25.2645C28.8496 26.0318 28.1429 26.6376 27.2948 26.6376H25.7198C25.2554 26.6376 24.8515 26.3145 24.7506 25.8501C24.69 25.5876 24.4477 25.4058 24.165 25.4058H22.3679C22.2063 25.4058 22.0246 25.4866 21.9236 25.6078C21.8227 25.7289 21.7621 25.8905 21.7823 26.052C21.964 27.9097 23.4179 29.3636 25.2554 29.5857V31.1405C25.2554 31.4636 25.5179 31.7462 25.8612 31.7462V31.7261Z" fill="#FF7043"/>
</g>
</svg>
