<svg width="200" height="38" viewBox="0 0 200 38" fill="none" xmlns="http://www.w3.org/2000/svg">
<g id="Group 55">
<g id="Group 34">
<g id="Group 16">
<path id="fidustria" d="M171.252 14.187V18.2346H170.274C167.95 18.2346 165.668 19.1152 163.429 20.8762V37.4502H157.732V14.187H163.429V16.0191C165.6 14.4852 167.893 14.187 170.274 14.187H171.252Z" fill="white"/>
<path id="fidustria_2" d="M120.892 14.187V37.455H115.195V34.6948C113.041 36.5127 110.731 37.4217 108.265 37.4217C105.204 37.4217 102.922 36.6406 101.42 35.0783C99.9459 33.4877 99.209 30.9313 99.209 27.4091V14.187H104.906V27.4091C104.906 29.1134 105.232 30.349 105.884 31.1159C106.564 31.8828 107.726 32.2663 109.37 32.2663C111.298 32.2663 113.239 31.4426 115.195 29.7951V14.187H120.892Z" fill="white"/>
<g id="fidustria_3">
<path d="M52.4367 12.0758V19.3865H64.8512V24.5419H52.4367V37.4943H46.5271V6.55078H66.977V12.0758H52.4367Z" fill="white"/>
<path d="M52.4367 12.0758V19.3865H64.8512V24.5419H52.4367V37.4943H46.5271V6.55078H66.977V12.0758H52.4367Z" fill="white"/>
</g>
<path id="fidustria_4" d="M150.497 18.8382V29.6177C150.497 30.6403 150.592 31.5772 150.932 31.9749C151.272 32.3725 151.998 32.9182 152.905 32.9182C153.812 32.9182 155.472 32.9182 155.472 32.9182V37.4999C155.472 37.4999 152.524 37.4999 151.475 37.4999C149.123 37.4999 147.422 37.0028 146.373 36.0087C145.325 35.0145 144.8 33.4807 144.8 31.4072V18.8382H141.654V14.2319H144.8V6.55078H150.497V14.2226H155.939V18.8382H150.497Z" fill="white"/>
<path id="fidustria_5" d="M131.292 37.455C129.612 37.455 128.243 37.4999 126.834 37.455H122.685V32.8733H126.809C126.809 32.8733 129.741 32.8733 131.292 32.8733C133.49 32.8733 134.588 32.2354 134.588 30.6552C134.588 29.9817 134.394 29.4896 134.006 29.1787C133.645 28.842 133.063 28.57 132.262 28.3627L129.082 27.6633C127.092 27.223 125.58 26.5106 124.546 25.5262C123.538 24.516 123.034 23.0783 123.034 21.2132C123.034 16.7059 125.858 14.187 131.467 14.187C133.923 14.187 139.09 14.187 139.09 14.187V18.7687H135.594C135.594 18.7687 133.038 18.7687 131.694 18.7687C129.445 18.7687 128.307 19.5554 128.307 20.9024C128.307 21.5241 128.488 21.9774 128.85 22.2623C129.237 22.5473 129.806 22.7804 130.556 22.9617L133.696 23.6612C135.79 24.1533 137.341 24.8916 138.349 25.8759C139.357 26.8603 139.861 28.3757 139.861 30.4221C139.861 32.7275 139.086 34.4761 137.535 35.6677C135.984 36.8592 133.903 37.455 131.292 37.455Z" fill="white"/>
<path id="fidustria_6" d="M97.4161 6.55078V37.4101H92.1856V35.0239C90.2078 36.6147 88.1781 37.4101 86.0963 37.4101C83.1297 37.4101 80.7487 36.4191 78.9531 34.4371C77.1575 32.4552 76.2598 29.5735 76.2598 25.7922C76.2598 23.2887 76.6761 21.1763 77.5088 19.4551C78.3416 17.7079 79.4996 16.404 80.9829 15.5434C82.4661 14.6828 84.1706 14.2525 86.0963 14.2525C88.2041 14.2525 90.2339 15.0348 92.1856 16.5995V6.55078H97.4161ZM87.1112 32.6769C88.8286 32.6769 90.5201 32.0119 92.1856 30.6819V20.9416C90.4681 19.6116 88.7766 18.9466 87.1112 18.9466C85.3156 18.9466 83.9624 19.5334 83.0516 20.7069C82.1409 21.8804 81.6855 23.5755 81.6855 25.7922C81.6855 28.061 82.1409 29.7822 83.0516 30.9557C83.9624 32.1031 85.3156 32.6769 87.1112 32.6769Z" fill="white"/>
<g id="fidustria_7">
<path fill-rule="evenodd" clip-rule="evenodd" d="M74.4668 6.46094H68.7698V11.986H74.4668V6.46094Z" fill="white"/>
<path d="M68.7698 14.1421H74.4668V37.4494H68.7698V14.1421Z" fill="white"/>
</g>
<g id="fidustria_8">
<path d="M173.045 14.1421H178.742V37.4494H173.045V14.1421Z" fill="white"/>
<path d="M173.045 6.46094H178.742V11.986H173.045V6.46094Z" fill="white"/>
</g>
<path id="fidustria_9" d="M190.41 14.187C193.092 14.187 195.124 14.5943 196.505 15.4087C197.914 16.1961 198.849 17.2685 199.309 18.626C199.77 19.9563 200 21.6396 200 23.6759V37.4815H194.555V34.8751C193.552 35.7982 192.563 36.4634 191.588 36.8706C190.64 37.2779 189.597 37.4815 188.459 37.4815C186.075 37.4815 184.151 36.8028 182.688 35.4453C181.253 34.0606 180.535 32.1737 180.535 29.7846C180.535 27.3411 181.28 25.4542 182.77 24.1238C184.287 22.7663 186.359 22.0876 188.987 22.0876C191.127 22.0876 192.983 22.5084 194.555 23.3501C194.527 22.3184 194.392 21.4903 194.148 20.8659C193.931 20.2414 193.484 19.7663 192.807 19.4405C192.13 19.0875 191.127 18.9111 189.8 18.9111H185.98V14.187H190.41ZM189.434 33.124C191.087 33.124 192.794 32.3638 194.555 30.8434V27.2596C193.119 26.5266 191.642 26.1601 190.125 26.1601C188.933 26.1601 187.958 26.4451 187.199 27.0153C186.441 27.5583 186.061 28.4542 186.061 29.7031C186.061 30.9248 186.373 31.8072 186.996 32.3502C187.646 32.8661 188.459 33.124 189.434 33.124Z" fill="white"/>
</g>
</g>
<g id="Group">
<path id="Vector" d="M31.0508 0L0 30.1976V37.2887H8.12397L26.5526 19.7599H26.5592V37.4192H37.3065V0H31.0508Z" fill="white"/>
<path id="Vector_2" d="M19.9324 0.0322266H0V10.8092H19.9324V0.0322266Z" fill="white"/>
</g>
</g>
</svg>
