<svg width="200" height="38" viewBox="0 0 200 38" fill="none" xmlns="http://www.w3.org/2000/svg">
<g id="Group 53">
<g id="Group 34">
<g id="Group 16">
<path id="fidustria" d="M171.252 14.1871V18.2347H170.274C167.95 18.2347 165.668 19.1153 163.429 20.8763V37.4503H157.732V14.1871H163.429V16.0192C165.6 14.4853 167.893 14.1871 170.274 14.1871H171.252Z" fill="#333333"/>
<path id="fidustria_2" d="M120.892 14.1871V37.4551H115.195V34.6949C113.041 36.5128 110.731 37.4218 108.265 37.4218C105.204 37.4218 102.922 36.6406 101.42 35.0784C99.9459 33.4878 99.209 30.9314 99.209 27.4092V14.1871H104.906V27.4092C104.906 29.1135 105.232 30.3491 105.884 31.116C106.564 31.8829 107.726 32.2664 109.37 32.2664C111.298 32.2664 113.239 31.4426 115.195 29.7952V14.1871H120.892Z" fill="#333333"/>
<g id="fidustria_3">
<path d="M52.4367 12.0759V19.3866H64.8512V24.542H52.4367V37.4944H46.5271V6.5509H66.977V12.0759H52.4367Z" fill="#333333"/>
<path d="M52.4367 12.0759V19.3866H64.8512V24.542H52.4367V37.4944H46.5271V6.5509H66.977V12.0759H52.4367Z" fill="#333333"/>
</g>
<path id="fidustria_4" d="M150.497 18.8384V29.6178C150.497 30.6404 150.592 31.5773 150.932 31.975C151.272 32.3727 151.998 32.9183 152.905 32.9183C153.812 32.9183 155.472 32.9183 155.472 32.9183V37.5C155.472 37.5 152.524 37.5 151.475 37.5C149.123 37.5 147.422 37.003 146.373 36.0088C145.325 35.0146 144.8 33.4808 144.8 31.4073V18.8384H141.654V14.232H144.8V6.5509H150.497V14.2228H155.939V18.8384H150.497Z" fill="#333333"/>
<path id="fidustria_5" d="M131.292 37.4551C129.612 37.4551 128.243 37.5 126.834 37.4551H122.685V32.8734H126.809C126.809 32.8734 129.741 32.8734 131.292 32.8734C133.49 32.8734 134.588 32.2355 134.588 30.6553C134.588 29.9818 134.394 29.4896 134.006 29.1788C133.645 28.842 133.063 28.57 132.262 28.3628L129.082 27.6634C127.092 27.223 125.58 26.5107 124.546 25.5263C123.538 24.5161 123.034 23.0784 123.034 21.2133C123.034 16.706 125.858 14.1871 131.467 14.1871C133.923 14.1871 139.09 14.1871 139.09 14.1871V18.7688H135.594C135.594 18.7688 133.038 18.7688 131.694 18.7688C129.445 18.7688 128.307 19.5555 128.307 20.9025C128.307 21.5242 128.488 21.9775 128.85 22.2624C129.237 22.5474 129.806 22.7805 130.556 22.9618L133.696 23.6612C135.79 24.1534 137.341 24.8917 138.349 25.876C139.357 26.8604 139.861 28.3758 139.861 30.4222C139.861 32.7276 139.086 34.4762 137.535 35.6677C135.984 36.8593 133.903 37.4551 131.292 37.4551Z" fill="#333333"/>
<path id="fidustria_6" d="M97.4161 6.5509V37.4102H92.1856V35.024C90.2078 36.6148 88.1781 37.4102 86.0963 37.4102C83.1297 37.4102 80.7487 36.4192 78.9531 34.4373C77.1575 32.4553 76.2598 29.5737 76.2598 25.7923C76.2598 23.2888 76.6761 21.1764 77.5088 19.4552C78.3416 17.708 79.4996 16.4041 80.9829 15.5435C82.4661 14.6829 84.1706 14.2526 86.0963 14.2526C88.2041 14.2526 90.2339 15.0349 92.1856 16.5997V6.5509H97.4161ZM87.1112 32.677C88.8286 32.677 90.5201 32.012 92.1856 30.682V20.9417C90.4681 19.6117 88.7766 18.9467 87.1112 18.9467C85.3156 18.9467 83.9624 19.5335 83.0516 20.707C82.1409 21.8805 81.6855 23.5756 81.6855 25.7923C81.6855 28.0611 82.1409 29.7823 83.0516 30.9558C83.9624 32.1032 85.3156 32.677 87.1112 32.677Z" fill="#333333"/>
<g id="fidustria_7">
<path fill-rule="evenodd" clip-rule="evenodd" d="M74.4668 6.46108H68.7698V11.9861H74.4668V6.46108Z" fill="#333333"/>
<path d="M68.7698 14.1422H74.4668V37.4495H68.7698V14.1422Z" fill="#333333"/>
</g>
<g id="fidustria_8">
<path d="M173.045 14.1422H178.742V37.4495H173.045V14.1422Z" fill="#333333"/>
<path d="M173.045 6.46108H178.742V11.9861H173.045V6.46108Z" fill="#333333"/>
</g>
<path id="fidustria_9" d="M190.41 14.1871C193.092 14.1871 195.124 14.5943 196.505 15.4088C197.914 16.1962 198.849 17.2686 199.309 18.6261C199.77 19.9564 200 21.6397 200 23.6759V37.4816H194.555V34.8752C193.552 35.7983 192.563 36.4635 191.588 36.8707C190.64 37.278 189.597 37.4816 188.459 37.4816C186.075 37.4816 184.151 36.8029 182.688 35.4454C181.253 34.0607 180.535 32.1738 180.535 29.7846C180.535 27.3412 181.28 25.4543 182.77 24.1239C184.287 22.7664 186.359 22.0877 188.987 22.0877C191.127 22.0877 192.983 22.5085 194.555 23.3501C194.527 22.3185 194.392 21.4904 194.148 20.8659C193.931 20.2415 193.484 19.7664 192.807 19.4406C192.13 19.0876 191.127 18.9112 189.8 18.9112H185.98V14.1871H190.41ZM189.434 33.1241C191.087 33.1241 192.794 32.3639 194.555 30.8435V27.2597C193.119 26.5267 191.642 26.1601 190.125 26.1601C188.933 26.1601 187.958 26.4452 187.199 27.0154C186.441 27.5584 186.061 28.4543 186.061 29.7032C186.061 30.9249 186.373 31.8073 186.996 32.3503C187.646 32.8661 188.459 33.1241 189.434 33.1241Z" fill="#333333"/>
</g>
</g>
<g id="Group">
<path id="Vector" d="M31.0508 0L0 30.1976V37.2887H8.12397L26.5526 19.7599H26.5592V37.4192H37.3065V0H31.0508Z" fill="#0055FF"/>
<path id="Vector_2" d="M19.9324 0.0324554H0V10.8094H19.9324V0.0324554Z" fill="#0055FF"/>
</g>
</g>
</svg>
