<svg width="20" height="20" viewBox="0 0 20 20" fill="none" xmlns="http://www.w3.org/2000/svg">
<mask id="mask0_296_3041" style="mask-type:luminance" maskUnits="userSpaceOnUse" x="0" y="0" width="20" height="20">
<path d="M16.4257 0H3.57427C1.60027 0 0 1.60024 0 3.57423V16.4257C0 18.3997 1.60027 20 3.57427 20H16.4257C18.3997 20 20 18.3997 20 16.4257V3.57423C20 1.60024 18.3997 0 16.4257 0Z" fill="white"/>
</mask>
<g mask="url(#mask0_296_3041)">
<mask id="mask1_296_3041" style="mask-type:luminance" maskUnits="userSpaceOnUse" x="-6" y="-1" width="32" height="22">
<path d="M25.782 -0.341675H-5.41382V20.6833H25.782V-0.341675Z" fill="white"/>
</mask>
<g mask="url(#mask1_296_3041)">
<path d="M25.782 -0.341675H-5.41382V20.6833H25.782V-0.341675Z" fill="white"/>
<path d="M10.5125 17.2142C10.5125 17.2142 10.4862 17.1616 10.4599 17.1616C10.4073 17.1091 10.3548 17.0302 10.3022 16.9514C10.1971 16.82 10.092 16.6886 10.092 16.6886H10.0657C10.0657 16.6623 9.80288 16.5572 9.80288 16.5572L9.59262 16.452L9.69775 16.3206L10.0657 16.4783L10.3285 16.5309L10.8279 16.8988C10.8279 16.8988 10.749 16.9514 10.6964 17.0302C10.6702 17.0565 10.6176 17.1091 10.5913 17.1354C10.5913 17.1354 10.5913 17.1354 10.565 17.1879C10.565 17.1879 10.565 17.1879 10.565 17.2142H10.5125ZM8.67278 16.6886C8.43624 16.6886 8.19972 16.6097 7.98947 16.5046C7.98947 16.452 8.04204 16.4258 8.0946 16.3995C8.17345 16.3469 8.27857 16.2944 8.48882 16.2944C8.72535 16.2944 9.01443 16.3732 9.3298 16.5309C9.14584 16.636 8.90931 16.7148 8.67278 16.7148V16.6886ZM7.64784 16.5834C7.59527 16.5834 7.56899 16.5835 7.5427 16.5309C7.5427 16.5046 7.49012 16.4783 7.49012 16.4258C7.49012 16.3732 7.49012 16.3206 7.49012 16.2681C7.49012 16.2681 7.51642 16.2681 7.5427 16.2681C7.62155 16.2681 7.70038 16.3469 7.72666 16.4258C7.72666 16.452 7.72666 16.5046 7.72666 16.5309C7.72666 16.5572 7.67412 16.5834 7.64784 16.5834ZM9.54007 16.0841C8.9356 16.0053 8.6728 15.7687 8.56768 15.6111C8.48883 15.5059 8.46254 15.3745 8.48882 15.2694C8.5151 15.2694 8.54139 15.2694 8.59395 15.2694C8.75164 15.2694 9.17212 15.3482 9.56634 16.1104L9.54007 16.0841ZM8.19973 15.979C7.93692 15.979 7.75293 15.9264 7.62153 15.8476C7.56897 15.8213 7.5164 15.7687 7.49012 15.7162C7.49012 15.7162 7.49012 15.6636 7.49012 15.6373C7.56897 15.611 7.67409 15.5848 7.75293 15.5848C7.75293 15.5848 7.77923 15.5848 7.80552 15.5848C8.01577 15.5848 8.30485 15.6373 8.62023 15.9527C8.48882 15.9527 8.35741 15.979 8.22601 15.979H8.19973ZM6.93822 15.9264C6.67541 15.9264 6.28121 15.8476 6.07096 15.6111C6.25493 15.5585 6.43889 15.5322 6.62286 15.5322C6.62286 15.5322 6.64913 15.5322 6.67541 15.5322C6.93822 15.5322 7.12221 15.5848 7.25362 15.6899C7.2799 15.6899 7.30616 15.7424 7.33244 15.795C7.33244 15.8213 7.33245 15.8476 7.30617 15.8739C7.2536 15.9264 7.14849 15.9527 6.99081 15.9527L6.93822 15.9264ZM5.91325 15.6111C5.88697 15.6111 5.86071 15.611 5.83443 15.5585C5.83443 15.5585 5.80815 15.5059 5.80815 15.4796C5.80815 15.4271 5.80815 15.4008 5.80815 15.3482C5.80815 15.3482 5.83442 15.3482 5.8607 15.3482C5.88698 15.3482 5.93956 15.3482 5.93956 15.4008C5.96584 15.4008 5.99211 15.4534 5.99211 15.5059C5.99211 15.5322 5.99211 15.5585 5.99211 15.5848C5.99211 15.5848 5.96584 15.6373 5.93956 15.6373L5.91325 15.6111ZM8.0946 15.5848C8.04204 15.5848 8.01575 15.5848 7.98947 15.5322C7.98947 15.5059 7.93692 15.4796 7.93692 15.4271C7.93692 15.3745 7.93692 15.3219 7.93692 15.2694C7.93692 15.2694 7.96319 15.2694 7.98947 15.2694C8.06831 15.2694 8.14718 15.3482 8.17346 15.4271C8.17346 15.4534 8.17346 15.5059 8.17346 15.5322C8.17346 15.5585 8.12088 15.5848 8.0946 15.5848ZM7.12221 15.5322C6.57031 15.5322 6.28119 15.3482 6.14979 15.2168C6.09723 15.1643 6.04467 15.1117 5.99211 15.0329C5.99211 15.0066 5.99211 14.9803 5.96583 14.954C6.0184 14.954 6.04468 14.954 6.09724 14.954C6.28121 14.954 6.64912 15.0329 7.0959 15.5585L7.12221 15.5322ZM7.67411 15.6111C7.25361 15.5585 7.01707 15.3745 6.91195 15.2431C6.83311 15.1643 6.78055 15.0591 6.75427 14.954C6.80683 14.954 6.83311 14.954 6.88567 14.954C7.09592 14.954 7.46386 15.0591 7.67411 15.6373V15.6111ZM5.44021 15.2431C5.3088 15.2431 5.15112 15.2431 5.01972 15.1905C4.78319 15.138 4.67806 15.0329 4.65177 14.9803C4.65177 14.954 4.6255 14.9277 4.6255 14.9015C4.6255 14.9015 4.6255 14.9014 4.6255 14.8752C4.75691 14.8489 4.862 14.8226 4.99341 14.9277C5.09854 14.8226 5.20369 14.8226 5.28253 14.8489C5.49278 14.9015 5.70302 15.0329 5.83443 15.2694C5.70302 15.2431 5.54534 15.2694 5.41394 15.2694L5.44021 15.2431ZM6.46518 14.9015C6.41262 14.9015 6.38633 14.9015 6.36005 14.8489C6.36005 14.8226 6.30747 14.7963 6.30747 14.7438C6.30747 14.6912 6.30747 14.6386 6.30747 14.5861C6.30747 14.5861 6.33377 14.5861 6.36005 14.5861C6.43889 14.5861 6.51773 14.6649 6.54401 14.7438C6.54401 14.77 6.54401 14.8226 6.54401 14.8489C6.54401 14.8752 6.49146 14.9015 6.46518 14.9015ZM5.70302 14.7438C5.54533 14.6912 5.41394 14.6386 5.28253 14.5598C5.09856 14.4284 4.86201 14.2181 4.83573 13.9028C4.83573 13.9028 4.86203 13.9028 4.88831 13.9028C4.94087 13.9028 5.07227 13.9028 5.20367 14.0342C5.38764 14.1656 5.54533 14.4021 5.70302 14.7438ZM6.20237 14.6124C6.07096 14.5598 5.96583 14.481 5.8607 14.4021C5.59789 14.1919 5.41394 13.9028 5.28253 13.5874C5.30881 13.5874 5.33507 13.5874 5.38763 13.5874C5.46647 13.5874 5.59789 13.6137 5.7293 13.7714C5.88698 13.9553 6.04466 14.2444 6.14979 14.6386L6.20237 14.6124ZM5.01972 14.8489C4.86203 14.8489 4.78318 14.77 4.78318 14.7175C4.78318 14.6649 4.78318 14.6386 4.78318 14.5861C4.80946 14.5861 4.83572 14.5861 4.862 14.5861C4.96713 14.5861 5.07228 14.6386 5.15112 14.7175C5.15112 14.7175 5.1774 14.7701 5.15112 14.8226C5.15112 14.8489 5.09856 14.8752 5.01972 14.8752V14.8489ZM4.52037 14.4284C4.38896 14.4284 4.25756 14.4284 4.12615 14.4021C3.96846 14.3758 3.88963 14.2444 3.83706 14.1393C3.81078 14.0605 3.78448 14.0079 3.78448 13.929C4.25754 13.929 4.46779 14.0867 4.57292 14.1919C4.62548 14.2444 4.67805 14.3496 4.67805 14.4284C4.67805 14.4284 4.59921 14.4284 4.52037 14.4284ZM5.01972 13.9028C5.01972 13.7714 4.96715 13.6925 4.91459 13.6137C4.86202 13.5348 4.80946 13.4297 4.80946 13.3772C4.80946 13.3246 4.80946 13.1669 4.78318 13.088C4.78318 12.9829 4.78318 12.9041 4.78318 12.9041C4.78318 12.9041 5.07227 12.9829 5.07227 13.2457C5.07227 13.5086 5.07225 13.7714 5.12482 13.7714V13.9028H5.04599H5.01972ZM4.65177 13.7451C4.57293 13.7451 4.41524 13.6662 4.25756 13.5874C4.07359 13.4823 3.94218 13.3771 3.86334 13.272C3.7845 13.1932 3.73193 13.0355 3.73193 12.8515C3.73193 12.7727 3.73193 12.6938 3.73193 12.615C3.73193 12.615 3.7582 12.615 3.78448 12.615C3.83705 12.615 3.9159 12.6413 3.99475 12.6938C4.07359 12.7464 4.15244 12.8252 4.23128 12.8778C4.31013 12.9566 4.41525 13.0618 4.49409 13.1669C4.49409 13.1669 4.57293 13.3246 4.65177 13.456C4.67806 13.5086 4.70432 13.5874 4.7306 13.6662V13.7188L4.65177 13.7451Z" fill="#4E5B31"/>
<path d="M9.61886 17.2142C9.61886 17.2142 9.64513 17.1616 9.67141 17.1616C9.72397 17.1091 9.77653 17.0302 9.82909 16.9514C9.93422 16.82 10.0394 16.6886 10.0394 16.6886H10.0656C10.0656 16.6623 10.3284 16.5572 10.3284 16.5572L10.5387 16.452L10.4336 16.3206L10.0656 16.4783L9.80282 16.5309L9.30347 16.8988C9.30347 16.8988 9.38231 16.9514 9.43487 17.0302C9.46115 17.0565 9.51372 17.1091 9.54 17.1354C9.54 17.1354 9.54 17.1354 9.56628 17.1879C9.56628 17.1879 9.56628 17.1879 9.56628 17.2142H9.61886ZM11.4585 16.6886C11.6951 16.6886 11.9316 16.6097 12.1418 16.5046C12.1418 16.452 12.0893 16.4258 12.0367 16.3995C11.9579 16.3469 11.8527 16.2944 11.6425 16.2944C11.406 16.2944 11.1169 16.3732 10.8015 16.5309C10.9855 16.636 11.222 16.7148 11.4585 16.7148V16.6886ZM12.4835 16.5834C12.536 16.5834 12.5623 16.5835 12.5886 16.5309C12.5886 16.5046 12.6412 16.4783 12.6412 16.4258C12.6412 16.3732 12.6412 16.3206 12.6412 16.2681C12.6412 16.2681 12.6149 16.2681 12.5886 16.2681C12.5098 16.2681 12.4309 16.3469 12.4047 16.4258C12.4047 16.452 12.4047 16.5046 12.4047 16.5309C12.4047 16.5572 12.4572 16.5834 12.4835 16.5834ZM10.8278 16.0841C11.4323 16.0053 11.6951 15.7687 11.8002 15.6111C11.879 15.5059 11.9053 15.3745 11.879 15.2694C11.8528 15.2694 11.8265 15.2694 11.7739 15.2694C11.6162 15.2694 11.1957 15.3482 10.8015 16.1104L10.8278 16.0841ZM11.9316 15.979C12.1944 15.979 12.3784 15.9264 12.5098 15.8476C12.5624 15.8213 12.6149 15.7687 12.6412 15.7162C12.6412 15.7162 12.6412 15.6636 12.6412 15.6373C12.5624 15.611 12.4572 15.5848 12.3784 15.5848C12.3784 15.5848 12.3521 15.5848 12.3258 15.5848C12.1156 15.5848 11.8265 15.6373 11.5111 15.9527C11.6425 15.9527 11.7739 15.979 11.9053 15.979H11.9316ZM13.1668 15.9264C13.4296 15.9264 13.8238 15.8476 14.0341 15.6111C13.8501 15.5585 13.6661 15.5322 13.4822 15.5322C13.4822 15.5322 13.4559 15.5322 13.4296 15.5322C13.1668 15.5322 12.9828 15.5848 12.8514 15.6899C12.8251 15.6899 12.7989 15.7424 12.7726 15.795C12.7726 15.8213 12.7726 15.8476 12.7989 15.8739C12.8514 15.9264 12.9566 15.9527 13.1142 15.9527L13.1668 15.9264ZM14.1129 15.6111C14.1392 15.6111 14.1655 15.611 14.1918 15.5585C14.1918 15.5585 14.2181 15.5059 14.2181 15.4796C14.2181 15.4271 14.2181 15.4008 14.2181 15.3482C14.2181 15.3482 14.1918 15.3482 14.1655 15.3482C14.1392 15.3482 14.0867 15.3482 14.0867 15.4008C14.0604 15.4008 14.0341 15.4534 14.0341 15.5059C14.0341 15.5322 14.0341 15.5585 14.0341 15.5848C14.0341 15.5848 14.0604 15.6373 14.0867 15.6373L14.1129 15.6111ZM12.0104 15.5848C12.063 15.5848 12.0893 15.5848 12.1156 15.5322C12.1156 15.5059 12.1681 15.4796 12.1681 15.4271C12.1681 15.3745 12.1681 15.3219 12.1681 15.2694C12.1681 15.2694 12.1419 15.2694 12.1156 15.2694C12.0367 15.2694 11.9579 15.3482 11.9316 15.4271C11.9316 15.4534 11.9316 15.5059 11.9316 15.5322C11.9316 15.5585 11.9842 15.5848 12.0104 15.5848ZM12.904 15.5322C13.4559 15.5322 13.745 15.3482 13.8764 15.2168C13.929 15.1643 13.9815 15.1117 14.0341 15.0329C14.0341 15.0066 14.0341 14.9803 14.0604 14.954C14.0078 14.954 13.9815 14.954 13.9289 14.954C13.745 14.954 13.3771 15.0329 12.9303 15.5585L12.904 15.5322ZM12.4572 15.6111C12.8777 15.5585 13.1142 15.3745 13.2194 15.2431C13.2982 15.1643 13.3508 15.0591 13.377 14.954C13.3245 14.954 13.2982 14.954 13.2456 14.954C13.0354 14.954 12.6675 15.0591 12.4572 15.6373V15.6111ZM14.6911 15.2431C14.8225 15.2431 14.9802 15.2431 15.1116 15.1905C15.3481 15.138 15.4533 15.0329 15.4795 14.9803C15.4795 14.954 15.5058 14.9277 15.5058 14.9015C15.5058 14.9015 15.5058 14.9014 15.5058 14.8752C15.3744 14.8489 15.2693 14.8226 15.1379 14.9277C15.0328 14.8226 14.9276 14.8226 14.8488 14.8489C14.6385 14.9015 14.4283 15.0329 14.2969 15.2694C14.4283 15.2431 14.586 15.2694 14.7174 15.2694L14.6911 15.2431ZM13.6661 14.9015C13.7187 14.9015 13.745 14.9015 13.7713 14.8489C13.7713 14.8226 13.8238 14.7963 13.8238 14.7438C13.8238 14.6912 13.8238 14.6386 13.8238 14.5861C13.8238 14.5861 13.7975 14.5861 13.7713 14.5861C13.6924 14.5861 13.6136 14.6649 13.5873 14.7438C13.5873 14.77 13.5873 14.8226 13.5873 14.8489C13.5873 14.8752 13.6399 14.9015 13.6661 14.9015ZM14.4283 14.7438C14.586 14.6912 14.7174 14.6386 14.8488 14.5598C15.0328 14.4284 15.2693 14.2181 15.2956 13.9028C15.2956 13.9028 15.2693 13.9028 15.243 13.9028C15.1904 13.9028 15.0591 13.9028 14.9276 14.0342C14.7437 14.1656 14.586 14.4021 14.4283 14.7438ZM13.9289 14.6124C14.0604 14.5598 14.1655 14.481 14.2706 14.4021C14.5334 14.1919 14.7174 13.9028 14.8488 13.5874C14.8225 13.5874 14.7963 13.5874 14.7437 13.5874C14.6648 13.5874 14.5334 13.6137 14.402 13.7714C14.2443 13.9553 14.0867 14.2444 13.9815 14.6386L13.9289 14.6124ZM15.3481 14.8489C15.5058 14.8489 15.5847 14.77 15.5847 14.7175C15.5847 14.6649 15.5847 14.6386 15.5847 14.5861C15.5584 14.5861 15.5321 14.5861 15.5058 14.5861C15.4007 14.5861 15.2956 14.6386 15.2167 14.7175C15.2167 14.7175 15.1905 14.7701 15.2167 14.8226C15.2167 14.8489 15.2693 14.8752 15.3481 14.8752V14.8489ZM15.6109 14.4284C15.7424 14.4284 15.8738 14.4284 16.0052 14.4021C16.1629 14.3758 16.2417 14.2444 16.2943 14.1393C16.3205 14.0605 16.3468 14.0079 16.3468 13.929C15.8738 13.929 15.6635 14.0867 15.5584 14.1919C15.5058 14.2444 15.4533 14.3496 15.4533 14.4284C15.4533 14.4284 15.5321 14.4284 15.6109 14.4284ZM15.1116 13.9028C15.1116 13.7714 15.1642 13.6925 15.2167 13.6137C15.2693 13.5348 15.3219 13.4297 15.3219 13.3772C15.3219 13.3246 15.3219 13.1669 15.3481 13.088C15.3481 12.9829 15.3481 12.9041 15.3481 12.9041C15.3481 12.9041 15.0591 12.9829 15.0591 13.2457C15.0591 13.5086 15.059 13.7714 15.243 13.7714V13.9028H15.0853H15.1116ZM15.4795 13.7451C15.5584 13.7451 15.7161 13.6662 15.8738 13.5874C16.0577 13.4823 16.1891 13.3771 16.268 13.272C16.3468 13.1932 16.3994 13.0355 16.3994 12.8515C16.3994 12.7727 16.3994 12.6938 16.3994 12.615C16.3994 12.615 16.3731 12.615 16.3468 12.615C16.2943 12.615 16.2154 12.6413 16.1366 12.6938C16.0577 12.7464 15.9789 12.8252 15.9 12.8778C15.8212 12.9566 15.7161 13.0618 15.6372 13.1669C15.6372 13.1669 15.5584 13.3246 15.4795 13.456C15.4533 13.5086 15.427 13.5874 15.4007 13.6662V13.7188L15.4795 13.7451Z" fill="#4E5B31"/>
<path d="M19.816 3.39026H19.7372C19.7372 3.41654 19.7109 3.44281 19.7109 3.44281H19.6058L19.5007 3.4691L19.343 3.57421H19.2904H19.2379H19.2116V3.62678L19.159 3.67935H19.1327L19.0013 3.70562L18.8962 3.75819H18.7385C18.7385 3.7319 18.6597 3.75819 18.6597 3.75819L18.5283 3.88959H18.4494C18.4494 3.91587 18.4494 3.91588 18.4494 3.91588H18.3443H18.2918L18.2392 3.96843H18.134L18.1078 3.99472L18.0552 4.09984L18.0026 4.1524H17.9764H17.9501H17.9238V4.23124H17.8975C17.8975 4.25752 17.8187 4.28381 17.8187 4.28381L17.7661 4.33637H17.7136C17.7136 4.36266 17.6347 4.33637 17.6347 4.33637H17.5559C17.5559 4.36266 17.4245 4.38894 17.4245 4.38894L17.3719 4.44151L17.3456 4.46778H17.2931V4.49406H17.2405H17.1879C17.1879 4.46777 17.1354 4.49406 17.1354 4.49406H17.0828L17.004 4.46778H16.9514H16.9251V4.52035L16.8726 4.57291L16.7937 4.62546L16.7149 4.75687L16.5572 4.91456L16.4258 4.9934L16.2944 5.04597L16.1893 5.12481L15.9265 5.25622L15.5059 5.46646H15.4271C15.4271 5.49274 15.2957 5.51903 15.2957 5.51903L15.0854 5.59787L14.9015 5.65043H14.8752L14.6124 5.72927H14.481H14.4021H14.2182H14.0868H14.0079L13.8502 5.80811L13.5874 5.93952L13.5086 6.01838L13.3772 6.09722L13.2195 6.14978V5.99209H13.1406H13.0881H13.0355L12.9041 6.07093H12.8253L12.7727 6.01838L12.5099 6.09722H12.1945C12.1945 6.1235 12.0368 6.3863 12.0368 6.3863H11.9317L11.8529 6.17606H11.7215H11.6689H11.2484H11.0644H10.9856L10.8279 6.12349H10.6176L10.5651 6.07093H10.46C10.46 6.04464 10.4074 6.07093 10.4074 6.07093H10.3811L10.276 6.04465H10.2497L10.1709 6.07093H10.1183L10.0657 6.01838H9.96061L9.90806 5.96581L9.59266 6.01838H9.51384L9.22475 5.91325H9.17217L9.11962 5.96581H9.04076C9.04076 5.99209 8.96194 6.01838 8.96194 6.01838H8.85681L8.7254 5.99209L8.594 5.93952H8.54142H8.43632H8.41001L8.22605 5.8344L7.98952 5.67671L7.83184 5.59787H7.77929V5.703C7.80557 5.703 7.83184 5.80811 7.83184 5.80811V5.88697V5.93952V5.99209L7.91069 6.07093V6.14978L7.88439 6.33374V6.51771L7.93697 6.80681V6.85936L7.88439 7.01706V7.14846C7.8581 7.14846 7.72671 7.51639 7.72671 7.51639V7.56896C7.70042 7.56896 7.62157 7.62152 7.62157 7.62152L7.43762 7.75293L7.30621 7.83177H7.25366L7.14853 7.85806H7.06968L6.99085 7.80549H6.912L6.80686 7.70036H6.67546L6.54405 7.59525V7.54268C6.51777 7.54268 6.43892 7.54268 6.43892 7.54268H6.33382C6.33382 7.5164 6.30752 7.49012 6.30752 7.49012H6.28124H6.14983L6.01843 7.43755H5.96588H5.88702L5.78189 7.49012H5.72934H5.67679H5.62421L5.57166 7.56896L5.54539 7.75293H5.49281V7.59525C5.46652 7.59525 5.41398 7.59525 5.41398 7.59525H5.3614L5.30885 7.62152H5.28258H5.22999H5.17744V7.72665V7.7792L5.09859 7.83177L5.01976 7.88433L4.96718 7.96317L4.83578 8.25228L4.75695 8.35739C4.75695 8.38367 4.6781 8.4888 4.6781 8.4888L4.59924 8.54136L4.41528 8.67277L4.2576 8.72533L4.1262 8.7779H3.91593H3.78453H3.65312C3.65312 8.75162 3.52172 8.64649 3.52172 8.64649L3.36404 8.51509L3.15377 8.30483H3.1275L3.04868 8.25228H2.99609V8.27855V8.33112V8.38368V8.6202V8.72533L3.18008 8.96185L3.23263 9.09326L3.25891 9.17212V9.22467H3.28518L3.33776 9.38236L3.28518 9.48748V9.54004L3.25891 9.56633V9.61888L3.39031 9.80286V9.8817C3.41659 9.8817 3.39031 9.98683 3.39031 9.98683L3.33776 10.0394V10.092L3.41659 10.1445L3.52172 10.2496L3.5743 10.4073L3.62685 10.4599H3.6794H3.7057H3.75825L3.8108 10.5125H3.83711L3.88966 10.5387V10.5913C3.91594 10.5913 3.94221 10.749 3.94221 10.749L4.02107 10.9329V10.8541H4.15247L4.20502 10.9329V10.9855V11.1169L4.2576 11.1695H4.31015H4.33643L4.38901 11.222L4.46783 11.3272H4.54669H4.59924L4.8095 11.5111H4.86205H4.88836L4.94091 11.5637L4.99346 11.5111H5.07231H5.09859L5.15117 11.4323H5.22999L5.38767 11.6163H5.46653L5.62421 11.7214H5.67679C5.67679 11.7477 5.70307 11.8002 5.70307 11.8002L5.75562 11.8528L5.86075 11.9053H5.9396L5.99215 11.9316H6.01843V12.1419V11.9579L6.20242 12.0368H6.30752L6.41265 12.0893L6.4915 12.1419H6.54405L6.62291 12.0368H6.70173H6.75431H6.80686L6.88572 11.9842L6.93827 11.9316H7.14853H7.20108L7.35876 11.8528H7.46389C7.46389 11.8791 7.56902 11.8528 7.56902 11.8528L7.77929 11.9053H7.83184C7.83184 11.9316 7.88439 12.0105 7.88439 12.0105H7.96324V12.063C7.93696 12.063 8.01579 12.1682 8.01579 12.1682L8.09465 12.2996L8.1472 12.4835L8.19978 12.5361V12.6149C8.22606 12.6149 8.22605 12.6675 8.22605 12.6675H8.1735C8.1735 12.6938 8.1735 12.7201 8.1735 12.7201V12.7464L8.19978 12.7201H8.25233H8.33119H8.38373L8.46259 12.6938H8.51514L8.594 12.8252H8.67282V12.7201C8.6991 12.7201 8.80423 12.7726 8.80423 12.7726H8.85681C8.85681 12.7463 8.85681 12.7201 8.85681 12.7201L8.80423 12.6675L8.7254 12.5624V12.5098C8.69912 12.5098 8.67282 12.431 8.67282 12.431V12.3259V12.2733V12.1945L8.69913 12.1682V12.0893L8.75168 12.0105L8.88308 11.9316L9.01449 11.8002L9.11962 11.7214L9.22475 11.6688L9.51384 11.5637H9.64524L10.5125 11.6163H10.5388L10.5651 11.5374L10.6702 11.4849H10.7228H10.8542H10.9067H10.9856H11.0381L11.1695 11.3797H11.2484H11.2747L11.4061 11.2746L11.5375 11.222H11.5638L11.6952 11.1432L11.774 11.0643L11.8529 11.0118H11.9317L12.142 10.9855L12.1945 10.9067H12.2996L12.3522 10.8278H12.431C12.431 10.8015 12.4836 10.7227 12.4836 10.7227L12.5362 10.6701H12.5887C12.5887 10.6439 12.7727 10.6176 12.7727 10.6176H12.9829H13.0092L13.0618 10.4599H13.1143C13.1143 10.4336 13.1143 10.2234 13.1143 10.2234L13.456 10.1445V10.092L13.2983 10.0131V9.85542V9.69774L13.3772 9.51377L13.456 9.43493L13.5874 9.35607H13.64L13.7188 9.30352V9.09326H14.0342C14.0342 9.27723 14.1393 9.27724 14.1393 9.43493H14.2444L14.481 9.3298L14.5598 9.35607L14.6649 9.43493L14.7701 9.54004L14.8489 9.59261H14.9015L14.9803 9.54004L15.0329 9.48748L15.1117 9.43493L15.1643 9.35607H15.0854V9.40864H15.1643V9.3298L15.3482 9.27723H15.5322L15.5848 9.11955H15.6636L15.7687 9.14583H15.8476H15.9001H15.9527H16.0316L16.1104 9.19839H16.163L16.3469 9.30352H16.3732V9.3298H16.3995L16.4258 9.27723V9.25096H16.3732L16.3207 9.14583L16.3732 9.09326L16.2944 8.98815V8.93558C16.2681 8.93558 16.1104 8.69904 16.1104 8.69904L15.9265 8.54136L15.8476 8.4888L15.7425 8.38368L15.6636 8.27855V8.22599L15.6111 8.12087L15.5322 8.0683L15.4797 7.98946L15.3482 7.80549C15.3482 7.77921 15.322 7.75293 15.322 7.75293H15.2694H15.2957C15.2957 7.72665 15.322 7.70036 15.322 7.70036C15.322 7.67408 15.2431 7.46384 15.2431 7.46384V7.38498L15.2957 7.0959C15.2957 7.06962 15.4008 6.85936 15.4008 6.85936L15.4534 6.80681L15.5322 6.67541L15.5848 6.59655L15.6373 6.544L15.7425 6.49143H15.8213H15.9001L16.0316 6.544H16.163H16.1893H16.2418L16.3469 6.51771H16.3995C16.3995 6.49143 16.3995 6.46514 16.3995 6.46514L16.4521 6.30746V6.2549L16.5046 6.20233L16.6886 5.99209L16.82 5.86068L17.1354 5.65043L17.2931 5.57159L17.3719 5.51903L18.0815 5.22994L18.2655 5.04597L18.3706 4.94084L18.5283 4.83572L18.7122 4.75687L18.8699 4.62546V4.57291C18.8962 4.57291 18.9488 4.44151 18.9488 4.44151H18.9751L19.0013 4.36265L19.1327 4.25753L19.6584 3.99472H19.7372L19.7898 3.94216H19.9475L19.9737 3.91588H20L20.0263 3.83703V3.67935H20.0526C20.0526 3.65306 20.0526 3.54794 20.0526 3.54794V3.49537H20.1051C20.1051 3.46909 20.1051 3.44281 20.1051 3.44281L19.816 3.39026Z" fill="#D57800"/>
</g>
</g>
<path style="mix-blend-mode:multiply" opacity="0.3" d="M16.4257 0H3.57427C1.60027 0 0 1.60024 0 3.57423V16.4257C0 18.3997 1.60027 20 3.57427 20H16.4257C18.3997 20 20 18.3997 20 16.4257V3.57423C20 1.60024 18.3997 0 16.4257 0Z" fill="url(#paint0_radial_296_3041)"/>
<defs>
<radialGradient id="paint0_radial_296_3041" cx="0" cy="0" r="1" gradientUnits="userSpaceOnUse" gradientTransform="translate(7.04336 -1.02497) scale(22.7595 22.7595)">
<stop stop-color="white"/>
<stop offset="0.3" stop-color="#FCFCFC"/>
<stop offset="0.4" stop-color="#F3F3F3"/>
<stop offset="0.5" stop-color="#E4E4E5"/>
<stop offset="0.6" stop-color="#CFD0D0"/>
<stop offset="0.7" stop-color="#B4B4B5"/>
<stop offset="0.8" stop-color="#939394"/>
<stop offset="0.9" stop-color="#58595B"/>
</radialGradient>
</defs>
</svg>
