<svg width="20" height="20" viewBox="0 0 20 20" fill="none" xmlns="http://www.w3.org/2000/svg">
<g id="Group">
<g id="Clip path group">
<mask id="mask0_326_1829" style="mask-type:luminance" maskUnits="userSpaceOnUse" x="0" y="0" width="20" height="21">
<g id="clippath-292">
<path id="Vector" d="M3.57424 20.0001H16.4258C18.3969 20.0001 20 18.3969 20 16.4259V3.57436C20 1.60327 18.3969 8.96454e-05 16.4258 8.96454e-05H3.57424C1.60315 8.96454e-05 0 1.60327 0 3.57436V16.4259C0 18.3969 1.60315 20.0001 3.57424 20.0001Z" fill="white"/>
</g>
</mask>
<g mask="url(#mask0_326_1829)">
<g id="Group_2">
<g id="Clip path group_2">
<mask id="mask1_326_1829" style="mask-type:luminance" maskUnits="userSpaceOnUse" x="-6" y="-1" width="32" height="22">
<g id="clippath-293">
<path id="Vector_2" d="M25.4138 20.6835H-5.78198V-0.341503H25.4138V20.6835Z" fill="white"/>
</g>
</mask>
<g mask="url(#mask1_326_1829)">
<g id="Group_3">
<g id="Group_4">
<path id="Vector_3" d="M-5.78198 22.707H25.4138V-2.39153H-5.78198V22.707Z" fill="white"/>
<path id="Vector_4" d="M-6 23.0001H25V0.00012207H-6V23.0001Z" fill="#EE1C25"/>
</g>
</g>
</g>
</g>
</g>
</g>
</g>
<path id="Vector_5" style="mix-blend-mode:multiply" opacity="0.3" d="M16.4258 20.0001H3.57424C1.60315 20.0001 0 18.3969 0 16.4259V3.57436C0 1.60327 1.60315 8.96454e-05 3.57424 8.96454e-05H16.4258C18.3969 8.96454e-05 20 1.60327 20 3.57436V16.4259C20 18.3969 18.3969 20.0001 16.4258 20.0001Z" fill="url(#paint0_radial_326_1829)"/>
<g id="Group 60">
<g id="a">
<path id="Vector_6" d="M11.159 3.77928C11.0123 3.82704 10.8784 3.90854 10.7677 4.01747C10.657 4.12639 10.5725 4.2598 10.5207 4.40733C10.469 4.55486 10.4514 4.71252 10.4693 4.86808C10.4873 5.02364 10.5402 5.1729 10.6242 5.30426C10.7532 5.50627 10.8371 5.73458 10.87 5.97312C10.9029 6.21165 10.884 6.45462 10.8145 6.68491C10.7451 6.91521 10.6269 7.12724 10.4681 7.30608C10.3094 7.48491 10.1141 7.62622 9.89585 7.72004C9.68089 7.81245 9.49233 7.9585 9.34764 8.14467C9.20295 8.33084 9.1068 8.55111 9.06809 8.78509C9.02938 9.01907 9.04937 9.25919 9.12619 9.48323C9.20301 9.70727 9.33419 9.90799 9.50759 10.0668C8.98608 9.68959 8.63015 9.12019 8.51571 8.48002C8.40126 7.83985 8.53734 7.17955 8.89494 6.63992C8.88108 6.62783 8.86779 6.61507 8.85513 6.60168C8.48921 7.14964 8.34737 7.82082 8.45961 8.47321C8.57186 9.12559 8.92938 9.70799 9.45653 10.0972C8.71722 9.79613 8.11273 9.22907 7.75829 8.50406C7.40385 7.77905 7.32425 6.94679 7.53467 6.16595C7.74508 5.38511 8.2308 4.71029 8.89923 4.27013C9.56765 3.82997 10.372 3.65525 11.159 3.77928Z" fill="white"/>
<path id="Vector_7" d="M9.6889 5.81927L8.69946 6.25794L9.75357 6.49427L9.03742 5.67322L9.14207 6.76538" fill="#EE1C25"/>
</g>
<g id="b">
<g id="a_2">
<path id="Vector_8" d="M16.0615 9.64408C15.9722 9.51851 15.8552 9.41582 15.7194 9.34398C15.5836 9.27214 15.4327 9.23309 15.2784 9.22987C15.1242 9.22664 14.9708 9.25933 14.83 9.3254C14.6893 9.39146 14.5651 9.48911 14.4671 9.61077C14.3163 9.79787 14.1271 9.95 13.913 10.0565C13.6988 10.1629 13.4648 10.2211 13.2275 10.2269C12.9901 10.2328 12.7552 10.1861 12.5392 10.0903C12.3232 9.99439 12.1314 9.85163 11.9773 9.67204C11.8255 9.49514 11.6312 9.36039 11.4126 9.28026C11.1939 9.20013 10.9579 9.17723 10.7264 9.21365C10.4949 9.25008 10.2753 9.34467 10.0881 9.48866C9.90081 9.63265 9.75189 9.82139 9.65511 10.0374C9.85184 9.41927 10.2792 8.89938 10.846 8.5886C11.4129 8.27782 12.0744 8.20074 12.6895 8.37379C12.6966 8.3567 12.7046 8.33997 12.7133 8.32363C12.0879 8.14523 11.4145 8.22022 10.8355 8.53272C10.2565 8.84523 9.81741 9.37073 9.61115 9.99803C9.67047 9.19516 10.0205 8.43788 10.5945 7.87052C11.1685 7.30317 11.9263 6.96543 12.7235 6.92169C13.5207 6.87794 14.3016 7.13125 14.9172 7.63333C15.5328 8.1354 15.9401 8.85114 16.0615 9.64408Z" fill="white"/>
<path id="Vector_9" d="M13.6986 8.88049L12.9859 8.06824L13.0827 9.15525L13.6388 8.20867L12.6423 8.65325" fill="#EE1C25"/>
</g>
<g id="a_3">
<path id="Vector_10" d="M4.6828 14.3822C4.82964 14.432 4.9855 14.4468 5.13825 14.4255C5.29101 14.4043 5.43654 14.3475 5.56355 14.2597C5.69056 14.1718 5.79561 14.0552 5.87056 13.9189C5.9455 13.7827 5.98831 13.6304 5.99567 13.474C6.00698 13.2334 6.07013 12.9987 6.18067 12.7865C6.29121 12.5743 6.44646 12.3898 6.6355 12.2458C6.82453 12.1018 7.04275 12.0019 7.2748 11.9531C7.50685 11.9044 7.74709 11.9079 7.97861 11.9635C8.20667 12.0183 8.44411 12.014 8.66897 11.9508C8.89383 11.8877 9.09883 11.7679 9.26499 11.6025C9.43115 11.437 9.55311 11.2313 9.61958 11.0044C9.68604 10.7775 9.69486 10.5366 9.64522 10.3042C9.85233 10.9222 9.81412 11.5956 9.53874 12.1809C9.26336 12.7661 8.7726 13.2168 8.1711 13.4369C8.17542 13.455 8.17888 13.4733 8.18147 13.4917C8.79453 13.2699 9.29624 12.8139 9.58045 12.2201C9.86465 11.6264 9.90904 10.9415 9.70423 10.3104C10.1324 10.998 10.2977 11.8191 10.1687 12.6172C10.0397 13.4152 9.62542 14.1344 9.00481 14.6376C8.3842 15.1409 7.60067 15.393 6.80358 15.3459C6.0065 15.2987 5.2516 14.9557 4.6828 14.3822Z" fill="white"/>
<path id="Vector_11" d="M7.05068 13.6223L8.1072 13.8641L7.38593 13.0399L7.49646 14.1317L8.03889 13.1893" fill="#EE1C25"/>
</g>
</g>
<g id="b_2">
<g id="a_4">
<path id="Vector_12" d="M12.0233 16.2393C12.1161 16.112 12.1791 15.9652 12.2073 15.8105C12.2356 15.6558 12.2284 15.4973 12.1863 15.3474C12.1442 15.1974 12.0684 15.06 11.9646 14.9459C11.8609 14.8318 11.732 14.744 11.5881 14.6893C11.3668 14.6052 11.1674 14.4726 11.0039 14.3009C10.8404 14.1291 10.7168 13.9224 10.6418 13.6952C10.5668 13.468 10.5422 13.2258 10.5698 12.9858C10.5974 12.7458 10.6764 12.5138 10.8013 12.306C10.9244 12.1013 10.9952 11.8696 11.0071 11.6322C11.0189 11.3948 10.9715 11.1594 10.8693 10.9479C10.767 10.7364 10.6132 10.5555 10.422 10.4221C10.2309 10.2886 10.0085 10.2069 9.77567 10.1844C10.4186 10.1712 11.036 10.4129 11.4962 10.858C11.9564 11.3031 12.223 11.9163 12.2392 12.5669C12.2574 12.5682 12.2756 12.5704 12.2936 12.5735C12.2795 11.9111 12.0114 11.2857 11.546 10.8295C11.0806 10.3732 10.4545 10.122 9.80009 10.129C10.5777 9.92251 11.3972 10.0116 12.1025 10.3792C12.8078 10.7469 13.3494 11.3675 13.6242 12.1227C13.8989 12.8779 13.8876 13.7148 13.5924 14.4741C13.2971 15.2333 12.7386 15.8616 12.0233 16.2393Z" fill="white"/>
<path id="Vector_13" d="M12.0623 13.7115L12.6204 12.7609L11.6243 13.2098L12.678 13.434L11.9692 12.6223" fill="#EE1C25"/>
</g>
<g id="a_5">
<path id="Vector_14" d="M4.12835 6.69668C4.12761 6.8534 4.16241 7.00815 4.23003 7.14889C4.29766 7.28963 4.39628 7.41256 4.51826 7.50815C4.64023 7.60373 4.78225 7.66939 4.9333 7.70002C5.08435 7.73064 5.24034 7.72541 5.38917 7.68473C5.61804 7.62217 5.85755 7.61139 6.09083 7.65315C6.32411 7.6949 6.5455 7.78818 6.73942 7.92641C6.93333 8.06464 7.09506 8.24447 7.21322 8.45323C7.33137 8.662 7.40309 8.89463 7.42331 9.13476C7.44324 9.37129 7.5215 9.59882 7.65085 9.79627C7.78021 9.99372 7.95648 10.1547 8.16334 10.2644C8.3702 10.374 8.60098 10.4287 8.8343 10.4235C9.06762 10.4183 9.29594 10.3532 9.49814 10.2344C8.98395 10.6227 8.34126 10.7915 7.70708 10.7048C7.07291 10.6181 6.49744 10.2827 6.10336 9.77016C6.08777 9.77986 6.07172 9.78878 6.05528 9.7969C6.45457 10.32 7.03844 10.6644 7.68336 10.757C8.32827 10.8496 8.98362 10.6833 9.51072 10.2932C9.00041 10.9158 8.28298 11.3258 7.4952 11.4452C6.70742 11.5645 5.90438 11.3848 5.23916 10.9403C4.57394 10.4958 4.09306 9.81762 3.8882 9.03498C3.68334 8.25235 3.76882 7.42002 4.12835 6.69668Z" fill="white"/>
<path id="Vector_15" d="M5.58114 8.74845L5.68526 9.84097L6.23239 8.89405L5.24299 9.33368L6.29674 9.56926" fill="#EE1C25"/>
</g>
</g>
</g>
</g>
<defs>
<radialGradient id="paint0_radial_326_1829" cx="0" cy="0" r="1" gradientUnits="userSpaceOnUse" gradientTransform="translate(12.9829 21.0251) rotate(180) scale(22.7595 22.7596)">
<stop stop-color="white"/>
<stop offset="0.3" stop-color="#FCFCFC"/>
<stop offset="0.4" stop-color="#F3F3F3"/>
<stop offset="0.5" stop-color="#E4E4E5"/>
<stop offset="0.6" stop-color="#CFD0D0"/>
<stop offset="0.7" stop-color="#B4B4B5"/>
<stop offset="0.8" stop-color="#939394"/>
<stop offset="0.9" stop-color="#58595B"/>
</radialGradient>
</defs>
</svg>
