<svg width="20" height="20" viewBox="0 0 20 20" fill="none" xmlns="http://www.w3.org/2000/svg">
<mask id="mask0_296_3145" style="mask-type:luminance" maskUnits="userSpaceOnUse" x="0" y="0" width="20" height="20">
<path d="M16.4258 0H3.57424C1.60024 0 0 1.60024 0 3.57424V16.4258C0 18.3998 1.60024 20 3.57424 20H16.4258C18.3998 20 20 18.3998 20 16.4258V3.57424C20 1.60024 18.3998 0 16.4258 0Z" fill="white"/>
</mask>
<g mask="url(#mask0_296_3145)">
<mask id="mask1_296_3145" style="mask-type:luminance" maskUnits="userSpaceOnUse" x="0" y="-1" width="32" height="22">
<path d="M31.1958 -0.998779H0V20.0262H31.1958V-0.998779Z" fill="white"/>
</mask>
<g mask="url(#mask1_296_3145)">
<path d="M0 -0.998901H41.7083V20.0261H0V-0.998901Z" fill="white"/>
<path d="M0 20.21V-0.683594H41.7083V6.28093L0 20.21Z" fill="#D92223"/>
<path d="M0 20.21V-0.683594H27.8581L0 20.21Z" fill="#FCD955"/>
<path d="M0 20.21V-0.683594H13.929L0 20.21Z" fill="#003D88"/>
<path d="M-0.0788574 20.026L41.7083 13.0615V20.026H-0.0788574Z" fill="#007A39"/>
</g>
</g>
<path style="mix-blend-mode:multiply" opacity="0.3" d="M16.4258 0H3.57424C1.60024 0 0 1.60024 0 3.57424V16.4258C0 18.3998 1.60024 20 3.57424 20H16.4258C18.3998 20 20 18.3998 20 16.4258V3.57424C20 1.60024 18.3998 0 16.4258 0Z" fill="url(#paint0_radial_296_3145)"/>
<defs>
<radialGradient id="paint0_radial_296_3145" cx="0" cy="0" r="1" gradientUnits="userSpaceOnUse" gradientTransform="translate(7.04336 -1.02497) scale(22.7595)">
<stop stop-color="white"/>
<stop offset="0.3" stop-color="#FCFCFC"/>
<stop offset="0.4" stop-color="#F3F3F3"/>
<stop offset="0.5" stop-color="#E4E4E5"/>
<stop offset="0.6" stop-color="#CFD0D0"/>
<stop offset="0.7" stop-color="#B4B4B5"/>
<stop offset="0.8" stop-color="#939394"/>
<stop offset="0.9" stop-color="#58595B"/>
</radialGradient>
</defs>
</svg>
