<svg width="20" height="20" viewBox="0 0 20 20" fill="none" xmlns="http://www.w3.org/2000/svg">
<mask id="mask0_304_1017" style="mask-type:luminance" maskUnits="userSpaceOnUse" x="0" y="0" width="20" height="20">
<path d="M16.4258 0H3.57424C1.60024 0 0 1.60024 0 3.57424V16.4258C0 18.3998 1.60024 20 3.57424 20H16.4258C18.3998 20 20 18.3998 20 16.4258V3.57424C20 1.60024 18.3998 0 16.4258 0Z" fill="white"/>
</mask>
<g mask="url(#mask0_304_1017)">
<mask id="mask1_304_1017" style="mask-type:luminance" maskUnits="userSpaceOnUse" x="-12" y="-1" width="32" height="22">
<path d="M20 -0.998779H-11.1958V20.0262H20V-0.998779Z" fill="white"/>
</mask>
<g mask="url(#mask1_304_1017)">
<path d="M30.8541 -0.656982H-11.1958V20.368H30.8541V-0.656982Z" fill="#012169"/>
<mask id="mask2_304_1017" style="mask-type:luminance" maskUnits="userSpaceOnUse" x="-12" y="-1" width="22" height="11">
<path d="M9.82917 -0.656982H-11.1958V9.8555H9.82917V-0.656982Z" fill="white"/>
</mask>
<g mask="url(#mask2_304_1017)">
<path d="M9.27732 10.6965L-0.762106 5.67676L-10.8278 10.6965L-11.7739 8.80424L-3.12741 4.49411L-11.7739 0.183983L-10.8278 -1.70825L-0.762106 3.31145L9.27732 -1.70825L10.2235 0.183983L1.57693 4.49411L10.2235 8.80424L9.27732 10.6965Z" fill="white"/>
</g>
<mask id="mask3_304_1017" style="mask-type:luminance" maskUnits="userSpaceOnUse" x="-12" y="-1" width="22" height="11">
<path d="M-11.1959 -0.841064L-0.657116 4.41518H-11.1959V-0.841064ZM-0.683391 -0.657077H9.85537L-0.683391 4.59917V-0.657077ZM-0.709682 4.41518H9.8291V9.67142L-0.709682 4.41518ZM-0.683391 4.57286V9.8291H-11.2222L-0.683391 4.57286Z" fill="white"/>
</mask>
<g mask="url(#mask3_304_1017)">
<path d="M9.43481 10.3811L-0.762316 5.28249L-10.9857 10.3811L-11.6165 9.11954L-2.33919 4.49405L-11.6165 -0.131433L-10.9857 -1.39294L-0.762316 3.70562L9.43481 -1.39294L10.0655 -0.131433L0.788282 4.49405L10.0655 9.11954L9.43481 10.3811Z" fill="#C8102E"/>
</g>
<mask id="mask4_304_1017" style="mask-type:luminance" maskUnits="userSpaceOnUse" x="-12" y="-1" width="22" height="11">
<path d="M9.82917 -0.656982H-11.1958V9.8555H9.82917V-0.656982Z" fill="white"/>
</mask>
<g mask="url(#mask4_304_1017)">
<path d="M0.998675 9.8555H-2.39159V6.46522H-11.1958V2.73327H-2.39159V-0.656982H0.998675V2.73327H9.82917V6.46522H0.998675V9.8555Z" fill="white"/>
</g>
<mask id="mask5_304_1017" style="mask-type:luminance" maskUnits="userSpaceOnUse" x="-12" y="-1" width="22" height="11">
<path d="M9.82917 -0.656982H-11.1958V9.8555H9.82917V-0.656982Z" fill="white"/>
</mask>
<g mask="url(#mask5_304_1017)">
<path d="M0.341645 9.8555H-1.70829V5.78192H-11.1958V3.41661H-1.70829V-0.656982H0.341645V3.41661H9.82917V5.78192H0.341645V9.8555Z" fill="#C8102E"/>
</g>
</g>
</g>
<path style="mix-blend-mode:multiply" opacity="0.3" d="M16.4258 0H3.57424C1.60024 0 0 1.60024 0 3.57424V16.4258C0 18.3998 1.60024 20 3.57424 20H16.4258C18.3998 20 20 18.3998 20 16.4258V3.57424C20 1.60024 18.3998 0 16.4258 0Z" fill="url(#paint0_radial_304_1017)"/>
<path d="M11.9343 8.26886L18.07 8.24609L18.0586 13.7102C18.0586 13.7102 18.2749 14.5412 15.4859 15.8048C16.4877 15.7023 17.5805 14.6323 17.5805 14.6323C17.5805 14.6323 18.0245 14.0631 18.2408 14.3818C18.4571 14.7006 18.662 14.8599 18.8213 14.9852C18.9807 15.1104 19.1059 15.4519 18.8669 15.7023C18.6278 15.9528 18.2521 15.9869 18.1497 15.6796C17.9903 15.7592 17.0113 16.9431 15.0078 17.0001C12.9702 16.9659 11.8546 15.6682 11.8546 15.6682C11.8546 15.6682 11.5814 16.1008 11.1943 15.7593C10.8187 15.3153 11.1033 15.0307 11.1033 15.0307C11.1033 15.0307 11.422 14.8486 11.5131 14.7233C11.6611 14.5526 11.7066 14.3249 11.957 14.3249C12.253 14.3477 12.3669 14.5867 12.3669 14.5867C12.3669 14.5867 13.3914 15.6682 14.4956 15.8048C12.0027 14.6094 11.9116 13.8695 11.923 13.6873L11.9344 8.26879L11.9343 8.26886Z" fill="white"/>
<path d="M12.0821 8.41672L17.9332 8.38257V13.6418C17.9446 14.3248 16.7949 15.0192 14.9963 15.9071C13.1408 14.9509 12.0707 14.3703 12.0593 13.6304L12.0821 8.41672Z" fill="#006129" stroke="black" stroke-width="0.0462457"/>
<path d="M12.8782 9.19402L13.2236 8.68677L13.5706 9.19509" stroke="#FFC72C" stroke-width="0.0462457"/>
<path d="M13.2932 9.0044C13.2932 9.04229 13.2625 9.07302 13.2246 9.07302C13.1867 9.07302 13.156 9.04229 13.156 9.0044C13.156 8.96651 13.1867 8.93579 13.2246 8.93579C13.2625 8.93579 13.2932 8.96651 13.2932 9.0044Z" fill="#FFC72C" stroke="black" stroke-width="0.0231241"/>
<path d="M12.9432 9.56882L13.4786 9.57035C13.4786 9.57035 13.487 9.50085 13.4227 9.45862C13.7031 9.42005 13.6303 9.17268 13.8652 9.15866C13.9107 9.16567 13.7425 9.26383 13.7425 9.26383C13.7425 9.26383 13.6008 9.36376 13.6653 9.41457C13.7165 9.45491 13.7389 9.39003 13.746 9.34095C13.753 9.29187 13.9738 9.26032 13.9423 9.1201C13.8897 9.00441 13.5812 9.19722 13.5812 9.19722L13.3611 9.196C13.3474 9.17129 13.2867 9.07224 13.2241 9.07178C13.1498 9.07449 13.0974 9.19722 13.0974 9.19722H12.7784H12.5996C12.5996 9.19722 12.5825 9.32495 12.8349 9.34948C12.8918 9.4237 12.9358 9.44444 12.9852 9.46365C12.9523 9.4911 12.943 9.5243 12.9432 9.56882Z" fill="#FFC72C" stroke="black" stroke-width="0.0231241"/>
<path d="M12.9817 9.46002L13.4277 9.4585L12.9817 9.46002Z" fill="#FFC72C"/>
<path d="M12.9817 9.46002L13.4277 9.4585" stroke="black" stroke-width="0.0231241"/>
<path d="M12.7776 9.19727C12.7776 9.19727 12.8133 9.40586 12.9779 9.45526L12.7776 9.19727Z" fill="#FFC72C"/>
<path d="M12.7776 9.19727C12.7776 9.19727 12.8133 9.40586 12.9779 9.45526" stroke="black" stroke-width="0.0231241"/>
<path d="M12.7501 9.19431C12.7666 9.11472 12.7968 9.10099 12.8297 8.99944C12.8352 8.90064 12.7501 8.91162 12.7748 8.84849C12.8188 8.77988 12.7968 8.71401 12.7145 8.66187C12.7309 8.75244 12.6074 8.83752 12.6074 8.91162C12.6074 8.98572 12.6705 8.96926 12.6623 9.08178C12.6678 9.14765 12.6458 9.13119 12.6404 9.19431L12.7501 9.19431Z" fill="url(#paint1_linear_304_1017)" stroke="black" stroke-width="0.0231241"/>
<path d="M13.2876 8.69984C13.2876 8.7347 13.2593 8.76296 13.2245 8.76296C13.1896 8.76296 13.1614 8.7347 13.1614 8.69984C13.1614 8.66498 13.1896 8.63672 13.2245 8.63672C13.2593 8.63672 13.2876 8.66498 13.2876 8.69984Z" fill="#FFC72C" stroke="black" stroke-width="0.0231241"/>
<path d="M12.8594 10.2059L13.2048 9.69861L13.5518 10.2069" stroke="#FFC72C" stroke-width="0.0462457"/>
<path d="M13.2744 10.0162C13.2744 10.0541 13.2437 10.0849 13.2058 10.0849C13.1679 10.0849 13.1372 10.0541 13.1372 10.0162C13.1372 9.97835 13.1679 9.94763 13.2058 9.94763C13.2437 9.94763 13.2744 9.97835 13.2744 10.0162Z" fill="#FFC72C" stroke="black" stroke-width="0.0231241"/>
<path d="M12.9244 10.5807L13.4598 10.5822C13.4598 10.5822 13.4682 10.5127 13.4039 10.4705C13.6843 10.4319 13.6115 10.1845 13.8464 10.1705C13.8919 10.1775 13.7237 10.2757 13.7237 10.2757C13.7237 10.2757 13.582 10.3756 13.6465 10.4264C13.6977 10.4667 13.7201 10.4019 13.7272 10.3528C13.7342 10.3037 13.955 10.2722 13.9235 10.1319C13.8709 10.0163 13.5624 10.2091 13.5624 10.2091L13.3423 10.2078C13.3286 10.1831 13.2679 10.0841 13.2053 10.0836C13.131 10.0863 13.0786 10.2091 13.0786 10.2091H12.7596H12.5808C12.5808 10.2091 12.5637 10.3368 12.8161 10.3613C12.873 10.4355 12.917 10.4563 12.9664 10.4755C12.9335 10.5029 12.9242 10.5361 12.9244 10.5807Z" fill="#FFC72C" stroke="black" stroke-width="0.0231241"/>
<path d="M12.9629 10.4719L13.4089 10.4703L12.9629 10.4719Z" fill="#FFC72C"/>
<path d="M12.9629 10.4719L13.4089 10.4703" stroke="black" stroke-width="0.0231241"/>
<path d="M12.7588 10.2091C12.7588 10.2091 12.7945 10.4177 12.9591 10.4671L12.7588 10.2091Z" fill="#FFC72C"/>
<path d="M12.7588 10.2091C12.7588 10.2091 12.7945 10.4177 12.9591 10.4671" stroke="black" stroke-width="0.0231241"/>
<path d="M12.7316 10.2063C12.7481 10.1267 12.7782 10.113 12.8112 10.0114C12.8167 9.9126 12.7316 9.92358 12.7563 9.86046C12.8002 9.79184 12.7782 9.72597 12.6959 9.67383C12.7124 9.7644 12.5889 9.84948 12.5889 9.92358C12.5889 9.99769 12.652 9.98122 12.6438 10.0937C12.6492 10.1596 12.6273 10.1431 12.6218 10.2063L12.7316 10.2063Z" fill="url(#paint2_linear_304_1017)" stroke="black" stroke-width="0.0231241"/>
<path d="M13.2688 9.71168C13.2688 9.74654 13.2405 9.7748 13.2057 9.7748C13.1708 9.7748 13.1426 9.74654 13.1426 9.71168C13.1426 9.67682 13.1708 9.64856 13.2057 9.64856C13.2405 9.64856 13.2688 9.67682 13.2688 9.71168Z" fill="#FFC72C" stroke="black" stroke-width="0.0231241"/>
<path d="M12.8518 11.2034L13.1972 10.6962L13.5442 11.2045" stroke="#FFC72C" stroke-width="0.0462457"/>
<path d="M13.2663 11.0139C13.2663 11.0518 13.2356 11.0825 13.1977 11.0825C13.1599 11.0825 13.1291 11.0518 13.1292 11.0139C13.1291 10.976 13.1599 10.9453 13.1977 10.9453C13.2356 10.9453 13.2663 10.976 13.2663 11.0139Z" fill="#FFC72C" stroke="black" stroke-width="0.0231241"/>
<path d="M12.9163 11.5782L13.4518 11.5797C13.4518 11.5797 13.4601 11.5103 13.3958 11.468C13.6763 11.4295 13.6034 11.1821 13.8383 11.1681C13.8839 11.1751 13.7156 11.2732 13.7156 11.2732C13.7156 11.2732 13.574 11.3732 13.6385 11.424C13.6897 11.4643 13.7121 11.3994 13.7191 11.3504C13.7261 11.3013 13.947 11.2697 13.9154 11.1295C13.8628 11.0138 13.5543 11.2066 13.5543 11.2066L13.3342 11.2054C13.3205 11.1807 13.2599 11.0816 13.1972 11.0812C13.1229 11.0839 13.0706 11.2066 13.0706 11.2066H12.7515H12.5728C12.5728 11.2066 12.5557 11.3343 12.8081 11.3589C12.8649 11.4331 12.909 11.4538 12.9584 11.4731C12.9254 11.5005 12.9162 11.5337 12.9163 11.5782Z" fill="#FFC72C" stroke="black" stroke-width="0.0231241"/>
<path d="M12.9551 11.4695L13.4011 11.468L12.9551 11.4695Z" fill="#FFC72C"/>
<path d="M12.9551 11.4695L13.4011 11.468" stroke="black" stroke-width="0.0231241"/>
<path d="M12.7507 11.2065C12.7507 11.2065 12.7864 11.4151 12.9511 11.4645L12.7507 11.2065Z" fill="#FFC72C"/>
<path d="M12.7507 11.2065C12.7507 11.2065 12.7864 11.4151 12.9511 11.4645" stroke="black" stroke-width="0.0231241"/>
<path d="M12.7235 11.2038C12.74 11.1242 12.7702 11.1105 12.8031 11.009C12.8086 10.9102 12.7235 10.9211 12.7482 10.858C12.7921 10.7894 12.7702 10.7235 12.6878 10.6714C12.7043 10.762 12.5808 10.847 12.5808 10.9211C12.5808 10.9952 12.6439 10.9788 12.6357 11.0913C12.6412 11.1572 12.6192 11.1407 12.6137 11.2038L12.7235 11.2038Z" fill="url(#paint3_linear_304_1017)" stroke="black" stroke-width="0.0231241"/>
<path d="M13.2607 10.7092C13.2607 10.7441 13.2325 10.7724 13.1976 10.7724C13.1628 10.7724 13.1345 10.7441 13.1345 10.7092C13.1345 10.6744 13.1628 10.6461 13.1976 10.6461C13.2325 10.6461 13.2607 10.6744 13.2607 10.7092Z" fill="#FFC72C" stroke="black" stroke-width="0.0231241"/>
<path d="M13.5063 12.2842L13.8517 11.777L14.1988 12.2853" stroke="#FFC72C" stroke-width="0.0462457"/>
<path d="M13.9214 12.0942C13.9214 12.1321 13.8907 12.1629 13.8528 12.1629C13.8149 12.1629 13.7842 12.1321 13.7842 12.0942C13.7842 12.0564 13.8149 12.0256 13.8528 12.0256C13.8907 12.0256 13.9214 12.0564 13.9214 12.0942Z" fill="#FFC72C" stroke="black" stroke-width="0.0231241"/>
<path d="M13.5713 12.6587L14.1068 12.6602C14.1068 12.6602 14.1152 12.5907 14.0509 12.5485C14.3313 12.5099 14.2584 12.2625 14.4933 12.2485C14.5389 12.2555 14.3706 12.3537 14.3706 12.3537C14.3706 12.3537 14.229 12.4536 14.2935 12.5044C14.3447 12.5447 14.3671 12.4799 14.3741 12.4308C14.3811 12.3817 14.602 12.3502 14.5704 12.2099C14.5179 12.0943 14.2094 12.2871 14.2094 12.2871L13.9893 12.2858C13.9755 12.2611 13.9149 12.1621 13.8522 12.1616C13.7779 12.1643 13.7256 12.2871 13.7256 12.2871H13.4066H13.2278C13.2278 12.2871 13.2107 12.4148 13.4631 12.4393C13.5199 12.5135 13.564 12.5343 13.6134 12.5535C13.5805 12.5809 13.5712 12.6141 13.5713 12.6587Z" fill="#FFC72C" stroke="black" stroke-width="0.0231241"/>
<path d="M13.6099 12.5501L14.0558 12.5486L13.6099 12.5501Z" fill="#FFC72C"/>
<path d="M13.6099 12.5501L14.0558 12.5486" stroke="black" stroke-width="0.0231241"/>
<path d="M13.4058 12.2871C13.4058 12.2871 13.4414 12.4957 13.6061 12.5451L13.4058 12.2871Z" fill="#FFC72C"/>
<path d="M13.4058 12.2871C13.4058 12.2871 13.4414 12.4957 13.6061 12.5451" stroke="black" stroke-width="0.0231241"/>
<path d="M13.3778 12.2845C13.3943 12.2049 13.4245 12.1912 13.4574 12.0897C13.4629 11.9909 13.3778 12.0018 13.4025 11.9387C13.4464 11.8701 13.4245 11.8042 13.3421 11.7521C13.3586 11.8426 13.2351 11.9277 13.2351 12.0018C13.2351 12.0759 13.2982 12.0595 13.29 12.172C13.2955 12.2379 13.2735 12.2214 13.268 12.2845L13.3778 12.2845Z" fill="url(#paint4_linear_304_1017)" stroke="black" stroke-width="0.0231241"/>
<path d="M13.9158 11.7897C13.9158 11.8245 13.8875 11.8528 13.8527 11.8528C13.8178 11.8528 13.7895 11.8245 13.7896 11.7897C13.7895 11.7548 13.8178 11.7266 13.8527 11.7266C13.8875 11.7266 13.9158 11.7548 13.9158 11.7897Z" fill="#FFC72C" stroke="black" stroke-width="0.0231241"/>
<path d="M12.7664 13.1679L13.1117 12.6606L13.4588 13.169" stroke="#FFC72C" stroke-width="0.0462457"/>
<path d="M13.1811 12.9782C13.1811 13.016 13.1504 13.0468 13.1125 13.0468C13.0746 13.0468 13.0439 13.016 13.0439 12.9782C13.0439 12.9403 13.0746 12.9095 13.1125 12.9095C13.1504 12.9095 13.1811 12.9403 13.1811 12.9782Z" fill="#FFC72C" stroke="black" stroke-width="0.0231241"/>
<path d="M12.8309 13.5425L13.3663 13.544C13.3663 13.544 13.3747 13.4745 13.3104 13.4323C13.5908 13.3937 13.518 13.1463 13.7528 13.1323C13.7984 13.1393 13.6301 13.2375 13.6301 13.2375C13.6301 13.2375 13.4885 13.3374 13.553 13.3882C13.6042 13.4285 13.6266 13.3637 13.6337 13.3146C13.6407 13.2655 13.8615 13.234 13.83 13.0937C13.7774 12.978 13.4689 13.1709 13.4689 13.1709L13.2488 13.1696C13.2351 13.1449 13.1744 13.0459 13.1118 13.0454C13.0375 13.0481 12.9851 13.1709 12.9851 13.1709H12.6661H12.4873C12.4873 13.1709 12.4702 13.2986 12.7226 13.3231C12.7795 13.3973 12.8235 13.4181 12.8729 13.4373C12.84 13.4647 12.8307 13.4979 12.8309 13.5425Z" fill="#FFC72C" stroke="black" stroke-width="0.0231241"/>
<path d="M12.8699 13.4338L13.3159 13.4323L12.8699 13.4338Z" fill="#FFC72C"/>
<path d="M12.8699 13.4338L13.3159 13.4323" stroke="black" stroke-width="0.0231241"/>
<path d="M12.6653 13.1709C12.6653 13.1709 12.701 13.3795 12.8656 13.4289L12.6653 13.1709Z" fill="#FFC72C"/>
<path d="M12.6653 13.1709C12.6653 13.1709 12.701 13.3795 12.8656 13.4289" stroke="black" stroke-width="0.0231241"/>
<path d="M12.6383 13.1682C12.6548 13.0886 12.685 13.0749 12.7179 12.9733C12.7234 12.8745 12.6383 12.8855 12.663 12.8224C12.7069 12.7538 12.685 12.6879 12.6026 12.6357C12.6191 12.7263 12.4956 12.8114 12.4956 12.8855C12.4956 12.9596 12.5587 12.9431 12.5505 13.0557C12.556 13.1215 12.534 13.1051 12.5285 13.1682L12.6383 13.1682Z" fill="url(#paint5_linear_304_1017)" stroke="black" stroke-width="0.0231241"/>
<path d="M13.1753 12.6735C13.1753 12.7083 13.147 12.7366 13.1122 12.7366C13.0773 12.7366 13.0491 12.7083 13.0491 12.6735C13.0491 12.6386 13.0773 12.6104 13.1122 12.6104C13.147 12.6104 13.1753 12.6386 13.1753 12.6735Z" fill="#FFC72C" stroke="black" stroke-width="0.0231241"/>
<path d="M12.7856 14.2116L13.131 13.7043L13.4781 14.2127" stroke="#FFC72C" stroke-width="0.0462457"/>
<path d="M13.2007 14.022C13.2007 14.0599 13.17 14.0906 13.1321 14.0906C13.0942 14.0906 13.0635 14.0599 13.0635 14.022C13.0635 13.9841 13.0942 13.9534 13.1321 13.9534C13.17 13.9534 13.2007 13.9841 13.2007 14.022Z" fill="#FFC72C" stroke="black" stroke-width="0.0231241"/>
<path d="M12.8504 14.5864L13.3858 14.5879C13.3858 14.5879 13.3942 14.5184 13.3299 14.4762C13.6104 14.4376 13.5375 14.1903 13.7724 14.1762C13.818 14.1832 13.6497 14.2814 13.6497 14.2814C13.6497 14.2814 13.5081 14.3813 13.5726 14.4321C13.6238 14.4725 13.6462 14.4076 13.6532 14.3585C13.6602 14.3095 13.8811 14.2779 13.8495 14.1377C13.7969 14.022 13.4884 14.2148 13.4884 14.2148L13.2683 14.2136C13.2546 14.1889 13.1939 14.0898 13.1313 14.0894C13.057 14.0921 13.0046 14.2148 13.0046 14.2148H12.6856H12.5068C12.5068 14.2148 12.4898 14.3425 12.7422 14.3671C12.799 14.4413 12.8431 14.462 12.8925 14.4812C12.8595 14.5087 12.8503 14.5419 12.8504 14.5864Z" fill="#FFC72C" stroke="black" stroke-width="0.0231241"/>
<path d="M12.8892 14.4776L13.3351 14.4761L12.8892 14.4776Z" fill="#FFC72C"/>
<path d="M12.8892 14.4776L13.3351 14.4761" stroke="black" stroke-width="0.0231241"/>
<path d="M12.6848 14.2147C12.6848 14.2147 12.7205 14.4233 12.8852 14.4727L12.6848 14.2147Z" fill="#FFC72C"/>
<path d="M12.6848 14.2147C12.6848 14.2147 12.7205 14.4233 12.8852 14.4727" stroke="black" stroke-width="0.0231241"/>
<path d="M12.6574 14.2119C12.6738 14.1323 12.704 14.1186 12.737 14.017C12.7424 13.9182 12.6574 13.9292 12.6821 13.8661C12.726 13.7975 12.704 13.7316 12.6217 13.6794C12.6382 13.77 12.5146 13.8551 12.5146 13.9292C12.5146 14.0033 12.5778 13.9868 12.5695 14.0994C12.575 14.1652 12.5531 14.1488 12.5476 14.2119L12.6574 14.2119Z" fill="url(#paint6_linear_304_1017)" stroke="black" stroke-width="0.0231241"/>
<path d="M13.1948 13.7174C13.1948 13.7523 13.1666 13.7805 13.1317 13.7805C13.0968 13.7805 13.0686 13.7523 13.0686 13.7174C13.0686 13.6826 13.0968 13.6543 13.1317 13.6543C13.1666 13.6543 13.1948 13.6826 13.1948 13.7174Z" fill="#FFC72C" stroke="black" stroke-width="0.0231241"/>
<path d="M16.4629 9.21026L16.8083 8.703L17.1553 9.21132" stroke="#FFC72C" stroke-width="0.0462457"/>
<path d="M16.8772 9.02064C16.8772 9.05853 16.8465 9.08925 16.8086 9.08925C16.7707 9.08925 16.74 9.05853 16.74 9.02064C16.74 8.98275 16.7707 8.95203 16.8086 8.95203C16.8465 8.95203 16.8772 8.98275 16.8772 9.02064Z" fill="#FFC72C" stroke="black" stroke-width="0.0231241"/>
<path d="M16.5279 9.58506L17.0633 9.58658C17.0633 9.58658 17.0717 9.51709 17.0074 9.47485C17.2878 9.43629 17.215 9.18891 17.4499 9.17489C17.4954 9.1819 17.3272 9.28006 17.3272 9.28006C17.3272 9.28006 17.1856 9.38 17.25 9.4308C17.3012 9.47114 17.3237 9.40627 17.3307 9.35719C17.3377 9.30811 17.5585 9.27656 17.527 9.13633C17.4744 9.02064 17.1659 9.21345 17.1659 9.21345L16.9458 9.21223C16.9321 9.18753 16.8714 9.08847 16.8088 9.08801C16.7345 9.09072 16.6821 9.21345 16.6821 9.21345H16.3631H16.1843C16.1843 9.21345 16.1673 9.34118 16.4197 9.36572C16.4765 9.43994 16.5205 9.46068 16.5699 9.47989C16.537 9.50734 16.5277 9.54054 16.5279 9.58506Z" fill="#FFC72C" stroke="black" stroke-width="0.0231241"/>
<path d="M16.5664 9.47625L17.0124 9.47473L16.5664 9.47625Z" fill="#FFC72C"/>
<path d="M16.5664 9.47625L17.0124 9.47473" stroke="black" stroke-width="0.0231241"/>
<path d="M16.3621 9.21313C16.3621 9.21313 16.3977 9.42173 16.5624 9.47113L16.3621 9.21313Z" fill="#FFC72C"/>
<path d="M16.3621 9.21313C16.3621 9.21313 16.3977 9.42173 16.5624 9.47113" stroke="black" stroke-width="0.0231241"/>
<path d="M16.3344 9.21054C16.3508 9.13095 16.381 9.11723 16.414 9.01568C16.4194 8.91688 16.3344 8.92785 16.3591 8.86473C16.403 8.79612 16.381 8.73025 16.2987 8.6781C16.3152 8.76867 16.1917 8.85375 16.1917 8.92785C16.1917 9.00196 16.2548 8.98549 16.2465 9.09802C16.252 9.16388 16.2301 9.14742 16.2246 9.21054L16.3344 9.21054Z" fill="url(#paint7_linear_304_1017)" stroke="black" stroke-width="0.0231241"/>
<path d="M16.8721 8.71608C16.8721 8.75093 16.8438 8.7792 16.809 8.7792C16.7741 8.7792 16.7458 8.75093 16.7458 8.71608C16.7458 8.68122 16.7741 8.65295 16.809 8.65295C16.8438 8.65295 16.8721 8.68122 16.8721 8.71608Z" fill="#FFC72C" stroke="black" stroke-width="0.0231241"/>
<path d="M16.4304 10.204L16.7758 9.69678L17.1229 10.2051" stroke="#FFC72C" stroke-width="0.0462457"/>
<path d="M16.8449 10.0144C16.845 10.0523 16.8142 10.083 16.7764 10.083C16.7385 10.083 16.7078 10.0523 16.7078 10.0144C16.7078 9.97652 16.7385 9.9458 16.7764 9.9458C16.8142 9.9458 16.845 9.97652 16.8449 10.0144Z" fill="#FFC72C" stroke="black" stroke-width="0.0231241"/>
<path d="M16.4949 10.5788L17.0304 10.5804C17.0304 10.5804 17.0388 10.5109 16.9744 10.4686C17.2549 10.4301 17.182 10.1827 17.4169 10.1687C17.4625 10.1757 17.2942 10.2738 17.2942 10.2738C17.2942 10.2738 17.1526 10.3738 17.2171 10.4246C17.2683 10.4649 17.2907 10.4 17.2977 10.351C17.3047 10.3019 17.5256 10.2703 17.494 10.1301C17.4414 10.0144 17.133 10.2072 17.133 10.2072L16.9129 10.206C16.8991 10.1813 16.8385 10.0822 16.7758 10.0818C16.7015 10.0845 16.6492 10.2072 16.6492 10.2072H16.3302H16.1514C16.1514 10.2072 16.1343 10.335 16.3867 10.3595C16.4435 10.4337 16.4876 10.4544 16.537 10.4737C16.5041 10.5011 16.4948 10.5343 16.4949 10.5788Z" fill="#FFC72C" stroke="black" stroke-width="0.0231241"/>
<path d="M16.5334 10.47L16.9794 10.4685L16.5334 10.47Z" fill="#FFC72C"/>
<path d="M16.5334 10.47L16.9794 10.4685" stroke="black" stroke-width="0.0231241"/>
<path d="M16.3291 10.207C16.3291 10.207 16.3648 10.4156 16.5295 10.465L16.3291 10.207Z" fill="#FFC72C"/>
<path d="M16.3291 10.207C16.3291 10.207 16.3648 10.4156 16.5295 10.465" stroke="black" stroke-width="0.0231241"/>
<path d="M16.3021 10.2043C16.3186 10.1247 16.3488 10.111 16.3817 10.0095C16.3872 9.91065 16.3021 9.92163 16.3268 9.8585C16.3708 9.78989 16.3488 9.72402 16.2665 9.67188C16.2829 9.76245 16.1594 9.84753 16.1594 9.92163C16.1594 9.99573 16.2225 9.97927 16.2143 10.0918C16.2198 10.1577 16.1978 10.1412 16.1924 10.2043L16.3021 10.2043Z" fill="url(#paint8_linear_304_1017)" stroke="black" stroke-width="0.0231241"/>
<path d="M16.8393 9.70985C16.8394 9.74471 16.8111 9.77297 16.7762 9.77297C16.7414 9.77297 16.7131 9.74471 16.7131 9.70985C16.7131 9.67499 16.7414 9.64673 16.7762 9.64673C16.8111 9.64673 16.8394 9.67499 16.8393 9.70985Z" fill="#FFC72C" stroke="black" stroke-width="0.0231241"/>
<path d="M16.3862 11.2193L16.7316 10.712L17.0787 11.2204" stroke="#FFC72C" stroke-width="0.0462457"/>
<path d="M16.8008 11.0298C16.8008 11.0677 16.7701 11.0984 16.7322 11.0984C16.6943 11.0984 16.6636 11.0677 16.6636 11.0298C16.6636 10.9919 16.6943 10.9612 16.7322 10.9612C16.7701 10.9612 16.8008 10.9919 16.8008 11.0298Z" fill="#FFC72C" stroke="black" stroke-width="0.0231241"/>
<path d="M16.4507 11.5941L16.9862 11.5956C16.9862 11.5956 16.9946 11.5261 16.9302 11.4839C17.2107 11.4453 17.1378 11.1979 17.3727 11.1839C17.4183 11.1909 17.25 11.2891 17.25 11.2891C17.25 11.2891 17.1084 11.389 17.1729 11.4398C17.2241 11.4802 17.2465 11.4153 17.2535 11.3662C17.2605 11.3171 17.4814 11.2856 17.4498 11.1454C17.3973 11.0297 17.0888 11.2225 17.0888 11.2225L16.8687 11.2213C16.8549 11.1966 16.7943 11.0975 16.7316 11.097C16.6573 11.0998 16.605 11.2225 16.605 11.2225H16.286H16.1072C16.1072 11.2225 16.0901 11.3502 16.3425 11.3748C16.3993 11.449 16.4434 11.4697 16.4928 11.4889C16.4599 11.5164 16.4506 11.5496 16.4507 11.5941Z" fill="#FFC72C" stroke="black" stroke-width="0.0231241"/>
<path d="M16.4893 11.4854L16.9352 11.4839L16.4893 11.4854Z" fill="#FFC72C"/>
<path d="M16.4893 11.4854L16.9352 11.4839" stroke="black" stroke-width="0.0231241"/>
<path d="M16.2852 11.2224C16.2852 11.2224 16.3208 11.431 16.4855 11.4804L16.2852 11.2224Z" fill="#FFC72C"/>
<path d="M16.2852 11.2224C16.2852 11.2224 16.3208 11.431 16.4855 11.4804" stroke="black" stroke-width="0.0231241"/>
<path d="M16.258 11.2197C16.2744 11.1401 16.3046 11.1264 16.3375 11.0248C16.343 10.926 16.258 10.937 16.2827 10.8739C16.3266 10.8053 16.3046 10.7394 16.2223 10.6873C16.2387 10.7778 16.1152 10.8629 16.1152 10.937C16.1152 11.0111 16.1784 10.9946 16.1701 11.1072C16.1756 11.173 16.1537 11.1566 16.1482 11.2197L16.258 11.2197Z" fill="url(#paint9_linear_304_1017)" stroke="black" stroke-width="0.0231241"/>
<path d="M16.7952 10.7251C16.7952 10.76 16.7669 10.7882 16.732 10.7882C16.6972 10.7882 16.6689 10.76 16.6689 10.7251C16.6689 10.6903 16.6972 10.662 16.732 10.662C16.7669 10.662 16.7952 10.6903 16.7952 10.7251Z" fill="#FFC72C" stroke="black" stroke-width="0.0231241"/>
<path d="M16.4355 12.2184L16.7809 11.7112L17.128 12.2195" stroke="#FFC72C" stroke-width="0.0462457"/>
<path d="M16.8503 12.0288C16.8503 12.0667 16.8196 12.0974 16.7817 12.0974C16.7438 12.0974 16.7131 12.0667 16.7131 12.0288C16.7131 11.9909 16.7438 11.9602 16.7817 11.9602C16.8196 11.9602 16.8503 11.9909 16.8503 12.0288Z" fill="#FFC72C" stroke="black" stroke-width="0.0231241"/>
<path d="M16.5005 12.5932L17.036 12.5948C17.036 12.5948 17.0444 12.5253 16.9801 12.483C17.2605 12.4445 17.1876 12.1971 17.4225 12.1831C17.4681 12.1901 17.2998 12.2882 17.2998 12.2882C17.2998 12.2882 17.1582 12.3882 17.2227 12.439C17.2739 12.4793 17.2963 12.4144 17.3033 12.3654C17.3103 12.3163 17.5312 12.2847 17.4996 12.1445C17.4471 12.0288 17.1386 12.2216 17.1386 12.2216L16.9185 12.2204C16.9047 12.1957 16.8441 12.0967 16.7814 12.0962C16.7071 12.0989 16.6548 12.2216 16.6548 12.2216H16.3358H16.157C16.157 12.2216 16.1399 12.3494 16.3923 12.3739C16.4491 12.4481 16.4932 12.4689 16.5426 12.4881C16.5097 12.5155 16.5004 12.5487 16.5005 12.5932Z" fill="#FFC72C" stroke="black" stroke-width="0.0231241"/>
<path d="M16.5391 12.4844L16.985 12.4829L16.5391 12.4844Z" fill="#FFC72C"/>
<path d="M16.5391 12.4844L16.985 12.4829" stroke="black" stroke-width="0.0231241"/>
<path d="M16.3345 12.2214C16.3345 12.2214 16.3702 12.43 16.5348 12.4794L16.3345 12.2214Z" fill="#FFC72C"/>
<path d="M16.3345 12.2214C16.3345 12.2214 16.3702 12.43 16.5348 12.4794" stroke="black" stroke-width="0.0231241"/>
<path d="M16.3075 12.2186C16.324 12.139 16.3542 12.1253 16.3871 12.0237C16.3926 11.9249 16.3075 11.9359 16.3322 11.8728C16.3761 11.8042 16.3542 11.7383 16.2718 11.6862C16.2883 11.7767 16.1648 11.8618 16.1648 11.9359C16.1648 12.01 16.2279 11.9935 16.2197 12.1061C16.2252 12.1719 16.2032 12.1555 16.1977 12.2186L16.3075 12.2186Z" fill="url(#paint10_linear_304_1017)" stroke="black" stroke-width="0.0231241"/>
<path d="M16.8445 11.7243C16.8445 11.7591 16.8162 11.7874 16.7814 11.7874C16.7465 11.7874 16.7182 11.7591 16.7183 11.7243C16.7182 11.6894 16.7465 11.6611 16.7814 11.6611C16.8162 11.6611 16.8445 11.6894 16.8445 11.7243Z" fill="#FFC72C" stroke="black" stroke-width="0.0231241"/>
<path d="M16.4243 13.2173L16.7697 12.7101L17.1168 13.2184" stroke="#FFC72C" stroke-width="0.0462457"/>
<path d="M16.8393 13.0277C16.8393 13.0656 16.8086 13.0963 16.7707 13.0963C16.7328 13.0963 16.7021 13.0656 16.7021 13.0277C16.7021 12.9898 16.7328 12.9591 16.7707 12.9591C16.8086 12.9591 16.8393 12.9898 16.8393 13.0277Z" fill="#FFC72C" stroke="black" stroke-width="0.0231241"/>
<path d="M16.4893 13.5921L17.0247 13.5937C17.0247 13.5937 17.0331 13.5242 16.9688 13.4819C17.2493 13.4434 17.1764 13.196 17.4113 13.182C17.4569 13.189 17.2886 13.2871 17.2886 13.2871C17.2886 13.2871 17.147 13.3871 17.2115 13.4379C17.2627 13.4782 17.2851 13.4133 17.2921 13.3643C17.2991 13.3152 17.52 13.2836 17.4884 13.1434C17.4358 13.0277 17.1273 13.2205 17.1273 13.2205L16.9072 13.2193C16.8935 13.1946 16.8329 13.0956 16.7702 13.0951C16.6959 13.0978 16.6436 13.2205 16.6436 13.2205H16.3245H16.1458C16.1458 13.2205 16.1287 13.3483 16.3811 13.3728C16.4379 13.447 16.482 13.4678 16.5314 13.487C16.4984 13.5144 16.4892 13.5476 16.4893 13.5921Z" fill="#FFC72C" stroke="black" stroke-width="0.0231241"/>
<path d="M16.5278 13.4833L16.9738 13.4818L16.5278 13.4833Z" fill="#FFC72C"/>
<path d="M16.5278 13.4833L16.9738 13.4818" stroke="black" stroke-width="0.0231241"/>
<path d="M16.3237 13.2203C16.3237 13.2203 16.3594 13.4289 16.5241 13.4783L16.3237 13.2203Z" fill="#FFC72C"/>
<path d="M16.3237 13.2203C16.3237 13.2203 16.3594 13.4289 16.5241 13.4783" stroke="black" stroke-width="0.0231241"/>
<path d="M16.2963 13.2177C16.3127 13.1382 16.3429 13.1244 16.3759 13.0229C16.3814 12.9241 16.2963 12.9351 16.321 12.8719C16.3649 12.8033 16.3429 12.7374 16.2606 12.6853C16.2771 12.7759 16.1536 12.861 16.1536 12.9351C16.1536 13.0092 16.2167 12.9927 16.2085 13.1052C16.2139 13.1711 16.192 13.1546 16.1865 13.2177L16.2963 13.2177Z" fill="url(#paint11_linear_304_1017)" stroke="black" stroke-width="0.0231241"/>
<path d="M16.8337 12.7232C16.8337 12.758 16.8055 12.7863 16.7706 12.7863C16.7358 12.7863 16.7075 12.758 16.7075 12.7232C16.7075 12.6883 16.7358 12.66 16.7706 12.66C16.8055 12.66 16.8337 12.6883 16.8337 12.7232Z" fill="#FFC72C" stroke="black" stroke-width="0.0231241"/>
<path d="M16.4304 14.2221L16.7758 13.7148L17.1229 14.2232" stroke="#FFC72C" stroke-width="0.0462457"/>
<path d="M16.8449 14.0326C16.845 14.0705 16.8142 14.1012 16.7764 14.1012C16.7385 14.1012 16.7078 14.0705 16.7078 14.0326C16.7078 13.9947 16.7385 13.964 16.7764 13.964C16.8142 13.964 16.845 13.9947 16.8449 14.0326Z" fill="#FFC72C" stroke="black" stroke-width="0.0231241"/>
<path d="M16.4949 14.5968L17.0304 14.5983C17.0304 14.5983 17.0388 14.5288 16.9744 14.4866C17.2549 14.448 17.182 14.2006 17.4169 14.1866C17.4625 14.1936 17.2942 14.2918 17.2942 14.2918C17.2942 14.2918 17.1526 14.3917 17.2171 14.4425C17.2683 14.4829 17.2907 14.418 17.2977 14.3689C17.3047 14.3198 17.5256 14.2883 17.494 14.1481C17.4414 14.0324 17.133 14.2252 17.133 14.2252L16.9129 14.224C16.8991 14.1992 16.8385 14.1002 16.7758 14.0997C16.7015 14.1024 16.6492 14.2252 16.6492 14.2252H16.3302H16.1514C16.1514 14.2252 16.1343 14.3529 16.3867 14.3774C16.4435 14.4517 16.4876 14.4724 16.537 14.4916C16.5041 14.5191 16.4948 14.5523 16.4949 14.5968Z" fill="#FFC72C" stroke="black" stroke-width="0.0231241"/>
<path d="M16.5334 14.4882L16.9794 14.4867L16.5334 14.4882Z" fill="#FFC72C"/>
<path d="M16.5334 14.4882L16.9794 14.4867" stroke="black" stroke-width="0.0231241"/>
<path d="M16.3291 14.2252C16.3291 14.2252 16.3648 14.4338 16.5295 14.4832L16.3291 14.2252Z" fill="#FFC72C"/>
<path d="M16.3291 14.2252C16.3291 14.2252 16.3648 14.4338 16.5295 14.4832" stroke="black" stroke-width="0.0231241"/>
<path d="M16.3021 14.2224C16.3186 14.1428 16.3488 14.1291 16.3817 14.0275C16.3872 13.9287 16.3021 13.9397 16.3268 13.8766C16.3708 13.808 16.3488 13.7421 16.2665 13.6899C16.2829 13.7805 16.1594 13.8656 16.1594 13.9397C16.1594 14.0138 16.2225 13.9973 16.2143 14.1099C16.2198 14.1757 16.1978 14.1593 16.1924 14.2224L16.3021 14.2224Z" fill="url(#paint12_linear_304_1017)" stroke="black" stroke-width="0.0231241"/>
<path d="M16.8393 13.7278C16.8394 13.7627 16.8111 13.7909 16.7762 13.7909C16.7414 13.7909 16.7131 13.7627 16.7131 13.7278C16.7131 13.6929 16.7414 13.6647 16.7762 13.6647C16.8111 13.6647 16.8394 13.6929 16.8393 13.7278Z" fill="#FFC72C" stroke="black" stroke-width="0.0231241"/>
<path d="M15.3546 14.695C15.3546 14.695 15.4943 15.0172 15.6534 14.8192C15.8126 14.6213 15.7544 14.5359 15.7544 14.5359L15.3973 14.3418L15.2925 14.563L15.3546 14.695Z" fill="#FFC72C" stroke="black" stroke-width="0.0231241"/>
<path d="M15.6612 14.6523C15.6612 14.6523 15.6845 14.6562 15.7039 14.6213C15.7234 14.5863 15.6612 14.5708 15.6341 14.532L15.603 14.5941L15.6612 14.6523Z" fill="#FFC6B5" stroke="black" stroke-width="0.0231241"/>
<path d="M14.8541 14.5668L14.5397 14.7375C14.5397 14.7375 14.3845 14.7686 14.3728 14.7375C14.3612 14.7065 14.3767 14.6793 14.4582 14.6754C14.5397 14.6716 14.761 14.4697 14.761 14.4697L14.8541 14.5668Z" fill="#FFC6B5" stroke="black" stroke-width="0.0231241"/>
<path d="M14.8577 8.98148C14.8577 8.98148 14.8655 9.05522 14.8693 9.09404C14.8732 9.13285 14.8072 9.21436 14.8034 9.21048C14.7995 9.2066 14.7684 9.21436 14.7723 9.23765C14.7762 9.26094 14.8228 9.2687 14.8228 9.2687C14.8228 9.2687 14.8034 9.35021 14.8228 9.35409C14.8422 9.35797 14.7723 9.45889 14.8228 9.48606C14.8732 9.51323 14.9586 9.54816 14.9974 9.5404C15.0362 9.53263 14.9974 9.69177 14.9974 9.69177L14.8888 9.92465L15.4865 9.86255L15.3623 9.6646C15.3623 9.6646 15.3041 9.62579 15.3196 9.51323C15.3351 9.40067 15.3118 8.89221 15.3118 8.89221L14.8849 8.83398L14.8577 8.98148Z" fill="#FFC6B5" stroke="black" stroke-width="0.0231241"/>
<path d="M14.7493 9.86633C14.7493 9.86633 14.5552 9.95561 14.563 10.1963C14.5125 10.4291 14.4853 10.662 14.4853 10.662C14.4853 10.662 14.2563 10.9221 14.1865 11.0152C14.1166 11.1084 14.0118 11.2986 13.973 11.349C13.9342 11.3995 13.7828 11.5664 13.7867 11.6285C13.7906 11.6906 13.7517 11.9662 13.9031 11.9972C13.9419 12.0127 14.0661 11.6789 14.0661 11.6789C14.0661 11.6789 14.0739 11.5353 14.0312 11.5082C13.9885 11.481 14.1244 11.3878 14.1244 11.3878C14.1244 11.3878 14.3844 11.1976 14.4426 11.1511C14.5009 11.1045 14.66 10.926 14.66 10.926L14.7493 9.86633Z" fill="#FFC6B5" stroke="black" stroke-width="0.0231241"/>
<path d="M14.9708 9.68417C14.9708 9.68417 15.0212 9.82002 15.1338 9.79673C15.2463 9.77344 15.3783 9.66864 15.3783 9.66864C15.3783 9.66864 15.4831 9.66476 15.4986 9.68029C15.5142 9.69581 15.782 9.95586 15.7742 10.0374C15.7664 10.1189 15.65 10.0956 15.6073 10.1499C15.5646 10.2043 15.4947 10.3401 15.5142 10.441C15.5336 10.542 15.5918 10.6739 15.584 10.7244C15.5763 10.7748 15.5336 10.7904 15.5336 10.8175C15.5336 10.8447 15.5685 10.8913 15.5685 10.9417C15.5685 10.9922 15.5219 11.0659 15.5297 11.1164C15.5374 11.1669 15.5413 11.3144 15.5413 11.3144L15.5297 11.9975C15.5297 11.9975 15.5685 12.0208 15.5724 12.0596C15.5763 12.0984 15.8363 13.2279 15.8363 13.2279C15.8363 13.2279 15.8247 13.2628 15.7975 13.2589C15.7703 13.255 15.9023 13.4336 15.9062 13.484C15.9101 13.5345 16.042 13.9304 16.0381 13.9847C16.0343 14.0391 16.0149 14.1594 16.0032 14.1633C15.9916 14.1672 16.0886 14.4117 16.0731 14.4505C16.0576 14.4893 15.8984 14.4854 15.8984 14.4854L15.8557 14.4777C15.8557 14.4777 15.8596 14.5281 15.8285 14.532C15.7975 14.5359 15.5685 14.5204 15.5685 14.5204C15.5685 14.5204 15.5025 14.6213 15.4637 14.6174C15.4249 14.6135 15.3744 14.5437 15.3628 14.5553C15.3511 14.567 15.3977 14.6329 15.3861 14.6523C15.3744 14.6717 15.1765 14.7144 15.1377 14.6213C15.0988 14.5281 15.1609 14.5514 15.1493 14.532C15.1377 14.5126 15.0484 14.4622 15.0212 14.4777C14.9941 14.4932 15.0911 14.5165 15.0872 14.5553C15.0833 14.5941 15.0018 14.6523 14.9708 14.6523C14.9397 14.6523 14.866 14.5087 14.7573 14.5243C14.6486 14.5398 14.5787 14.567 14.5787 14.567C14.5787 14.567 14.4507 14.6213 14.3963 14.6096C14.342 14.598 14.3187 14.5553 14.3187 14.532C14.3187 14.5087 14.3575 14.4078 14.3536 14.3768C14.3497 14.3457 14.3187 14.3147 14.3187 14.2681C14.3187 14.2215 14.408 14.0624 14.408 14.0624L14.4041 13.3482C14.4041 13.3482 14.3226 13.3482 14.3187 13.2977C14.3148 13.2473 14.4429 12.1683 14.4623 12.0984C14.4817 12.0285 14.5322 11.7801 14.5322 11.7801C14.5322 11.7801 14.4739 11.8073 14.4701 11.7801C14.4662 11.7529 14.6447 11.1358 14.6447 11.1358C14.6447 11.1358 14.6758 10.8292 14.6758 10.7477C14.6758 10.6662 14.6603 10.5536 14.6603 10.5536C14.6603 10.5536 14.5009 10.4861 14.4972 10.3828C14.4827 10.2184 14.6486 10.1266 14.668 10.0723C14.6874 10.018 14.7456 9.85495 14.7456 9.85495C14.7456 9.85495 14.831 9.70746 14.9708 9.68417Z" fill="white" stroke="black" stroke-width="0.0231241"/>
<path d="M14.912 14.6134C14.912 14.6134 14.5355 14.8113 14.4811 14.8268C14.4268 14.8424 14.3919 14.7609 14.4462 14.7453C14.5005 14.7298 14.5859 14.722 14.5859 14.722C14.5859 14.722 14.4578 14.6211 14.4617 14.6172C14.4656 14.6134 14.6364 14.5513 14.6403 14.5513C14.6441 14.5513 14.6946 14.6522 14.7295 14.6444C14.7645 14.6367 14.8654 14.559 14.8654 14.559C14.8654 14.559 14.9197 14.6211 14.912 14.6134Z" fill="#FFC72C" stroke="black" stroke-width="0.0231241"/>
<path d="M15.4424 14.7219C15.478 14.7678 15.4919 14.8474 15.5734 14.8009C15.6549 14.7543 15.5317 14.6678 15.5317 14.6678L15.4424 14.7219Z" fill="#FFC6B5" stroke="black" stroke-width="0.0231241"/>
<path d="M15.5917 14.7144C15.5917 14.7144 15.6306 14.7454 15.6655 14.7105C15.7004 14.6756 15.5956 14.6018 15.5956 14.6018L15.5452 14.66L15.5917 14.7144Z" fill="#FFC6B5" stroke="black" stroke-width="0.0231241"/>
<path d="M15.7584 10.0552C15.7622 10.0552 15.8865 10.4394 15.902 10.5365C15.9175 10.6335 15.968 11.0216 15.9486 11.076C15.9291 11.1303 15.7312 11.3904 15.7079 11.4564C15.6846 11.5223 15.5449 11.7746 15.5449 11.7746C15.5449 11.7746 15.51 12.023 15.4944 12.0347C15.4789 12.0463 15.5345 12.1073 15.5294 12.1278C15.5217 12.1509 15.4168 12.2598 15.3702 12.2482C15.3237 12.2365 15.2499 12.1822 15.246 12.1317C15.2421 12.0813 15.2499 11.9144 15.2848 11.8717C15.3198 11.829 15.5022 11.3981 15.5138 11.371C15.5255 11.3438 15.6807 11.0061 15.6846 10.9479C15.6885 10.8897 15.6363 10.755 15.5814 10.7056C15.4593 10.3461 15.5073 10.1293 15.7584 10.0552Z" fill="#FFC6B5" stroke="black" stroke-width="0.0231241"/>
<path d="M14.8462 8.95809C14.8462 8.95809 14.9316 8.96973 14.9781 8.94256C15.0247 8.9154 15.0791 8.90375 15.1179 8.95809C15.1567 9.01243 15.1839 9.00855 15.1839 9.00855C15.1839 9.00855 15.1256 9.15216 15.1839 9.16768C15.2421 9.18321 15.2693 9.18321 15.2731 9.20262C15.277 9.22202 15.2227 9.26472 15.2382 9.28412C15.2537 9.30353 15.2809 9.32682 15.2848 9.34235C15.2887 9.35787 15.2498 9.42385 15.2615 9.43938C15.2731 9.45491 15.3081 9.51701 15.3314 9.51701C15.3546 9.51701 15.3391 9.61405 15.409 9.59076C15.4788 9.56747 15.475 9.50536 15.475 9.50536C15.475 9.50536 15.5487 9.49372 15.5681 9.42774C15.5875 9.36175 15.6341 9.34623 15.6341 9.34623C15.6341 9.34623 15.7273 9.29577 15.6031 9.21814C15.6031 8.67475 15.246 8.73297 15.246 8.73297C15.246 8.73297 15.2033 8.63593 15.1334 8.64758C15.0635 8.65922 15.0597 8.74073 15.0092 8.73297C14.9587 8.7252 14.9471 8.69027 14.9432 8.69416C14.9393 8.69804 14.8966 8.77566 14.8966 8.79507C14.8966 8.81448 14.7608 8.7679 14.7724 8.86882C14.7841 8.96973 14.8501 8.96585 14.8462 8.95809Z" fill="#9C5100" stroke="black" stroke-width="0.0231241"/>
<path d="M15.4753 9.83521C15.4753 9.83521 15.1298 10.0564 15.1376 10.1341" stroke="black" stroke-width="0.0231241"/>
<path d="M15.5529 9.87402C15.5529 9.87402 15.4753 9.95941 15.4714 9.95941" stroke="black" stroke-width="0.0231241"/>
<path d="M15.6575 9.96729C15.6575 9.96729 15.4867 10.107 15.5139 10.1963" stroke="black" stroke-width="0.0231241"/>
<path d="M14.8504 9.8158C14.8504 9.8158 14.7999 9.92059 14.8116 9.95552C14.8232 9.99046 14.9086 10.1224 14.9202 10.2039C14.9319 10.2854 14.9202 10.3437 14.9202 10.3437" stroke="black" stroke-width="0.0231241"/>
<path d="M14.761 10.01C14.761 10.01 14.7765 10.1342 14.7998 10.1575C14.8231 10.1808 14.8852 10.2856 14.893 10.3283" stroke="black" stroke-width="0.0231241"/>
<path d="M14.7295 10.5262C14.7295 10.5262 14.8304 10.5766 14.9236 10.3826" stroke="black" stroke-width="0.0231241"/>
<path d="M15.0753 10.2468C15.0714 10.2468 15.0016 10.437 15.1258 10.5069C15.25 10.5767 15.3431 10.569 15.3975 10.5496C15.4518 10.5302 15.51 10.4952 15.51 10.4952" stroke="black" stroke-width="0.0231241"/>
<path d="M15.0212 10.4797C15.0212 10.4797 15.029 10.7359 15.4055 10.9882" stroke="black" stroke-width="0.0231241"/>
<path d="M15.0364 10.7202C15.0364 10.7202 15.0325 10.9453 15.18 11.0463" stroke="black" stroke-width="0.0231241"/>
<path d="M14.9589 10.4563C14.9589 10.4563 14.8463 10.7901 14.7571 10.825" stroke="black" stroke-width="0.0231241"/>
<path d="M14.9238 10.7009C14.9238 10.7009 14.92 10.9416 14.8889 11.027" stroke="black" stroke-width="0.0231241"/>
<path d="M14.8582 11.0851C14.8582 11.0851 14.9358 11.1821 15.0212 11.1744C15.1066 11.1666 15.1415 11.0657 15.1997 11.0812C15.2579 11.0967 15.3123 11.1433 15.4481 11.1317" stroke="black" stroke-width="0.0231241"/>
<path d="M15.2534 11.2327C15.2534 11.2327 15.2534 11.4306 15.2884 11.45C15.3233 11.4694 15.3078 11.6519 15.3078 11.6519" stroke="black" stroke-width="0.0231241"/>
<path d="M14.7803 11.1394C14.7803 11.1394 14.7764 11.3257 14.7531 11.3917C14.7299 11.4577 14.6833 11.5702 14.691 11.6673" stroke="black" stroke-width="0.0231241"/>
<path d="M14.5437 11.7759C14.5631 11.7682 14.6291 11.71 14.6291 11.71" stroke="black" stroke-width="0.0231241"/>
<path d="M14.6639 11.7526C14.6639 11.7526 14.497 12.4667 14.5436 12.8937" stroke="black" stroke-width="0.0231241"/>
<path d="M14.7029 11.7876C14.7029 11.7876 14.6175 12.3232 14.6564 12.4241" stroke="black" stroke-width="0.0231241"/>
<path d="M14.6599 11.7721C14.6638 11.7721 14.9859 11.7954 14.9859 11.7954" stroke="black" stroke-width="0.0231241"/>
<path d="M15.0325 11.7526C15.0325 11.7526 15.1217 11.7991 15.2459 11.7914" stroke="black" stroke-width="0.0231241"/>
<path d="M14.9936 12.0127C14.9936 12.0127 14.9781 12.9287 14.9548 13.1305" stroke="black" stroke-width="0.0231241"/>
<path d="M15.4714 12.2223C15.4714 12.2223 15.5724 13.0257 15.6306 13.0995" stroke="black" stroke-width="0.0231241"/>
<path d="M15.2771 12.3232C15.2771 12.3232 15.3392 13.0335 15.3741 13.0956" stroke="black" stroke-width="0.0231241"/>
<path d="M14.3962 13.344C14.3962 13.344 14.5166 13.3052 14.6252 13.1887C14.7494 13.3556 14.9396 13.1965 14.9396 13.1965C14.9396 13.1965 15.2346 13.3983 15.3666 13.1732C15.5684 13.3052 15.6693 13.1538 15.6693 13.1538C15.6693 13.1538 15.7431 13.2664 15.7974 13.2547" stroke="black" stroke-width="0.0231241"/>
<path d="M15.4751 13.3324C15.4751 13.3324 15.6265 14.0427 15.8516 14.2445" stroke="black" stroke-width="0.0231241"/>
<path d="M14.6951 13.2587C14.6951 13.2587 14.7145 13.8525 14.7494 14.2717" stroke="black" stroke-width="0.0231241"/>
<path d="M14.6679 13.9301C14.6679 13.9301 14.6485 14.3182 14.6252 14.3454" stroke="black" stroke-width="0.0231241"/>
<path d="M14.4387 14.3843C14.4387 14.3843 14.4814 14.5513 14.6949 14.396C14.9084 14.2407 14.9122 14.4542 14.92 14.4775C14.9278 14.5008 14.9627 14.6677 15.0442 14.528" stroke="black" stroke-width="0.0231241"/>
<path d="M15.2153 14.2989C15.2153 14.2989 15.1804 14.6443 15.487 14.392C15.7936 14.1397 15.8441 14.3881 15.8519 14.4658" stroke="black" stroke-width="0.0231241"/>
<path d="M15.219 8.82617C15.219 8.82617 15.1918 8.99695 15.3742 8.98143C15.3509 9.07458 15.4208 9.10563 15.4208 9.10563" stroke="black" stroke-width="0.0231241"/>
<path d="M15.5569 9.21045C15.5607 9.21045 15.6384 9.26091 15.553 9.32301" stroke="black" stroke-width="0.0231241"/>
<path d="M15.2927 9.34607C15.2927 9.34607 15.3315 9.39265 15.3742 9.38101C15.4169 9.36936 15.4868 9.4237 15.4868 9.4237C15.4868 9.4237 15.545 9.44311 15.5528 9.43146" stroke="black" stroke-width="0.0231241"/>
<path d="M15.0559 9.49385C15.0559 9.49385 15.1879 9.54431 15.2733 9.33472" stroke="black" stroke-width="0.0231241"/>
<path d="M14.811 9.27234L14.8887 9.27622" stroke="black" stroke-width="0.0231241"/>
<path d="M13.9504 11.7202L13.9565 11.8903" stroke="black" stroke-width="0.0231241"/>
<path d="M13.7908 11.7078C13.7908 11.7078 13.8998 11.8901 13.8907 11.9873" stroke="black" stroke-width="0.0231241"/>
<path d="M14.823 9.3501H14.8929L14.8308 9.37727" stroke="black" stroke-width="0.0231241" stroke-linejoin="round"/>
<path d="M15.2527 12.0888C15.2527 12.0888 15.3342 12.0802 15.3317 12.2163C15.3837 12.0472 15.4896 12.0432 15.4896 12.0432" stroke="black" stroke-width="0.0231241" stroke-linejoin="round"/>
<path d="M14.9202 9.13272C14.9318 9.13272 14.9745 9.1172 14.9823 9.12884C14.99 9.14049 14.9357 9.14825 14.9202 9.13272Z" stroke="black" stroke-width="0.0416219" stroke-linejoin="round"/>
<path d="M14.9733 15.9754C16.6126 15.9299 17.6712 14.746 17.6599 14.7346C17.6485 14.7232 17.8761 14.4045 18.0583 14.45C18.2404 14.4955 18.5022 15.0306 18.821 15.1444C18.9803 15.3948 18.7754 15.6225 18.7071 15.668C18.6388 15.7136 18.3315 15.8388 18.2859 15.6566C18.2404 15.4745 18.1493 15.5087 18.1493 15.5087C18.1493 15.5087 16.6922 16.9316 15.0075 16.8747C13.2658 16.8861 11.8315 15.5087 11.8315 15.5087L11.7063 15.6453C11.7063 15.6453 11.5697 15.7933 11.5014 15.7819C11.4331 15.7705 11.1371 15.577 11.1143 15.3834C11.0915 15.1899 11.2965 15.0647 11.2965 15.0647C11.2965 15.0647 11.7973 14.6777 11.8542 14.4728C11.9681 14.3589 12.1844 14.5524 12.1844 14.5524C12.1844 14.5524 13.5048 16.0665 14.9733 15.9754Z" fill="#FFC72C" stroke="black" stroke-width="0.0462457"/>
<path d="M11.2625 15.0951C11.2625 15.0951 11.3979 15.059 11.4476 15.1154C11.4972 15.1719 11.8381 15.506 11.8381 15.506" stroke="black" stroke-width="0.0462457"/>
<path d="M11.572 15.2528L11.4365 15.3544C11.4365 15.3544 11.7774 15.4221 11.7007 15.6456" stroke="black" stroke-width="0.0462457"/>
<path d="M18.6995 15.0837C18.6995 15.0837 18.6317 15.0476 18.5256 15.1266C18.4195 15.2056 18.1509 15.5058 18.1509 15.5058" stroke="black" stroke-width="0.0462457"/>
<path d="M18.3946 15.2439L18.5413 15.3568C18.5413 15.3568 18.2343 15.3771 18.302 15.6683" stroke="black" stroke-width="0.0462457"/>
<path d="M12.9976 15.4562C12.9888 15.482 12.9653 15.4555 12.9458 15.4607C12.8944 15.4626 12.8518 15.4961 12.8079 15.5189C12.6575 15.6066 12.5072 15.6942 12.3568 15.7819C12.3416 15.7769 12.3452 15.7646 12.3489 15.7523C12.389 15.5646 12.4306 15.3771 12.4696 15.1891C12.4761 15.1562 12.4865 15.1154 12.4548 15.0914C12.4413 15.0822 12.4621 15.0635 12.4708 15.0805C12.5477 15.1353 12.6245 15.1901 12.7014 15.2449C12.694 15.2666 12.6809 15.2514 12.6678 15.2426C12.6358 15.2119 12.5974 15.2403 12.5983 15.2791C12.5709 15.4029 12.5441 15.5268 12.517 15.6507C12.6191 15.59 12.7223 15.5312 12.8234 15.469C12.8595 15.453 12.8862 15.4046 12.8486 15.3746C12.8344 15.3662 12.8108 15.3432 12.8343 15.3397C12.8888 15.3786 12.9432 15.4174 12.9976 15.4562Z" fill="black"/>
<path d="M13.1597 16.24C13.1556 16.254 13.1483 16.2571 13.1371 16.247C13.0466 16.1975 12.9562 16.1481 12.8657 16.0986C12.8698 16.0846 12.8771 16.0815 12.8883 16.0916C12.9128 16.1083 12.9529 16.1146 12.9707 16.0854C13.0066 16.0278 13.0369 15.9668 13.0702 15.9076C13.1154 15.8238 13.1626 15.741 13.2064 15.6565C13.2274 15.6266 13.204 15.5897 13.1746 15.5768C13.1647 15.5715 13.1501 15.5676 13.1626 15.5557C13.1687 15.5482 13.1815 15.5641 13.1903 15.566C13.277 15.6135 13.3637 15.6609 13.4505 15.7083C13.4463 15.7223 13.439 15.7254 13.4279 15.7153C13.4033 15.6987 13.3631 15.6923 13.345 15.7213C13.3091 15.7789 13.2789 15.8399 13.2456 15.8991C13.2003 15.9829 13.1532 16.0657 13.1094 16.1502C13.0884 16.1803 13.1117 16.2175 13.1415 16.2301C13.1476 16.2334 13.1536 16.2367 13.1597 16.24Z" fill="black"/>
<path d="M14.2041 15.9953C14.1795 16.0642 14.155 16.1332 14.1304 16.2021C14.1002 16.199 14.1203 16.1603 14.1109 16.1399C14.1001 16.0468 14.0314 15.9599 13.9379 15.94C13.8663 15.9205 13.7909 15.9573 13.7489 16.0155C13.6854 16.1021 13.6468 16.2079 13.6414 16.3153C13.6377 16.3763 13.6657 16.4389 13.719 16.471C13.7613 16.4989 13.8126 16.5101 13.8627 16.5087C13.8804 16.4565 13.9016 16.4054 13.9163 16.3523C13.9224 16.3178 13.8867 16.2969 13.8581 16.289C13.8536 16.279 13.8647 16.2667 13.8763 16.2775C13.9665 16.3096 14.0566 16.3417 14.1468 16.3738C14.1436 16.4071 14.106 16.3711 14.0851 16.3844C14.0518 16.3972 14.0489 16.4373 14.0363 16.4662C14.0253 16.4971 14.0144 16.5279 14.0034 16.5588C13.8822 16.5673 13.7573 16.5417 13.6518 16.4807C13.5493 16.4161 13.4799 16.2913 13.5001 16.169C13.5157 16.0642 13.581 15.9661 13.6775 15.9199C13.7662 15.8727 13.8745 15.8729 13.9666 15.9103C14.0169 15.9273 14.0604 15.9584 14.0994 15.9938C14.123 16.0257 14.1687 16.0258 14.1881 15.9896C14.1934 15.9915 14.1987 15.9934 14.2041 15.9953Z" fill="black"/>
<path d="M14.644 16.7012C14.6434 16.7122 14.6422 16.7222 14.629 16.7161C14.5258 16.7005 14.4226 16.6848 14.3193 16.6692C14.3199 16.6582 14.3211 16.6481 14.3343 16.6543C14.3611 16.6597 14.3971 16.6593 14.4101 16.6303C14.4232 16.589 14.4258 16.5451 14.4333 16.5025C14.4511 16.3835 14.47 16.2647 14.4869 16.1456C14.4935 16.1199 14.4847 16.0909 14.4581 16.0809C14.4431 16.0738 14.4263 16.0727 14.4101 16.07C14.4106 16.059 14.4119 16.0489 14.425 16.0551C14.5283 16.0707 14.6315 16.0864 14.7347 16.102C14.7342 16.113 14.7329 16.1231 14.7198 16.1169C14.6928 16.1114 14.657 16.1121 14.6435 16.1408C14.6304 16.1822 14.6278 16.226 14.6203 16.2686C14.6025 16.3876 14.5836 16.5064 14.5667 16.6255C14.5602 16.6511 14.569 16.6808 14.5957 16.6904C14.6109 16.6973 14.6277 16.6985 14.644 16.7012Z" fill="black"/>
<path d="M15.48 16.4981C15.4759 16.5713 15.4718 16.6445 15.4677 16.7177C15.2836 16.7271 15.0994 16.7365 14.9153 16.7459C14.9119 16.7325 14.9155 16.7253 14.9301 16.7282C14.9579 16.7289 14.9936 16.7171 14.9972 16.6852C14.9996 16.6307 14.9935 16.5761 14.9917 16.5215C14.9857 16.4127 14.9814 16.3037 14.9743 16.195C14.9773 16.1626 14.9482 16.1386 14.9174 16.1396C14.9077 16.1347 14.8813 16.1498 14.8839 16.132C14.8795 16.1176 14.8995 16.1252 14.908 16.1225C15.0104 16.1173 15.1128 16.112 15.2153 16.1068C15.2186 16.1203 15.215 16.1274 15.2004 16.1246C15.172 16.1244 15.1351 16.1313 15.1273 16.1634C15.1228 16.2106 15.1294 16.2581 15.1306 16.3054C15.1369 16.4187 15.1413 16.5322 15.1488 16.6454C15.1465 16.6751 15.1702 16.7013 15.201 16.6956C15.2458 16.6934 15.2916 16.6953 15.3354 16.684C15.3968 16.6677 15.4303 16.6068 15.4471 16.55C15.4582 16.5346 15.449 16.4963 15.4734 16.4985C15.4756 16.4984 15.4778 16.4983 15.48 16.4981Z" fill="black"/>
<path d="M15.9104 15.9666C15.8957 15.9668 15.9022 15.9855 15.8985 15.9953C15.874 16.1785 15.8508 16.3619 15.8255 16.545C15.8194 16.5855 15.8093 16.6329 15.7692 16.6534C15.7545 16.6586 15.7675 16.6819 15.781 16.6689C15.8425 16.6505 15.904 16.6321 15.9655 16.6136C15.9632 16.5825 15.9277 16.6108 15.9079 16.6053C15.8656 16.6052 15.8593 16.5538 15.8652 16.5217C15.8677 16.5 15.8703 16.4783 15.8728 16.4566C15.9433 16.4354 16.0137 16.4143 16.0842 16.3931C16.1112 16.427 16.1409 16.459 16.1653 16.4948C16.1836 16.5294 16.1391 16.5452 16.1132 16.5519C16.1011 16.5531 16.1117 16.5784 16.1227 16.5667C16.2153 16.5389 16.3079 16.5112 16.4004 16.4834C16.3996 16.452 16.3594 16.4815 16.3424 16.4605C16.2904 16.4214 16.2531 16.3671 16.2101 16.319C16.1102 16.2015 16.0103 16.084 15.9104 15.9666ZM15.9088 16.1863C15.9589 16.246 16.0089 16.3058 16.0589 16.3655C15.9989 16.3834 15.9389 16.4012 15.879 16.4191C15.8889 16.3415 15.8989 16.2639 15.9088 16.1863Z" fill="black"/>
<path d="M16.8557 15.5538C16.8823 15.6033 16.9089 15.6528 16.9355 15.7023C16.9107 15.7237 16.8978 15.6742 16.8752 15.6666C16.8383 15.6356 16.7827 15.6297 16.7415 15.656C16.7247 15.6648 16.7081 15.6739 16.6914 15.6829C16.7716 15.8316 16.8508 15.9808 16.9318 16.1291C16.9444 16.1672 16.9911 16.1743 17.0212 16.1529C17.0329 16.1444 17.0435 16.1396 17.0472 16.1575C17.0064 16.1811 16.9619 16.2036 16.9197 16.2268C16.8665 16.2553 16.8134 16.2839 16.7602 16.3125C16.7477 16.2995 16.756 16.2928 16.7701 16.2879C16.8079 16.2738 16.8225 16.2279 16.7972 16.1957C16.7186 16.048 16.6389 15.901 16.5598 15.7536C16.5158 15.7779 16.4596 15.7999 16.4485 15.8548C16.436 15.8893 16.4544 15.9316 16.4544 15.961C16.4409 15.9751 16.4373 15.9559 16.431 15.9457C16.4083 15.9034 16.3855 15.8611 16.3628 15.8188C16.5271 15.7305 16.6914 15.6422 16.8557 15.5538Z" fill="black"/>
<path d="M17.2289 15.3323C17.2798 15.3998 17.3307 15.4673 17.3816 15.5348C17.4171 15.5123 17.4466 15.472 17.436 15.4281C17.4401 15.3938 17.391 15.3549 17.4079 15.3308C17.419 15.3239 17.4255 15.3496 17.4347 15.3564C17.4928 15.4335 17.551 15.5105 17.6091 15.5876C17.5864 15.6135 17.5699 15.5607 17.5458 15.555C17.5118 15.5308 17.4642 15.5188 17.4277 15.5453C17.4005 15.554 17.4018 15.5692 17.4203 15.586C17.4612 15.6388 17.4992 15.6941 17.5429 15.7447C17.5696 15.7706 17.6029 15.7435 17.6255 15.7255C17.684 15.6856 17.7354 15.6234 17.7324 15.5488C17.7362 15.5162 17.7158 15.4798 17.716 15.4523C17.7291 15.4349 17.7328 15.462 17.7403 15.4709C17.7678 15.5205 17.7953 15.5702 17.8228 15.6198C17.6795 15.7279 17.5362 15.836 17.3929 15.9441C17.3742 15.9309 17.3926 15.9231 17.4043 15.914C17.4445 15.8892 17.4317 15.8385 17.4022 15.8107C17.3103 15.6898 17.2201 15.5675 17.1271 15.4475C17.1033 15.4152 17.0594 15.4322 17.0353 15.4547C17.0254 15.4689 17.0098 15.4405 17.0287 15.4385C17.1638 15.3365 17.2989 15.2346 17.434 15.1327C17.471 15.1817 17.508 15.2307 17.545 15.2798C17.5193 15.3058 17.4965 15.2478 17.4672 15.2447C17.4139 15.217 17.3506 15.2393 17.3066 15.2744C17.2803 15.2931 17.2548 15.3129 17.2289 15.3323Z" fill="black"/>
<defs>
<radialGradient id="paint0_radial_304_1017" cx="0" cy="0" r="1" gradientUnits="userSpaceOnUse" gradientTransform="translate(7.04336 -1.02497) scale(22.7595)">
<stop stop-color="white"/>
<stop offset="0.3" stop-color="#FCFCFC"/>
<stop offset="0.4" stop-color="#F3F3F3"/>
<stop offset="0.5" stop-color="#E4E4E5"/>
<stop offset="0.6" stop-color="#CFD0D0"/>
<stop offset="0.7" stop-color="#B4B4B5"/>
<stop offset="0.8" stop-color="#939394"/>
<stop offset="0.9" stop-color="#58595B"/>
</radialGradient>
<linearGradient id="paint1_linear_304_1017" x1="12.6758" y1="9.04157" x2="12.3962" y2="9.00034" gradientUnits="userSpaceOnUse">
<stop stop-color="#FF0000"/>
<stop offset="1" stop-color="#FFFF00"/>
</linearGradient>
<linearGradient id="paint2_linear_304_1017" x1="12.6572" y1="10.0535" x2="12.3777" y2="10.0123" gradientUnits="userSpaceOnUse">
<stop stop-color="#FF0000"/>
<stop offset="1" stop-color="#FFFF00"/>
</linearGradient>
<linearGradient id="paint3_linear_304_1017" x1="12.6492" y1="11.0511" x2="12.3696" y2="11.0099" gradientUnits="userSpaceOnUse">
<stop stop-color="#FF0000"/>
<stop offset="1" stop-color="#FFFF00"/>
</linearGradient>
<linearGradient id="paint4_linear_304_1017" x1="13.3035" y1="12.1318" x2="13.0239" y2="12.0906" gradientUnits="userSpaceOnUse">
<stop stop-color="#FF0000"/>
<stop offset="1" stop-color="#FFFF00"/>
</linearGradient>
<linearGradient id="paint5_linear_304_1017" x1="12.564" y1="13.0155" x2="12.2844" y2="12.9742" gradientUnits="userSpaceOnUse">
<stop stop-color="#FF0000"/>
<stop offset="1" stop-color="#FFFF00"/>
</linearGradient>
<linearGradient id="paint6_linear_304_1017" x1="12.583" y1="14.0592" x2="12.3034" y2="14.0179" gradientUnits="userSpaceOnUse">
<stop stop-color="#FF0000"/>
<stop offset="1" stop-color="#FFFF00"/>
</linearGradient>
<linearGradient id="paint7_linear_304_1017" x1="16.26" y1="9.05781" x2="15.9804" y2="9.01658" gradientUnits="userSpaceOnUse">
<stop stop-color="#FF0000"/>
<stop offset="1" stop-color="#FFFF00"/>
</linearGradient>
<linearGradient id="paint8_linear_304_1017" x1="16.2278" y1="10.0516" x2="15.9482" y2="10.0104" gradientUnits="userSpaceOnUse">
<stop stop-color="#FF0000"/>
<stop offset="1" stop-color="#FFFF00"/>
</linearGradient>
<linearGradient id="paint9_linear_304_1017" x1="16.1836" y1="11.067" x2="15.904" y2="11.0257" gradientUnits="userSpaceOnUse">
<stop stop-color="#FF0000"/>
<stop offset="1" stop-color="#FFFF00"/>
</linearGradient>
<linearGradient id="paint10_linear_304_1017" x1="16.2332" y1="12.0659" x2="15.9536" y2="12.0246" gradientUnits="userSpaceOnUse">
<stop stop-color="#FF0000"/>
<stop offset="1" stop-color="#FFFF00"/>
</linearGradient>
<linearGradient id="paint11_linear_304_1017" x1="16.2219" y1="13.065" x2="15.9424" y2="13.0238" gradientUnits="userSpaceOnUse">
<stop stop-color="#FF0000"/>
<stop offset="1" stop-color="#FFFF00"/>
</linearGradient>
<linearGradient id="paint12_linear_304_1017" x1="16.2278" y1="14.0696" x2="15.9482" y2="14.0284" gradientUnits="userSpaceOnUse">
<stop stop-color="#FF0000"/>
<stop offset="1" stop-color="#FFFF00"/>
</linearGradient>
</defs>
</svg>
