<svg width="20" height="20" viewBox="0 0 20 20" fill="none" xmlns="http://www.w3.org/2000/svg">
<mask id="mask0_304_1018" style="mask-type:luminance" maskUnits="userSpaceOnUse" x="0" y="0" width="20" height="20">
<path d="M16.4258 0H3.57424C1.60024 0 0 1.60024 0 3.57424V16.4258C0 18.3998 1.60024 20 3.57424 20H16.4258C18.3998 20 20 18.3998 20 16.4258V3.57424C20 1.60024 18.3998 0 16.4258 0Z" fill="white"/>
</mask>
<g mask="url(#mask0_304_1018)">
<mask id="mask1_304_1018" style="mask-type:luminance" maskUnits="userSpaceOnUse" x="-12" y="-1" width="32" height="22">
<path d="M20 -0.998779H-11.1958V20.0262H20V-0.998779Z" fill="white"/>
</mask>
<g mask="url(#mask1_304_1018)">
<path d="M30.8541 -0.657227H-11.1958V20.3677H30.8541V-0.657227Z" fill="#012169"/>
<mask id="mask2_304_1018" style="mask-type:luminance" maskUnits="userSpaceOnUse" x="-12" y="-1" width="22" height="11">
<path d="M9.82917 -0.657227H-11.1958V9.85526H9.82917V-0.657227Z" fill="white"/>
</mask>
<g mask="url(#mask2_304_1018)">
<path d="M9.27732 10.6962L-0.762106 5.67652L-10.8278 10.6962L-11.7739 8.80399L-3.12741 4.49387L-11.7739 0.183739L-10.8278 -1.7085L-0.762106 3.31121L9.27732 -1.7085L10.2235 0.183739L1.57693 4.49387L10.2235 8.80399L9.27732 10.6962Z" fill="white"/>
</g>
<mask id="mask3_304_1018" style="mask-type:luminance" maskUnits="userSpaceOnUse" x="-12" y="-1" width="22" height="11">
<path d="M-11.1959 -0.841187L-0.657116 4.41506H-11.1959V-0.841187ZM-0.683391 -0.657199H9.85537L-0.683391 4.59904V-0.657199ZM-0.709682 4.41506H9.8291V9.6713L-0.709682 4.41506ZM-0.683391 4.57274V9.82898H-11.2222L-0.683391 4.57274Z" fill="white"/>
</mask>
<g mask="url(#mask3_304_1018)">
<path d="M9.43481 10.3809L-0.762316 5.28237L-10.9857 10.3809L-11.6165 9.11942L-2.33919 4.49393L-11.6165 -0.131555L-10.9857 -1.39307L-0.762316 3.7055L9.43481 -1.39307L10.0655 -0.131555L0.788282 4.49393L10.0655 9.11942L9.43481 10.3809Z" fill="#C8102E"/>
</g>
<mask id="mask4_304_1018" style="mask-type:luminance" maskUnits="userSpaceOnUse" x="-12" y="-1" width="22" height="11">
<path d="M9.82917 -0.657227H-11.1958V9.85526H9.82917V-0.657227Z" fill="white"/>
</mask>
<g mask="url(#mask4_304_1018)">
<path d="M0.998675 9.85526H-2.39159V6.46498H-11.1958V2.73303H-2.39159V-0.657227H0.998675V2.73303H9.82917V6.46498H0.998675V9.85526Z" fill="white"/>
</g>
<mask id="mask5_304_1018" style="mask-type:luminance" maskUnits="userSpaceOnUse" x="-12" y="-1" width="22" height="11">
<path d="M9.82917 -0.657227H-11.1958V9.85526H9.82917V-0.657227Z" fill="white"/>
</mask>
<g mask="url(#mask5_304_1018)">
<path d="M0.341645 9.85526H-1.70829V5.78167H-11.1958V3.41636H-1.70829V-0.657227H0.341645V3.41636H9.82917V5.78167H0.341645V9.85526Z" fill="#C8102E"/>
</g>
</g>
</g>
<path style="mix-blend-mode:multiply" opacity="0.3" d="M16.4258 0H3.57424C1.60024 0 0 1.60024 0 3.57424V16.4258C0 18.3998 1.60024 20 3.57424 20H16.4258C18.3998 20 20 18.3998 20 16.4258V3.57424C20 1.60024 18.3998 0 16.4258 0Z" fill="url(#paint0_radial_304_1018)"/>
<path d="M17.6125 10.8337V12.9672C17.6125 14.8162 16.7373 15.4507 15.5666 15.954C14.396 15.4507 13.5098 14.8162 13.5098 12.9672V10.8337H17.6125Z" fill="white" stroke="white" stroke-width="0.219164" stroke-linejoin="round"/>
<path d="M12.2408 15.7789C12.3065 15.954 12.7769 16.1838 13.324 15.8884C13.696 15.6805 13.9367 15.3851 14.1664 14.8599C14.2321 14.7286 14.2649 14.5645 14.1117 14.4661C13.9914 14.3785 13.7944 14.2801 13.7069 14.1925C13.6631 14.1488 13.6194 14.116 13.5865 14.0831C13.6084 14.105 13.6303 14.1269 13.6522 14.1597C13.871 14.4223 13.6413 14.8052 13.4006 15.035C13.2255 15.1991 12.9082 15.6039 12.4487 15.221C12.3502 15.1334 12.1205 15.4945 12.2408 15.7789Z" fill="#FCEA83" stroke="white" stroke-width="0.219164" stroke-linejoin="round"/>
<path d="M18.8928 15.7789C18.8162 15.954 18.3457 16.1838 17.8097 15.8884C17.4377 15.6805 17.197 15.3851 16.9563 14.8599C16.9016 14.7286 16.8687 14.5645 17.0219 14.4661C17.1423 14.3785 17.3392 14.2801 17.4267 14.1925C17.4705 14.1488 17.5033 14.116 17.5471 14.0831C17.5252 14.105 17.5033 14.1269 17.4814 14.1597C17.2626 14.4223 17.4924 14.8052 17.7221 15.035C17.8972 15.1991 18.2254 15.6039 18.6849 15.221C18.7834 15.1334 19.0022 15.4945 18.8928 15.7789Z" fill="#FCEA83" stroke="white" stroke-width="0.219164" stroke-linejoin="round"/>
<path d="M15.5668 16.7199C16.442 16.7199 17.7878 16.326 18.5098 14.9475C18.6302 14.7177 18.5098 14.5974 18.3676 14.5208C18.2144 14.4551 18.0284 14.302 17.93 14.2035C18.105 14.3785 18.0722 14.4989 17.9519 14.6958C17.3939 15.6258 16.628 16.0962 15.5668 16.0962C14.5055 16.0962 13.7397 15.6258 13.1817 14.6958C13.0614 14.4989 13.0285 14.3785 13.1927 14.2035C13.1051 14.302 12.9082 14.4551 12.755 14.5208C12.6128 14.5974 12.4924 14.7177 12.6128 14.9475C13.3349 16.326 14.6915 16.7199 15.5668 16.7199Z" fill="#FCEA83" stroke="white" stroke-width="0.219164" stroke-linejoin="round"/>
<path d="M13.5428 14.8708C13.5209 14.7614 13.3786 14.8052 13.3349 14.9365C13.2802 14.8599 13.2255 14.7833 13.1817 14.6958C13.0504 14.4989 13.0285 14.3676 13.2145 14.1816C13.3021 14.0941 13.4771 13.9956 13.5975 14.105C13.8491 14.3129 13.7178 14.652 13.5428 14.8708Z" fill="#C8102E" stroke="white" stroke-width="0.219164" stroke-linejoin="round"/>
<path d="M17.5797 14.8708C17.6016 14.7614 17.7548 14.8052 17.7986 14.9365C17.8533 14.8599 17.908 14.7833 17.9517 14.6958C18.083 14.4989 18.1049 14.3676 17.908 14.1816C17.8314 14.0941 17.6563 13.9956 17.525 14.105C17.2843 14.3129 17.4047 14.652 17.5797 14.8708Z" fill="#C8102E" stroke="white" stroke-width="0.219164" stroke-linejoin="round"/>
<path d="M12.2408 15.779C12.1313 15.6149 12.0438 15.1882 12.0219 15.0788C11.9891 14.9803 11.9782 14.8928 12.0985 14.8491C12.2189 14.8053 12.3283 14.9585 12.383 15.0898C12.4377 15.221 12.5252 15.418 12.6237 15.6587C12.383 15.5164 12.186 15.6149 12.2408 15.779Z" fill="#C8102E" stroke="white" stroke-width="0.219164" stroke-linejoin="round"/>
<path d="M18.8927 15.779C18.9912 15.6149 19.0787 15.1882 19.1115 15.0788C19.1334 14.9803 19.1553 14.8928 19.0349 14.8491C18.9146 14.8053 18.8052 14.9585 18.7505 15.0898C18.6958 15.221 18.6082 15.418 18.5098 15.6587C18.7505 15.5164 18.9365 15.6149 18.8927 15.779Z" fill="#C8102E" stroke="white" stroke-width="0.219164" stroke-linejoin="round"/>
<path d="M14.7243 10.8228C14.5821 10.8556 14.4836 10.8665 14.3523 10.7462C14.2648 10.6587 14.2867 10.5055 14.3742 10.4508C14.4727 10.3851 14.5602 10.3414 14.6806 10.3742C14.8009 10.407 15.1182 10.7024 15.0416 10.7134C14.965 10.7134 14.8447 10.7899 14.7243 10.8228Z" fill="white" stroke="white" stroke-width="0.219164" stroke-linejoin="round"/>
<path d="M15.0632 10.2976C15.107 10.2648 15.1617 10.2429 15.3039 10.232C15.4352 10.221 15.5337 10.221 15.5665 10.3195C15.6103 10.4398 15.6431 10.5821 15.7306 10.6477C15.6759 10.6805 15.4024 10.7134 15.3039 10.6586C15.1726 10.593 15.1398 10.3414 15.0632 10.2976Z" fill="white" stroke="white" stroke-width="0.219164" stroke-linejoin="round"/>
<path d="M16.0044 10.3086C16.0482 10.2758 16.1029 10.2758 16.2451 10.2867C16.3873 10.2976 16.442 10.3086 16.4748 10.407C16.5077 10.5165 16.4748 10.6587 16.5405 10.7571C16.4748 10.779 16.256 10.779 16.1794 10.7024C16.0591 10.6149 16.07 10.3633 16.0044 10.3086Z" fill="white" stroke="white" stroke-width="0.219164" stroke-linejoin="round"/>
<path d="M16.6608 10.3742C16.5623 10.3523 16.4966 10.3414 16.4529 10.3742C16.5076 10.4399 16.4638 10.7025 16.5732 10.79C16.6498 10.8447 16.8467 10.8556 16.8905 10.7353C16.9452 10.6259 16.9452 10.4618 16.6608 10.3742Z" fill="#073163" stroke="white" stroke-width="0.219164" stroke-linejoin="round"/>
<path d="M15.5339 10.2648C15.5668 10.232 15.6324 10.2211 15.7637 10.2211C15.9059 10.2211 15.9934 10.243 16.0372 10.3305C16.081 10.4399 16.07 10.5821 16.1466 10.6696C16.1138 10.7134 15.8184 10.7134 15.7309 10.6478C15.6105 10.5712 15.5996 10.3195 15.5339 10.2648Z" fill="#073163" stroke="white" stroke-width="0.219164" stroke-linejoin="round"/>
<path d="M14.6038 10.3633C14.6038 10.3086 14.6803 10.2976 14.8773 10.2867C15.0742 10.2648 15.0852 10.2757 15.1508 10.418C15.1836 10.4946 15.2274 10.6258 15.3149 10.6696C15.0742 10.7243 14.9976 10.7571 14.8663 10.6805C14.7679 10.6258 14.6585 10.4946 14.6366 10.4398C14.6256 10.407 14.6256 10.3742 14.6038 10.3633Z" fill="#073163" stroke="white" stroke-width="0.219164" stroke-linejoin="round"/>
<path d="M14.6259 9.38967C14.5493 9.38967 14.4837 9.35684 14.4399 9.30214C14.3633 9.20367 14.1554 9.15991 14.0679 9.24744C14.0351 9.26932 13.9913 9.26932 13.9585 9.28026C13.9038 9.28026 13.8382 9.33496 13.86 9.44437C13.9038 9.41155 13.9147 9.44437 13.9476 9.44437C13.9694 9.43343 13.9585 9.45531 13.9585 9.47719C13.9585 9.53189 14.0788 9.6413 14.1883 9.63036C14.3086 9.63036 14.3633 9.67412 14.3852 9.69601C14.418 9.72883 14.3961 9.71789 14.418 9.77259C14.4508 9.80541 14.4618 9.81635 14.4071 9.86012C14.3305 9.92576 14.2758 10.0789 14.4071 10.1993C14.5493 10.3087 14.9103 10.4728 15.3152 10.1555C15.709 9.84918 16.3217 10.0242 16.3655 10.1336C16.4202 10.243 16.442 10.3087 16.453 10.3634C16.4639 10.4072 16.5186 10.4509 16.5952 10.44C16.6718 10.44 16.7593 10.4728 16.8031 10.5056C16.8578 10.5384 16.9344 10.5275 16.9125 10.429C16.8687 10.1227 16.6827 10.0789 16.6609 9.9367C16.7703 9.94764 16.8469 9.94764 16.8906 9.90388C16.9234 9.86012 16.9672 9.78353 17.011 9.76165C17.0438 9.73977 17.0438 9.71789 17 9.72883C16.9453 9.73977 16.9125 9.76165 16.814 9.75071C16.3108 9.69601 14.8994 9.31308 14.6259 9.38967Z" fill="#059334" stroke="white" stroke-width="0.219164" stroke-linejoin="round"/>
<path d="M16.8576 9.76157C16.8029 9.79439 16.7482 9.84909 16.6497 9.98038C16.5403 10.1226 16.2121 10.2648 15.8073 10.2648C15.4134 10.2648 15.1727 10.1992 14.9976 10.057C14.8992 9.98038 14.8226 9.93662 14.7569 9.9038C14.6366 9.84909 14.6147 9.72874 14.6475 9.63028C14.6147 9.68498 14.5928 9.73968 14.5272 9.72874C14.4834 9.72874 14.3959 9.72874 14.4178 9.77251C14.4068 9.75062 14.4068 9.7178 14.3959 9.70686C14.385 9.69592 14.374 9.68498 14.374 9.68498C14.4068 9.70686 14.4834 9.64122 14.5381 9.64122C14.5819 9.65216 14.6366 9.59745 14.6257 9.53181C14.6147 9.47711 14.6038 9.43334 14.5928 9.38958C14.6804 9.34582 15.8291 9.55369 16.0589 9.57557C16.2887 9.58651 16.9451 9.68498 16.8576 9.76157Z" fill="black" stroke="white" stroke-width="0.219164" stroke-linejoin="round"/>
<path d="M14.779 9.34582C14.8884 9.23642 15.0197 9.18171 15.151 9.21453H15.1838C15.2495 9.15983 15.4026 9.14889 15.4902 9.19265H15.5339C15.6652 9.14889 15.9168 9.19265 16.0044 9.28018L16.0372 9.30206C16.3326 9.28018 16.5076 9.41147 16.7155 9.61934C16.7374 9.64122 16.7702 9.68499 16.8249 9.69593C16.8906 9.70687 16.9015 9.73969 16.8468 9.77251C16.7812 9.80533 16.7265 9.86004 16.6171 9.98039C16.5186 10.1117 16.2013 10.243 15.8074 10.243C15.4245 10.243 15.1948 10.1773 15.0197 10.046C14.9212 9.96944 14.8447 9.92568 14.79 9.89286C14.7243 9.87098 14.6368 9.78345 14.6696 9.69593C14.6915 9.6084 14.6368 9.49899 14.593 9.38958C14.6258 9.3677 14.7134 9.33488 14.7571 9.35676L14.779 9.34582Z" fill="#059334" stroke="white" stroke-width="0.219164" stroke-linejoin="round"/>
<path d="M16.7156 9.61946C16.5078 9.41158 16.3327 9.2803 16.0373 9.30218C16.0373 9.31312 16.0373 9.34594 16.0264 9.36782C16.2014 9.43347 16.4531 9.6304 16.5625 9.77263C16.6062 9.72887 16.6828 9.67416 16.7156 9.61946Z" fill="#00493D" stroke="white" stroke-width="0.219164" stroke-linejoin="round"/>
<path d="M16.0045 9.28035C15.917 9.19283 15.6654 9.14906 15.5341 9.19283C15.5341 9.23659 15.5341 9.30224 15.5122 9.346C15.5888 9.37882 15.6544 9.45541 15.7201 9.53199C15.7638 9.52105 15.8733 9.48823 15.928 9.47729C15.9498 9.43352 15.9936 9.33506 16.0045 9.28035Z" fill="#00493D" stroke="white" stroke-width="0.219164" stroke-linejoin="round"/>
<path d="M15.4903 9.19278C15.4028 9.14901 15.2496 9.15995 15.1839 9.21466C15.1621 9.25842 15.1511 9.34595 15.1511 9.38971C15.1949 9.38971 15.2605 9.42253 15.2824 9.44441C15.3481 9.42253 15.4356 9.37877 15.4684 9.34595C15.4793 9.30218 15.5012 9.23654 15.4903 9.19278Z" fill="#00493D" stroke="white" stroke-width="0.219164" stroke-linejoin="round"/>
<path d="M14.7791 9.34595C14.8885 9.23654 15.0197 9.18184 15.151 9.21466C15.1292 9.24748 15.1182 9.31313 15.1182 9.37877C14.9979 9.36783 14.8447 9.40065 14.7791 9.44442V9.34595Z" fill="#00493D" stroke="white" stroke-width="0.219164" stroke-linejoin="round"/>
<path d="M16.5188 9.79455C16.4203 9.65232 16.1796 9.48821 16.0155 9.41162C16.0155 9.42256 15.9936 9.46632 15.9827 9.49915C16.0483 9.59761 16.1796 9.81643 16.2343 9.93678C16.289 9.9149 16.4422 9.84925 16.5188 9.79455Z" fill="#00493D" stroke="white" stroke-width="0.219164" stroke-linejoin="round"/>
<path d="M15.6873 10.0353C15.7091 9.88209 15.7201 9.66327 15.7201 9.58669C15.7748 9.57575 15.8842 9.54292 15.928 9.53198C15.9827 9.61951 16.1139 9.84926 16.1687 9.95867C16.0374 9.99149 15.8185 10.0462 15.6873 10.0353Z" fill="#00493D" stroke="white" stroke-width="0.219164" stroke-linejoin="round"/>
<path d="M15.3044 9.51004C15.3591 9.48816 15.4357 9.4444 15.4904 9.40063C15.5342 9.43346 15.6217 9.51004 15.6545 9.55381C15.6545 9.65227 15.6217 9.93673 15.6108 10.0352C15.5233 10.0352 15.381 10.0133 15.3044 9.96955C15.3154 9.80544 15.3263 9.61945 15.3044 9.51004Z" fill="#00493D" stroke="white" stroke-width="0.219164" stroke-linejoin="round"/>
<path d="M14.7573 9.64128C14.7683 9.6194 14.7792 9.54281 14.7792 9.50999C14.8667 9.45529 15.0855 9.40058 15.2497 9.48811C15.2606 9.59752 15.2497 9.87103 15.2387 9.93668C15.0965 9.82727 14.8667 9.6741 14.7573 9.64128Z" fill="#00493D" stroke="white" stroke-width="0.219164" stroke-linejoin="round"/>
<path d="M14.2101 9.44431C14.1883 9.44431 14.1773 9.37866 14.1336 9.37866C14.1226 9.37866 14.0898 9.3896 14.0789 9.37866C14.0789 9.40054 14.0898 9.42243 14.1007 9.43337C14.1117 9.46619 14.1664 9.44431 14.2101 9.44431Z" fill="black"/>
<path d="M14.21 9.63013C14.3412 9.63013 14.3631 9.46602 14.4288 9.45508" stroke="white" stroke-width="0.219164" stroke-linejoin="round"/>
<path d="M14.2866 9.64125C14.3851 9.68501 14.4617 9.45526 14.5383 9.4662" stroke="white" stroke-width="0.219164" stroke-linejoin="round"/>
<path d="M14.0898 9.35678C14.1227 9.35678 14.1445 9.31302 14.1993 9.36772C14.2211 9.38961 14.254 9.40055 14.2758 9.40055" stroke="white" stroke-width="0.219164" stroke-linejoin="round"/>
<path d="M14.254 9.52087C14.2102 9.58652 14.1336 9.63028 14.0898 9.6084" stroke="white" stroke-width="0.219164" stroke-linejoin="round"/>
<path d="M14.0678 9.24731C14.035 9.2692 14.0131 9.31296 13.9912 9.34578" stroke="white" stroke-width="0.219164" stroke-linejoin="round"/>
<path d="M13.9585 9.41138V9.46608" stroke="white" stroke-width="0.219164" stroke-linejoin="round"/>
<path d="M15.1289 9.24723C14.8992 9.07218 14.6257 8.90807 14.374 8.87524C14.5381 8.97371 14.9976 9.33476 15.118 9.4551" fill="black"/>
<path d="M15.1289 9.24723C14.8992 9.07218 14.6257 8.90807 14.374 8.87524C14.5381 8.97371 14.9976 9.33476 15.118 9.4551" stroke="white" stroke-width="0.219164" stroke-linejoin="round"/>
<path d="M15.2604 9.08323C14.9869 8.89724 14.6696 8.68936 14.3633 8.66748C14.593 8.78783 14.9322 9.07229 15.1182 9.30204" fill="black"/>
<path d="M15.2604 9.08323C14.9869 8.89724 14.6696 8.68936 14.3633 8.66748C14.593 8.78783 14.9322 9.07229 15.1182 9.30204" stroke="white" stroke-width="0.219164" stroke-linejoin="round"/>
<path d="M15.6104 8.77685C15.7635 8.43769 15.9276 8.2517 16.1464 8.04382C16.037 8.27358 15.9167 8.74403 15.862 8.93002" fill="black"/>
<path d="M15.6104 8.77685C15.7635 8.43769 15.9276 8.2517 16.1464 8.04382C16.037 8.27358 15.9167 8.74403 15.862 8.93002" stroke="white" stroke-width="0.219164" stroke-linejoin="round"/>
<path d="M15.8511 8.72219C15.9605 8.4815 16.1246 8.27362 16.4091 8.14233C16.2668 8.28456 16.048 8.71125 15.9933 8.94101" fill="black"/>
<path d="M15.8511 8.72219C15.9605 8.4815 16.1246 8.27362 16.4091 8.14233C16.2668 8.28456 16.048 8.71125 15.9933 8.94101" stroke="white" stroke-width="0.219164" stroke-linejoin="round"/>
<path d="M15.9497 8.94096C16.081 8.75497 16.3436 8.40486 16.814 8.21887C16.5405 8.49239 16.1357 8.99567 16.0372 9.1926" fill="black"/>
<path d="M15.9497 8.94096C16.081 8.75497 16.3436 8.40486 16.814 8.21887C16.5405 8.49239 16.1357 8.99567 16.0372 9.1926" stroke="white" stroke-width="0.219164" stroke-linejoin="round"/>
<path d="M16.1028 9.18162C16.2997 9.07221 16.6936 8.89716 16.9781 8.95186C16.803 9.01751 16.2779 9.2582 16.0481 9.47702" fill="black"/>
<path d="M16.1028 9.18162C16.2997 9.07221 16.6936 8.89716 16.9781 8.95186C16.803 9.01751 16.2779 9.2582 16.0481 9.47702" stroke="white" stroke-width="0.219164" stroke-linejoin="round"/>
<path d="M16.059 9.10511C16.245 8.90818 16.5842 8.61278 16.9452 8.49243C16.6827 8.74407 16.1247 9.31299 16.0481 9.40051" fill="black"/>
<path d="M16.059 9.10511C16.245 8.90818 16.5842 8.61278 16.9452 8.49243C16.6827 8.74407 16.1247 9.31299 16.0481 9.40051" stroke="white" stroke-width="0.219164" stroke-linejoin="round"/>
<path d="M15.5338 8.98474C15.4025 8.57993 15.2056 8.19701 14.9102 8.07666C15.0743 8.31736 15.2821 8.66746 15.3916 9.19262" fill="black"/>
<path d="M15.5338 8.98474C15.4025 8.57993 15.2056 8.19701 14.9102 8.07666C15.0743 8.31736 15.2821 8.66746 15.3916 9.19262" stroke="white" stroke-width="0.219164" stroke-linejoin="round"/>
<path d="M15.2821 8.97378C15.0633 8.7112 14.7679 8.44863 14.4287 8.39392C14.6585 8.52521 15.0414 8.90814 15.1836 9.28012" fill="black"/>
<path d="M15.2821 8.97378C15.0633 8.7112 14.7679 8.44863 14.4287 8.39392C14.6585 8.52521 15.0414 8.90814 15.1836 9.28012" stroke="white" stroke-width="0.219164" stroke-linejoin="round"/>
<path d="M15.4028 8.96287C15.1292 8.47054 14.9214 8.38301 14.801 8.28455C14.8995 8.47054 15.1402 8.96287 15.2824 9.17075" fill="black"/>
<path d="M15.4028 8.96287C15.1292 8.47054 14.9214 8.38301 14.801 8.28455C14.8995 8.47054 15.1402 8.96287 15.2824 9.17075" stroke="white" stroke-width="0.219164" stroke-linejoin="round"/>
<path d="M14.8555 8.93005C14.9868 9.00664 15.1837 9.19263 15.2493 9.31298" stroke="white" stroke-width="0.219164" stroke-linejoin="round"/>
<path d="M14.8555 9.15979C14.9211 9.21449 15.0415 9.28014 15.1509 9.3786L14.8555 9.15979Z" fill="black"/>
<path d="M14.8555 9.15979C14.9211 9.21449 15.0415 9.28014 15.1509 9.3786" stroke="white" stroke-width="0.219164" stroke-linejoin="round"/>
<path d="M16.1575 9.32393C16.2669 9.23641 16.5076 9.09418 16.6279 9.05042L16.1575 9.32393Z" fill="black"/>
<path d="M16.1575 9.32393C16.2669 9.23641 16.5076 9.09418 16.6279 9.05042" stroke="white" stroke-width="0.219164" stroke-linejoin="round"/>
<path d="M16.0808 9.24734C16.1902 9.10511 16.409 8.90817 16.4856 8.84253L16.0808 9.24734Z" fill="black"/>
<path d="M16.0808 9.24734C16.1902 9.10511 16.409 8.90817 16.4856 8.84253" stroke="white" stroke-width="0.219164" stroke-linejoin="round"/>
<path d="M16.3872 8.56897C16.2887 8.67838 16.059 8.9519 15.9714 9.08319L16.3872 8.56897Z" fill="black"/>
<path d="M16.3872 8.56897C16.2887 8.67838 16.059 8.9519 15.9714 9.08319" stroke="white" stroke-width="0.219164" stroke-linejoin="round"/>
<path d="M16.1029 8.47046C16.0263 8.56893 15.8731 8.85338 15.8293 8.95185L16.1029 8.47046Z" fill="black"/>
<path d="M16.1029 8.47046C16.0263 8.56893 15.8731 8.85338 15.8293 8.95185" stroke="white" stroke-width="0.219164" stroke-linejoin="round"/>
<path d="M15.2385 8.49243C15.3042 8.66748 15.4245 8.96288 15.4683 9.08323L15.2385 8.49243Z" fill="black"/>
<path d="M15.2385 8.49243C15.3042 8.66748 15.4245 8.96288 15.4683 9.08323" stroke="white" stroke-width="0.219164" stroke-linejoin="round"/>
<path d="M15.1399 8.67834C15.1837 8.74399 15.2712 8.89716 15.304 9.00657L15.1399 8.67834Z" fill="black"/>
<path d="M15.1399 8.67834C15.1837 8.74399 15.2712 8.89716 15.304 9.00657" stroke="white" stroke-width="0.219164" stroke-linejoin="round"/>
<path d="M15.512 8.62365C15.512 8.52518 15.5776 8.41577 15.6433 8.41577C15.7198 8.41577 15.7745 8.54706 15.7745 8.62365C15.7745 8.71117 15.7089 8.78776 15.6433 8.78776C15.5776 8.78776 15.512 8.72211 15.512 8.62365Z" fill="black" stroke="white" stroke-width="0.219164" stroke-linejoin="round"/>
<path d="M15.3698 8.71121C15.3808 8.6018 15.4573 8.51428 15.523 8.52522C15.5886 8.53616 15.6215 8.66745 15.6105 8.74403C15.5996 8.83156 15.523 8.8972 15.4683 8.88626C15.4136 8.88626 15.3589 8.80968 15.3698 8.71121Z" fill="black" stroke="white" stroke-width="0.219164" stroke-linejoin="round"/>
<path d="M15.6651 8.74399C15.6432 8.64552 15.687 8.53611 15.7526 8.52517C15.8183 8.51423 15.8839 8.62364 15.8949 8.71117C15.9168 8.79869 15.862 8.88622 15.8073 8.88622C15.7526 8.89716 15.6761 8.84246 15.6651 8.74399Z" fill="black" stroke="white" stroke-width="0.219164" stroke-linejoin="round"/>
<path d="M15.501 8.83153C15.501 8.72212 15.5666 8.62366 15.6323 8.62366C15.7089 8.62366 15.7636 8.74401 15.7636 8.83153C15.7636 8.91906 15.6979 8.99564 15.6323 8.99564C15.5666 8.99564 15.501 8.93 15.501 8.83153Z" fill="black" stroke="white" stroke-width="0.219164" stroke-linejoin="round"/>
<path d="M15.3042 8.88634C15.3042 8.78787 15.3808 8.67847 15.4464 8.67847C15.5121 8.67847 15.5777 8.80976 15.5777 8.88634C15.5777 8.97387 15.5011 9.05045 15.4464 9.05045C15.3808 9.05045 15.3042 8.98481 15.3042 8.88634Z" fill="black" stroke="white" stroke-width="0.219164" stroke-linejoin="round"/>
<path d="M15.709 8.84252C15.709 8.74405 15.7746 8.63464 15.8403 8.63464C15.9169 8.63464 15.9716 8.76593 15.9716 8.84252C15.9716 8.93004 15.9059 9.00663 15.8403 9.00663C15.7746 9.00663 15.709 8.94098 15.709 8.84252Z" fill="black" stroke="white" stroke-width="0.219164" stroke-linejoin="round"/>
<path d="M15.6653 8.93004C15.6653 8.82063 15.7419 8.72217 15.8075 8.72217C15.8732 8.72217 15.9388 8.84252 15.9388 8.93004C15.9388 9.01757 15.8732 9.09415 15.8075 9.09415C15.7419 9.09415 15.6653 9.02851 15.6653 8.93004Z" fill="black" stroke="white" stroke-width="0.219164" stroke-linejoin="round"/>
<path d="M15.4902 9.02843C15.4902 8.91902 15.5559 8.82056 15.6215 8.82056C15.6981 8.82056 15.7528 8.95185 15.7528 9.02843C15.7528 9.11596 15.6872 9.19254 15.6215 9.19254C15.5559 9.19254 15.4902 9.1269 15.4902 9.02843Z" fill="black" stroke="white" stroke-width="0.219164" stroke-linejoin="round"/>
<path d="M15.2166 9.02843C15.2166 8.91902 15.2713 8.82056 15.326 8.82056C15.3807 8.82056 15.4244 8.95185 15.4244 9.02843C15.4244 9.11596 15.3697 9.19254 15.326 9.19254C15.2713 9.19254 15.2166 9.1269 15.2166 9.02843Z" fill="black" stroke="white" stroke-width="0.219164" stroke-linejoin="round"/>
<path d="M15.8293 9.00663C15.8293 8.90816 15.884 8.80969 15.9388 8.80969C15.9935 8.80969 16.0482 8.93004 16.0482 9.00663C16.0482 9.10509 15.9825 9.17074 15.9388 9.17074C15.884 9.17074 15.8293 9.10509 15.8293 9.00663Z" fill="black" stroke="white" stroke-width="0.219164" stroke-linejoin="round"/>
<path d="M15.8951 9.19266C15.9169 9.08325 15.9826 8.99572 16.0263 9.00666C16.0701 9.0176 16.0811 9.14889 16.0592 9.22548C16.0482 9.32394 15.9826 9.37865 15.9388 9.36771C15.8951 9.35677 15.8732 9.28018 15.8951 9.19266Z" fill="black" stroke="white" stroke-width="0.219164" stroke-linejoin="round"/>
<path d="M15.6872 9.15985C15.6981 9.06138 15.7638 8.96292 15.8185 8.97386C15.8841 8.97386 15.917 9.10515 15.906 9.18173C15.8951 9.2802 15.8404 9.34584 15.7857 9.3349C15.731 9.3349 15.6763 9.25832 15.6872 9.15985Z" fill="black" stroke="white" stroke-width="0.219164" stroke-linejoin="round"/>
<path d="M15.3808 9.19269C15.348 9.08329 15.2824 9.0067 15.2386 9.01764C15.1948 9.02858 15.1839 9.15987 15.2058 9.23646C15.2276 9.32398 15.2933 9.37869 15.3371 9.36774C15.3699 9.3568 15.4027 9.28022 15.3808 9.19269Z" fill="black" stroke="white" stroke-width="0.219164" stroke-linejoin="round"/>
<path d="M15.3042 9.17069C15.3042 9.07222 15.3589 8.97375 15.4136 8.97375C15.4792 8.97375 15.523 9.0941 15.523 9.17069C15.523 9.26915 15.4683 9.3348 15.4136 9.3348C15.3698 9.3348 15.3042 9.26915 15.3042 9.17069Z" fill="black" stroke="white" stroke-width="0.219164" stroke-linejoin="round"/>
<path d="M15.4683 9.21459C15.4683 9.10518 15.5339 9.00671 15.5996 9.00671C15.6761 9.00671 15.7308 9.12706 15.7308 9.21459C15.7308 9.30211 15.6652 9.3787 15.5996 9.3787C15.5339 9.3787 15.4683 9.31305 15.4683 9.21459Z" fill="black" stroke="white" stroke-width="0.219164" stroke-linejoin="round"/>
<path d="M15.5229 8.01094C15.501 8.09847 15.4244 8.17505 15.4791 8.2954C15.3807 8.26258 15.2931 8.25164 15.2166 8.33916C15.315 8.32822 15.4025 8.36104 15.4463 8.42669C15.3588 8.41575 15.315 8.45951 15.2931 8.51421C15.3697 8.49233 15.4463 8.47045 15.4791 8.48139C15.4463 8.51421 15.3916 8.56892 15.3807 8.61268C15.4463 8.55798 15.5229 8.56892 15.5667 8.5361C15.5338 8.61268 15.5995 8.68927 15.6542 8.76585C15.6432 8.65645 15.7089 8.57986 15.6761 8.52516C15.7745 8.54704 15.7855 8.63456 15.9277 8.63456C15.873 8.60174 15.8402 8.49233 15.7745 8.49233C15.8074 8.48139 15.9386 8.47045 15.9605 8.49233C15.9386 8.44857 15.8621 8.40481 15.8183 8.40481C15.8621 8.36105 15.9386 8.27352 15.9933 8.25164C15.9168 8.26258 15.7964 8.27352 15.7526 8.33916C15.8621 8.25164 15.8402 8.08753 15.9605 8.06564C15.8949 8.0547 15.7964 8.09847 15.7198 8.17505C15.7526 8.10941 15.7526 8.02188 15.7964 8C15.7089 8.02188 15.6104 8.13129 15.5776 8.18599C15.5776 8.13129 15.5448 8.04376 15.5229 8.01094Z" fill="black" stroke="white" stroke-width="0.219164" stroke-linejoin="round"/>
<path d="M15.5778 8.18604C15.5778 8.21886 15.5778 8.2845 15.5669 8.30638L15.5778 8.18604Z" fill="black"/>
<path d="M15.5778 8.18604C15.5778 8.21886 15.5778 8.2845 15.5669 8.30638" stroke="white" stroke-width="0.219164" stroke-linejoin="round"/>
<path d="M15.7199 8.17505C15.6981 8.19693 15.6543 8.27352 15.6543 8.33916L15.7199 8.17505Z" fill="black"/>
<path d="M15.7199 8.17505C15.6981 8.19693 15.6543 8.27352 15.6543 8.33916" stroke="white" stroke-width="0.219164" stroke-linejoin="round"/>
<path d="M15.7856 8.3064C15.7527 8.32828 15.7199 8.3611 15.709 8.40486" stroke="white" stroke-width="0.219164" stroke-linejoin="round"/>
<path d="M12.2408 15.7788C12.3065 15.9539 12.7769 16.1836 13.324 15.8882C13.696 15.6804 13.9367 15.385 14.1664 14.8598C14.2321 14.7285 14.2649 14.5644 14.1117 14.4659C13.9914 14.3784 13.7944 14.2799 13.7069 14.1924C13.6631 14.1487 13.6194 14.1158 13.5865 14.083C13.6084 14.1049 13.6303 14.1268 13.6522 14.1596C13.871 14.4222 13.6413 14.8051 13.4006 15.0349C13.2255 15.199 12.9082 15.6038 12.4487 15.2208C12.3502 15.1333 12.1205 15.4944 12.2408 15.7788Z" fill="#FCEA83" stroke="black" stroke-width="0.0328221"/>
<path d="M18.8928 15.7788C18.8162 15.9539 18.3457 16.1836 17.8097 15.8882C17.4377 15.6804 17.197 15.385 16.9563 14.8598C16.9016 14.7285 16.8687 14.5644 17.0219 14.4659C17.1423 14.3784 17.3392 14.2799 17.4267 14.1924C17.4705 14.1487 17.5033 14.1158 17.5471 14.083C17.5252 14.1049 17.5033 14.1268 17.4814 14.1596C17.2626 14.4222 17.4924 14.8051 17.7221 15.0349C17.8972 15.199 18.2254 15.6038 18.6849 15.2208C18.7834 15.1333 19.0022 15.4944 18.8928 15.7788Z" fill="#FCEA83" stroke="black" stroke-width="0.0328221"/>
<path d="M15.5668 16.7197C16.442 16.7197 17.7878 16.3259 18.5098 14.9473C18.6302 14.7176 18.5098 14.5972 18.3676 14.5207C18.2144 14.455 18.0284 14.3018 17.93 14.2034C18.105 14.3784 18.0722 14.4988 17.9519 14.6957C17.3939 15.6257 16.628 16.0961 15.5668 16.0961C14.5055 16.0961 13.7397 15.6257 13.1817 14.6957C13.0614 14.4988 13.0285 14.3784 13.1927 14.2034C13.1051 14.3018 12.9082 14.455 12.755 14.5207C12.6128 14.5972 12.4924 14.7176 12.6128 14.9473C13.3349 16.3259 14.6915 16.7197 15.5668 16.7197Z" fill="#FCEA83" stroke="black" stroke-width="0.0328221"/>
<path d="M13.5428 14.8707C13.5209 14.7613 13.3786 14.8051 13.3349 14.9364C13.2802 14.8598 13.2255 14.7832 13.1817 14.6957C13.0504 14.4987 13.0285 14.3674 13.2145 14.1815C13.3021 14.0939 13.4771 13.9955 13.5975 14.1049C13.8491 14.3127 13.7178 14.6519 13.5428 14.8707Z" fill="#C8102E" stroke="black" stroke-width="0.0328221"/>
<path d="M17.5797 14.8707C17.6016 14.7613 17.7548 14.8051 17.7986 14.9364C17.8533 14.8598 17.908 14.7832 17.9517 14.6957C18.083 14.4987 18.1049 14.3674 17.908 14.1815C17.8314 14.0939 17.6563 13.9955 17.525 14.1049C17.2843 14.3127 17.4047 14.6519 17.5797 14.8707Z" fill="#C8102E" stroke="black" stroke-width="0.0328221"/>
<path d="M12.2408 15.7789C12.1313 15.6148 12.0438 15.1881 12.0219 15.0787C11.9891 14.9802 11.9782 14.8927 12.0985 14.8489C12.2189 14.8052 12.3283 14.9583 12.383 15.0896C12.4377 15.2209 12.5252 15.4179 12.6237 15.6585C12.383 15.5163 12.186 15.6148 12.2408 15.7789Z" fill="#C8102E" stroke="black" stroke-width="0.0328221"/>
<path d="M18.8927 15.7789C18.9912 15.6148 19.0787 15.1881 19.1115 15.0787C19.1334 14.9802 19.1553 14.8927 19.0349 14.8489C18.9146 14.8052 18.8052 14.9583 18.7505 15.0896C18.6958 15.2209 18.6082 15.4179 18.5098 15.6585C18.7505 15.5163 18.9365 15.6148 18.8927 15.7789Z" fill="#C8102E" stroke="black" stroke-width="0.0328221"/>
<path d="M14.7243 10.8228C14.5821 10.8556 14.4836 10.8665 14.3523 10.7462C14.2648 10.6587 14.2867 10.5055 14.3742 10.4508C14.4727 10.3851 14.5602 10.3414 14.6806 10.3742C14.8009 10.407 15.1182 10.7024 15.0416 10.7134C14.965 10.7134 14.8447 10.7899 14.7243 10.8228Z" fill="white" stroke="black" stroke-width="0.0328221"/>
<path d="M15.0632 10.2975C15.107 10.2647 15.1617 10.2428 15.3039 10.2318C15.4352 10.2209 15.5337 10.2209 15.5665 10.3194C15.6103 10.4397 15.6431 10.5819 15.7306 10.6476C15.6759 10.6804 15.4024 10.7132 15.3039 10.6585C15.1726 10.5929 15.1398 10.3412 15.0632 10.2975Z" fill="white" stroke="black" stroke-width="0.0328221"/>
<path d="M16.0044 10.3085C16.0482 10.2756 16.1029 10.2756 16.2451 10.2866C16.3873 10.2975 16.442 10.3085 16.4748 10.4069C16.5077 10.5163 16.4748 10.6586 16.5405 10.757C16.4748 10.7789 16.256 10.7789 16.1794 10.7023C16.0591 10.6148 16.07 10.3632 16.0044 10.3085Z" fill="white" stroke="black" stroke-width="0.0328221"/>
<path d="M16.6608 10.3741C16.5623 10.3522 16.4966 10.3413 16.4529 10.3741C16.5076 10.4398 16.4638 10.7023 16.5732 10.7899C16.6498 10.8446 16.8467 10.8555 16.8905 10.7352C16.9452 10.6257 16.9452 10.4616 16.6608 10.3741Z" fill="#073163" stroke="black" stroke-width="0.0328221"/>
<path d="M15.5339 10.2647C15.5668 10.2319 15.6324 10.2209 15.7637 10.2209C15.9059 10.2209 15.9934 10.2428 16.0372 10.3304C16.081 10.4398 16.07 10.582 16.1466 10.6695C16.1138 10.7133 15.8184 10.7133 15.7309 10.6476C15.6105 10.5711 15.5996 10.3194 15.5339 10.2647Z" fill="#073163" stroke="black" stroke-width="0.0328221"/>
<path d="M14.6038 10.3631C14.6038 10.3084 14.6803 10.2975 14.8773 10.2866C15.0742 10.2647 15.0852 10.2756 15.1508 10.4178C15.1836 10.4944 15.2274 10.6257 15.3149 10.6695C15.0742 10.7242 14.9976 10.757 14.8663 10.6804C14.7679 10.6257 14.6585 10.4944 14.6366 10.4397C14.6256 10.4069 14.6256 10.3741 14.6038 10.3631Z" fill="#073163" stroke="black" stroke-width="0.0328221"/>
<path d="M15.1289 9.24723C14.8992 9.07218 14.6257 8.90807 14.374 8.87524C14.5381 8.97371 14.9976 9.33476 15.118 9.4551" fill="#F9D050"/>
<path d="M15.1289 9.24723C14.8992 9.07218 14.6257 8.90807 14.374 8.87524C14.5381 8.97371 14.9976 9.33476 15.118 9.4551" stroke="black" stroke-width="0.0147685"/>
<path d="M15.2604 9.08311C14.9869 8.89711 14.6696 8.68924 14.3633 8.66736C14.593 8.78771 14.9322 9.07217 15.1182 9.30192" fill="#F9D050"/>
<path d="M15.2604 9.08311C14.9869 8.89711 14.6696 8.68924 14.3633 8.66736C14.593 8.78771 14.9322 9.07217 15.1182 9.30192" stroke="black" stroke-width="0.0147685"/>
<path d="M15.6104 8.77673C15.7635 8.43757 15.9276 8.25158 16.1464 8.0437C16.037 8.27346 15.9167 8.74391 15.862 8.9299" fill="#F9D050"/>
<path d="M15.6104 8.77673C15.7635 8.43757 15.9276 8.25158 16.1464 8.0437C16.037 8.27346 15.9167 8.74391 15.862 8.9299" stroke="black" stroke-width="0.0147685"/>
<path d="M15.8511 8.72207C15.9605 8.48138 16.1246 8.2735 16.4091 8.14221C16.2668 8.28444 16.048 8.71113 15.9933 8.94089" fill="#F9D050"/>
<path d="M15.8511 8.72207C15.9605 8.48138 16.1246 8.2735 16.4091 8.14221C16.2668 8.28444 16.048 8.71113 15.9933 8.94089" stroke="black" stroke-width="0.0147685"/>
<path d="M15.9497 8.94084C16.081 8.75485 16.3436 8.40474 16.814 8.21875C16.5405 8.49227 16.1357 8.99554 16.0372 9.19248" fill="#F9D050"/>
<path d="M15.9497 8.94084C16.081 8.75485 16.3436 8.40474 16.814 8.21875C16.5405 8.49227 16.1357 8.99554 16.0372 9.19248" stroke="black" stroke-width="0.0147685"/>
<path d="M16.1028 9.1815C16.2997 9.07209 16.6936 8.89704 16.9781 8.95174C16.803 9.01739 16.2779 9.25808 16.0481 9.4769" fill="#F9D050"/>
<path d="M16.1028 9.1815C16.2997 9.07209 16.6936 8.89704 16.9781 8.95174C16.803 9.01739 16.2779 9.25808 16.0481 9.4769" stroke="black" stroke-width="0.0147685"/>
<path d="M16.059 9.10499C16.245 8.90806 16.5842 8.61266 16.9452 8.49231C16.6827 8.74395 16.1247 9.31286 16.0481 9.40039" fill="#F9D050"/>
<path d="M16.059 9.10499C16.245 8.90806 16.5842 8.61266 16.9452 8.49231C16.6827 8.74395 16.1247 9.31286 16.0481 9.40039" stroke="black" stroke-width="0.0147685"/>
<path d="M15.5338 8.98462C15.4025 8.57981 15.2056 8.19689 14.9102 8.07654C15.0743 8.31724 15.2821 8.66734 15.3916 9.19249" fill="#F9D050"/>
<path d="M15.5338 8.98462C15.4025 8.57981 15.2056 8.19689 14.9102 8.07654C15.0743 8.31724 15.2821 8.66734 15.3916 9.19249" stroke="black" stroke-width="0.0147685"/>
<path d="M15.2821 8.97366C15.0633 8.71108 14.7679 8.4485 14.4287 8.3938C14.6585 8.52509 15.0414 8.90802 15.1836 9.28" fill="#F9D050"/>
<path d="M15.2821 8.97366C15.0633 8.71108 14.7679 8.4485 14.4287 8.3938C14.6585 8.52509 15.0414 8.90802 15.1836 9.28" stroke="black" stroke-width="0.0147685"/>
<path d="M15.4028 8.96275C15.1292 8.47042 14.9214 8.38289 14.801 8.28442C14.8995 8.47042 15.1402 8.96275 15.2824 9.17063" fill="#F9D050"/>
<path d="M15.4028 8.96275C15.1292 8.47042 14.9214 8.38289 14.801 8.28442C14.8995 8.47042 15.1402 8.96275 15.2824 9.17063" stroke="black" stroke-width="0.0147685"/>
<path d="M14.8555 8.92993C14.9868 9.00652 15.1837 9.19251 15.2493 9.31286" stroke="black" stroke-width="0.0147685"/>
<path d="M14.8555 9.15967C14.9211 9.21437 15.0415 9.28002 15.1509 9.37848L14.8555 9.15967Z" fill="#F9D050"/>
<path d="M14.8555 9.15967C14.9211 9.21437 15.0415 9.28002 15.1509 9.37848" stroke="black" stroke-width="0.0147685"/>
<path d="M16.1575 9.32381C16.2669 9.23629 16.5076 9.09406 16.6279 9.05029L16.1575 9.32381Z" fill="#F9D050"/>
<path d="M16.1575 9.32381C16.2669 9.23629 16.5076 9.09406 16.6279 9.05029" stroke="black" stroke-width="0.0147685"/>
<path d="M16.0808 9.24721C16.1902 9.10499 16.409 8.90805 16.4856 8.84241L16.0808 9.24721Z" fill="#F9D050"/>
<path d="M16.0808 9.24721C16.1902 9.10499 16.409 8.90805 16.4856 8.84241" stroke="black" stroke-width="0.0147685"/>
<path d="M16.3872 8.56885C16.2887 8.67826 16.059 8.95177 15.9714 9.08306L16.3872 8.56885Z" fill="#F9D050"/>
<path d="M16.3872 8.56885C16.2887 8.67826 16.059 8.95177 15.9714 9.08306" stroke="black" stroke-width="0.0147685"/>
<path d="M16.1029 8.47034C16.0263 8.5688 15.8731 8.85326 15.8293 8.95173L16.1029 8.47034Z" fill="#F9D050"/>
<path d="M16.1029 8.47034C16.0263 8.5688 15.8731 8.85326 15.8293 8.95173" stroke="black" stroke-width="0.0147685"/>
<path d="M15.2385 8.49231C15.3042 8.66736 15.4245 8.96276 15.4683 9.08311L15.2385 8.49231Z" fill="#F9D050"/>
<path d="M15.2385 8.49231C15.3042 8.66736 15.4245 8.96276 15.4683 9.08311" stroke="black" stroke-width="0.0147685"/>
<path d="M15.1399 8.67822C15.1837 8.74387 15.2712 8.89704 15.304 9.00645L15.1399 8.67822Z" fill="#F9D050"/>
<path d="M15.1399 8.67822C15.1837 8.74387 15.2712 8.89704 15.304 9.00645" stroke="black" stroke-width="0.0147685"/>
<path d="M15.5117 8.62365C15.5117 8.52518 15.5774 8.41577 15.643 8.41577C15.7196 8.41577 15.7743 8.54706 15.7743 8.62365C15.7743 8.71117 15.7087 8.78776 15.643 8.78776C15.5774 8.78776 15.5117 8.72211 15.5117 8.62365Z" fill="#F9D050" stroke="black" stroke-width="0.0147685"/>
<path d="M15.3696 8.71109C15.3805 8.60168 15.4571 8.51415 15.5227 8.5251C15.5884 8.53604 15.6212 8.66733 15.6103 8.74391C15.5993 8.83144 15.5227 8.89708 15.468 8.88614C15.4133 8.88614 15.3586 8.80955 15.3696 8.71109Z" fill="#F9D050" stroke="black" stroke-width="0.0147685"/>
<path d="M15.6649 8.74387C15.643 8.6454 15.6868 8.53599 15.7524 8.52505C15.818 8.51411 15.8837 8.62352 15.8946 8.71104C15.9165 8.79857 15.8618 8.8861 15.8071 8.8861C15.7524 8.89704 15.6758 8.84233 15.6649 8.74387Z" fill="#F9D050" stroke="black" stroke-width="0.0147685"/>
<path d="M15.5007 8.83141C15.5007 8.722 15.5664 8.62354 15.632 8.62354C15.7086 8.62354 15.7633 8.74388 15.7633 8.83141C15.7633 8.91894 15.6977 8.99552 15.632 8.99552C15.5664 8.99552 15.5007 8.92988 15.5007 8.83141Z" fill="#F9D050" stroke="black" stroke-width="0.0147685"/>
<path d="M15.304 8.8861C15.304 8.78763 15.3805 8.67822 15.4462 8.67822C15.5118 8.67822 15.5775 8.80951 15.5775 8.8861C15.5775 8.97362 15.5009 9.05021 15.4462 9.05021C15.3805 9.05021 15.304 8.98456 15.304 8.8861Z" fill="#F9D050" stroke="black" stroke-width="0.0147685"/>
<path d="M15.7087 8.8424C15.7087 8.74393 15.7744 8.63452 15.84 8.63452C15.9166 8.63452 15.9713 8.76581 15.9713 8.8424C15.9713 8.92992 15.9057 9.00651 15.84 9.00651C15.7744 9.00651 15.7087 8.94086 15.7087 8.8424Z" fill="#F9D050" stroke="black" stroke-width="0.0147685"/>
<path d="M15.665 8.92992C15.665 8.82051 15.7416 8.72205 15.8073 8.72205C15.8729 8.72205 15.9386 8.84239 15.9386 8.92992C15.9386 9.01745 15.8729 9.09403 15.8073 9.09403C15.7416 9.09403 15.665 9.02839 15.665 8.92992Z" fill="#F9D050" stroke="black" stroke-width="0.0147685"/>
<path d="M15.49 9.02831C15.49 8.9189 15.5556 8.82043 15.6213 8.82043C15.6979 8.82043 15.7526 8.95172 15.7526 9.02831C15.7526 9.11583 15.6869 9.19242 15.6213 9.19242C15.5556 9.19242 15.49 9.12678 15.49 9.02831Z" fill="#F9D050" stroke="black" stroke-width="0.0147685"/>
<path d="M15.2163 9.02831C15.2163 8.9189 15.271 8.82043 15.3257 8.82043C15.3804 8.82043 15.4242 8.95172 15.4242 9.02831C15.4242 9.11583 15.3695 9.19242 15.3257 9.19242C15.271 9.19242 15.2163 9.12678 15.2163 9.02831Z" fill="#F9D050" stroke="black" stroke-width="0.0147685"/>
<path d="M15.8291 9.0065C15.8291 8.90804 15.8838 8.80957 15.9385 8.80957C15.9932 8.80957 16.0479 8.92992 16.0479 9.0065C16.0479 9.10497 15.9823 9.17061 15.9385 9.17061C15.8838 9.17061 15.8291 9.10497 15.8291 9.0065Z" fill="#F9D050" stroke="black" stroke-width="0.0147685"/>
<path d="M15.8948 9.19253C15.9167 9.08313 15.9823 8.9956 16.0261 9.00654C16.0699 9.01748 16.0808 9.14877 16.0589 9.22536C16.048 9.32382 15.9823 9.37853 15.9386 9.36759C15.8948 9.35664 15.8729 9.28006 15.8948 9.19253Z" fill="#F9D050" stroke="black" stroke-width="0.0147685"/>
<path d="M15.687 9.15973C15.6979 9.06126 15.7635 8.96279 15.8182 8.97374C15.8839 8.97374 15.9167 9.10502 15.9058 9.18161C15.8948 9.28008 15.8401 9.34572 15.7854 9.33478C15.7307 9.33478 15.676 9.25819 15.687 9.15973Z" fill="#F9D050" stroke="black" stroke-width="0.0147685"/>
<path d="M15.3806 9.19245C15.3478 9.08304 15.2821 9.00646 15.2383 9.0174C15.1946 9.02834 15.1836 9.15963 15.2055 9.23621C15.2274 9.32374 15.293 9.37844 15.3368 9.3675C15.3696 9.35656 15.4025 9.27997 15.3806 9.19245Z" fill="#F9D050" stroke="black" stroke-width="0.0147685"/>
<path d="M15.304 9.17057C15.304 9.0721 15.3587 8.97363 15.4134 8.97363C15.479 8.97363 15.5228 9.09398 15.5228 9.17057C15.5228 9.26903 15.4681 9.33468 15.4134 9.33468C15.3696 9.33468 15.304 9.26903 15.304 9.17057Z" fill="#F9D050" stroke="black" stroke-width="0.0147685"/>
<path d="M15.468 9.21447C15.468 9.10506 15.5337 9.00659 15.5993 9.00659C15.6759 9.00659 15.7306 9.12694 15.7306 9.21447C15.7306 9.30199 15.665 9.37858 15.5993 9.37858C15.5337 9.37858 15.468 9.31293 15.468 9.21447Z" fill="#F9D050" stroke="black" stroke-width="0.0147685"/>
<path d="M15.5226 8.01082C15.5008 8.09834 15.4242 8.17493 15.4789 8.29528C15.3804 8.26246 15.2929 8.25151 15.2163 8.33904C15.3148 8.3281 15.4023 8.36092 15.4461 8.42657C15.3585 8.41563 15.3148 8.45939 15.2929 8.51409C15.3695 8.49221 15.4461 8.47033 15.4789 8.48127C15.4461 8.51409 15.3914 8.5688 15.3804 8.61256C15.4461 8.55786 15.5226 8.5688 15.5664 8.53597C15.5336 8.61256 15.5992 8.68915 15.6539 8.76573C15.643 8.65632 15.7086 8.57974 15.6758 8.52503C15.7743 8.54692 15.7852 8.63444 15.9275 8.63444C15.8728 8.60162 15.8399 8.49221 15.7743 8.49221C15.8071 8.48127 15.9384 8.47033 15.9603 8.49221C15.9384 8.44845 15.8618 8.40469 15.818 8.40469C15.8618 8.36092 15.9384 8.2734 15.9931 8.25152C15.9165 8.26246 15.7962 8.2734 15.7524 8.33904C15.8618 8.25152 15.8399 8.0874 15.9603 8.06552C15.8946 8.05458 15.7962 8.09834 15.7196 8.17493C15.7524 8.10929 15.7524 8.02176 15.7962 7.99988C15.7086 8.02176 15.6102 8.13117 15.5774 8.18587C15.5774 8.13117 15.5445 8.04364 15.5226 8.01082Z" fill="#F9D050" stroke="black" stroke-width="0.0147685"/>
<path d="M15.5776 8.18604C15.5776 8.21886 15.5776 8.2845 15.5667 8.30638L15.5776 8.18604Z" fill="#F9D050"/>
<path d="M15.5776 8.18604C15.5776 8.21886 15.5776 8.2845 15.5667 8.30638" stroke="black" stroke-width="0.0147685"/>
<path d="M15.7197 8.17505C15.6978 8.19693 15.6541 8.27352 15.6541 8.33916L15.7197 8.17505Z" fill="#F9D050"/>
<path d="M15.7197 8.17505C15.6978 8.19693 15.6541 8.27352 15.6541 8.33916" stroke="black" stroke-width="0.0147685"/>
<path d="M15.7853 8.30627C15.7525 8.32816 15.7197 8.36098 15.7087 8.40474" stroke="black" stroke-width="0.0147685"/>
<path d="M14.6259 9.38954C14.5493 9.38954 14.4837 9.35672 14.4399 9.30202C14.3633 9.20355 14.1554 9.15979 14.0679 9.24731C14.0351 9.26919 13.9913 9.26919 13.9585 9.28014C13.9038 9.28014 13.8382 9.33484 13.86 9.44425C13.9038 9.41142 13.9147 9.44425 13.9476 9.44425C13.9694 9.43331 13.9585 9.45519 13.9585 9.47707C13.9585 9.53177 14.0788 9.64118 14.1883 9.63024C14.3086 9.63024 14.3633 9.674 14.3852 9.69588C14.418 9.72871 14.3961 9.71777 14.418 9.77247C14.4508 9.80529 14.4618 9.81623 14.4071 9.86C14.3305 9.92564 14.2758 10.0788 14.4071 10.1992C14.5493 10.3086 14.9103 10.4727 15.3152 10.1554C15.709 9.84905 16.3217 10.0241 16.3655 10.1335C16.4202 10.2429 16.442 10.3086 16.453 10.3633C16.4639 10.407 16.5186 10.4508 16.5952 10.4399C16.6718 10.4399 16.7593 10.4727 16.8031 10.5055C16.8578 10.5383 16.9344 10.5274 16.9125 10.4289C16.8687 10.1226 16.6827 10.0788 16.6609 9.93658C16.7703 9.94752 16.8469 9.94752 16.8906 9.90376C16.9234 9.86 16.9672 9.78341 17.011 9.76153C17.0438 9.73965 17.0438 9.71777 17 9.72871C16.9453 9.73965 16.9125 9.76153 16.814 9.75059C16.3108 9.69588 14.8994 9.31296 14.6259 9.38954Z" fill="#059334" stroke="black" stroke-width="0.0328221"/>
<path d="M16.8576 9.76144C16.8029 9.79427 16.7482 9.84897 16.6497 9.98026C16.5403 10.1225 16.2121 10.2647 15.8073 10.2647C15.4134 10.2647 15.1727 10.1991 14.9976 10.0568C14.8992 9.98026 14.8226 9.9365 14.7569 9.90367C14.6366 9.84897 14.6147 9.72862 14.6475 9.63015C14.6147 9.68486 14.5928 9.73956 14.5272 9.72862C14.4834 9.72862 14.3959 9.72862 14.4178 9.77238C14.4068 9.7505 14.4068 9.71768 14.3959 9.70674C14.385 9.6958 14.374 9.68486 14.374 9.68486C14.4068 9.70674 14.4834 9.64109 14.5381 9.64109C14.5819 9.65204 14.6366 9.59733 14.6257 9.53169C14.6147 9.47698 14.6038 9.43322 14.5928 9.38946C14.6804 9.34569 15.8291 9.55357 16.0589 9.57545C16.2887 9.58639 16.9451 9.68486 16.8576 9.76144Z" fill="black" stroke="black" stroke-width="0.0328221"/>
<path d="M14.779 9.3457C14.8884 9.23629 15.0197 9.18159 15.151 9.21441H15.1838C15.2495 9.15971 15.4026 9.14877 15.4902 9.19253H15.5339C15.6652 9.14877 15.9168 9.19253 16.0044 9.28006L16.0372 9.30194C16.3326 9.28006 16.5076 9.41135 16.7155 9.61922C16.7374 9.6411 16.7702 9.68486 16.8249 9.69581C16.8906 9.70675 16.9015 9.73957 16.8468 9.77239C16.7812 9.80521 16.7265 9.85992 16.6171 9.98026C16.5186 10.1116 16.2013 10.2428 15.8074 10.2428C15.4245 10.2428 15.1948 10.1772 15.0197 10.0459C14.9212 9.96932 14.8447 9.92556 14.79 9.89274C14.7243 9.87086 14.6368 9.78333 14.6696 9.6958C14.6915 9.60828 14.6368 9.49887 14.593 9.38946C14.6258 9.36758 14.7134 9.33476 14.7571 9.35664L14.779 9.3457Z" fill="#059334" stroke="black" stroke-width="0.0328221"/>
<path d="M16.7156 9.61921C16.5078 9.41134 16.3327 9.28005 16.0373 9.30193C16.0373 9.31287 16.0373 9.3457 16.0264 9.36758C16.2014 9.43322 16.4531 9.63015 16.5625 9.77239C16.6062 9.72862 16.6828 9.67392 16.7156 9.61921Z" fill="#00493D" stroke="black" stroke-width="0.0328221"/>
<path d="M16.0045 9.28011C15.917 9.19258 15.6654 9.14882 15.5341 9.19258C15.5341 9.23635 15.5341 9.30199 15.5122 9.34575C15.5888 9.37858 15.6544 9.45516 15.7201 9.53175C15.7638 9.52081 15.8733 9.48798 15.928 9.47704C15.9498 9.43328 15.9936 9.33481 16.0045 9.28011Z" fill="#00493D" stroke="black" stroke-width="0.0328221"/>
<path d="M15.4903 9.19253C15.4028 9.14877 15.2496 9.15971 15.1839 9.21441C15.1621 9.25818 15.1511 9.3457 15.1511 9.38946C15.1949 9.38946 15.2605 9.42229 15.2824 9.44417C15.3481 9.42229 15.4356 9.37852 15.4684 9.3457C15.4793 9.30194 15.5012 9.23629 15.4903 9.19253Z" fill="#00493D" stroke="black" stroke-width="0.0328221"/>
<path d="M14.7791 9.3457C14.8885 9.2363 15.0197 9.18159 15.151 9.21442C15.1292 9.24724 15.1182 9.31288 15.1182 9.37853C14.9979 9.36759 14.8447 9.40041 14.7791 9.44417V9.3457Z" fill="#00493D" stroke="black" stroke-width="0.0328221"/>
<path d="M16.5188 9.7943C16.4203 9.65207 16.1796 9.48796 16.0155 9.41138C16.0155 9.42232 15.9936 9.46608 15.9827 9.4989C16.0483 9.59737 16.1796 9.81618 16.2343 9.93653C16.289 9.91465 16.4422 9.84901 16.5188 9.7943Z" fill="#00493D" stroke="black" stroke-width="0.0328221"/>
<path d="M15.6873 10.035C15.7091 9.88184 15.7201 9.66303 15.7201 9.58644C15.7748 9.5755 15.8842 9.54268 15.928 9.53174C15.9827 9.61926 16.1139 9.84902 16.1687 9.95843C16.0374 9.99125 15.8185 10.046 15.6873 10.035Z" fill="#00493D" stroke="black" stroke-width="0.0328221"/>
<path d="M15.3044 9.5098C15.3591 9.48792 15.4357 9.44415 15.4904 9.40039C15.5342 9.43321 15.6217 9.5098 15.6545 9.55356C15.6545 9.65203 15.6217 9.93649 15.6108 10.035C15.5233 10.035 15.381 10.0131 15.3044 9.96931C15.3154 9.8052 15.3263 9.61921 15.3044 9.5098Z" fill="#00493D" stroke="black" stroke-width="0.0328221"/>
<path d="M14.7573 9.64104C14.7683 9.61915 14.7792 9.54257 14.7792 9.50975C14.8667 9.45504 15.0855 9.40034 15.2497 9.48786C15.2606 9.59727 15.2497 9.87079 15.2387 9.93643C15.0965 9.82703 14.8667 9.67386 14.7573 9.64104Z" fill="#00493D" stroke="black" stroke-width="0.0328221"/>
<path d="M14.2101 9.44406C14.1883 9.44406 14.1773 9.37842 14.1336 9.37842C14.1226 9.37842 14.0898 9.38936 14.0789 9.37842C14.0789 9.4003 14.0898 9.42218 14.1007 9.43312C14.1117 9.46594 14.1664 9.44406 14.2101 9.44406Z" fill="black"/>
<path d="M14.21 9.63013C14.3412 9.63013 14.3631 9.46602 14.4288 9.45508" stroke="black" stroke-width="0.0328221"/>
<path d="M14.2866 9.64113C14.3851 9.68489 14.4617 9.45514 14.5383 9.46608" stroke="black" stroke-width="0.0328221"/>
<path d="M14.0898 9.35666C14.1227 9.35666 14.1445 9.3129 14.1993 9.3676C14.2211 9.38948 14.254 9.40042 14.2758 9.40042" stroke="black" stroke-width="0.0328221"/>
<path d="M14.254 9.52075C14.2102 9.5864 14.1336 9.63016 14.0898 9.60828" stroke="black" stroke-width="0.0328221"/>
<path d="M14.0678 9.24719C14.035 9.26907 14.0131 9.31284 13.9912 9.34566" stroke="black" stroke-width="0.0328221"/>
<path d="M13.9585 9.41125V9.46596" stroke="black" stroke-width="0.0328221"/>
<path d="M17.6125 10.8337V12.9672C17.6125 14.8162 16.7373 15.4507 15.5666 15.954C14.396 15.4507 13.5098 14.8162 13.5098 12.9672V10.8337H17.6125Z" fill="white"/>
<path d="M15.5666 12.639C15.6651 12.639 15.8183 12.5514 15.9495 12.4201C16.0918 12.267 16.3325 12.2123 16.5841 12.4201C16.8357 12.628 16.9889 12.5405 17.1202 12.4201C17.2515 12.2998 17.3609 12.256 17.6125 12.256V10.8337H13.5098V12.256C13.7614 12.256 13.8708 12.2998 14.0021 12.4201C14.1334 12.5405 14.2866 12.628 14.5382 12.4201C14.8008 12.2123 15.0305 12.267 15.1837 12.4201C15.304 12.5514 15.4572 12.639 15.5666 12.639Z" fill="#C8102E"/>
<path d="M15.5669 13.733C15.6982 13.733 15.9607 13.5908 16.0264 13.558C16.2671 13.4158 16.4421 13.5471 16.5844 13.6127C16.7375 13.6783 17.022 13.7549 17.197 13.6127C17.3721 13.4705 17.4706 13.4814 17.5909 13.4814C17.6128 13.3173 17.6128 13.1532 17.6128 12.9672V12.8359C17.4596 12.8031 17.383 12.8468 17.2189 12.9891C17.0548 13.1313 16.8688 13.0985 16.6281 13.011C16.3984 12.9125 16.1686 12.7374 15.9389 13.011C15.8732 13.0875 15.72 13.197 15.5669 13.197C15.4028 13.197 15.2605 13.0875 15.1949 13.011C14.9542 12.7374 14.7354 12.9125 14.5056 13.011C14.2649 13.0985 14.068 13.1313 13.9039 12.9891C13.7507 12.8468 13.6741 12.8031 13.51 12.8359V12.9672C13.51 13.1532 13.521 13.3173 13.5428 13.4814C13.6632 13.4814 13.7507 13.4705 13.9258 13.6127C14.1008 13.7549 14.3962 13.6783 14.5384 13.6127C14.6916 13.5471 14.8667 13.4158 15.1074 13.558C15.173 13.5908 15.4246 13.733 15.5669 13.733Z" fill="#0B50A0"/>
<path d="M15.5669 14.2034C15.731 14.2034 15.9279 14.1378 16.103 14.0393C16.3218 13.9189 16.475 13.9736 16.6938 14.0831C16.9235 14.1925 17.1095 14.1596 17.2408 14.0831C17.3065 14.0393 17.3612 13.9518 17.5034 13.9846C17.4378 14.2581 17.3393 14.4988 17.2189 14.6957C17.0001 14.7504 16.8798 14.7504 16.65 14.652C16.4203 14.5426 16.1358 14.4769 15.9826 14.5754C15.8404 14.6629 15.6872 14.7067 15.5669 14.7067C15.4465 14.7067 15.2934 14.6629 15.1511 14.5754C14.998 14.4769 14.7135 14.5426 14.4837 14.652C14.254 14.7504 14.1336 14.7504 13.9148 14.6957C13.7945 14.4988 13.696 14.2581 13.6304 13.9846C13.7726 13.9518 13.8273 14.0393 13.8929 14.0831C14.0133 14.1596 14.2102 14.1925 14.429 14.0831C14.6588 13.9736 14.812 13.9189 15.0308 14.0393C15.2058 14.1378 15.4028 14.2034 15.5669 14.2034Z" fill="#0B50A0"/>
<path d="M15.5671 15.954C16.0048 15.768 16.4096 15.5601 16.7378 15.2756C16.6503 15.2428 16.5956 15.2647 16.519 15.21C16.4424 15.1553 16.2126 15.1334 16.0157 15.2428C15.8078 15.3413 15.7203 15.3632 15.5671 15.3632C15.414 15.3632 15.3264 15.3413 15.1186 15.2428C14.9216 15.1334 14.6919 15.1553 14.6153 15.21C14.5387 15.2647 14.484 15.2428 14.3965 15.2756C14.7247 15.5601 15.1186 15.768 15.5671 15.954Z" fill="#0B50A0"/>
<path d="M15.2827 11.3699C15.2936 11.3918 15.2718 11.4465 15.2827 11.4684C15.3046 11.5121 15.3046 11.534 15.3374 11.5559H15.414C15.6547 11.5559 15.9391 11.4574 16.1798 11.4574C16.4096 11.4574 16.5518 11.534 16.6831 11.534C16.7597 11.534 16.8253 11.4793 16.8253 11.4246C16.8253 11.3699 16.7378 11.3371 16.5518 11.3371C16.2892 11.3371 16.147 11.4027 15.9282 11.4027C15.6 11.4027 15.5453 11.2824 15.5453 11.2277C15.5453 11.173 15.6 11.0964 15.775 11.0964C15.8297 11.0964 15.8735 11.0855 15.8954 11.0636C15.9063 11.0417 15.9391 10.9979 16.0048 10.9651C16.0814 10.9213 16.2345 10.9651 16.3111 10.9104C16.3111 10.9542 16.2455 11.0198 16.1908 11.0417C16.3002 11.0089 16.4205 11.0089 16.4424 11.0964C16.3877 11.0636 16.3002 11.0855 16.2674 11.0964C16.2236 11.1073 16.2017 11.1183 16.158 11.1292C16.2017 11.1183 16.2236 11.2058 16.2892 11.2058C16.2236 11.2605 16.1142 11.2605 16.0048 11.2167C15.972 11.2058 15.8844 11.173 15.8297 11.173C15.7203 11.173 15.6547 11.1949 15.6547 11.2386C15.6547 11.2933 15.7203 11.3261 15.9173 11.3261C16.1142 11.3261 16.2236 11.2714 16.519 11.2714C16.4971 11.2386 16.5299 11.2058 16.4862 11.173C16.5956 11.173 16.7159 11.2058 16.7597 11.2824C16.7488 11.2058 16.8144 11.1402 16.7925 11.0745C16.8582 11.0855 16.9129 11.1511 16.9238 11.2058C16.9238 11.173 16.9676 11.173 16.9676 11.1402C17.0332 11.173 17.066 11.2496 17.0551 11.3152C17.0879 11.2605 17.1207 11.2824 17.1426 11.2167C17.1645 11.2605 17.1536 11.3918 17.077 11.4356C17.1426 11.3918 17.2411 11.3918 17.3067 11.4684C17.2411 11.4574 17.2083 11.4903 17.1754 11.5012C17.0442 11.5778 16.8253 11.6215 16.6612 11.6106C16.4862 11.5997 16.4643 11.5668 16.3549 11.5668C16.4205 11.5778 16.5518 11.7091 16.6722 11.7091C16.7488 11.7091 16.8035 11.7091 16.8363 11.6981C16.8691 11.6872 16.9238 11.6981 16.9676 11.72C17.0004 11.7528 17.066 11.7857 17.1098 11.7747C17.0989 11.8185 17.077 11.8404 17.0442 11.8513C17.0989 11.8841 17.066 11.906 17.1207 11.9498C17.0989 11.9498 17.077 11.9717 17.0442 11.9607C17.077 11.9935 17.077 12.0373 17.1098 12.0592C17.0989 12.0592 17.066 12.0701 17.0442 12.0592C17.077 12.1029 17.0442 12.1576 17.077 12.1795C17.1098 12.2233 17.0442 12.278 16.9894 12.2342C17.0004 12.2671 16.9676 12.2999 16.9347 12.2889C16.9019 12.278 16.88 12.2452 16.891 12.2342C16.891 12.2233 16.891 12.2233 16.9019 12.2124C16.88 12.2452 16.8363 12.2452 16.8144 12.2342C16.8035 12.2233 16.7925 12.2123 16.7925 12.2014C16.7159 12.2233 16.6831 12.1576 16.6941 12.1248C16.705 12.092 16.7706 12.0811 16.7925 12.092C16.8144 12.1029 16.8363 12.1139 16.8582 12.092C16.88 12.0811 16.891 12.0592 16.891 12.0373C16.891 12.0045 16.8582 11.906 16.7159 11.9169C16.5518 11.9279 16.2892 11.8841 16.158 11.8404C16.147 11.8294 16.1361 11.8294 16.1251 11.8185C16.1251 11.8622 16.0814 11.8841 16.0814 11.9279C16.0814 11.9826 16.1032 12.0264 16.1689 12.0482C16.1361 12.1029 16.0814 12.092 16.0595 12.0592C16.0595 12.092 16.0157 12.1139 16.0157 12.1576C16.0048 12.1358 15.9938 12.1248 15.9829 12.1029C15.9501 12.1795 15.8626 12.2233 15.8188 12.2014C15.7641 12.2452 15.6984 12.2342 15.6766 12.1905C15.6437 12.2124 15.6 12.2124 15.5781 12.1905C15.5781 12.2233 15.5562 12.2124 15.5453 12.2561C15.5453 12.278 15.5015 12.2889 15.4796 12.278C15.4577 12.2671 15.4468 12.2233 15.4687 12.2014C15.4359 12.2233 15.403 12.2233 15.3812 12.2014C15.3812 12.1795 15.3812 12.1467 15.403 12.1358H15.4249C15.403 12.1248 15.3702 12.1358 15.3483 12.1248C15.3265 12.1029 15.3265 12.0811 15.3374 12.0592C15.3483 12.0482 15.3812 12.0264 15.403 12.0482L15.414 12.0592C15.414 12.0373 15.4249 12.0154 15.4359 12.0154C15.4577 12.0045 15.4906 12.0045 15.5234 12.0373C15.5453 12.0701 15.5672 12.0701 15.6328 12.0592C15.6875 12.0592 15.775 12.0045 15.8407 11.9498C15.6547 11.917 15.7641 11.7966 15.8188 11.7528C15.775 11.7419 15.7094 11.7419 15.6656 11.7638C15.4359 11.8841 15.1952 12.0264 15.042 11.9826C15.042 12.0045 15.0529 12.0264 15.0639 12.0482C15.0311 12.0482 14.9654 12.0482 14.9435 12.0154C14.9326 12.0373 14.9107 12.092 14.9326 12.1358C14.9107 12.1139 14.8451 12.092 14.8122 12.0811C14.8341 12.1029 14.8122 12.1467 14.8232 12.1795C14.7904 12.1467 14.7357 12.1248 14.7138 12.1467C14.6919 12.1686 14.6481 12.1795 14.6153 12.1686C14.5934 12.2014 14.5606 12.2233 14.5278 12.2342C14.5278 12.2124 14.5278 12.1795 14.5168 12.1686C14.5059 12.2014 14.4731 12.2452 14.4293 12.2671C14.4293 12.2452 14.4293 12.2124 14.4184 12.1905C14.4184 12.2342 14.3308 12.2561 14.3199 12.2889C14.3308 12.2561 14.3308 12.2233 14.3308 12.2014C14.309 12.2342 14.2761 12.2671 14.2214 12.278C14.2324 12.2561 14.2433 12.2342 14.2324 12.2124C14.2214 12.2561 14.1558 12.278 14.1011 12.2671C14.1011 12.2889 14.0573 12.3218 14.0026 12.2889C13.9698 12.278 13.9479 12.2452 13.9698 12.2233C13.926 12.2233 13.8823 12.1795 13.9042 12.1467C13.9042 12.1358 13.9151 12.1248 13.9151 12.1139C13.8823 12.092 13.8713 12.0482 13.9042 12.0154C13.9151 12.0045 13.9479 12.0045 13.9698 12.0045C13.9698 11.917 14.0464 11.9169 14.0792 11.9826C14.1011 12.0154 14.1667 12.0701 14.2214 12.0592C14.2433 12.0592 14.2543 12.0482 14.2761 12.0482C14.3418 12.0264 14.4731 11.9717 14.5497 11.906C14.5606 11.8732 14.5606 11.8513 14.5606 11.8294C14.5168 11.8513 14.4731 11.8732 14.4512 11.906V11.8732C14.4184 11.8732 14.3637 11.8622 14.3418 11.8622C14.3527 11.8513 14.3637 11.7966 14.3856 11.7857C14.3308 11.7966 14.2761 11.7857 14.2324 11.7747C14.2543 11.7528 14.2543 11.72 14.2652 11.6872C14.2433 11.6981 14.1886 11.6763 14.1449 11.6872C14.1558 11.6544 14.1667 11.6106 14.1996 11.5997C14.1558 11.6106 14.1011 11.5997 14.0464 11.5778C14.0902 11.5778 14.112 11.5231 14.1449 11.5231C14.0573 11.5231 14.0354 11.4793 13.9917 11.4574C14.0245 11.4684 14.0464 11.4356 14.0792 11.4356C14.0464 11.4246 13.9917 11.3699 14.0136 11.3371C14.0026 11.348 13.9917 11.3699 13.9698 11.3809C13.9479 11.3918 13.9042 11.3809 13.8713 11.348C13.8495 11.3043 13.8604 11.2496 13.9042 11.2386C13.8495 11.2277 13.8495 11.173 13.8713 11.1511C13.8823 11.1292 13.926 11.0964 13.9479 11.1292C13.9589 11.1402 13.9698 11.162 13.9807 11.173C13.9698 11.1511 13.9698 11.1073 13.9698 11.0745C13.9807 11.0417 14.0026 11.0417 14.0354 11.0307C14.0683 11.0307 14.0902 11.0636 14.0902 11.0964C14.0902 11.1292 14.1011 11.1511 14.112 11.1949C14.112 11.1839 14.123 11.162 14.123 11.1511C14.123 11.1073 14.1777 11.1183 14.2105 11.1292C14.2433 11.1402 14.2543 11.2058 14.2105 11.2386C14.1886 11.2605 14.1996 11.2933 14.2214 11.3152C14.298 11.4356 14.4293 11.534 14.5387 11.545C14.5387 11.5012 14.5606 11.4574 14.5934 11.4246C14.5934 11.4027 14.6044 11.3699 14.6153 11.348C14.6262 11.2824 14.6591 11.2496 14.7028 11.2714C14.6919 11.2605 14.681 11.2496 14.681 11.2386C14.6481 11.2058 14.6153 11.1511 14.6372 11.1073C14.6591 11.0636 14.7247 11.0745 14.7466 11.0964C14.7357 11.0307 14.8122 10.976 14.8122 10.9432C14.8232 10.976 14.8451 11.0198 14.8341 11.0526C14.8451 11.0089 14.9216 10.9542 14.9764 10.9323C14.9545 10.9651 15.0201 11.0198 15.0092 11.0526C15.0311 10.9979 15.1186 10.9651 15.1842 10.9651C15.1623 10.987 15.1623 11.0307 15.1623 11.0526C15.1952 11.0526 15.2499 11.0417 15.2718 11.0089C15.2718 11.0526 15.2499 11.0964 15.228 11.1183C15.2389 11.1073 15.2827 11.1073 15.3155 11.1073C15.2827 11.1402 15.2936 11.173 15.2608 11.1949C15.3046 11.173 15.3593 11.173 15.3702 11.2167C15.3921 11.2496 15.3593 11.3043 15.3374 11.3371C15.3155 11.348 15.2936 11.3699 15.2827 11.3699Z" fill="#F9D050" stroke="black" stroke-width="0.0328221"/>
<path d="M14.604 11.5012C14.5275 11.534 14.5056 11.6106 14.4946 11.6544" stroke="black" stroke-width="0.0328221"/>
<path d="M14.5931 11.5778C14.4837 11.6434 14.4399 11.6981 14.4618 11.8185" stroke="black" stroke-width="0.0328221"/>
<path d="M14.6479 11.906C14.7136 11.8841 14.7574 11.8623 14.8121 11.7638" stroke="black" stroke-width="0.0328221"/>
<path d="M14.7792 11.8076C14.7573 11.8514 14.7792 11.928 14.7463 11.9608C14.801 11.928 14.8448 11.8842 14.8557 11.8076" stroke="black" stroke-width="0.0328221"/>
<path d="M14.801 11.9279C14.8448 11.906 14.9104 11.8403 14.9433 11.7638C14.9323 11.7966 14.9433 11.8513 14.9214 11.8841C14.9761 11.8294 14.998 11.7966 15.0089 11.7419C15.0089 11.7528 15.0198 11.7747 15.0198 11.7856C15.0417 11.7638 15.0636 11.7419 15.0636 11.6981" stroke="black" stroke-width="0.0328221"/>
<path d="M15.0637 11.731V11.7857C15.1075 11.7529 15.1184 11.7091 15.1184 11.6544" stroke="black" stroke-width="0.0328221"/>
<path d="M15.1072 11.72C15.1728 11.6762 15.1838 11.6106 15.1838 11.5121" stroke="black" stroke-width="0.0328221"/>
<path d="M15.1838 11.6216C15.2276 11.5887 15.2385 11.5669 15.2385 11.4684" stroke="black" stroke-width="0.0328221"/>
<path d="M15.0962 11.173C15.0743 11.173 15.0524 11.1839 15.0524 11.2167C15.0524 11.2386 15.0196 11.2714 15.0196 11.3043C15.0087 11.348 14.9868 11.359 14.954 11.348C14.9212 11.3261 14.9212 11.3261 14.9212 11.2933C14.9212 11.2496 14.9759 11.2386 14.9759 11.1949C14.9868 11.173 14.9977 11.1402 15.0087 11.1402C14.954 11.173 14.8774 11.1511 14.8665 11.0854" stroke="black" stroke-width="0.0328221"/>
<path d="M15.195 11.2058C15.1731 11.2168 15.1512 11.184 15.1184 11.1949C15.1075 11.1949 15.0747 11.2058 15.0637 11.1949" stroke="black" stroke-width="0.0328221"/>
<path d="M15.0417 11.2605C15.0527 11.2714 15.1074 11.2933 15.1621 11.2714C15.1183 11.2824 15.0855 11.2276 15.1293 11.1948" stroke="black" stroke-width="0.0328221"/>
<path d="M14.9433 11.1511C14.8995 11.1511 14.8667 11.1839 14.8776 11.2168C14.8885 11.2496 14.9323 11.2496 14.9651 11.2277" stroke="black" stroke-width="0.0328221"/>
<path d="M14.8665 11.6982C14.8774 11.6872 14.8883 11.6653 14.8883 11.6544C14.9102 11.6544 14.9321 11.6435 14.943 11.6325C14.9868 11.6325 15.0196 11.5997 15.0306 11.5669C15.0524 11.5669 15.0634 11.5122 15.0743 11.4903C15.0853 11.5012 15.1072 11.4903 15.1181 11.4465C15.14 11.4575 15.1728 11.4465 15.1837 11.4137" stroke="black" stroke-width="0.0328221"/>
<path d="M14.7355 11.3372C14.7355 11.3481 14.7136 11.37 14.6918 11.3809C14.7027 11.4028 14.6918 11.4575 14.6699 11.4684C14.6808 11.4903 14.6699 11.5232 14.6589 11.545C14.6589 11.556 14.6699 11.5888 14.6699 11.5997" stroke="black" stroke-width="0.0328221"/>
<path d="M14.779 11.1183C14.7571 11.173 14.7681 11.2386 14.8118 11.2496" stroke="black" stroke-width="0.0328221"/>
<path d="M14.8011 11.2932C14.7902 11.3479 14.7902 11.4245 14.7792 11.4573C14.7683 11.4792 14.7464 11.5558 14.8339 11.5777C14.9324 11.5996 14.9871 11.5886 15.0418 11.4245" stroke="black" stroke-width="0.0328221"/>
<path d="M15.2057 11.8513C15.2057 11.8623 15.1947 11.8841 15.1729 11.8841" stroke="black" stroke-width="0.0328221"/>
<path d="M15.2823 11.8293C15.2823 11.8512 15.2605 11.884 15.2495 11.895" stroke="black" stroke-width="0.0328221"/>
<path d="M15.3588 11.8076C15.3588 11.8295 15.3588 11.8623 15.3369 11.8733" stroke="black" stroke-width="0.0328221"/>
<path d="M14.6916 11.1292C14.7026 11.1292 14.7135 11.151 14.7244 11.1729C14.6916 11.151 14.6588 11.2057 14.6807 11.2386" stroke="black" stroke-width="0.0328221"/>
<path d="M14.6588 11.3152C14.6478 11.3261 14.6259 11.3371 14.615 11.348" stroke="black" stroke-width="0.0328221"/>
<path d="M14.6261 11.4137C14.6151 11.4137 14.6042 11.4246 14.5933 11.4246" stroke="black" stroke-width="0.0328221"/>
<path d="M14.1008 11.2167C14.1008 11.2058 14.1008 11.2058 14.1118 11.1948" stroke="black" stroke-width="0.0328221"/>
<path d="M14.0023 11.1839C13.9914 11.1839 13.9914 11.1839 13.9805 11.173" stroke="black" stroke-width="0.0328221"/>
<path d="M14.0132 11.3372H14.0351" stroke="black" stroke-width="0.0328221"/>
<path d="M13.9695 11.2715C13.9476 11.2496 13.9147 11.2386 13.9038 11.2386" stroke="black" stroke-width="0.0328221"/>
<path d="M14.5713 11.6763C14.4947 11.7419 14.4619 11.7966 14.4509 11.8732" stroke="black" stroke-width="0.0328221"/>
<path d="M14.6478 11.731C14.6259 11.7747 14.5931 11.8075 14.5603 11.8294" stroke="black" stroke-width="0.0328221"/>
<path d="M14.2211 12.0592C14.1336 12.0811 14.0679 12.0702 14.0023 12.0264C13.9914 12.0155 13.9804 12.0155 13.9695 12.0045" stroke="black" stroke-width="0.0328221"/>
<path d="M14.5494 11.9061C14.5384 11.9498 14.5275 12.0046 14.5056 12.0155C14.5931 11.9717 14.6697 11.9061 14.6807 11.8076" stroke="black" stroke-width="0.0328221"/>
<path d="M13.9148 12.1138C13.9476 12.1029 13.9804 12.1248 14.0023 12.1029" stroke="black" stroke-width="0.0328221"/>
<path d="M15.8186 11.7528C15.8405 11.7637 15.8733 11.7747 15.8842 11.7856C15.8952 11.7637 15.939 11.7309 15.9718 11.72" stroke="black" stroke-width="0.0328221"/>
<path d="M15.0415 11.9825C15.0306 11.9388 15.0524 11.8841 15.1181 11.8622" stroke="black" stroke-width="0.0328221"/>
<path d="M14.615 12.1686C14.6259 12.1467 14.6259 12.1139 14.6369 12.092" stroke="black" stroke-width="0.0328221"/>
<path d="M14.1337 12.2014C14.1227 12.2233 14.1008 12.2452 14.1008 12.2671" stroke="black" stroke-width="0.0328221"/>
<path d="M13.9695 12.2234C13.9695 12.2234 13.9695 12.2124 13.9804 12.2124C14.0023 12.2015 14.0351 12.1796 14.0461 12.1577" stroke="black" stroke-width="0.0328221"/>
<path d="M15.4573 12.0701C15.4355 12.0811 15.4245 12.0701 15.4136 12.0592" stroke="black" stroke-width="0.0328221"/>
<path d="M15.4464 12.1249C15.4464 12.1249 15.4355 12.1358 15.4246 12.1358" stroke="black" stroke-width="0.0328221"/>
<path d="M15.5011 12.1794C15.4901 12.1904 15.4792 12.2013 15.4683 12.2013" stroke="black" stroke-width="0.0328221"/>
<path d="M15.8186 12.2015C15.8405 12.1905 15.8514 12.1686 15.8624 12.1249" stroke="black" stroke-width="0.0328221"/>
<path d="M15.6763 12.1905C15.7091 12.1796 15.731 12.1577 15.7638 12.1249" stroke="black" stroke-width="0.0328221"/>
<path d="M15.9827 12.103C15.9827 12.0811 15.9827 12.0592 15.9936 12.0374" stroke="black" stroke-width="0.0328221"/>
<path d="M16.7921 12.2014C16.7702 12.1796 16.7702 12.1467 16.803 12.1249C16.8249 12.1139 16.8359 12.103 16.8578 12.092" stroke="black" stroke-width="0.0328221"/>
<path d="M16.1249 11.8185C15.9499 11.7419 15.9608 11.6435 15.8186 11.6544" stroke="black" stroke-width="0.0328221"/>
<path d="M16.9016 12.1577C16.9126 12.1687 16.9016 12.2015 16.9016 12.2124" stroke="black" stroke-width="0.0328221"/>
<path d="M17.0002 12.1577C16.9893 12.1905 16.9893 12.2015 16.9893 12.2343" stroke="black" stroke-width="0.0328221"/>
<path d="M16.1576 11.1292H16.0701" stroke="black" stroke-width="0.0328221"/>
<path d="M15.2385 11.5012C15.2385 11.5231 15.2713 11.5669 15.3589 11.5669C15.3479 11.5669 15.337 11.5559 15.337 11.5559" stroke="black" stroke-width="0.0328221"/>
<path d="M15.2823 11.3699C15.2714 11.3809 15.2604 11.3699 15.2604 11.3699C15.2386 11.348 15.2714 11.3043 15.3042 11.2824C15.2714 11.2933 15.2495 11.2933 15.2276 11.2933C15.2057 11.359 15.1401 11.3918 15.0963 11.348C15.0854 11.3918 15.0307 11.4465 14.9869 11.4356C14.9432 11.4137 14.9322 11.3809 14.9432 11.348C14.8884 11.4137 14.8228 11.3699 14.8009 11.348C14.79 11.3262 14.8009 11.2715 14.8228 11.2058" stroke="black" stroke-width="0.0328221"/>
<path d="M15.9826 11.7856C15.9498 11.8075 15.917 11.7856 15.8842 11.8185C15.8623 11.8403 15.8951 11.8513 15.917 11.8513C15.9061 11.8841 15.9061 11.8951 15.9608 11.8951C15.9389 11.9279 16.0045 11.9388 15.9936 11.9826C16.0264 11.9498 16.0264 11.906 16.0155 11.8732C16.0045 11.8403 15.9498 11.8185 15.9826 11.7856Z" fill="black"/>
<path d="M14.9874 11.4354C14.9437 11.4135 14.9327 11.3807 14.9437 11.3479C14.9327 11.3698 14.9109 11.3807 14.889 11.3807C14.8452 11.4792 14.7905 11.5667 14.7249 11.5667C14.6483 11.5777 14.6592 11.6542 14.7139 11.6542C14.8343 11.6761 14.889 11.6324 14.9874 11.4354Z" fill="#073163"/>
<path d="M13.9042 11.1729C13.937 11.1401 13.9151 11.1073 13.8933 11.0963C13.8604 11.0854 13.7948 11.0963 13.762 11.151C13.7948 11.1401 13.8276 11.1401 13.8385 11.162C13.8495 11.1839 13.8714 11.2057 13.9042 11.1729Z" fill="#073163"/>
<path d="M13.959 10.976C14.0356 10.976 14.0575 10.9869 14.0684 11.0197C14.0793 11.0416 14.0575 11.0744 14.0356 11.0744C14.0027 11.0744 13.9699 11.0525 13.9809 11.0416C13.9918 11.0197 13.9918 10.9869 13.959 10.976Z" fill="#073163"/>
<path d="M14.1778 11.1511C14.2325 11.162 14.2543 11.1292 14.2215 11.0854C14.2106 11.0526 14.1778 11.0307 14.123 11.0417C14.1778 11.0745 14.123 11.1292 14.1778 11.1511Z" fill="#073163"/>
<path d="M13.7727 11.337C13.8055 11.3917 13.8602 11.3917 13.8821 11.3808C13.9149 11.3698 13.9259 11.337 13.9149 11.3151C13.8931 11.2823 13.8602 11.2714 13.8493 11.3151C13.8274 11.3589 13.7946 11.3479 13.7727 11.337Z" fill="#073163"/>
<path d="M13.9369 12.0045C13.915 11.9607 13.8494 11.9607 13.7947 12.0045C13.8166 11.9936 13.8603 12.0045 13.8713 12.0264C13.8822 12.0483 13.9041 12.0483 13.915 12.0483C13.926 12.0373 13.9478 12.0264 13.9369 12.0045Z" fill="#073163"/>
<path d="M14.0244 11.9389C14.0244 11.8841 13.9478 11.8732 13.9041 11.8951C13.9259 11.8951 13.9588 11.917 13.9588 11.9389C13.9697 11.9607 13.9916 11.9717 14.0025 11.9717C14.0244 11.9607 14.0353 11.9498 14.0244 11.9389Z" fill="#073163"/>
<path d="M13.9151 12.1357C13.8495 12.1248 13.8167 12.2013 13.8167 12.256C13.8276 12.2232 13.8604 12.2013 13.8932 12.2123C13.9261 12.2123 13.937 12.2013 13.937 12.1795C13.9479 12.1576 13.937 12.1466 13.9151 12.1357Z" fill="#073163"/>
<path d="M13.926 12.3217C13.9479 12.3326 13.9698 12.3107 13.9807 12.2779C13.9807 12.256 14.0245 12.256 14.0354 12.267C14.0573 12.2779 14.0573 12.3217 14.0245 12.3435C14.0026 12.3545 13.9479 12.3654 13.926 12.3217Z" fill="#073163"/>
<path d="M15.4468 11.9935C15.4249 11.9826 15.3702 11.9607 15.3264 11.9935C15.3592 11.9826 15.3811 12.0045 15.3921 12.0264C15.3921 12.0482 15.4249 12.0592 15.4358 12.0373C15.4468 12.0264 15.4577 12.0045 15.4468 11.9935Z" fill="#073163"/>
<path d="M15.3482 12.07C15.3044 12.0482 15.2497 12.1029 15.2388 12.1466C15.2497 12.1357 15.2935 12.1138 15.3154 12.1138C15.3372 12.1247 15.3591 12.1138 15.3591 12.0919C15.3701 12.081 15.3701 12.07 15.3482 12.07Z" fill="#073163"/>
<path d="M15.403 12.1576C15.3702 12.1576 15.3264 12.2014 15.3264 12.2451C15.3374 12.2232 15.3592 12.2123 15.3811 12.2232C15.403 12.2232 15.4358 12.2123 15.4358 12.1904C15.4358 12.1685 15.4249 12.1576 15.403 12.1576Z" fill="#073163"/>
<path d="M15.5014 12.2452C15.4796 12.2343 15.4467 12.2452 15.4467 12.278C15.4467 12.3108 15.4467 12.3437 15.4358 12.3546C15.4577 12.3327 15.4796 12.3218 15.5014 12.3108C15.5124 12.2999 15.5233 12.2671 15.5014 12.2452Z" fill="#073163"/>
<path d="M16.7377 12.1466C16.7158 12.1247 16.683 12.1356 16.6721 12.1575C16.6611 12.1794 16.6502 12.2341 16.6721 12.2779C16.6721 12.256 16.6939 12.2232 16.7158 12.2232C16.7486 12.2122 16.7596 12.1685 16.7377 12.1466Z" fill="#073163"/>
<path d="M16.8034 12.1905C16.7596 12.2124 16.7596 12.2889 16.7924 12.3327C16.7924 12.3108 16.8034 12.278 16.8253 12.2671C16.8581 12.2671 16.869 12.2233 16.8581 12.2014C16.8362 12.1795 16.8143 12.1905 16.8034 12.1905Z" fill="#073163"/>
<path d="M16.9348 12.2341C16.9129 12.2232 16.891 12.2451 16.891 12.2669C16.8801 12.2998 16.902 12.3435 16.9348 12.3654C16.9348 12.3435 16.9457 12.3216 16.9567 12.3107C16.9895 12.2888 16.9786 12.2451 16.9348 12.2341Z" fill="#073163"/>
<path d="M17.0331 12.2233C17.0113 12.2233 16.9894 12.2561 17.0113 12.2889C17.0222 12.3108 17.0441 12.3217 17.0878 12.3108C17.0769 12.3108 17.055 12.278 17.066 12.267C17.0769 12.2451 17.066 12.2233 17.0331 12.2233Z" fill="#073163"/>
<path d="M13.9913 14.2691L14.5383 12.5842L15.0853 14.2691L13.6521 13.2297H15.4245L13.9913 14.2691Z" fill="#F9D050"/>
<path d="M14.1007 14.1159L15.2386 13.2844H13.8381L14.965 14.1159L14.5383 12.7811L14.1007 14.1159Z" fill="#024919"/>
<path d="M16.0484 14.2691L16.5954 12.5842L17.1425 14.2691L15.7092 13.2297H17.4816L16.0484 14.2691Z" fill="#F9D050"/>
<path d="M16.1578 14.1159L17.2957 13.2844H15.8953L17.0222 14.1159L16.5955 12.7811L16.1578 14.1159Z" fill="#024919"/>
<path d="M15.0198 15.4616L15.5669 13.7767L16.1139 15.4616L14.6807 14.4222H16.4531L15.0198 15.4616Z" fill="#F9D050"/>
<path d="M15.1293 15.3084L16.2671 14.4769H14.8667L15.9936 15.3084L15.5669 13.9736L15.1293 15.3084Z" fill="#024919"/>
<path d="M17.6125 10.8337V12.9672C17.6125 14.8162 16.7373 15.4507 15.5666 15.954C14.396 15.4507 13.5098 14.8162 13.5098 12.9672V10.8337H17.6125Z" stroke="black" stroke-width="0.0328221"/>
<path d="M12.8974 14.858L12.8125 14.903C12.7945 14.9126 12.7865 14.91 12.7713 14.8885L12.7621 14.8934L12.8189 15.0006L12.8282 14.9957C12.8194 14.9713 12.8216 14.9637 12.8396 14.9541L13.0182 14.8594C13.0366 14.8496 13.0458 14.8528 13.0591 14.8732L13.0683 14.8684L13.0114 14.7612L13.0022 14.7661C13.0121 14.7891 13.0095 14.7986 12.9911 14.8083L12.9147 14.8488L12.8744 14.7729L12.9508 14.7324C12.9692 14.7226 12.9785 14.7258 12.992 14.7469L13.0012 14.742L12.9449 14.6357L12.9357 14.6406C12.9447 14.6629 12.9421 14.6715 12.9237 14.6813L12.7452 14.776C12.7271 14.7856 12.7198 14.7834 12.7048 14.7631L12.6956 14.768L12.7519 14.8742L12.7611 14.8693C12.7519 14.8447 12.7542 14.8366 12.7723 14.8271L12.8571 14.7821L12.8974 14.858Z" fill="#00493D"/>
<path d="M12.923 15.1452C12.9104 15.1261 12.9112 15.1175 12.9262 15.1076L13.0105 15.0519C13.0319 15.0843 13.0264 15.1055 12.9883 15.1358L12.9934 15.1435L13.1112 15.0657L13.1061 15.058C13.0641 15.0793 13.0437 15.0765 13.0231 15.0452L13.0223 15.044L13.1031 14.9906C13.1164 14.9819 13.122 14.9837 13.1323 14.9992C13.1643 15.0477 13.1621 15.0701 13.1207 15.1082L13.1256 15.1156L13.1956 15.0693L13.0822 14.8976L13.0735 14.9033C13.0856 14.9248 13.0838 14.9341 13.066 14.9459L12.8974 15.0573C12.8793 15.0692 12.8727 15.0676 12.8554 15.0474L12.8467 15.0532L12.9617 15.2273L13.0421 15.1913L13.0366 15.183C12.9912 15.1924 12.9541 15.1922 12.923 15.1452Z" fill="#00493D"/>
<path d="M13.2904 15.4164L13.2195 15.4812C13.2044 15.495 13.196 15.4944 13.1759 15.4774L13.1682 15.4845L13.25 15.5741L13.2577 15.567C13.2432 15.5455 13.2433 15.5377 13.2584 15.5239L13.4077 15.3877C13.4231 15.3736 13.4329 15.3743 13.4508 15.3909L13.4585 15.3838L13.3767 15.2942L13.369 15.3013C13.3843 15.3211 13.3842 15.3309 13.3687 15.345L13.3049 15.4032L13.2469 15.3397L13.3108 15.2814C13.3262 15.2674 13.336 15.2681 13.3543 15.2852L13.362 15.2781L13.281 15.1893L13.2733 15.1964C13.2875 15.2157 13.2872 15.2247 13.2718 15.2388L13.1226 15.375C13.1074 15.3888 13.0998 15.3885 13.0802 15.3725L13.0725 15.3796L13.1536 15.4684L13.1613 15.4614C13.1462 15.4399 13.1464 15.4314 13.1615 15.4177L13.2325 15.3529L13.2904 15.4164Z" fill="#00493D"/>
<path d="M13.4586 15.7569L13.4576 15.7559C13.4475 15.7463 13.4494 15.736 13.4703 15.688L13.5637 15.4739L13.5565 15.467L13.3416 15.5786C13.305 15.5974 13.2976 15.599 13.2826 15.59L13.2754 15.5975L13.3279 15.6474L13.3351 15.6398C13.321 15.6241 13.3182 15.6151 13.3257 15.6072C13.3294 15.6033 13.3387 15.5977 13.3596 15.5865L13.3747 15.5784L13.433 15.6336C13.4193 15.6656 13.4121 15.6794 13.4058 15.6861C13.3998 15.6924 13.3935 15.6923 13.3839 15.6843C13.3826 15.6831 13.3789 15.6802 13.3747 15.6774L13.3676 15.6849L13.4514 15.7645L13.4586 15.7569ZM13.3898 15.5702L13.4839 15.5197L13.4403 15.6181L13.3898 15.5702Z" fill="#00493D"/>
<path d="M13.5358 15.7656C13.5161 15.7894 13.5102 15.7905 13.4847 15.7732L13.478 15.7812L13.5762 15.8623L13.5829 15.8543C13.5605 15.8326 13.5602 15.8269 13.5804 15.8024L13.7205 15.6328C13.7533 15.662 13.7553 15.6886 13.7284 15.7308L13.7364 15.7374L13.7893 15.6722L13.6242 15.5359L13.5699 15.5999L13.5779 15.6065C13.6142 15.5721 13.6408 15.5691 13.6759 15.5959L13.5358 15.7656Z" fill="#00493D"/>
<path d="M13.8541 15.9059L13.7984 15.9842C13.7866 16.0008 13.7782 16.0021 13.7551 15.9897L13.749 15.9982L13.8479 16.0685L13.854 16.06C13.8352 16.0421 13.8337 16.0343 13.8455 16.0176L13.9626 15.8529C13.9747 15.8359 13.9844 15.8346 14.0054 15.847L14.0114 15.8385L13.9126 15.7682L13.9065 15.7767C13.9257 15.7929 13.9276 15.8024 13.9155 15.8195L13.8654 15.8899L13.7954 15.8401L13.8454 15.7696C13.8575 15.7526 13.8672 15.7513 13.8888 15.7641L13.8948 15.7556L13.7968 15.6859L13.7908 15.6944C13.8088 15.7103 13.8104 15.7191 13.7983 15.7362L13.6812 15.9009C13.6694 15.9175 13.6619 15.9189 13.6393 15.9074L13.6333 15.916L13.7313 15.9856L13.7373 15.9771C13.7181 15.9593 13.7165 15.951 13.7284 15.9343L13.784 15.8561L13.8541 15.9059Z" fill="#00493D"/>
<path d="M14.2537 16.0661L14.2613 16.0701L14.3007 15.996L14.1221 15.901L14.1172 15.9102C14.1381 15.9233 14.1412 15.932 14.131 15.9511L14.036 16.1295C14.0258 16.1487 14.0193 16.1504 13.9944 16.1409L13.9895 16.1502L14.1029 16.2105L14.1078 16.2013C14.0796 16.1844 14.0763 16.1769 14.0871 16.1567L14.1328 16.0708C14.1645 16.0886 14.1689 16.1085 14.1506 16.1536L14.1584 16.1578L14.2247 16.0332L14.2169 16.029C14.1888 16.068 14.1709 16.075 14.1394 16.0583L14.185 15.9728C14.1922 15.9591 14.1983 15.9576 14.2143 15.9662C14.2757 15.9989 14.2652 16.0292 14.2537 16.0661Z" fill="#00493D"/>
<path d="M14.4122 16.0366C14.3429 16.0091 14.2707 16.0469 14.2386 16.1276C14.2067 16.2079 14.2328 16.2843 14.3014 16.3116C14.3701 16.3389 14.4416 16.3008 14.4735 16.2205C14.505 16.1413 14.4788 16.0631 14.4122 16.0366ZM14.4068 16.0493C14.4432 16.0638 14.4458 16.1192 14.4137 16.1999C14.3821 16.2794 14.3446 16.3139 14.3065 16.2988C14.2684 16.2836 14.2648 16.2328 14.2959 16.1544C14.3292 16.0706 14.368 16.0339 14.4068 16.0493Z" fill="#00493D"/>
<path d="M14.616 16.1407L14.6195 16.1309L14.5063 16.0895L14.5027 16.0993C14.5252 16.1106 14.5273 16.1172 14.517 16.1454L14.469 16.2764C14.455 16.3148 14.455 16.3366 14.4691 16.3613C14.4802 16.3809 14.499 16.3958 14.5235 16.4048C14.5881 16.4284 14.6263 16.3917 14.6481 16.3321L14.6939 16.2071C14.7024 16.1839 14.7093 16.1794 14.7322 16.1833L14.7358 16.1735L14.6621 16.1465L14.6585 16.1563C14.6838 16.1682 14.6876 16.1785 14.6771 16.2072L14.6334 16.3267C14.6121 16.3848 14.5834 16.4049 14.5436 16.3903C14.5094 16.3778 14.5028 16.3492 14.5223 16.2959L14.5703 16.1649C14.5816 16.1339 14.5897 16.1325 14.616 16.1407Z" fill="#00493D"/>
<path d="M14.8125 16.1929L14.7396 16.1743L14.737 16.1844C14.7439 16.1862 14.7482 16.1938 14.759 16.221L14.7102 16.4128C14.7043 16.4359 14.6977 16.4402 14.6715 16.4375L14.6689 16.4476L14.7474 16.4675L14.75 16.4574C14.7243 16.447 14.72 16.4377 14.7274 16.409L14.7687 16.2464L14.8673 16.5058L14.877 16.5083L14.9376 16.2699C14.9435 16.2469 14.9493 16.2428 14.9728 16.2444L14.9754 16.2343L14.901 16.2154L14.8985 16.2255C14.9233 16.2349 14.9277 16.245 14.9204 16.2737L14.889 16.3972L14.8125 16.1929Z" fill="#00493D"/>
<path d="M14.963 16.485C14.9598 16.5031 14.9496 16.5098 14.9291 16.507L14.9272 16.5173L15.0383 16.537C15.1141 16.5504 15.1748 16.5027 15.1899 16.4176C15.2049 16.3329 15.1648 16.2728 15.0837 16.2584L14.9765 16.2394L14.9747 16.2497C14.9967 16.2561 15.0023 16.2635 14.999 16.2824L14.963 16.485ZM15.1277 16.4129C15.1107 16.5083 15.0728 16.5282 15.0362 16.5218C15.0204 16.519 15.0168 16.5128 15.0201 16.4943L15.0576 16.283C15.0592 16.2736 15.0671 16.2699 15.0808 16.2723C15.1125 16.2779 15.1456 16.3118 15.1277 16.4129Z" fill="#00493D"/>
<path d="M15.285 16.5531C15.2622 16.5513 15.2559 16.5453 15.2573 16.5274L15.2654 16.4267C15.3042 16.4298 15.3175 16.4472 15.3179 16.4958L15.3271 16.4966L15.3384 16.3559L15.3292 16.3552C15.3201 16.4014 15.3053 16.4157 15.268 16.4127L15.2666 16.4126L15.2743 16.316C15.2756 16.3002 15.2805 16.2968 15.299 16.2983C15.357 16.303 15.3733 16.3185 15.3777 16.3746L15.3866 16.3753L15.3933 16.2916L15.1881 16.2751L15.1873 16.2856C15.2117 16.2892 15.2179 16.2964 15.2162 16.3176L15.2 16.519C15.1983 16.5407 15.1929 16.5449 15.1664 16.5461L15.1655 16.5565L15.3736 16.5732L15.3948 16.4878L15.3848 16.487C15.3643 16.5285 15.3412 16.5576 15.285 16.5531Z" fill="#00493D"/>
<path d="M15.4238 16.543C15.4229 16.5614 15.4136 16.5693 15.3929 16.5691L15.3923 16.5795L15.5049 16.5852C15.5819 16.5892 15.6361 16.5342 15.6406 16.4479C15.6449 16.362 15.5977 16.3074 15.5154 16.3032L15.4067 16.2976L15.4062 16.308C15.4289 16.3117 15.4353 16.3183 15.4344 16.3375L15.4238 16.543ZM15.5782 16.451C15.5733 16.5478 15.5381 16.5723 15.501 16.5704C15.485 16.5696 15.4807 16.5639 15.4816 16.5452L15.4926 16.3308C15.4931 16.3212 15.5004 16.3166 15.5143 16.3173C15.5464 16.319 15.5835 16.3484 15.5782 16.451Z" fill="#00493D"/>
<path d="M15.8367 16.5406C15.8393 16.5613 15.8336 16.5679 15.8074 16.5742L15.8087 16.5845L15.9327 16.569L15.9314 16.5586C15.9042 16.5599 15.8967 16.555 15.894 16.5334L15.8689 16.3329C15.8662 16.3114 15.8728 16.3038 15.8989 16.2993L15.8976 16.2889L15.7737 16.3045L15.775 16.3148C15.8007 16.3137 15.8089 16.319 15.8116 16.3401L15.8367 16.5406Z" fill="#00493D"/>
<path d="M16.0291 16.5046C16.0344 16.5351 16.0313 16.5403 16.0016 16.5484L16.0034 16.5587L16.1289 16.5369L16.1271 16.5266C16.0961 16.5295 16.0915 16.526 16.0861 16.4948L16.0486 16.278C16.0921 16.2721 16.1137 16.2879 16.1281 16.3358L16.1383 16.334L16.1233 16.2515L15.9124 16.288L15.9256 16.3708L15.9358 16.3691C15.9333 16.3191 15.9483 16.297 15.9916 16.2878L16.0291 16.5046Z" fill="#00493D"/>
<path d="M16.3267 16.2081L16.3238 16.198L16.208 16.2318L16.2109 16.2419C16.2357 16.2377 16.2414 16.2417 16.2498 16.2705L16.2889 16.4044C16.3003 16.4437 16.3133 16.4612 16.3393 16.4727C16.3598 16.482 16.3839 16.4828 16.4089 16.4755C16.475 16.4562 16.4839 16.404 16.4661 16.3431L16.4288 16.2152C16.4219 16.1916 16.4248 16.1838 16.4455 16.1733L16.4426 16.1633L16.3673 16.1853L16.3702 16.1954C16.3976 16.19 16.4068 16.196 16.4153 16.2252L16.451 16.3475C16.4684 16.4068 16.4572 16.44 16.4165 16.4519C16.3816 16.4621 16.3592 16.443 16.3433 16.3885L16.3042 16.2546C16.295 16.223 16.3007 16.217 16.3267 16.2081Z" fill="#00493D"/>
<path d="M16.5944 16.2703C16.6392 16.2528 16.6501 16.2473 16.6622 16.2347C16.6846 16.2124 16.6902 16.183 16.6788 16.1529C16.6616 16.1076 16.6201 16.0939 16.5644 16.1151L16.457 16.1558L16.4607 16.1656C16.485 16.1591 16.492 16.1636 16.5024 16.1909L16.5679 16.3634C16.5771 16.3876 16.5757 16.397 16.5609 16.4053C16.5599 16.4057 16.5569 16.4078 16.5535 16.4099L16.5572 16.4197L16.6686 16.3774L16.6649 16.3676C16.6371 16.3737 16.6328 16.3714 16.6219 16.3429L16.5944 16.2703ZM16.5892 16.2566L16.5495 16.152C16.546 16.143 16.5499 16.1362 16.5609 16.132C16.5886 16.1215 16.6062 16.1345 16.6222 16.1767C16.6404 16.2247 16.6319 16.2404 16.5892 16.2566Z" fill="#00493D"/>
<path d="M16.7726 16.0269C16.7029 16.0536 16.6754 16.1304 16.7066 16.2115C16.7375 16.2922 16.8085 16.3307 16.8774 16.3042C16.9464 16.2777 16.9732 16.2013 16.9422 16.1206C16.9117 16.041 16.8395 16.0012 16.7726 16.0269ZM16.7772 16.0399C16.8138 16.0259 16.8532 16.0648 16.8843 16.1459C16.915 16.2258 16.9108 16.2766 16.8725 16.2913C16.8342 16.306 16.7971 16.2711 16.7669 16.1923C16.7346 16.1081 16.7382 16.0549 16.7772 16.0399Z" fill="#00493D"/>
<path d="M16.9306 15.9555L16.8633 15.9892L16.868 15.9986C16.8743 15.9954 16.8826 15.9982 16.9085 16.0119L16.9972 16.1888C17.0078 16.2101 17.0057 16.2177 16.9841 16.2327L16.9887 16.2421L17.0611 16.2058L17.0565 16.1965C17.0302 16.2054 17.0209 16.2012 17.0077 16.1747L16.9325 16.0246L17.1768 16.1563L17.1857 16.1518L17.0756 15.9319C17.0649 15.9106 17.0666 15.9037 17.0855 15.8896L17.0808 15.8802L17.0123 15.9146L17.0169 15.9239C17.0418 15.9147 17.0518 15.9195 17.0651 15.946L17.1221 16.0599L16.9306 15.9555Z" fill="#00493D"/>
<path d="M17.3709 15.9632C17.3893 15.988 17.3889 15.994 17.3661 16.0147L17.3723 16.0231L17.4745 15.9471L17.4683 15.9387C17.4419 15.9552 17.4362 15.9542 17.4173 15.9287L17.286 15.7522C17.3222 15.7273 17.3486 15.7317 17.3831 15.7679L17.3914 15.7617L17.3407 15.6948L17.1689 15.8226L17.2182 15.8905L17.2265 15.8844C17.2017 15.8409 17.2051 15.8144 17.2396 15.7867L17.3709 15.9632Z" fill="#00493D"/>
<path d="M17.5793 15.6903L17.6404 15.7644C17.6534 15.7802 17.6524 15.7886 17.6344 15.8077L17.641 15.8158L17.7347 15.7387L17.7281 15.7306C17.7059 15.7441 17.698 15.7435 17.685 15.7277L17.5566 15.5717C17.5433 15.5555 17.5446 15.5458 17.562 15.5288L17.5554 15.5208L17.4617 15.5978L17.4683 15.6059C17.4889 15.5916 17.4987 15.5923 17.512 15.6084L17.5669 15.6751L17.5005 15.7297L17.4456 15.663C17.4323 15.6469 17.4336 15.6372 17.4515 15.6197L17.4449 15.6117L17.3521 15.6881L17.3587 15.6961C17.3787 15.6829 17.3877 15.6836 17.4009 15.6997L17.5293 15.8558C17.5423 15.8716 17.5417 15.8792 17.5248 15.8979L17.5314 15.906L17.6242 15.8296L17.6176 15.8215C17.5954 15.8355 17.587 15.8349 17.574 15.8191L17.513 15.7449L17.5793 15.6903Z" fill="#00493D"/>
<path d="M17.8371 15.6254C17.8205 15.6412 17.8119 15.6419 17.7995 15.6289L17.7299 15.5556C17.7581 15.5288 17.7799 15.5306 17.8164 15.5627L17.8231 15.5563L17.7259 15.454L17.7192 15.4604C17.7475 15.498 17.7483 15.5185 17.7212 15.5443L17.7201 15.5453L17.6534 15.4751C17.6425 15.4636 17.6432 15.4577 17.6567 15.4449C17.6988 15.4049 17.7213 15.4031 17.766 15.4372L17.7725 15.4311L17.7147 15.3702L17.5654 15.512L17.5726 15.5196C17.5916 15.5039 17.6011 15.504 17.6158 15.5195L17.755 15.666C17.7699 15.6817 17.7695 15.6885 17.7526 15.7091L17.7598 15.7167L17.9111 15.5729L17.8617 15.5001L17.8544 15.507C17.8716 15.55 17.8779 15.5866 17.8371 15.6254L17.8371 15.6254Z" fill="#00493D"/>
<path d="M17.8468 15.207C17.8159 15.2444 17.8217 15.2877 17.8623 15.3212C17.8906 15.3447 17.9226 15.3472 17.9681 15.3296L17.9936 15.3197C18.0271 15.3068 18.0409 15.3071 18.0577 15.3209C18.0799 15.3393 18.0832 15.3648 18.0656 15.3859C18.0308 15.428 17.9707 15.3958 17.9504 15.385L17.9438 15.3929L18.0232 15.4587L18.0298 15.4508C18.0232 15.4424 18.0221 15.4379 18.0257 15.4335C18.0335 15.4241 18.0544 15.4211 18.0756 15.3955C18.1093 15.3549 18.1047 15.3047 18.0642 15.2712C18.0401 15.2512 18.0055 15.2439 17.9806 15.2529L17.9237 15.2739C17.8924 15.2855 17.8793 15.2849 17.8639 15.2721C17.844 15.2556 17.8413 15.2339 17.8568 15.2152C17.8741 15.1944 17.9078 15.1871 17.9602 15.2115L17.9666 15.2038L17.8968 15.146L17.89 15.1542C17.8967 15.1631 17.8975 15.1674 17.8936 15.1721C17.8873 15.1798 17.8657 15.1842 17.8468 15.207Z" fill="#00493D"/>
<path d="M18.2029 15.1867C18.1896 15.2052 18.1812 15.2076 18.1666 15.1971L18.0845 15.1382C18.1072 15.1066 18.1289 15.1042 18.1708 15.129L18.1762 15.1214L18.0615 15.0392L18.0561 15.0467C18.091 15.0783 18.0957 15.0983 18.0738 15.1288L18.073 15.13L17.9943 15.0735C17.9814 15.0642 17.981 15.0583 17.9918 15.0432C18.0257 14.996 18.0475 14.99 18.0978 15.0151L18.103 15.0079L18.0348 14.959L17.9148 15.1263L17.9233 15.1323C17.939 15.1133 17.9484 15.1117 17.9657 15.1241L18.1299 15.2419C18.1475 15.2546 18.1483 15.2613 18.1357 15.2847L18.1441 15.2908L18.2658 15.1212L18.2035 15.059L18.1977 15.0671C18.2227 15.1061 18.2357 15.1409 18.2029 15.1867Z" fill="#00493D"/>
<path d="M18.38 14.8779L18.3793 14.8792C18.3729 14.8915 18.3624 14.8925 18.3105 14.8854L18.0791 14.8536L18.0745 14.8625L18.2402 15.039C18.2682 15.0691 18.2718 15.0758 18.2671 15.0927L18.2764 15.0976L18.3101 15.0334L18.3008 15.0286C18.2896 15.0464 18.2817 15.0516 18.2721 15.0465C18.2673 15.044 18.2593 15.0366 18.2429 15.0195L18.2309 15.0072L18.2683 14.9361C18.3028 14.9405 18.3181 14.9437 18.3262 14.948C18.3339 14.9521 18.3355 14.9581 18.3304 14.9696C18.3296 14.9712 18.3278 14.9755 18.3262 14.9803L18.3355 14.9851L18.3892 14.8828L18.38 14.8779ZM18.219 14.9949L18.1448 14.918L18.2514 14.9333L18.219 14.9949Z" fill="#00493D"/>
<path d="M18.1637 14.6824C18.1453 14.7273 18.1637 14.7669 18.2125 14.7868C18.2465 14.8008 18.2779 14.7936 18.316 14.7633L18.3374 14.7463C18.3656 14.7239 18.3789 14.7201 18.399 14.7283C18.4256 14.7393 18.4364 14.7626 18.4259 14.788C18.4052 14.8385 18.3383 14.8257 18.3156 14.8214L18.3117 14.831L18.4071 14.8701L18.4111 14.8606C18.4022 14.8546 18.3998 14.8505 18.402 14.8453C18.4066 14.834 18.4257 14.8249 18.4383 14.7942C18.4583 14.7454 18.439 14.6989 18.3904 14.6789C18.3614 14.667 18.3262 14.6703 18.3052 14.6864L18.257 14.7233C18.2306 14.7437 18.218 14.747 18.1995 14.7394C18.1755 14.7296 18.1665 14.7097 18.1757 14.6873C18.186 14.6622 18.216 14.6452 18.2733 14.6529L18.2771 14.6436L18.1933 14.6093L18.1892 14.6192C18.1983 14.6256 18.2003 14.6295 18.198 14.6351C18.1942 14.6444 18.175 14.655 18.1637 14.6824Z" fill="#00493D"/>
<defs>
<radialGradient id="paint0_radial_304_1018" cx="0" cy="0" r="1" gradientUnits="userSpaceOnUse" gradientTransform="translate(7.04336 -1.02497) scale(22.7595)">
<stop stop-color="white"/>
<stop offset="0.3" stop-color="#FCFCFC"/>
<stop offset="0.4" stop-color="#F3F3F3"/>
<stop offset="0.5" stop-color="#E4E4E5"/>
<stop offset="0.6" stop-color="#CFD0D0"/>
<stop offset="0.7" stop-color="#B4B4B5"/>
<stop offset="0.8" stop-color="#939394"/>
<stop offset="0.9" stop-color="#58595B"/>
</radialGradient>
</defs>
</svg>
