<svg width="20" height="20" viewBox="0 0 20 20" fill="none" xmlns="http://www.w3.org/2000/svg">
<mask id="mask0_304_1030" style="mask-type:luminance" maskUnits="userSpaceOnUse" x="0" y="0" width="20" height="20">
<path d="M3.57425 0H16.4257C18.3968 0 20 1.60318 20 3.57427V16.4257C20 18.3968 18.3968 20 16.4257 20H3.57425C1.60316 20 0 18.3968 0 16.4257V3.57427C0 1.60318 1.60316 0 3.57425 0Z" fill="white"/>
</mask>
<g mask="url(#mask0_304_1030)">
<mask id="mask1_304_1030" style="mask-type:luminance" maskUnits="userSpaceOnUse" x="-1" y="-1" width="32" height="22">
<path d="M30.5124 -0.341675H-0.68335V20.6833H30.5124V-0.341675Z" fill="white"/>
</mask>
<g mask="url(#mask1_304_1030)">
<path d="M-0.68335 -0.341675H39.3429V20.6833H-0.68335V-0.341675Z" fill="white"/>
<path d="M-0.68335 20.1314V-0.341675H39.3429V4.1524L-0.68335 20.1577V20.1314Z" fill="#DD7500"/>
<path d="M-0.68335 19.7897V-0.341675H39.3429V-3.85046e-05L-0.68335 19.7897ZM-0.68335 20.6833V21.0249H39.3429V8.4888L-0.68335 20.6833Z" fill="#003893"/>
<path d="M6.85945 0.919922L7.12227 5.41403L8.06838 2.94359L7.64789 5.57171L9.19847 3.41664L8.12095 5.83452L10.1709 4.15252L8.48888 6.20247L10.9067 5.12491L8.75169 6.67551L11.3798 6.25502L8.90938 7.20113L13.4035 7.46395L8.90938 7.72676L11.3798 8.67287L8.75169 8.25238L10.9067 9.80298L8.48888 8.72546L10.1709 10.7754L8.12095 9.0934L9.19847 11.5113L7.64789 9.35621L8.06838 11.9843L7.12227 9.51389L6.85945 14.008L6.59664 9.51389L5.65051 11.9843L6.07102 9.35621L4.52042 11.5113L5.59794 9.0934L3.54801 10.7754L5.23002 8.72546L2.81214 9.80298L4.9672 8.25238L2.33908 8.67287L4.80951 7.72676L0.31543 7.46395L4.80951 7.20113L2.33908 6.25502L4.9672 6.67551L2.81214 5.12491L5.23002 6.20247L3.54801 4.15252L5.59794 5.83452L4.52042 3.41664L6.07102 5.57171L5.65051 2.94359L6.59664 5.41403L6.85945 0.919922Z" fill="white"/>
</g>
</g>
<path style="mix-blend-mode:multiply" opacity="0.3" d="M3.57425 0H16.4257C18.3968 0 20 1.60318 20 3.57427V16.4257C20 18.3968 18.3968 20 16.4257 20H3.57425C1.60316 20 0 18.3968 0 16.4257V3.57427C0 1.60318 1.60316 0 3.57425 0Z" fill="url(#paint0_radial_304_1030)"/>
<defs>
<radialGradient id="paint0_radial_304_1030" cx="0" cy="0" r="1" gradientUnits="userSpaceOnUse" gradientTransform="translate(7.01708 -1.02497) scale(22.7595 22.7595)">
<stop stop-color="white"/>
<stop offset="0.3" stop-color="#FCFCFC"/>
<stop offset="0.4" stop-color="#F3F3F3"/>
<stop offset="0.5" stop-color="#E4E4E5"/>
<stop offset="0.6" stop-color="#CFD0D0"/>
<stop offset="0.7" stop-color="#B4B4B5"/>
<stop offset="0.8" stop-color="#939394"/>
<stop offset="0.9" stop-color="#58595B"/>
</radialGradient>
</defs>
</svg>
