<svg width="20" height="20" viewBox="0 0 20 20" fill="none" xmlns="http://www.w3.org/2000/svg">
<mask id="mask0_304_1075" style="mask-type:luminance" maskUnits="userSpaceOnUse" x="0" y="0" width="20" height="20">
<path d="M3.57424 0H16.4258C18.3969 0 20 1.60318 20 3.57427V16.4258C20 18.3969 18.3969 20 16.4258 20H3.57424C1.60315 20 0 18.3969 0 16.4258V3.57427C0 1.60318 1.60315 0 3.57424 0Z" fill="white"/>
</mask>
<g mask="url(#mask0_304_1075)">
<mask id="mask1_304_1075" style="mask-type:luminance" maskUnits="userSpaceOnUse" x="0" y="-1" width="31" height="22">
<path d="M30.1708 -0.315308H0V20.0264H30.1708V-0.315308Z" fill="white"/>
</mask>
<g mask="url(#mask1_304_1075)">
<path d="M15.0854 -0.31543H0V20.0262H15.0854V-0.31543Z" fill="white"/>
<path d="M30.1709 -0.31543H15.0854V20.0262H30.1709V-0.31543Z" fill="#CF142B"/>
<path fill-rule="evenodd" clip-rule="evenodd" d="M2.62807 0.656982V2.12876C2.39154 2.12876 2.15501 2.33899 2.15501 2.6018H0.656982V4.23125H2.12872C2.12872 4.49407 2.36525 4.7043 2.60178 4.7043V6.20234H4.23122V4.73057C4.46775 4.73057 4.70428 4.49406 4.70428 4.25753H6.20231V2.62807H4.73057C4.73057 2.36526 4.46776 2.15503 4.25751 2.15503V0.656982H2.62807Z" fill="white"/>
<path d="M3.86336 3.88964V3.70569V4.02105C3.86336 3.88964 3.86336 3.88964 3.86336 3.88964ZM3.81079 3.81079C3.81079 3.81079 3.81079 3.8108 3.81079 3.62683C3.81079 3.8108 3.81079 3.81079 3.81079 3.94219C3.81079 3.81079 3.81079 3.81079 3.81079 3.81079Z" fill="black"/>
<path d="M3.8894 3.83716C3.8894 3.83716 3.8894 3.81086 3.8894 3.78457C3.8894 3.78457 3.8894 3.78458 3.8894 3.7583C3.8894 3.70574 3.88941 3.70572 3.94197 3.67944C3.91569 3.67944 3.8894 3.70574 3.8894 3.73203C3.8894 3.73203 3.8894 3.73202 3.8894 3.7583C3.8894 3.7583 3.8894 3.78457 3.8894 3.81085V3.83716Z" fill="black"/>
<path d="M3.67926 4.04735C3.67926 4.04735 3.67925 4.04735 3.62669 4.04735C3.62669 4.04735 3.65297 4.02109 3.65297 3.9948C3.65297 3.9948 3.65297 3.9685 3.65297 3.94222C3.65297 3.94222 3.65297 3.94222 3.62669 3.94222C3.62669 3.94222 3.57413 3.91594 3.54785 3.94222C3.57413 3.94222 3.60041 3.94222 3.62669 3.94222C3.62669 3.94222 3.62669 3.94222 3.65297 3.94222C3.65297 3.94222 3.67925 3.96852 3.65297 3.9948V4.04735C3.65297 4.04735 3.67925 4.04735 3.70553 4.04735C3.70553 4.04735 3.70554 4.04735 3.73182 4.04735H3.67926Z" fill="black"/>
<path d="M3.9422 4.02099C3.9422 3.99471 3.94219 3.96844 3.91591 3.96844C3.91591 3.96844 3.86335 3.96844 3.81079 3.96844C3.86335 3.94216 3.88963 3.94216 3.91591 3.96844C3.91591 3.96844 3.9422 3.99471 3.9422 4.02099Z" fill="black"/>
<path d="M4.021 3.99475C4.021 3.99475 4.04728 3.96845 4.07356 3.94217C4.07356 3.94217 4.09985 3.94217 4.12613 3.91589C4.12613 3.91589 4.09984 3.91589 4.07356 3.94217C4.04728 3.94217 4.021 3.96847 4.021 3.99475Z" fill="black"/>
<path d="M3.83696 3.94226V3.88971C3.83696 3.88971 3.81067 3.88971 3.78439 3.88971C3.78439 3.88971 3.78439 3.88972 3.78439 3.83716H3.73184C3.73184 3.83716 3.73183 3.83716 3.78439 3.83716C3.81067 3.83716 3.78439 3.86342 3.78439 3.88971C3.78439 3.88971 3.81067 3.88971 3.83696 3.88971C3.83696 3.88971 3.83696 3.91597 3.83696 3.94226V3.91598C3.83696 3.8897 3.83696 3.83713 3.75812 3.81085C3.75812 3.81085 3.75812 3.81086 3.75812 3.78457C3.75812 3.75829 3.67927 3.70572 3.62671 3.67944C3.67927 3.67944 3.73183 3.73201 3.75812 3.78457V3.81085C3.81068 3.83713 3.83696 3.8897 3.83696 3.91598C3.83696 3.91598 3.83696 3.91597 3.83696 3.94226Z" fill="black"/>
<path d="M3.83707 3.94214C3.83707 3.94214 3.83707 3.94214 3.81079 3.94214H3.83707V4.25753C3.83707 3.94216 3.83707 3.94214 3.83707 3.94214Z" fill="black"/>
<path d="M3.78437 3.75827C3.78437 3.75827 3.78437 3.75825 3.78437 4.07363V3.75827C3.78437 3.75827 3.78437 3.75825 3.78437 4.07363C3.78437 3.86338 3.78437 3.75827 3.78437 3.75827ZM3.54785 3.60059C3.54785 3.60059 3.54785 3.60059 3.67926 3.60059H3.54785Z" fill="black"/>
<path d="M3.75813 3.75827V3.9948C3.75813 3.75827 3.75813 3.75827 3.75813 3.75827C3.75813 3.75827 3.75813 3.75827 3.75813 4.02108V3.75827ZM3.70557 3.70572V3.60059C3.70557 3.70571 3.70557 3.70572 3.70557 3.70572V3.96853C3.70557 3.70572 3.70557 3.70572 3.70557 3.70572Z" fill="black"/>
<path d="M3.75821 3.78454V3.65314C3.75821 3.78454 3.75821 3.96853 3.75821 3.96853V3.78454C3.75821 3.78454 3.75821 3.78456 3.75821 3.96853V3.78454ZM3.73193 3.75827V3.94222C3.73193 3.75825 3.73193 3.75827 3.73193 3.75827Z" fill="black"/>
<path d="M3.70557 4.02105V3.91592V4.23132H3.73186V3.99478L3.70557 4.02105Z" fill="black"/>
<path d="M3.81071 3.94214C3.81071 4.04726 3.81071 4.04727 3.81071 4.04727V3.94214ZM3.78442 3.94214C3.78442 4.04726 3.78442 4.04727 3.78442 4.04727V3.94214C3.78442 4.04726 3.78442 4.04727 3.78442 4.04727V3.94214Z" fill="black"/>
<path d="M3.54802 3.94214V4.12613V4.28381C3.54802 4.12612 3.54802 4.12613 3.54802 4.12613C3.54802 4.12613 3.54802 4.12611 3.54802 3.94214ZM3.52173 4.09985V3.94214C3.52173 4.09983 3.52173 4.09985 3.52173 4.09985C3.52173 4.09985 3.52173 4.09985 3.52173 4.25753V4.09985Z" fill="black"/>
<path d="M3.49526 4.20501C3.25873 4.20501 3.04847 4.12617 2.8645 3.9422C2.89078 3.9422 2.94335 3.9422 2.96963 3.9422C2.99591 3.9422 3.02219 3.9422 3.04847 3.9422H3.07476C3.07476 3.96848 3.07476 3.99478 3.10104 3.99478C3.10104 3.99478 3.12732 3.99478 3.1536 3.99478H3.17988C3.17988 3.99478 3.1536 3.99478 3.12731 3.99478C3.12731 3.99478 3.12731 3.99477 3.12731 4.02105C3.12731 4.02105 3.1536 4.02105 3.17988 4.02105C3.17988 4.02105 3.20616 3.99476 3.17988 3.9422C3.33757 3.99476 3.54782 4.04733 3.54782 4.04733C3.54782 4.04733 3.28501 3.96849 3.07476 3.88965C3.07476 3.88965 3.07476 3.88965 3.10104 3.88965C3.1536 3.88965 3.17988 3.88965 3.23245 3.88965C3.23245 3.88965 3.23244 3.88965 3.25872 3.88965C3.25872 3.88965 3.25873 3.88965 3.28501 3.88965C3.31129 3.88965 3.39013 3.88965 3.39013 3.88965C3.39013 3.88965 3.41642 3.88965 3.46898 3.88965C3.46898 3.88965 3.46897 3.88965 3.44269 3.88965C3.54782 3.88965 3.73179 3.88965 3.83691 3.88965C3.67922 4.04734 3.46898 4.12619 3.23245 4.12619L3.49526 4.20501ZM2.89079 4.0736C3.04848 4.23129 3.25873 4.31014 3.49526 4.31014C3.70551 4.31014 3.91576 4.23129 4.07345 4.0736C3.94204 4.0736 3.81064 4.0736 3.67923 4.0736H3.7055C3.7055 4.0736 3.70551 4.0736 3.67923 4.0736C3.65295 4.0736 3.60039 4.0736 3.60039 4.0736C3.60039 4.0736 3.54782 4.0736 3.49526 4.0736C3.49526 4.0736 3.49526 4.0736 3.46898 4.0736C3.46898 4.0736 3.4427 4.07361 3.28501 4.04733V4.23132H3.41642H3.39013C3.33756 4.04735 3.31128 4.04733 3.25872 4.04733C3.46897 4.12617 3.7055 4.17874 3.7055 4.17874H3.67923C3.67923 4.17874 3.54782 4.12617 3.31129 4.0736C3.31129 4.12617 3.31129 4.15246 3.31129 4.15246C3.31129 4.15246 3.285 4.15246 3.25872 4.15246H3.23245C3.23245 4.15246 3.23244 4.09991 3.25872 4.09991H3.28501C3.28501 4.09991 3.285 4.09991 3.25872 4.09991C3.25872 4.09991 3.23245 4.09991 3.20617 4.09991C3.17989 4.09991 3.17988 4.07361 3.17988 4.04733H3.1536C3.1536 4.04733 3.10105 4.04733 3.07476 4.04733C3.04848 4.04733 2.99591 4.04733 2.96963 4.04733L2.89079 4.0736Z" fill="black"/>
<path d="M3.15347 4.23137C3.15347 4.23137 3.15346 4.17879 3.17975 4.17879H3.20604C3.20604 4.17879 3.20603 4.17879 3.17975 4.17879C3.17975 4.17879 3.15346 4.17879 3.12718 4.17879C3.1009 4.17879 3.10091 4.12624 3.10091 4.12624L3.28488 4.17879C3.31116 4.23135 3.28488 4.25765 3.28488 4.25765C3.28488 4.25765 3.25859 4.25765 3.23231 4.25765L3.15347 4.23137ZM3.15347 4.23137C3.15347 4.23137 3.17976 4.23137 3.20604 4.23137C3.20604 4.23137 3.23232 4.20508 3.20604 4.15251L3.04834 4.09996C3.04834 4.09996 3.04835 4.12623 3.07463 4.15251C3.07463 4.15251 3.1009 4.15251 3.12718 4.15251H3.15347C3.15347 4.15251 3.12719 4.15251 3.10091 4.15251C3.10091 4.15251 3.10091 4.15251 3.10091 4.17879L3.15347 4.23137ZM3.6528 4.12624C3.62652 4.12624 3.60025 4.12624 3.57396 4.12624C3.57396 4.12624 3.52141 4.12624 3.46885 4.12624C3.46885 4.12624 3.46884 4.12624 3.44256 4.12624C3.44256 4.12624 3.41628 4.12625 3.41628 4.09996C3.41628 4.09996 3.47761 4.09996 3.60026 4.09996C3.41629 4.09996 3.41628 4.09996 3.44256 4.09996C3.44256 4.09996 3.44256 4.07366 3.44256 4.04738C3.41628 4.04738 3.36372 4.04739 3.36372 4.02111C3.33744 4.02111 3.31115 4.02111 3.31115 4.02111C3.31115 4.02111 3.31116 3.99484 3.28488 3.96856C3.28488 3.96856 3.33744 3.96856 3.41628 3.96856C3.41628 3.96856 3.5214 3.94225 3.57396 3.94225H3.6528V3.91598C3.6528 3.91598 3.62654 3.91598 3.60026 3.91598C3.60026 3.91598 3.60026 3.91598 3.60026 3.8897C3.60026 3.8897 3.57397 3.8897 3.54769 3.8897H3.5214C3.5214 3.8897 3.5214 3.88971 3.5214 3.86343C3.5214 3.86343 3.49513 3.86343 3.46885 3.86343C3.46885 3.86343 3.52141 3.86343 3.54769 3.86343C3.54769 3.86343 3.65281 3.86343 3.6791 3.86343C3.6791 3.86343 3.73165 3.86343 3.75794 3.86343H3.8105C3.8105 3.86343 3.8105 3.86343 3.83678 3.86343C3.83678 3.86343 3.88934 3.86343 3.91562 3.86343C3.91562 3.86343 3.96818 3.8897 3.96818 3.91598C3.96818 3.91598 3.96818 3.88971 3.96818 3.86343C3.96818 3.86343 3.9419 3.83715 3.91562 3.83715C3.91562 3.83715 3.91562 3.83713 3.91562 3.81085C3.91562 3.81085 3.9419 3.81085 3.96818 3.81085C3.96818 3.81085 3.96819 3.81085 3.99447 3.81085V3.7583C3.99447 3.7583 3.99447 3.7583 4.02075 3.7583C4.02075 3.7583 4.02075 3.75829 4.02075 3.78457C4.02075 3.78457 4.02075 3.78456 4.02075 3.81085C4.02075 3.83713 4.07331 3.86343 4.07331 3.86343C4.07331 3.86343 4.07331 3.86343 4.09959 3.86343C4.09959 3.86343 4.09959 3.86343 4.04702 3.86343C4.02074 3.86343 3.99447 3.86343 3.99447 3.86343C3.99447 3.86343 3.99446 3.86343 3.96818 3.86343C3.96818 3.86343 3.96819 3.86342 3.94191 3.8897C3.91563 3.8897 3.86306 3.8897 3.83678 3.8897C3.83678 3.8897 3.83678 3.8897 3.83678 3.91598C3.83678 3.91598 3.83678 3.91597 3.83678 3.94225C3.83678 3.94225 3.83678 3.94227 3.83678 3.99483C3.86306 3.99483 3.91562 3.94225 3.91562 3.94225C3.9419 3.91597 3.96818 3.8897 3.96818 3.8897C3.96818 3.8897 3.96818 3.8897 3.96818 3.91598C3.96818 3.91598 3.96818 3.91597 3.96818 3.94225C3.96818 3.94225 3.91562 3.99483 3.88934 3.99483C3.88934 3.99483 3.88935 3.99483 3.86307 3.99483C3.86307 3.99483 3.8105 3.99483 3.8105 4.02111C3.8105 4.02111 3.78422 4.02111 3.75794 4.02111C3.75794 4.02111 3.70537 4.02111 3.62653 4.02111C3.60025 4.02111 3.57396 4.02111 3.57396 4.02111C3.57396 4.02111 3.57397 4.02111 3.54769 4.02111C3.54769 4.02111 3.54769 4.02111 3.54769 3.8897C3.54769 4.04739 3.54769 4.04738 3.54769 4.04738H3.57396C3.57396 4.04738 3.57397 4.04738 3.54769 4.04738L3.6528 4.12624ZM3.57396 3.99483C3.57396 3.99483 3.60024 3.99483 3.6528 3.99483C3.6528 3.99483 3.65281 3.99483 3.62653 3.99483C3.62653 3.99483 3.65281 3.99483 3.6791 3.99483C3.70538 3.99483 3.78421 3.99483 3.78421 3.99483C3.78421 3.99483 3.78422 3.99483 3.8105 3.99483H3.83678C3.83678 3.99483 3.88934 3.99484 3.88934 3.96856L3.94191 3.91598C3.94191 3.91598 3.94191 3.91598 3.94191 3.8897C3.94191 3.8897 3.94191 3.88971 3.94191 3.86343C3.94191 3.86343 3.9419 3.86343 3.96818 3.86343C3.96818 3.86343 3.96818 3.86341 3.91562 3.91598C3.91562 3.91598 3.86306 3.96856 3.8105 3.96856V3.94225C3.8105 3.94225 3.81049 3.8897 3.78421 3.8897C3.78421 3.8897 3.78422 3.8897 3.8105 3.8897C3.8105 3.8897 3.86306 3.8897 3.88934 3.8897C3.88934 3.8897 3.88934 3.88971 3.91562 3.86343C3.91562 3.86343 3.91563 3.86343 3.94191 3.86343C3.94191 3.86343 3.96819 3.86343 3.99447 3.86343H4.02075C4.02075 3.86343 4.02075 3.86343 3.99447 3.86343C3.99447 3.86343 3.94191 3.83713 3.94191 3.81085V3.78457H3.91562C3.91562 3.78457 3.91562 3.81087 3.91562 3.83715C3.91562 3.83715 3.88935 3.83715 3.86307 3.83715C3.86307 3.83715 3.83678 3.83715 3.8105 3.83715C3.8105 3.83715 3.83679 3.83715 3.86307 3.86343C3.86307 3.88971 3.86307 3.91597 3.86307 3.94225C3.86307 3.91597 3.8105 3.8897 3.8105 3.8897C3.8105 3.8897 3.75794 3.8897 3.73166 3.8897H3.6791C3.6791 3.8897 3.67909 3.8897 3.6528 3.8897C3.6528 3.8897 3.60025 3.8897 3.57396 3.8897C3.5214 3.8897 3.44256 3.8897 3.44256 3.8897H3.36372H3.41628V3.91598C3.44256 3.91598 3.46885 3.91598 3.46885 3.91598C3.46885 3.91598 3.46885 3.94228 3.46885 3.96856C3.46885 3.96856 3.49512 3.96856 3.5214 3.96856C3.5214 3.96856 3.52141 3.96855 3.54769 3.99483C3.54769 3.99483 3.57397 3.99483 3.60026 3.99483C3.60026 3.99483 3.60026 3.99483 3.60026 4.02111C3.60026 4.02111 3.60025 4.02111 3.57396 4.02111H3.46885C3.41629 4.02111 3.33744 4.0211 3.33744 4.04738C3.28488 4.04738 3.25859 4.04738 3.23231 4.04738C3.23231 4.04738 3.25859 4.07368 3.25859 4.09996C3.25859 4.09996 3.28487 4.09996 3.31115 4.09996C3.31115 4.09996 3.36372 4.15252 3.41628 4.12624C3.41628 4.12624 3.39 4.17879 3.41628 4.17879C3.41628 4.17879 3.41628 4.17879 3.44256 4.17879C3.46884 4.17879 3.54769 4.17879 3.54769 4.17879L3.57396 3.99483ZM3.23231 4.07366C3.23231 4.07366 3.23232 4.07366 3.20604 4.07366H3.12718C3.12718 4.04738 3.17975 4.02111 3.23231 4.02111C3.23231 4.02111 3.23231 3.99484 3.23231 3.96856V3.99483C3.23231 3.99483 3.23231 4.02111 3.25859 4.02111C3.25859 4.02111 3.25859 4.04738 3.25859 4.07366C3.25859 4.07366 3.23232 4.07366 3.20604 4.07366H3.23231ZM3.20604 4.07366C3.20604 4.07366 3.20602 4.07366 3.25859 4.07366C3.25859 4.07366 3.25859 4.07366 3.25859 4.04738C3.25859 4.04738 3.23232 4.04739 3.20604 4.02111C3.20604 4.02111 3.20604 4.04738 3.20604 4.07366C3.15347 4.07366 3.12718 4.07368 3.12718 4.09996H3.17975L3.20604 4.07366ZM3.88934 3.62689C3.88934 3.62689 3.86306 3.62689 3.83678 3.62689C3.83678 3.62689 3.91563 3.52176 3.94191 3.49548C3.94191 3.49548 3.9419 3.49548 3.96818 3.49548C3.96818 3.49548 3.96819 3.49548 3.94191 3.49548C3.94191 3.49548 3.9419 3.49548 3.91562 3.52176C3.91562 3.52176 3.91562 3.54806 3.91562 3.57434L3.88934 3.62689ZM3.83678 3.60061H3.88934C3.88934 3.60061 3.88934 3.57431 3.88934 3.54803C3.88934 3.54803 3.88935 3.52176 3.94191 3.49548C3.94191 3.49548 3.88934 3.57433 3.83678 3.60061Z" fill="black"/>
<path d="M3.65301 4.25769C3.65301 4.25769 2.91715 4.04743 2.89087 4.02115C2.89087 4.02115 2.89086 4.02115 2.91714 4.02115C2.99599 4.02115 3.65301 4.25769 3.65301 4.25769ZM2.89087 3.99487C2.91715 3.99487 3.62673 4.20513 3.65301 4.23141C3.65301 4.23141 2.96971 4.02115 2.91714 3.99487H2.89087Z" fill="black"/>
<path d="M3.70529 3.285C3.70529 3.285 3.70529 3.285 3.67901 3.285C3.67901 3.285 3.679 3.285 3.65272 3.285C3.65272 3.285 3.65273 3.285 3.67901 3.285C3.67901 3.285 3.67901 3.285 3.70529 3.285ZM3.54761 3.20618C3.54761 3.20618 3.5476 3.20618 3.57388 3.20618C3.57388 3.20618 3.57389 3.20618 3.60017 3.20618C3.60017 3.20618 3.60016 3.20618 3.57388 3.20618H3.54761Z" fill="black"/>
<path d="M3.81045 3.31128C3.81045 3.31128 3.81044 3.31128 3.78416 3.31128C3.78416 3.31128 3.78417 3.31128 3.75789 3.31128H3.81045ZM3.70532 3.41638C3.70532 3.41638 3.70533 3.41638 3.73161 3.41638C3.73161 3.41638 3.73161 3.41638 3.75789 3.41638C3.75789 3.41638 3.75788 3.41638 3.78416 3.41638V3.57409C3.78416 3.4164 3.78416 3.41638 3.78416 3.41638H3.70532Z" fill="black"/>
<path d="M3.36377 3.54788C3.36377 3.54788 3.36377 3.54791 3.36377 3.57419C3.36377 3.57419 3.36377 3.57416 3.36377 3.54788C3.36377 3.54788 3.36377 3.54789 3.36377 3.52161C3.36377 3.52161 3.36376 3.52161 3.39004 3.52161C3.39004 3.52161 3.39005 3.52161 3.36377 3.52161V3.54788Z" fill="black"/>
<path d="M3.23242 3.7055C3.23242 3.7055 3.23242 3.70548 3.23242 3.67919C3.23242 3.67919 3.23242 3.67919 3.2587 3.67919C3.2587 3.67919 3.2587 3.67919 3.23242 3.67919C3.23242 3.67919 3.23242 3.67922 3.23242 3.7055C3.23242 3.7055 3.23242 3.70549 3.23242 3.73178V3.7055ZM3.23242 3.7055C3.23242 3.7055 3.23242 3.70548 3.23242 3.67919C3.23242 3.67919 3.23242 3.6792 3.23242 3.65292C3.23242 3.65292 3.23242 3.65291 3.23242 3.67919V3.7055ZM3.33755 3.60037C3.33755 3.60037 3.33755 3.60037 3.36383 3.60037C3.36383 3.60037 3.36383 3.60037 3.33755 3.60037Z" fill="black"/>
<path d="M3.31111 3.70551C3.31111 3.70551 3.31112 3.70551 3.3374 3.70551H3.31111ZM3.28484 3.6792C3.28484 3.6792 3.28483 3.6792 3.25854 3.6792H3.28484Z" fill="black"/>
<path d="M3.15338 3.28503C3.15338 3.57413 3.15338 3.57415 3.15338 3.57415C3.15338 3.57415 3.15337 3.57415 3.12709 3.57415C3.12709 3.57415 3.1271 3.57415 3.15338 3.57415C3.15338 3.57415 3.15338 3.57414 3.15338 3.6267C3.15338 3.60042 3.15338 3.60043 3.15338 3.60043C3.15338 3.60043 3.15337 3.60043 3.17965 3.60043C3.17965 3.60043 3.17966 3.60043 3.15338 3.60043C3.15338 3.60043 3.15338 3.60043 3.15338 3.31134V3.28503ZM3.02197 3.4953C3.02197 3.4953 3.02197 3.4953 3.04825 3.4953C3.04825 3.4953 3.04826 3.4953 3.07454 3.4953C3.07454 3.4953 3.07453 3.4953 3.04825 3.4953C3.04825 3.4953 3.04825 3.4953 3.02197 3.4953Z" fill="black"/>
<path d="M3.17967 3.62674C3.17967 3.62674 3.17968 3.62674 3.1534 3.62674C3.1534 3.62674 3.15339 3.62674 3.17967 3.62674C3.17967 3.62674 3.17968 3.62674 3.20596 3.62674C3.20596 3.62674 3.20595 3.62674 3.23224 3.62674C3.23224 3.62674 3.23224 3.62674 3.20596 3.62674H3.17967ZM3.10083 3.60046C3.10083 3.60046 3.10082 3.60046 3.1271 3.60046C3.1271 3.60046 3.12711 3.60046 3.1534 3.60046C3.1534 3.60046 3.15339 3.60046 3.17967 3.60046C3.17967 3.60046 3.17968 3.60046 3.1534 3.60046C3.1534 3.60046 3.15339 3.60046 3.1271 3.60046C3.1271 3.60046 3.12711 3.60046 3.10083 3.60046Z" fill="black"/>
<path d="M3.75804 2.89081C3.75804 2.89081 3.75805 2.89081 3.73176 2.89081C3.73176 2.89081 3.73176 2.89081 3.75804 2.89081ZM3.6792 2.83826C3.6792 2.83826 3.67919 2.83826 3.70547 2.83826C3.70547 2.83826 3.70548 2.83826 3.6792 2.83826Z" fill="black"/>
<path d="M3.54772 3.33762C3.54772 3.33762 3.52144 3.33762 3.49516 3.33762C3.49516 3.33762 3.49517 3.33762 3.46888 3.33762C3.46888 3.33762 3.46887 3.33762 3.44259 3.33762C3.44259 3.33762 3.4426 3.33762 3.46888 3.33762C3.46888 3.33762 3.46888 3.33762 3.49516 3.33762C3.49516 3.33762 3.49515 3.33762 3.52143 3.33762H3.54772ZM3.44259 3.33762C3.44259 3.33762 3.46888 3.33762 3.49516 3.33762C3.49516 3.33762 3.49517 3.33762 3.46888 3.33762H3.44259ZM3.36375 3.33762C3.36375 3.33762 3.36375 3.33762 3.39003 3.33762C3.39003 3.33762 3.39003 3.33762 3.36375 3.33762ZM3.28491 3.28503C3.28491 3.28503 3.28491 3.28503 3.31119 3.28503C3.31119 3.28503 3.31119 3.28503 3.28491 3.28503Z" fill="black"/>
<path d="M3.49527 3.54788C3.49527 3.54788 3.46898 3.54788 3.4427 3.54788C3.4427 3.54788 3.44271 3.54788 3.41643 3.54788C3.41643 3.54788 3.41642 3.54788 3.4427 3.54788C3.4427 3.54788 3.46899 3.54788 3.49527 3.54788C3.49527 3.54788 3.49526 3.54788 3.52154 3.54788C3.52154 3.54788 3.52155 3.54788 3.54783 3.54788C3.54783 3.54788 3.54782 3.54788 3.52154 3.54788C3.52154 3.54788 3.49527 3.54788 3.46899 3.54788H3.49527ZM3.39014 3.52161C3.39014 3.52161 3.39015 3.52161 3.41643 3.52161C3.41643 3.52161 3.44271 3.52161 3.46899 3.52161C3.46899 3.52161 3.49526 3.52161 3.52154 3.52161C3.52154 3.52161 3.52155 3.52161 3.49527 3.52161C3.49527 3.52161 3.46898 3.52161 3.4427 3.52161C3.4427 3.52161 3.44271 3.52161 3.41643 3.52161C3.41643 3.52161 3.41642 3.52161 3.39014 3.52161Z" fill="black"/>
<path d="M3.28515 3.94208C3.28515 3.94208 3.28515 3.94209 3.28515 3.91581C3.28515 3.91581 3.25886 3.91582 3.23258 3.88953C3.23258 3.88953 3.18002 3.81068 3.15374 3.7844L3.10117 3.73185C3.10117 3.73185 3.10117 3.73186 3.10117 3.70558C3.10117 3.70558 3.10117 3.653 3.12745 3.653C3.12745 3.653 3.12745 3.653 3.12745 3.62672V3.60045C3.12745 3.60045 3.12746 3.60045 3.10117 3.57417C3.04861 3.54789 3.02232 3.49533 2.99604 3.44277C2.99604 3.44277 2.91721 3.44277 2.89093 3.44277C2.89093 3.44277 2.83837 3.44277 2.81209 3.44277C2.78581 3.44277 2.78581 3.49532 2.81209 3.49532C2.81209 3.49532 2.81207 3.52158 2.86464 3.54787L2.9172 3.60045C2.94348 3.62673 2.91721 3.6793 2.89093 3.70558C2.89093 3.70558 2.89093 3.73185 2.89093 3.75813C2.89093 3.75813 2.86464 3.75812 2.83836 3.7844C2.83836 3.7844 2.83836 3.75813 2.83836 3.73185C2.83836 3.73185 2.83836 3.70555 2.83836 3.67927C2.83836 3.67927 2.83836 3.60045 2.83836 3.57417C2.83836 3.57417 2.83836 3.54787 2.83836 3.52159C2.83836 3.52159 2.75952 3.44275 2.7858 3.39018C2.7858 3.3639 2.7858 3.33764 2.83836 3.31136C2.86464 3.31136 2.91721 3.31136 2.94349 3.31136C2.99606 3.33764 3.04862 3.31136 3.0749 3.31136C3.0749 3.28508 3.10118 3.25879 3.15374 3.2325L3.28515 3.36391H3.31142L3.20631 3.25878C3.25887 3.25878 3.31143 3.2325 3.33771 3.2325C3.33771 3.2325 3.33771 3.2325 3.36399 3.2325C3.36399 3.2325 3.36398 3.2325 3.39026 3.2325C3.39026 3.2325 3.41655 3.2325 3.44283 3.2325C3.44283 3.2325 3.44284 3.2325 3.46912 3.2325H3.52167C3.57423 3.2325 3.60052 3.2325 3.6268 3.2325C3.6268 3.2325 3.65308 3.28507 3.67936 3.33764C3.67936 3.33764 3.70565 3.3639 3.73193 3.39018C3.73193 3.39018 3.70565 3.39018 3.67936 3.39018C3.65308 3.39018 3.57423 3.39018 3.52167 3.39018C3.52167 3.44275 3.46911 3.52159 3.44283 3.52159C3.44283 3.52159 3.44283 3.54789 3.44283 3.57417C3.44283 3.57417 3.4954 3.57417 3.54796 3.57417C3.54796 3.57417 3.60052 3.57417 3.6268 3.57417C3.6268 3.57417 3.62679 3.57417 3.65307 3.57417C3.65307 3.57417 3.65308 3.57417 3.67936 3.60045H3.57423C3.57423 3.60045 3.57423 3.60045 3.57423 3.57417C3.57423 3.57417 3.54795 3.57417 3.52167 3.57417C3.52167 3.57417 3.41654 3.57417 3.39026 3.57417C3.39026 3.57417 3.39027 3.57417 3.36399 3.57417C3.36399 3.57417 3.36399 3.54787 3.36399 3.52159V3.46904C3.36399 3.46904 3.36398 3.46903 3.31142 3.49532C3.31142 3.5216 3.31142 3.54788 3.31142 3.60045C3.31142 3.60045 3.41655 3.70557 3.41655 3.73185C3.41655 3.73185 3.44284 3.75812 3.46912 3.7844C3.46912 3.7844 3.46911 3.8107 3.49539 3.83698C3.49539 3.83698 3.4954 3.83698 3.46912 3.83698C3.46912 3.83698 3.41654 3.83698 3.39026 3.83698L3.28515 3.94208ZM3.28515 3.88953C3.28515 3.88953 3.28515 3.88953 3.28515 3.91581C3.28515 3.91581 3.33771 3.91581 3.36399 3.91581C3.39027 3.91581 3.36398 3.91581 3.39026 3.91581C3.39026 3.91581 3.39027 3.91582 3.36399 3.86326C3.33771 3.86326 3.31142 3.81068 3.31142 3.81068L3.20631 3.70558C3.18002 3.6793 3.18002 3.62673 3.20631 3.60045C3.23259 3.60045 3.25885 3.57417 3.25885 3.57417C3.25885 3.57417 3.25885 3.62672 3.25885 3.653V3.67927H3.28515C3.28515 3.67927 3.39027 3.67927 3.41655 3.67927C3.41655 3.67927 3.44284 3.67927 3.46912 3.67927C3.46912 3.67927 3.46912 3.6793 3.46912 3.70558H3.54796C3.54796 3.70558 3.54795 3.70558 3.52167 3.70558C3.52167 3.70558 3.46911 3.70558 3.44283 3.70558C3.39026 3.70558 3.33771 3.70558 3.33771 3.70558C3.33771 3.70558 3.33771 3.67928 3.33771 3.653C3.33771 3.653 3.41655 3.57415 3.41655 3.52159C3.46911 3.52159 3.52167 3.52159 3.57423 3.52159C3.57423 3.52159 3.60052 3.52159 3.6268 3.52159C3.6268 3.52159 3.57423 3.49532 3.57423 3.46904C3.57423 3.41648 3.52167 3.39019 3.52167 3.36391C3.52167 3.36391 3.46911 3.36391 3.44283 3.36391H3.39026C3.39026 3.36391 3.39027 3.36391 3.36399 3.36391C3.36399 3.36391 3.3377 3.36391 3.31142 3.36391C3.31142 3.36391 3.28515 3.36392 3.28515 3.33764C3.28515 3.33764 3.2063 3.33763 3.15374 3.36391L3.25885 3.46904V3.52159H3.23258L3.10117 3.39018C3.07489 3.39018 3.04861 3.44276 3.02233 3.46904C3.02233 3.46904 2.96977 3.46904 2.89093 3.46904C2.89093 3.46904 2.83837 3.46904 2.81209 3.46904C2.78581 3.46904 2.75952 3.52158 2.75952 3.54787C2.75952 3.60043 2.78581 3.65299 2.81209 3.67927C2.81209 3.67927 2.81209 3.73185 2.81209 3.75813C2.81209 3.75813 2.81209 3.8107 2.81209 3.83698C2.81209 3.83698 2.83836 3.86325 2.83836 3.88953V3.91581C2.83836 3.91581 2.86465 3.88953 2.89093 3.88953C2.89093 3.88953 2.89093 3.86327 2.89093 3.83698C2.91721 3.8107 2.94348 3.78441 2.9172 3.75813C2.9172 3.75813 2.89092 3.73186 2.86464 3.70558C2.83836 3.6793 2.81209 3.653 2.81209 3.653C2.81209 3.653 2.81208 3.57417 2.83836 3.57417C2.83836 3.57417 2.89092 3.57417 2.9172 3.57417H2.99604C2.99604 3.62674 3.04861 3.65302 3.10117 3.70558C3.10117 3.70558 3.10117 3.70558 3.12745 3.70558C3.12745 3.70558 3.12745 3.70557 3.12745 3.75813C3.12745 3.75813 3.12745 3.75812 3.12745 3.7844C3.12745 3.81068 3.10117 3.83698 3.10117 3.86326C3.10117 3.86326 3.12746 3.86325 3.15374 3.91581C3.15374 3.91581 3.23258 3.99466 3.23258 4.02094C3.23258 4.02094 3.23257 4.04722 3.25885 4.04722L3.28515 3.88953ZM4.28383 3.653C4.28383 3.653 4.28384 3.653 4.25755 3.653C4.25755 3.653 4.23127 3.653 4.20499 3.653H4.1787C4.1787 3.653 4.1787 3.653 4.1787 3.62672C4.1787 3.62672 4.1787 3.62673 4.15242 3.60045C4.15242 3.60045 4.09986 3.54787 4.07358 3.52159C4.07358 3.52159 4.07357 3.52159 4.04729 3.52159H3.99474C3.99474 3.52159 3.9159 3.54787 3.86334 3.54787C3.86334 3.54787 3.86333 3.54787 3.81077 3.54787C3.81077 3.54787 3.75821 3.44277 3.73193 3.44277C3.73193 3.44277 3.70565 3.36392 3.67936 3.33764C3.67936 3.33764 3.65308 3.33764 3.6268 3.33764C3.6268 3.33764 3.57424 3.33764 3.54796 3.33764C3.54796 3.33764 3.57424 3.33764 3.60052 3.33764C3.6268 3.33764 3.60052 3.31133 3.60052 3.28505C3.60052 3.28505 3.60052 3.28506 3.60052 3.25878C3.60052 3.25878 3.60052 3.25877 3.60052 3.28505C3.60052 3.28505 3.60051 3.31135 3.57423 3.33764C3.57423 3.33764 3.57424 3.33764 3.54796 3.33764C3.57424 3.33764 3.60052 3.33764 3.6268 3.33764C3.6268 3.33764 3.65308 3.33764 3.67936 3.33764C3.67936 3.33764 3.67936 3.33764 3.70564 3.33764C3.70564 3.33764 3.73192 3.41649 3.7582 3.44277L3.83704 3.54787H3.86334C3.9159 3.54787 3.99474 3.54787 3.99474 3.52159C3.99474 3.52159 4.0473 3.52159 4.07358 3.52159C4.07358 3.52159 4.07358 3.52159 4.09986 3.52159C4.09986 3.52159 4.1787 3.57417 4.1787 3.60045C4.1787 3.60045 4.17871 3.60045 4.20499 3.60045V3.62672C4.20499 3.62672 4.20498 3.62672 4.23126 3.62672C4.23126 3.62672 4.25755 3.62672 4.28383 3.62672L4.20499 3.54787C4.20499 3.54787 4.1787 3.5216 4.15242 3.49532C4.12614 3.46903 4.09986 3.44274 4.07358 3.41646C4.07358 3.41646 4.02102 3.39018 3.99474 3.39018C3.96846 3.39018 3.91589 3.39018 3.91589 3.39018C3.91589 3.39018 3.91589 3.39019 3.91589 3.36391C3.91589 3.36391 3.96845 3.31133 3.96845 3.28505L4.02102 3.25878C4.02102 3.25878 4.12614 3.31136 4.15242 3.31136V3.33764C4.15242 3.33764 4.15242 3.33764 4.1787 3.33764C4.1787 3.33764 4.17871 3.33764 4.20499 3.33764C4.20499 3.33764 4.20499 3.31133 4.20499 3.28505C4.20499 3.28505 4.1787 3.2325 4.15242 3.2325C4.15242 3.2325 4.09986 3.20624 4.07358 3.17995C4.0473 3.17995 4.02102 3.15365 3.99474 3.15365C3.99474 3.15365 3.94217 3.15365 3.91589 3.15365C3.91589 3.15365 3.88962 3.15367 3.86334 3.17995L3.81077 3.20623C3.81077 3.15367 3.78449 3.15365 3.7582 3.12737C3.7582 3.07481 3.70565 3.02225 3.67936 2.96969C3.70565 3.02225 3.7582 3.10109 3.7582 3.12737C3.7582 3.12737 3.81077 3.15367 3.81077 3.20623C3.81077 3.20623 3.83705 3.20624 3.86334 3.17995C3.86334 3.17995 3.8896 3.15365 3.91589 3.15365C3.94217 3.15365 3.99474 3.15365 3.99474 3.15365C3.99474 3.15365 4.02102 3.15367 4.07358 3.17995C4.09986 3.17995 4.15242 3.2325 4.15242 3.2325L4.20499 3.28505V3.33764C4.20499 3.33764 4.20498 3.33764 4.1787 3.33764C4.1787 3.33764 4.1787 3.33764 4.15242 3.33764L4.04729 3.28505C4.04729 3.28505 4.02102 3.28505 3.99474 3.28505C3.99474 3.28505 3.96846 3.33763 3.94218 3.36391C3.94218 3.36391 3.99474 3.36391 4.02102 3.36391C4.0473 3.36391 4.07358 3.3639 4.09986 3.39018C4.09986 3.39018 4.12614 3.44276 4.1787 3.46904C4.20498 3.49532 4.23126 3.52159 4.23126 3.52159L4.3101 3.60045L4.28383 3.653ZM3.52167 3.1011V3.07482C3.52167 3.07482 3.52167 3.07482 3.52167 3.1011ZM3.49539 2.99597C3.49539 2.9434 3.49539 2.89084 3.49539 2.89084C3.49539 2.89084 3.54795 2.81202 3.57423 2.78574C3.57423 2.78574 3.57423 2.75944 3.57423 2.73315C3.57423 2.73315 3.57423 2.73315 3.57423 2.75943C3.57423 2.75943 3.57424 2.75943 3.60052 2.75943C3.60052 2.75943 3.65308 2.75943 3.67936 2.75943C3.67936 2.75943 3.73192 2.78573 3.78448 2.81201C3.78448 2.81201 3.78449 2.81201 3.81077 2.81201V2.83829C3.81077 2.83829 3.81076 2.83829 3.78448 2.83829C3.78448 2.83829 3.78449 2.83829 3.7582 2.83829C3.7582 2.83829 3.7582 2.83829 3.78448 2.83829C3.78448 2.83829 3.7582 2.83829 3.7582 2.81201C3.7582 2.81201 3.78449 2.81201 3.81077 2.81201L3.70564 2.75943H3.65307C3.65307 2.75943 3.65308 2.75943 3.6268 2.75943C3.6268 2.75943 3.6268 2.75944 3.6268 2.73315C3.6268 2.73315 3.6268 2.73315 3.6268 2.75943C3.6268 2.75943 3.6268 2.75945 3.6268 2.78574C3.60052 2.78574 3.54796 2.86455 3.54796 2.89084C3.54796 2.89084 3.54796 2.9434 3.54796 2.99597H3.49539ZM3.73193 2.99597C3.75821 2.99597 3.78449 2.99597 3.81077 2.99597C3.81077 2.99597 3.78449 2.99597 3.7582 2.99597H3.73193Z" fill="black"/>
<path d="M3.49527 3.2062C3.49527 3.2062 3.49527 3.20621 3.49527 3.04852C3.49527 3.23249 3.49527 3.23248 3.49527 3.23248C3.52155 3.23248 3.49527 3.20621 3.49527 3.17993C3.49527 3.17993 3.49527 3.1799 3.49527 3.15362C3.49527 3.15362 3.49527 3.15365 3.49527 3.17993C3.49527 3.17993 3.49527 3.2062 3.46899 3.23248L3.49527 3.2062ZM3.4427 3.02222C3.4427 3.02222 3.44271 3.02222 3.46899 3.02222C3.44271 3.02222 3.39014 3.10107 3.39014 3.12735C3.39014 3.12735 3.44271 3.0485 3.46899 3.02222H3.4427Z" fill="black"/>
<path d="M3.52171 3.28503C3.52171 3.28503 3.46916 3.28504 3.46916 3.25875C3.46916 3.25875 3.52172 3.25875 3.548 3.25875C3.548 3.25875 3.62684 3.23249 3.65312 3.2062C3.65312 3.2062 3.70568 3.1799 3.70568 3.15362C3.70568 3.15362 3.73197 3.10107 3.75825 3.10107C3.75825 3.10107 3.73196 3.15362 3.70568 3.15362C3.70568 3.15362 3.65312 3.17992 3.62684 3.2062C3.62684 3.2062 3.54799 3.25875 3.52171 3.25875C3.52171 3.25875 3.46915 3.25875 3.44287 3.25875C3.44287 3.25875 3.46916 3.25875 3.49544 3.25875C3.49544 3.25875 3.54801 3.25876 3.60057 3.23248C3.65313 3.23248 3.70569 3.1799 3.73197 3.15362C3.75826 3.15362 3.78453 3.0748 3.81081 3.0748C3.81081 3.0748 3.75826 3.12734 3.73197 3.15362C3.70569 3.15362 3.62684 3.23248 3.57428 3.23248C3.52171 3.23248 3.49544 3.25875 3.46916 3.25875L3.52171 3.28503ZM3.548 3.04852H3.52171C3.52171 3.04852 3.52171 3.0485 3.52171 3.02222C3.52171 3.02222 3.548 3.02222 3.57428 3.02222L3.548 3.04852ZM3.49544 3.02222H3.52171C3.52171 3.02222 3.52172 3.02222 3.548 3.02222H3.49544ZM3.52171 3.04852C3.52171 3.04852 3.49544 3.04852 3.46916 3.04852C3.46916 3.04852 3.46916 3.04852 3.49544 3.04852H3.52171Z" fill="black"/>
<path d="M3.02222 2.91733C3.02222 2.91733 3.02221 2.91733 3.04849 2.91733H3.02222ZM3.1799 2.86475C3.1799 2.86475 3.1799 2.86475 3.15362 2.86475H3.1799Z" fill="black"/>
<path d="M2.7595 3.31142C2.7595 3.31142 2.7595 3.31142 2.78578 3.31142C2.78578 3.31142 2.78579 3.31142 2.7595 3.31142ZM2.86462 3.15371C2.86462 3.15371 2.86463 3.15371 2.83834 3.15371C2.83834 3.15371 2.83834 3.15371 2.86462 3.15371Z" fill="black"/>
<path d="M3.54783 3.33765V3.31137C3.54783 3.33765 3.54783 3.33765 3.54783 3.33765C3.54783 3.31136 3.54783 3.31137 3.54783 3.31137C3.54783 3.33765 3.54783 3.33765 3.54783 3.33765ZM3.46899 3.28506V3.62673C3.46899 3.39896 3.46899 3.39896 3.46899 3.62673C3.46899 3.39896 3.46899 3.28506 3.46899 3.28506Z" fill="black"/>
<path fill-rule="evenodd" clip-rule="evenodd" d="M3.57413 2.68066L3.54785 2.70694H3.57413V2.68066Z" fill="black"/>
<path d="M3.54785 2.70694C3.54785 2.70694 3.54785 2.70695 3.57413 2.68066L3.54785 2.70694Z" fill="black"/>
<path d="M3.46905 2.81207C3.46905 2.81207 3.46905 2.81206 3.46905 2.99603V2.81207ZM3.44276 2.75949H3.25879H3.57417H3.44276Z" fill="black"/>
<path d="M3.67935 3.4165C3.67935 3.4165 3.6005 3.44281 3.57422 3.44281L3.67935 3.4165Z" fill="black"/>
<path d="M3.60059 3.46915C3.65315 3.46915 3.67943 3.44287 3.67943 3.44287C3.67943 3.44287 3.67942 3.44287 3.62686 3.44287H3.60059V3.46915Z" fill="black"/>
<path d="M3.70555 3.44275L3.62671 3.46902C3.62671 3.46902 3.70555 3.46903 3.70555 3.44275Z" fill="black"/>
<path d="M3.62671 3.46902C3.62671 3.46902 3.70555 3.46903 3.70555 3.44275L3.62671 3.46902ZM3.70555 3.44275C3.70555 3.44275 3.62671 3.44274 3.62671 3.46902C3.62671 3.46902 3.70555 3.46903 3.70555 3.44275Z" fill="black"/>
<path d="M3.73193 3.49536C3.73193 3.49536 3.67936 3.49536 3.65308 3.49536C3.65308 3.49536 3.65309 3.49536 3.67937 3.49536C3.67937 3.49536 3.67936 3.54791 3.70564 3.54791V3.49536H3.73193Z" fill="black"/>
<path d="M3.73186 3.57428C3.73186 3.57428 3.73186 3.57425 3.73186 3.54797C3.73186 3.54797 3.73185 3.54797 3.70557 3.54797H3.75813C3.75813 3.54797 3.75814 3.54797 3.73186 3.54797V3.60056V3.57428Z" fill="black"/>
<path d="M3.3639 2.78586C3.3639 2.78586 3.31134 2.78583 3.31134 2.75955C3.31134 2.75955 3.31134 2.75955 3.28506 2.75955C3.28506 2.75955 3.25878 2.75955 3.2325 2.75955C3.2325 2.75955 3.20621 2.75955 3.17993 2.75955H3.2325H3.28506C3.28506 2.75955 3.31135 2.75955 3.33763 2.75955C3.33763 2.75955 3.39018 2.707 3.44274 2.707C3.49531 2.707 3.52159 2.70699 3.54788 2.75955C3.52159 2.75955 3.52158 2.75955 3.52158 2.75955C3.52158 2.75955 3.52159 2.75956 3.49531 2.73328C3.49531 2.73328 3.49531 2.707 3.44274 2.707C3.44274 2.707 3.3639 2.70699 3.3639 2.75955C3.3639 2.75955 3.3639 2.78585 3.3639 2.81213V2.78586ZM3.28506 2.62815C3.28506 2.62815 3.28506 2.62815 3.31134 2.62815L3.3639 2.65445C3.3639 2.65445 3.3639 2.65443 3.3639 2.62815C3.3639 2.60187 3.41646 2.5756 3.44274 2.5756C3.44274 2.5756 3.49531 2.57559 3.49531 2.60187C3.49531 2.60187 3.49531 2.60187 3.54788 2.60187C3.54788 2.60187 3.49531 2.54932 3.44274 2.5756C3.39018 2.5756 3.3639 2.60187 3.3639 2.62815H3.31134C3.31134 2.62815 3.28505 2.62815 3.25877 2.62815H3.20622C3.20622 2.62815 3.23249 2.62815 3.25877 2.62815C3.25877 2.62815 3.28506 2.62815 3.31134 2.62815H3.28506Z" fill="black"/>
<path d="M3.46907 2.94354C3.46907 2.94354 3.46907 2.94355 3.46907 2.91726C3.46907 2.91726 3.44279 2.91726 3.4165 2.91726C3.4165 2.91726 3.4165 2.91724 3.4165 2.89096C3.4165 2.86468 3.46906 2.83841 3.49534 2.83841C3.49534 2.83841 3.54791 2.8384 3.54791 2.86468C3.54791 2.86468 3.54791 2.86468 3.54791 2.89096H3.52162C3.52162 2.89096 3.52163 2.89096 3.49534 2.89096L3.46907 2.94354ZM3.52162 2.78586C3.52162 2.78586 3.5479 2.78586 3.57418 2.78586C3.57418 2.78586 3.57418 2.78583 3.57418 2.75955C3.57418 2.75955 3.57418 2.73328 3.52162 2.73328C3.52162 2.73328 3.44278 2.7333 3.44278 2.78586C3.44278 2.78586 3.44278 2.81213 3.44278 2.83841C3.44278 2.83841 3.44279 2.83841 3.46907 2.83841L3.52162 2.78586Z" fill="black"/>
<path d="M3.70567 3.65309C3.70567 3.65309 3.67939 3.65309 3.65311 3.65309C3.65311 3.65309 3.65311 3.65309 3.62683 3.65309C3.62683 3.65309 3.57427 3.65309 3.54799 3.65309V3.60054C3.54799 3.60054 3.49543 3.57424 3.49543 3.54796C3.49543 3.4954 3.44286 3.46914 3.44286 3.44286C3.44286 3.44286 3.3903 3.44286 3.36402 3.44286H3.31145C3.31145 3.44286 3.31146 3.44286 3.28518 3.44286C3.28518 3.44286 3.2589 3.44286 3.23261 3.44286C3.23261 3.44286 3.20634 3.44283 3.20634 3.41655V3.33773C3.20634 3.31145 3.20634 3.28515 3.20634 3.25887C3.20634 3.23259 3.15377 3.18003 3.18005 3.12747C3.18005 3.12747 3.15376 3.12747 3.12748 3.12747C3.12748 3.15375 3.10121 3.18004 3.07493 3.20632C3.07493 3.20632 3.07493 3.25887 3.07493 3.28515L3.02237 3.33773C3.02237 3.33773 3.04865 3.31143 3.07493 3.28515C3.07493 3.23258 3.15377 3.15375 3.15377 3.12747C3.15377 3.12747 3.18006 3.07492 3.20634 3.07492C3.20634 3.07492 3.23262 3.02233 3.28518 3.02233C3.28518 3.02233 3.36402 2.96979 3.36402 2.94351C3.36402 2.94351 3.36401 2.94351 3.3903 2.94351C3.41658 2.94351 3.3903 2.94351 3.41659 2.94351C3.41659 2.94351 3.41658 2.94351 3.44286 2.94351C3.44286 2.94351 3.44287 2.94351 3.46915 2.94351C3.46915 2.94351 3.46915 2.9435 3.46915 2.96978C3.46915 2.96978 3.46915 2.96978 3.49543 2.96978L3.46915 2.99606C3.46915 2.99606 3.46915 2.99605 3.46915 3.02233C3.46915 3.02233 3.46915 3.02236 3.46915 3.04864C3.46915 3.04864 3.46915 3.04864 3.46915 3.07492V3.12747C3.46915 3.12747 3.46915 3.18004 3.46915 3.20632C3.46915 3.20632 3.46914 3.20632 3.5217 3.2326C3.54798 3.2326 3.60056 3.2326 3.60056 3.2326C3.60056 3.2326 3.62683 3.2326 3.65311 3.2326C3.65311 3.2326 3.65312 3.2326 3.6794 3.2326C3.6794 3.2326 3.70568 3.31145 3.73196 3.33773L3.8108 3.44286C3.8108 3.44286 3.8108 3.46913 3.8108 3.49541L3.86337 3.54796H3.91592L3.70567 3.65309ZM3.60056 3.60054C3.60056 3.60054 3.65312 3.60054 3.6794 3.60054H3.73196C3.73196 3.60054 3.70568 3.60054 3.6794 3.60054C3.6794 3.60054 3.62684 3.54796 3.60056 3.54796C3.60056 3.54796 3.60056 3.52169 3.60056 3.49541C3.60056 3.49541 3.54798 3.39028 3.5217 3.39028C3.5217 3.39028 3.49543 3.31143 3.46915 3.28515C3.46915 3.28515 3.44287 3.28515 3.41659 3.28515C3.41659 3.28515 3.36403 3.28515 3.33775 3.28515C3.31146 3.28515 3.28518 3.28515 3.28518 3.25887C3.28518 3.25887 3.28518 3.20633 3.28518 3.18005C3.28518 3.18005 3.28518 3.15375 3.28518 3.12747C3.28518 3.12747 3.28518 3.12747 3.28518 3.10119V3.07492C3.28518 3.07492 3.28518 3.07492 3.28518 3.04864C3.28518 3.04864 3.28518 3.04862 3.28518 3.02233C3.28518 3.02233 3.28517 2.99607 3.31145 2.96978C3.31145 2.96978 3.31145 2.96979 3.31145 2.94351C3.31145 2.94351 3.31146 2.94351 3.28518 2.94351C3.28518 2.94351 3.28517 2.94351 3.25889 2.94351C3.25889 2.94351 3.2589 2.94351 3.23261 2.94351C3.23261 2.94351 3.18005 2.99606 3.15377 2.99606C3.12749 2.99606 3.10121 3.04864 3.10121 3.07492C3.07493 3.07492 3.04864 3.12747 3.04864 3.12747C3.04864 3.12747 2.9698 3.25887 2.9698 3.28515C2.9698 3.28515 2.94352 3.28517 2.91724 3.31145L2.9698 3.25887C2.9698 3.25887 2.9698 3.20633 2.9698 3.18005C2.9698 3.18005 2.9698 3.18002 2.9698 3.15374C2.9698 3.15374 3.02237 3.1012 3.02237 3.07492C3.02237 3.07492 3.04865 3.07492 3.07493 3.04864C3.07493 3.1012 3.07493 3.15377 3.10121 3.18005C3.10121 3.20633 3.10121 3.23259 3.10121 3.25887V3.33773C3.10121 3.33773 3.1012 3.33773 3.12748 3.33773C3.12748 3.33773 3.15377 3.33773 3.18005 3.33773C3.18005 3.33773 3.18006 3.33773 3.20634 3.33773H3.25889C3.31145 3.33773 3.33774 3.33773 3.36402 3.33773C3.36402 3.33773 3.3903 3.3903 3.41659 3.44286C3.41659 3.44286 3.44287 3.46913 3.46915 3.49541V3.54796L3.60056 3.60054ZM3.46915 2.83838C3.46915 2.83838 3.46914 2.83838 3.44286 2.83838H3.46915Z" fill="black"/>
<path d="M2.78578 3.41655C2.7595 3.41655 2.70695 3.364 2.68066 3.364C2.68066 3.364 2.68066 3.36401 2.68066 3.33773C2.68066 3.33773 2.73322 3.28515 2.7595 3.25887C2.7595 3.25887 2.7595 3.20633 2.7595 3.18005C2.7595 3.18005 2.78579 3.18002 2.81207 3.15374C2.81207 3.15374 2.81207 3.15375 2.81207 3.12747C2.81207 3.12747 2.81206 3.1012 2.86462 3.07492C2.86462 3.07492 2.8909 3.07492 2.91719 3.07492C2.91719 3.07492 2.9172 3.07492 2.94348 3.04864C2.94348 3.04864 2.96974 3.04864 2.99603 3.04864C2.99603 3.04864 3.07488 3.04864 3.10116 3.04864C3.10116 3.04864 3.12744 3.02236 3.15372 3.04864C3.15372 3.04864 3.18001 3.04864 3.20629 3.04864C3.20629 3.04864 3.20628 3.04864 3.23256 3.04864C3.23256 3.04864 3.23256 3.04864 3.25884 3.04864C3.25884 3.04864 3.20628 3.10119 3.18 3.10119C3.18 3.10119 3.18 3.10118 3.15372 3.12747C3.15372 3.12747 3.15372 3.15377 3.15372 3.18005C3.15372 3.18005 3.15372 3.20632 3.15372 3.2326C3.15372 3.2326 3.15371 3.2326 3.12743 3.2326C3.12743 3.2326 3.07487 3.2326 3.04859 3.2326C3.04859 3.2326 3.0486 3.2326 3.02232 3.2326L2.78578 3.41655ZM2.96975 2.83838V2.86465C2.96975 2.86465 2.94347 2.86465 2.91719 2.86465C2.91719 2.86465 2.86462 2.86465 2.86462 2.89093C2.86462 2.89093 2.86462 2.91723 2.86462 2.94351H2.81207C2.81207 2.94351 2.81207 2.99605 2.81207 3.02233C2.81207 3.02233 2.75949 3.07491 2.73321 3.10119C2.73321 3.10119 2.81206 3.15374 2.83834 3.15374C2.83834 3.15374 2.83834 3.15374 2.86462 3.15374C2.86462 3.15374 2.9172 3.15374 2.94348 3.15374C2.94348 3.15374 2.94348 3.12747 2.94348 3.10119C2.94348 3.10119 2.94348 3.07492 2.94348 3.04864C2.94348 3.04864 2.94347 3.04862 2.96975 3.02233C2.96975 3.02233 3.04859 2.96979 3.04859 2.94351C3.04859 2.94351 3.0486 2.94351 3.02232 2.94351C2.99604 2.94351 2.96975 2.94351 2.96975 2.94351H2.94348C2.94348 2.94351 2.86463 2.94351 2.83834 2.94351C2.83834 2.94351 2.83835 2.94351 2.81207 2.94351L2.96975 2.83838ZM3.02232 3.12747C3.02232 3.12747 3.0486 3.12747 3.07488 3.10119C3.02232 3.10119 3.02231 3.10118 2.99603 3.12747C2.99603 3.12747 2.94347 3.15377 2.91719 3.18005L3.02232 3.12747ZM3.07488 3.07492C3.07488 3.07492 3.07488 3.07492 3.10116 3.07492C3.12744 3.07492 3.15372 3.04864 3.18 3.04864C3.18 3.04864 3.15371 3.04864 3.12743 3.04864L3.07488 3.07492Z" fill="black"/>
<path d="M2.91714 3.20633C2.91714 3.20633 2.89087 3.20633 2.89087 3.18005C2.89087 3.18005 2.89086 3.18005 2.91714 3.20633Z" fill="black"/>
<path d="M3.20636 3.46911H3.18007L2.99609 3.25885H3.02238C3.02238 3.23257 3.02238 3.23257 3.02238 3.25885L3.23263 3.44283V3.49538L3.20636 3.46911ZM3.18007 3.46911H3.20636L3.02238 3.28512L3.20636 3.49538L3.18007 3.46911Z" fill="black"/>
<path d="M3.46899 3.60058C3.46899 3.60058 3.52155 3.60058 3.54783 3.60058C3.54783 3.60058 3.54783 3.62685 3.54783 3.65313C3.54783 3.65313 3.49528 3.65313 3.46899 3.65313V3.60058ZM3.46899 3.548H3.52154C3.52154 3.548 3.52154 3.54801 3.52154 3.52173H3.46899V3.548Z" fill="black"/>
<path d="M3.28516 3.04861V2.99603C3.28516 2.99603 3.28516 2.99604 3.28516 2.96976C3.28516 2.96976 3.28516 2.96976 3.28516 2.94348C3.28516 2.94348 3.28515 2.94348 3.31143 2.96976C3.31143 2.96976 3.31143 2.96975 3.31143 2.99603C3.31143 2.99603 3.31143 2.99602 3.31143 3.02231C3.31143 3.02231 3.31143 3.04861 3.31143 3.07489L3.28516 3.04861Z" fill="black"/>
<path d="M3.49537 4.33642C2.99603 4.33642 2.60181 3.94223 2.60181 3.44288C2.60181 2.94354 2.99603 2.54932 3.49537 2.54932C3.99472 2.54932 4.38894 2.94354 4.38894 3.44288C4.38894 3.94223 3.99472 4.33642 3.49537 4.33642ZM3.49537 2.57559C3.02231 2.57559 2.6281 2.96982 2.6281 3.44288C2.6281 3.91595 3.02231 4.31015 3.49537 4.31015C3.96844 4.31015 4.36265 3.91595 4.36265 3.44288C4.36265 2.96982 3.96844 2.57559 3.49537 2.57559Z" fill="black"/>
<path d="M4.02107 4.28394C4.02107 4.28394 4.07364 4.28392 4.07364 4.33649C4.07364 4.38905 4.07363 4.38907 4.02107 4.38907C3.96851 4.38907 3.96851 4.38905 3.96851 4.33649C3.96851 4.28392 3.96851 4.28394 4.02107 4.28394Z" fill="black"/>
<path d="M2.94343 4.28394C2.94343 4.28394 2.99598 4.28392 2.99598 4.33649C2.99598 4.38905 2.996 4.38907 2.94343 4.38907C2.89087 4.38907 2.89087 4.38905 2.89087 4.33649C2.89087 4.28392 2.89087 4.28394 2.94343 4.28394Z" fill="black"/>
<path d="M3.4427 4.23132C3.4427 4.23132 3.44271 4.23132 3.41643 4.23132C3.41643 4.23132 3.39015 4.23131 3.41643 4.28387C3.41643 4.28387 3.41642 4.28387 3.4427 4.31015C3.4427 4.31015 3.4427 4.31015 3.39014 4.31015C3.39014 4.31015 3.39014 4.33645 3.39014 4.36273C3.39014 4.36273 3.39015 4.389 3.41643 4.389C3.41643 4.389 3.41642 4.389 3.4427 4.389C3.4427 4.389 3.4427 4.38899 3.4427 4.44155C3.4427 4.44155 3.44271 4.44155 3.49527 4.44155C3.54783 4.44155 3.52155 4.44155 3.54783 4.44155C3.54783 4.44155 3.54783 4.44157 3.54783 4.389C3.54783 4.389 3.54783 4.389 3.57411 4.389C3.57411 4.389 3.57412 4.38901 3.6004 4.36273C3.6004 4.36273 3.6004 4.33643 3.6004 4.31015C3.6004 4.31015 3.6004 4.31015 3.54783 4.31015C3.54783 4.31015 3.54783 4.31015 3.57411 4.28387C3.57411 4.28387 3.57411 4.2576 3.57411 4.23132C3.57411 4.23132 3.54782 4.23132 3.52154 4.23132C3.52154 4.23132 3.52154 4.23132 3.52154 4.2576C3.52154 4.2576 3.52154 4.2576 3.52154 4.23132H3.4427ZM3.4427 4.54669C3.4427 4.54669 3.4427 4.54668 3.4427 4.57296C3.4427 4.57296 3.4427 4.57297 3.4427 4.54669C3.4427 4.54669 3.44271 4.54669 3.46899 4.54669C3.46899 4.54669 3.46899 4.54668 3.46899 4.57296C3.46899 4.57296 3.46899 4.57296 3.49527 4.57296C3.49527 4.57296 3.49527 4.57295 3.49527 4.59923C3.49527 4.59923 3.49527 4.59923 3.46899 4.59923C3.46899 4.59923 3.46899 4.59926 3.46899 4.62554C3.46899 4.62554 3.46898 4.62554 3.4427 4.62554H3.41643C3.41643 4.62554 3.41643 4.62552 3.41643 4.59923C3.41643 4.59923 3.41642 4.59923 3.39014 4.59923V4.57296C3.39014 4.57296 3.39015 4.57296 3.41643 4.57296C3.41643 4.57296 3.41643 4.57297 3.41643 4.54669C3.41643 4.54669 3.41643 4.54669 3.41643 4.52041L3.4427 4.54669Z" fill="black"/>
<path fill-rule="evenodd" clip-rule="evenodd" d="M3.4954 4.33642C3.4954 4.33642 3.49541 4.33642 3.28516 4.33642V4.389C3.49541 4.389 3.4954 4.389 3.4954 4.389C3.4954 4.389 3.49541 4.389 3.60053 4.389V4.33642C3.49541 4.33642 3.4954 4.33642 3.4954 4.33642ZM3.60053 4.44155C3.60053 4.44155 3.60053 4.44156 3.60053 4.41528V4.44155ZM3.60053 4.44155C3.49541 4.44155 3.4954 4.44155 3.4954 4.59923C3.4954 4.44155 3.49541 4.44155 3.28516 4.44155C3.49541 4.44155 3.4954 4.44155 3.4954 4.44155C3.4954 4.44155 3.49541 4.44155 3.60053 4.44155ZM3.52168 4.54669L3.54797 4.59923V4.54669C3.52169 4.54669 3.52168 4.54669 3.52168 4.54669ZM3.44284 4.54669V4.59923C3.42532 4.59923 3.41656 4.59923 3.41656 4.59923V4.54669C3.44284 4.54669 3.44284 4.54669 3.44284 4.54669Z" fill="black"/>
<path d="M3.49531 4.65178C2.83828 4.65178 2.28638 4.12616 2.28638 3.44285C2.28638 2.75954 2.81199 2.23389 3.49531 2.23389C4.17862 2.23389 4.70424 2.75954 4.70424 3.44285C4.70424 4.12616 4.17862 4.65178 3.49531 4.65178ZM3.49531 2.26019C2.83828 2.26019 2.31265 2.78582 2.31265 3.44285C2.31265 4.09988 2.83828 4.6255 3.49531 4.6255C4.15234 4.6255 4.67796 4.09988 4.67796 3.44285C4.67796 2.78582 4.15234 2.26019 3.49531 2.26019Z" fill="black"/>
<path d="M4.54673 2.75957C4.38904 2.70701 4.33648 2.65447 4.28392 2.54934C4.20507 2.41793 4.20508 2.28654 4.20508 2.26025C4.33648 2.26025 4.46789 2.31279 4.54673 2.36535C4.62557 2.4442 4.67813 2.57561 4.70441 2.60189H4.67814C4.67814 2.52305 4.65185 2.4705 4.57301 2.39166C4.52044 2.3391 4.41532 2.28653 4.36276 2.28653H4.33648C4.3102 2.31281 4.3102 2.39164 4.33648 2.47048C4.38905 2.54933 4.49417 2.62817 4.54673 2.62817L4.5993 2.57562L4.65186 2.62817L4.57301 2.70702L4.54673 2.75957ZM4.20508 2.26025C4.20508 2.31282 4.20507 2.41793 4.28392 2.54934C4.33648 2.65447 4.38904 2.68073 4.54673 2.75957L4.5993 2.70702V2.65447C4.54673 2.65447 4.54674 2.68074 4.52046 2.70702C4.46789 2.70702 4.36276 2.62818 4.31019 2.54934C4.28391 2.4705 4.25763 2.39164 4.31019 2.33908C4.31019 2.33908 4.33648 2.33908 4.36276 2.33908C4.41532 2.33908 4.52044 2.39165 4.57301 2.44421C4.65185 2.52305 4.65186 2.57563 4.67814 2.65447C4.67814 2.60191 4.59929 2.49678 4.54673 2.41793C4.46789 2.33909 4.36276 2.3128 4.23135 2.3128L4.20508 2.26025Z" fill="black"/>
<path d="M4.31006 2.52298C4.31006 2.4967 4.36262 2.36527 4.36262 2.33899C4.36262 2.33899 4.38891 2.33899 4.41519 2.33899C4.41519 2.36527 4.4152 2.41783 4.38892 2.4704C4.44148 2.4704 4.52031 2.41785 4.5466 2.41785C4.46775 2.41785 4.36262 2.47041 4.31006 2.52298ZM4.31006 2.49667C4.36262 2.47039 4.46775 2.41785 4.5466 2.39157C4.52031 2.39157 4.4152 2.44411 4.38892 2.4704C4.38892 2.41783 4.38891 2.36527 4.41519 2.33899C4.41519 2.33899 4.4152 2.33899 4.38892 2.33899C4.38892 2.39155 4.38891 2.4967 4.33635 2.52298L4.31006 2.49667Z" fill="black"/>
<path d="M4.46785 2.65445C4.46785 2.65445 4.44156 2.65445 4.41528 2.65445C4.46785 2.60188 4.54669 2.5493 4.59925 2.49673C4.59925 2.49673 4.59925 2.49676 4.59925 2.52304C4.57297 2.52304 4.5204 2.60188 4.44156 2.68072L4.46785 2.65445ZM4.44156 2.62814C4.44156 2.62814 4.44157 2.62814 4.46785 2.62814C4.54669 2.5493 4.57297 2.49674 4.62553 2.47046C4.57297 2.52302 4.52041 2.57558 4.46785 2.62814H4.44156Z" fill="black"/>
<path d="M4.33632 4.65179V4.62551C4.41516 4.62551 4.46772 4.59922 4.54656 4.52038C4.59912 4.46782 4.65169 4.36268 4.65169 4.31012V4.28384C4.62541 4.25756 4.54657 4.25756 4.46772 4.28384C4.38888 4.3364 4.31002 4.44154 4.31002 4.4941L4.36259 4.54665L4.31002 4.5992L4.23118 4.52038C4.28375 4.36269 4.33631 4.31013 4.44143 4.25757C4.57284 4.17872 4.70425 4.17871 4.73053 4.17871C4.73053 4.31012 4.67796 4.44154 4.6254 4.52038C4.54656 4.59922 4.41516 4.65178 4.38888 4.67806L4.33632 4.65179ZM4.31002 4.62551C4.36259 4.62551 4.46772 4.54667 4.54656 4.4941C4.62541 4.41526 4.65169 4.31012 4.65169 4.17871C4.59913 4.17871 4.494 4.17872 4.36259 4.25757C4.25747 4.31013 4.23119 4.36269 4.15234 4.52038L4.20491 4.57293H4.25748C4.25748 4.52037 4.23119 4.52039 4.20491 4.4941C4.20491 4.44154 4.28375 4.3364 4.36259 4.28384C4.44143 4.25756 4.52027 4.23128 4.57284 4.28384C4.57284 4.28384 4.57284 4.31011 4.57284 4.33639C4.57284 4.38895 4.52028 4.49409 4.46772 4.54665C4.38888 4.6255 4.33632 4.6255 4.25748 4.65179L4.31002 4.62551Z" fill="black"/>
<path d="M4.52032 4.52035C4.52032 4.44151 4.46775 4.33638 4.41519 4.28381C4.44147 4.28381 4.57288 4.33636 4.59916 4.33636C4.59916 4.33636 4.59916 4.36266 4.59916 4.38894C4.57288 4.38894 4.52032 4.38895 4.46776 4.36267C4.46776 4.41523 4.52032 4.49407 4.52032 4.52035ZM4.41519 4.28381C4.44147 4.33638 4.49404 4.44151 4.52032 4.52035C4.52032 4.49407 4.46775 4.38895 4.44147 4.36267C4.49403 4.36267 4.54659 4.36266 4.57287 4.38894C4.57287 4.38894 4.57287 4.38895 4.57287 4.36267C4.52031 4.36267 4.4152 4.36265 4.38892 4.31009L4.41519 4.28381Z" fill="black"/>
<path d="M4.41525 4.5729C4.41525 4.54662 4.33641 4.49406 4.25757 4.41522C4.25757 4.41522 4.25757 4.38895 4.25757 4.36267C4.31013 4.41523 4.36269 4.49406 4.41525 4.54663C4.41525 4.54663 4.41526 4.54663 4.38897 4.54663L4.41525 4.5729ZM4.28384 4.41522C4.36269 4.49406 4.41524 4.52034 4.44152 4.5729C4.38896 4.52034 4.33641 4.46778 4.28384 4.41522C4.28384 4.41522 4.28384 4.41521 4.28384 4.4415V4.41522Z" fill="black"/>
<path d="M2.7596 4.65172C2.6282 4.65172 2.49679 4.59915 2.41795 4.54659C2.33911 4.46775 2.28654 4.33634 2.26025 4.31005H2.28654C2.28654 4.3889 2.31282 4.44147 2.39166 4.52032C2.44422 4.57288 2.54934 4.62545 2.60191 4.62545H2.6282C2.65448 4.59917 2.65448 4.5203 2.6282 4.44146C2.57563 4.36262 2.47051 4.28378 2.41795 4.28378L2.36539 4.33633L2.31282 4.28378L2.39166 4.20492C2.54935 4.25749 2.60191 4.31006 2.65447 4.41519C2.73332 4.54659 2.73331 4.67799 2.73331 4.70427L2.7596 4.65172ZM2.28654 4.28378C2.28654 4.33634 2.36539 4.44147 2.41795 4.52032C2.49679 4.59916 2.60191 4.62545 2.73331 4.62545C2.73331 4.57289 2.73332 4.46774 2.65447 4.33633C2.60191 4.2312 2.54935 4.20494 2.39166 4.1261L2.33909 4.17865V4.23123C2.39166 4.23123 2.39167 4.20493 2.41795 4.17865C2.47051 4.17865 2.57563 4.25749 2.6282 4.33633C2.65448 4.41517 2.68076 4.49403 2.6282 4.54659C2.6282 4.54659 2.60191 4.54659 2.57563 4.54659C2.52307 4.54659 2.41795 4.49402 2.36539 4.44146C2.28654 4.36262 2.28654 4.31007 2.26025 4.23123L2.28654 4.28378Z" fill="black"/>
<path d="M2.62822 4.59915C2.62822 4.59915 2.60193 4.59915 2.57565 4.59915C2.57565 4.57287 2.57564 4.5203 2.60192 4.46774C2.54936 4.46774 2.47052 4.52032 2.44424 4.52032C2.52309 4.52032 2.62822 4.46775 2.68078 4.41519C2.68078 4.44147 2.62822 4.57287 2.62822 4.59915ZM2.57565 4.57287C2.57565 4.57287 2.57564 4.57287 2.60192 4.57287C2.60192 4.52031 2.60193 4.4152 2.65449 4.38892C2.60193 4.4152 2.49681 4.46777 2.41797 4.49405C2.44425 4.49405 2.54937 4.44147 2.57565 4.41519C2.57565 4.46775 2.57566 4.52032 2.54937 4.5466L2.57565 4.57287Z" fill="black"/>
<path d="M2.3654 4.44143C2.3654 4.44143 2.3654 4.44144 2.3654 4.41516C2.39168 4.41516 2.44424 4.33632 2.52308 4.25748C2.52308 4.25748 2.54937 4.25748 2.57565 4.25748C2.52309 4.31004 2.44424 4.36259 2.39168 4.41516L2.3654 4.44143ZM2.3654 4.38888C2.41796 4.33632 2.47052 4.28376 2.52308 4.2312C2.52308 4.2312 2.52309 4.2312 2.49681 4.2312C2.41796 4.31004 2.39167 4.3626 2.33911 4.38888H2.3654Z" fill="black"/>
<path d="M2.28645 2.6281C2.28645 2.4967 2.33901 2.36531 2.39157 2.28647C2.47041 2.20762 2.60182 2.15507 2.6281 2.12878V2.15506C2.54926 2.15506 2.4967 2.18135 2.41786 2.26019C2.3653 2.31275 2.31273 2.41786 2.31273 2.47042V2.4967C2.33901 2.52298 2.41786 2.52298 2.4967 2.4967C2.57554 2.44413 2.65438 2.33903 2.65438 2.28647L2.60181 2.23388L2.65438 2.18133L2.73322 2.26019C2.68066 2.41788 2.6281 2.47044 2.52297 2.523C2.39157 2.60185 2.28645 2.60183 2.23389 2.60183L2.28645 2.6281ZM2.28645 2.70696C2.33901 2.70696 2.44413 2.70695 2.57554 2.6281C2.68066 2.57554 2.70694 2.52298 2.78579 2.36529L2.73322 2.31274H2.68067C2.68067 2.3653 2.70694 2.36532 2.73322 2.3916C2.73322 2.44416 2.65438 2.54926 2.57554 2.60183C2.4967 2.62811 2.41786 2.65439 2.36529 2.60183C2.36529 2.60183 2.36529 2.57556 2.36529 2.54928C2.36529 2.49671 2.41785 2.39158 2.47041 2.33901C2.54925 2.26017 2.60183 2.26016 2.68067 2.23388C2.62811 2.23388 2.52298 2.31273 2.44413 2.36529C2.36529 2.44413 2.339 2.54928 2.339 2.68068L2.28645 2.70696Z" fill="black"/>
<path d="M2.54921 2.62811C2.52292 2.62811 2.39152 2.57556 2.36523 2.57556C2.36523 2.57556 2.36523 2.54929 2.36523 2.52301C2.39152 2.52301 2.44408 2.523 2.49664 2.54928C2.49664 2.49672 2.44407 2.41788 2.44407 2.3916C2.44407 2.47045 2.49664 2.57554 2.54921 2.62811ZM2.36523 2.57556C2.4178 2.57556 2.52292 2.57554 2.54921 2.62811C2.52292 2.57554 2.47036 2.47045 2.44407 2.3916C2.44407 2.41788 2.49663 2.523 2.52292 2.54928C2.47035 2.54928 2.41779 2.54929 2.39151 2.52301C2.39151 2.52301 2.39151 2.523 2.39151 2.54928L2.36523 2.57556Z" fill="black"/>
<path d="M2.65451 2.4967C2.60194 2.44414 2.54939 2.36531 2.49683 2.31274C2.49683 2.31274 2.49682 2.31274 2.5231 2.31274C2.5231 2.33903 2.60195 2.39158 2.6808 2.47043C2.6808 2.47043 2.6808 2.49673 2.6808 2.52301L2.65451 2.4967ZM2.5231 2.33902C2.57566 2.39158 2.62824 2.44414 2.6808 2.4967C2.6808 2.4967 2.6808 2.49671 2.6808 2.47043C2.60195 2.39158 2.54938 2.36531 2.5231 2.31274V2.33902Z" fill="black"/>
<path d="M2.52269 4.07357C2.49641 4.02101 2.47013 3.96845 2.44385 3.94217H2.47012C2.47012 3.96845 2.52269 4.02102 2.52269 4.02102L2.57525 3.96848C2.57525 3.94219 2.54897 3.91589 2.52269 3.91589H2.54898C2.54898 3.91589 2.54897 3.94219 2.57525 3.99475C2.57525 3.99475 2.62781 3.96845 2.65409 3.94217V3.99475C2.62781 3.99475 2.4964 4.07359 2.47012 4.12616L2.52269 4.07357Z" fill="black"/>
<path d="M2.44392 3.54797C2.36508 3.54797 2.3388 3.62682 2.36508 3.67938C2.36508 3.73194 2.44392 3.78451 2.49649 3.78451C2.54905 3.78451 2.60161 3.70567 2.57533 3.6531C2.57533 3.57426 2.49648 3.54797 2.44392 3.54797ZM2.44392 3.57428C2.49648 3.57428 2.54905 3.57427 2.54905 3.62683C2.54905 3.67939 2.54904 3.70568 2.4702 3.73196C2.41763 3.73196 2.36508 3.73194 2.36508 3.67938C2.36508 3.6531 2.36508 3.60056 2.44392 3.57428Z" fill="black"/>
<path d="M2.60168 3.15372C2.60168 3.18 2.52285 3.23257 2.49656 3.25885C2.49656 3.23257 2.47028 3.2063 2.444 3.2063C2.41772 3.2063 2.39143 3.20629 2.39143 3.23257V3.3377C2.444 3.3377 2.57541 3.3377 2.62797 3.3377C2.62797 3.3377 2.62797 3.3114 2.62797 3.28512C2.60169 3.28512 2.52284 3.28512 2.52284 3.28512C2.52284 3.28512 2.54912 3.23258 2.5754 3.2063C2.5754 3.2063 2.62797 3.15372 2.62797 3.12744L2.60168 3.15372ZM2.444 3.3377C2.444 3.3377 2.36515 3.3377 2.33887 3.3377C2.33887 3.28514 2.33887 3.25885 2.39143 3.25885C2.39143 3.25885 2.444 3.25886 2.444 3.3377Z" fill="black"/>
<path d="M2.70669 2.62817C2.65413 2.65446 2.60156 2.70702 2.60156 2.73331C2.60156 2.73331 2.60157 2.78588 2.62785 2.81216C2.65413 2.81216 2.68041 2.83844 2.70669 2.81216C2.70669 2.81216 2.75926 2.78586 2.75926 2.75958C2.75926 2.75958 2.73298 2.70703 2.70669 2.70703L2.75926 2.65448C2.75926 2.65448 2.81182 2.70702 2.8381 2.73331C2.8381 2.78587 2.78554 2.81216 2.75926 2.83844C2.7067 2.83844 2.65413 2.83844 2.62785 2.83844C2.57529 2.81216 2.62785 2.73332 2.62785 2.68076C2.65413 2.65447 2.70669 2.62817 2.70669 2.62817Z" fill="black"/>
<path d="M2.96963 2.41797V2.57565C2.96963 2.57565 2.96963 2.62822 2.96963 2.68078H3.0222C3.0222 2.62822 3.0222 2.57565 3.0222 2.57565L3.10104 2.5231C3.10104 2.5231 3.12732 2.52309 3.12732 2.57565L3.20617 2.54937C3.15361 2.54937 3.10104 2.49679 3.10104 2.49679L2.96963 2.41797ZM2.94336 2.47052L3.0222 2.5231L2.94336 2.57565V2.49679V2.47052Z" fill="black"/>
<path d="M3.3902 2.31277C3.3902 2.36534 3.3902 2.44417 3.3902 2.49673C3.44276 2.49673 3.46905 2.49674 3.49533 2.44418V2.49673H3.33765C3.33765 2.41789 3.33765 2.33906 3.33765 2.2865H3.41649L3.3902 2.31277Z" fill="black"/>
<path d="M4.23111 2.91723V2.86465C4.23111 2.86465 4.36252 2.7858 4.41508 2.75952L4.36251 2.99606C4.41508 2.99606 4.46764 2.94352 4.49392 2.91723L4.52021 2.96978C4.46765 2.96978 4.38879 3.02236 4.30995 3.04864L4.33624 2.8121C4.33624 2.8121 4.23112 2.86465 4.20483 2.89093L4.23111 2.91723Z" fill="black"/>
<path d="M4.57272 3.2326C4.57272 3.20632 4.57272 3.18005 4.57272 3.18005H4.62529C4.62529 3.20633 4.65158 3.33773 4.65158 3.36401H4.59901C4.59901 3.33773 4.59901 3.28515 4.59901 3.28515C4.54645 3.28515 4.44132 3.28517 4.41504 3.33773V3.28515C4.41504 3.28515 4.54645 3.28515 4.59901 3.28515L4.57272 3.2326Z" fill="black"/>
<path d="M4.31006 3.8634V3.91595C4.31006 3.91595 4.31006 3.91595 4.36262 3.94223C4.36262 3.96851 4.41519 4.04738 4.41519 4.09994L4.46776 4.02108C4.46776 4.02108 4.41519 4.02107 4.41519 3.94223C4.46775 3.94223 4.52031 3.94223 4.5466 3.94223L4.59916 3.88968C4.5466 3.88968 4.44146 3.94223 4.44146 3.94223C4.44146 3.94223 4.36262 3.91596 4.36262 3.88968L4.31006 3.8634Z" fill="black"/>
<path d="M4.15231 2.52307L3.99463 2.6019C3.99463 2.6019 3.94205 2.62817 3.91577 2.62817H3.96834H4.0209L4.09974 2.68075C4.09974 2.68075 4.09975 2.7333 4.07347 2.7333L4.12603 2.78588C4.12603 2.73332 4.12603 2.68075 4.12603 2.68075V2.52307H4.15231ZM4.12603 2.57562V2.65448L4.04718 2.6019L4.12603 2.54935V2.57562Z" fill="black"/>
<path d="M3.75812 2.33911C3.75812 2.36539 3.70555 2.44426 3.70555 2.5231C3.75811 2.5231 3.81068 2.5231 3.81068 2.5231V2.57565L3.62671 2.54937C3.62671 2.47053 3.67927 2.39167 3.67927 2.33911H3.75812Z" fill="black"/>
<path d="M4.36262 3.73196C4.36262 3.70568 4.44147 3.65311 4.46776 3.62683C4.46776 3.65311 4.49404 3.67938 4.52032 3.67938C4.5466 3.67938 4.57287 3.67939 4.57287 3.6531V3.54797C4.52031 3.54797 4.38891 3.54797 4.33635 3.54797C4.33635 3.54797 4.33635 3.57427 4.33635 3.60056C4.36263 3.60056 4.44146 3.60056 4.44146 3.60056C4.44146 3.60056 4.41519 3.6531 4.36262 3.67938C4.36262 3.67938 4.31006 3.73196 4.31006 3.75824L4.36262 3.73196ZM4.52032 3.54797C4.52032 3.54797 4.59916 3.54797 4.62544 3.54797C4.62544 3.60054 4.62543 3.62683 4.57287 3.62683C4.57287 3.62683 4.52032 3.62682 4.52032 3.54797Z" fill="black"/>
<path d="M4.25744 6.22868H2.628V4.73063C2.39147 4.73063 2.18122 4.52039 2.15494 4.28386H0.656906V2.65444H2.15494C2.15494 2.41791 2.36518 2.20765 2.60171 2.18137V0.68335H4.23115V2.18137C4.44139 2.18137 4.67792 2.3916 4.7042 2.62813H6.20224V4.25759H4.7042C4.7042 4.49412 4.46769 4.70435 4.25744 4.73063V6.22868ZM2.60171 6.22868H4.23115V4.59923H4.25744C4.25744 4.59923 4.67793 4.46784 4.54652 4.25759H6.17596V2.62813H4.54652C4.67793 2.3916 4.25744 2.31277 4.25744 2.31277H4.23115V0.68335H2.60171V2.31277H2.65427C2.44402 2.23393 2.23377 2.41791 2.26005 2.65444H0.630615V4.28386H2.26005C2.26005 4.28386 2.44402 4.67807 2.65427 4.59923H2.60171V6.22868Z" fill="#CF142B"/>
<path fill-rule="evenodd" clip-rule="evenodd" d="M2.83832 0.998651C2.83832 0.840964 2.83832 0.84097 2.62807 0.84097V2.44412C2.83832 2.44412 2.83832 2.44412 2.83832 2.44412C2.83832 2.44412 2.83833 2.44412 2.94345 2.44412V0.656982H3.91584V2.44412C4.12609 2.44412 4.12611 2.44412 4.12611 2.44412C4.12611 2.44412 4.12611 2.44412 4.25751 2.44412V0.84097C4.15239 0.84097 4.12611 0.998651 4.12611 0.998651H2.83832ZM0.893504 2.94347C0.893504 2.78578 0.656982 2.78579 0.656982 2.78579V4.07354C0.656982 4.07354 0.893504 4.07355 0.893504 3.91586H2.49667V4.23125H0.97236V2.91719H2.49667H0.893504V2.94347ZM4.46776 2.94347H5.88693V3.91586H4.46776V4.23125H6.07091C6.07091 4.07357 6.20231 4.04727 6.20231 4.04727V2.75948C6.20231 2.75948 6.07091 2.75951 6.07091 2.91719H4.46776V2.94347ZM2.83832 4.44148C2.83832 4.44148 2.83833 4.44148 2.94345 4.44148V6.04463C2.83833 6.04463 2.83832 5.91323 2.83832 5.91323H4.12611C4.12611 5.91323 4.12609 6.04463 3.91584 6.04463V4.44148C4.12609 4.44148 4.12611 4.44148 4.12611 4.44148C4.12611 4.44148 4.12611 4.44148 4.25751 4.44148V6.22862H2.62807V4.44148C2.8646 4.44148 2.8646 4.44148 2.83832 4.44148Z" fill="black"/>
<path d="M4.12611 5.91323H2.83832C2.83832 5.91323 2.83832 6.04463 2.62807 6.04463V4.44148C2.83832 4.44148 2.83832 4.44148 2.83832 4.44148C2.83832 4.44148 2.83833 4.44148 2.94345 4.44148V6.22862H3.91584V4.44148C4.12609 4.44148 4.12611 4.44148 4.12611 4.44148C4.12611 4.44148 4.12611 4.44148 4.25751 4.44148V6.04463C4.15239 6.04463 4.12611 5.91323 4.12611 5.91323ZM2.83832 4.44148C2.83832 4.44148 2.83833 4.44148 2.94345 4.44148V6.04463C2.83833 6.04463 2.83832 5.91323 2.83832 5.91323H4.12611C4.12611 5.91323 4.12609 6.04463 3.91584 6.04463V4.44148C4.12609 4.44148 4.12611 4.44148 4.12611 4.44148C4.12611 4.44148 4.12611 4.44148 4.25751 4.44148V6.01836C4.12611 6.01836 4.12611 6.20235 4.12611 6.20235H2.83832C2.83832 6.20235 2.83831 6.01836 2.60178 6.01836V4.44148C2.83831 4.44148 2.83833 4.44148 2.81205 4.44148H2.83832ZM2.49667 4.25753H0.893504C0.893504 4.09984 0.656982 4.07354 0.656982 4.07354V2.78579C0.656982 2.78579 0.893504 2.78578 0.893504 2.94347H2.49667H0.998635V3.91586H2.49667C2.49667 4.04727 2.49667 4.07354 2.49667 4.07354C2.49667 4.07354 2.49667 4.07357 2.49667 4.23125V4.25753ZM0.893504 2.94347C0.893504 2.78578 0.656982 2.78579 0.656982 2.78579V4.07354C0.656982 4.07354 0.893504 4.07355 0.893504 3.91586H2.49667V4.23125H0.893504C0.893504 4.04729 0.97236 4.04727 0.97236 4.04727V2.75948C0.97236 2.75948 0.893504 2.75949 0.893504 2.57552H2.49667V2.89089H0.893504V2.94347ZM6.0972 3.94213H4.49403C4.49403 4.09982 4.49403 4.09985 4.49403 4.09985C4.49403 4.09985 4.49403 4.09984 4.49403 4.2838H5.91323V2.96974H4.49403H6.0972C6.0972 2.81206 6.2286 2.81206 6.2286 2.81206V4.09985C6.2286 4.09985 6.0972 4.09982 6.0972 3.94213ZM4.49403 4.25753H6.0972C6.0972 4.07356 5.91323 4.07354 5.91323 4.07354V2.78579C5.91323 2.78579 6.0972 2.78576 6.0972 2.62807H4.49403V2.94347H6.0972C6.0972 2.78578 6.2286 2.78579 6.2286 2.78579V4.07354C6.2286 4.07354 6.0972 4.07355 6.0972 3.91586H4.49403V4.23125V4.25753ZM4.12611 2.44412C4.12611 2.44412 4.12611 2.44412 4.25751 2.44412V0.656982H2.62807V2.44412C2.8646 2.44412 2.8646 2.44412 2.83832 2.44412C2.81204 2.44412 2.83833 2.44412 2.94345 2.44412V0.84097C2.83833 0.84097 2.83832 0.998651 2.83832 0.998651H4.12611C4.12611 0.998651 4.12609 0.84097 3.91584 0.84097V2.44412C4.12609 2.44412 4.12611 2.44412 4.12611 2.44412ZM2.83832 0.656982H4.12611C4.12611 0.656982 4.12609 0.84097 3.91584 0.84097V2.41784C4.12609 2.41784 4.12611 2.41784 4.12611 2.41784C4.12611 2.41784 4.12611 2.41784 4.25751 2.41784V0.814695C4.15239 0.814695 4.12611 0.972376 4.12611 0.972376H2.83832C2.83832 0.972376 2.83832 0.814695 2.62807 0.814695V2.41784C2.83832 2.41784 2.83832 2.41784 2.83832 2.41784C2.83832 2.41784 2.83833 2.41784 2.94345 2.41784V0.84097C2.83833 0.84097 2.83832 0.656982 2.83832 0.656982Z" fill="black"/>
<path fill-rule="evenodd" clip-rule="evenodd" d="M2.73311 0.998651C2.73311 0.76212 2.73311 0.762114 2.60171 0.762114V2.33899H2.91708V0.656982H3.88949V2.23386H4.20487V0.735839L4.17858 0.972376H2.70684L2.73311 0.998651ZM3.91577 2.33899V2.49667H4.23115V2.39157L3.91577 2.33899ZM2.94338 2.44412H2.628V2.52297H2.94338V2.44412ZM0.788312 2.94347C0.788312 2.68066 0.630615 2.68066 0.630615 2.68066V4.1524C0.630615 4.1524 0.762031 4.15239 0.788312 3.91586H2.36519V4.23125H0.630615V2.6018H2.26005V2.91719H0.762021L0.788312 2.94347ZM2.44403 2.94347L2.39146 2.62807H2.54916V2.94347H2.44403ZM4.41512 2.94347V2.62807H4.49396V2.94347H4.41512ZM4.59909 2.62807H6.22853V3.94213H4.59909V4.25753H6.20224C6.20224 4.17868 6.2548 4.17867 6.2548 4.17867V2.70693C6.2548 2.70693 6.20224 2.70692 6.20224 2.62807H4.62536H4.59909ZM2.49659 4.25753V3.94213H2.57543V4.25753H2.49659ZM4.41512 4.25753V3.94213H4.52025V4.17867C4.54653 4.17867 4.59909 4.25753 4.59909 4.25753H4.44139H4.41512ZM4.25744 4.36266H3.94206V4.44148H4.25744V4.36266ZM2.60171 4.36266V4.46776H2.73311L2.91708 4.52034V4.36266H2.60171ZM4.25744 4.54662V6.22862H2.94338V4.59916H2.628V6.14976C2.7594 6.14976 2.7594 6.25489 2.7594 6.25489H4.23115C4.23115 6.25489 4.23115 6.14976 3.94206 6.14976V4.57289H4.25744V4.54662Z" fill="black"/>
<path d="M4.23115 6.22862H2.628V4.65175H2.7594C2.7594 4.65175 2.7594 4.65173 2.7594 4.59916C2.7594 4.65173 2.75941 4.65175 2.94338 4.65175V5.91323H3.91577V4.54662C4.20486 4.54662 4.20487 4.54662 4.20487 4.54662V6.12349L4.17858 6.22862H4.23115ZM2.94338 4.59916V5.91323H4.23115C4.23115 5.91323 4.23115 6.14976 3.94206 6.14976V4.57289H4.25744V6.14976C4.23115 6.14976 4.23115 6.25489 4.23115 6.25489H2.7594C2.7594 6.25489 2.7594 6.14976 2.628 6.14976V4.62547H2.94338V4.59916ZM2.7594 4.54662C2.7594 4.52033 2.628 4.49407 2.628 4.49407V4.36266C2.7594 4.36266 2.7594 4.36266 2.7594 4.36266C2.7594 4.36266 2.75941 4.36266 2.94338 4.36266V4.52034C2.75941 4.52034 2.7594 4.52034 2.7594 4.52034V4.54662ZM2.60171 4.36266V4.46776H2.91708V4.36266H2.60171ZM4.23115 4.44148C4.23115 4.44148 4.23115 4.44148 3.94206 4.44148V4.38893C4.23115 4.38893 4.23115 4.38893 4.23115 4.38893V4.44148ZM3.91577 4.38893V4.44148H4.23115V4.38893H3.91577ZM4.41512 4.25753C4.41512 4.17868 4.41512 4.17867 4.41512 4.17867C4.41512 4.17867 4.41512 4.17867 4.41512 3.94213H4.5728C4.5728 4.17867 4.5728 4.17867 4.5728 4.17867H4.54652L4.52025 4.25753H4.41512ZM4.41512 3.94213H4.52025L4.5728 4.25753H4.44139V3.94213H4.41512ZM2.54916 3.94213H2.49659C2.49659 4.20495 2.49659 4.20495 2.49659 4.20495C2.49659 4.20495 2.49659 4.20496 2.49659 4.2838H2.54916C2.54916 4.17868 2.54916 4.17867 2.54916 4.20495C2.54916 4.20495 2.54916 4.20495 2.54916 3.94213ZM2.52287 3.94213H2.54916V4.25753H2.49659V3.94213H2.52287ZM2.36519 4.25753H0.656906V2.62807H2.28634V2.70693C2.28634 2.70693 2.28634 2.70693 2.28634 2.96974H0.656906V3.94213H2.39146C2.39146 4.17867 2.39146 4.17867 2.39146 4.17867V4.25753H2.36519ZM0.788312 2.94347C0.788312 2.68066 0.630615 2.68066 0.630615 2.68066V4.1524C0.630615 4.1524 0.762031 4.15239 0.788312 3.91586H2.36519V4.23125H0.788312C0.788312 4.23125 0.788303 4.1524 0.630615 4.1524V2.68066C0.788303 2.68066 0.788312 2.6018 0.788312 2.6018H2.28634V2.91719H0.788312V2.94347ZM6.17596 3.94213H4.67793V4.20495C4.67793 4.20495 4.67792 4.20495 4.5728 4.20495C4.67792 4.20495 4.67793 4.20496 4.67793 4.2838H6.22853V2.65438H4.59909C4.59909 2.73322 4.59909 2.7332 4.59909 2.7332V2.96974H6.17596C6.17596 2.96974 6.17596 2.70693 6.22853 2.70693V4.17867C6.20225 4.17867 6.17596 3.94213 6.17596 3.94213ZM4.5728 4.25753H5.88686V2.70693C5.88686 2.70693 6.17596 2.70692 6.17596 2.62807H4.59909V2.94347H6.17596C6.17596 2.70694 6.22853 2.70693 6.22853 2.70693V4.17867C6.22853 4.17867 6.17596 4.17867 6.17596 3.94213H4.5728V4.25753ZM4.46768 2.62807H4.41512C4.41512 2.70692 4.41512 2.70693 4.41512 2.70693C4.41512 2.70693 4.41512 2.70693 4.41512 2.96974H4.46768C4.46768 2.70693 4.46768 2.70693 4.46768 2.70693C4.46768 2.70693 4.46768 2.70692 4.46768 2.62807ZM4.41512 2.62807H4.46768V2.94347H4.41512V2.62807ZM2.54916 2.62807H2.39146C2.39146 2.70692 2.39146 2.70693 2.39146 2.70693H2.44403C2.44403 2.70693 2.44403 2.70694 2.44403 2.94347H2.57543C2.57543 2.68066 2.57543 2.68066 2.57543 2.68066C2.57543 2.68066 2.57543 2.68064 2.57543 2.6018L2.54916 2.62807ZM2.41775 2.62807H2.54916V2.94347H2.44403V2.62807H2.41775ZM4.23115 2.52297C4.23115 2.52297 4.23115 2.52297 3.94206 2.52297V2.36526C4.23115 2.36526 4.23115 2.36526 4.23115 2.36526V2.41784C4.25743 2.41784 4.25744 2.54925 4.25744 2.54925L4.23115 2.52297ZM4.25744 2.49667H3.94206V2.39157H4.25744C4.25744 2.36529 4.25744 2.49667 4.25744 2.49667ZM2.73311 2.52297C2.73311 2.52297 2.73311 2.52297 2.60171 2.52297V2.47039C2.73311 2.47039 2.73311 2.47039 2.73311 2.47039C2.73311 2.47039 2.73312 2.47039 2.91708 2.47039V2.52297C2.73312 2.52297 2.73311 2.52297 2.73311 2.52297ZM2.60171 2.47039C2.60171 2.49667 2.91708 2.49667 2.91708 2.49667V2.44412H2.60171V2.47039ZM2.7594 2.33899C2.7594 2.33899 2.7594 2.33899 2.96965 2.33899V0.762114C2.7594 0.762114 2.78568 0.683289 2.78568 0.683289H4.25744C4.25744 0.683289 4.25743 0.762114 3.96833 0.762114V2.26016C4.28371 2.26016 4.28371 2.26016 4.28371 2.26016C4.28371 2.26016 4.2837 2.26016 4.30999 2.26016V0.998651H2.68056V2.36526C2.81197 2.36526 2.81197 2.36526 2.81197 2.36526L2.7594 2.33899ZM2.60171 2.33899H2.91708V0.762114C2.73312 0.762114 2.73311 0.656982 2.73311 0.656982H4.20487C4.20487 0.656982 4.20486 0.762114 3.91577 0.762114V2.26016H4.23115V0.762114L4.20487 0.998651H2.73311C2.73311 0.998651 2.73311 0.762114 2.60171 0.762114V2.33899Z" fill="black"/>
</g>
</g>
<path style="mix-blend-mode:multiply" opacity="0.3" d="M16.4258 0H3.57424C1.60024 0 0 1.60027 0 3.57427V16.4258C0 18.3998 1.60024 20 3.57424 20H16.4258C18.3998 20 20 18.3998 20 16.4258V3.57427C20 1.60027 18.3998 0 16.4258 0Z" fill="url(#paint0_radial_304_1075)"/>
<defs>
<radialGradient id="paint0_radial_304_1075" cx="0" cy="0" r="1" gradientUnits="userSpaceOnUse" gradientTransform="translate(7.01708 -1.02497) scale(22.7595 22.7596)">
<stop stop-color="white"/>
<stop offset="0.3" stop-color="#FCFCFC"/>
<stop offset="0.4" stop-color="#F3F3F3"/>
<stop offset="0.5" stop-color="#E4E4E5"/>
<stop offset="0.6" stop-color="#CFD0D0"/>
<stop offset="0.7" stop-color="#B4B4B5"/>
<stop offset="0.8" stop-color="#939394"/>
<stop offset="0.9" stop-color="#58595B"/>
</radialGradient>
</defs>
</svg>
