<svg width="20" height="20" viewBox="0 0 20 20" fill="none" xmlns="http://www.w3.org/2000/svg">
<g id="Group 56">
<g id="Clip path group">
<mask id="mask0_296_2790" style="mask-type:luminance" maskUnits="userSpaceOnUse" x="0" y="0" width="20" height="20">
<g id="clippath-229">
<path id="Vector" d="M3.57425 0H16.4258C18.3968 0 20 1.60315 20 3.57424V16.4258C20 18.3968 18.3968 20 16.4258 20H3.57425C1.60316 20 0 18.3968 0 16.4258V3.57424C0 1.60315 1.60316 0 3.57425 0Z" fill="white"/>
</g>
</mask>
<g mask="url(#mask0_296_2790)">
<g id="Group">
<g id="Clip path group_2">
<mask id="mask1_296_2790" style="mask-type:luminance" maskUnits="userSpaceOnUse" x="-6" y="-1" width="32" height="22">
<g id="clippath-230">
<path id="Vector_2" d="M25.4138 -0.683594H-5.78198V20.3414H25.4138V-0.683594Z" fill="white"/>
</g>
</mask>
<g mask="url(#mask1_296_2790)">
<g id="Group_2">
<g id="Group_3">
<path id="Vector_3" d="M35.2692 -6.80762H-15.2695V26.7798H35.2692V-6.80762Z" fill="#005BBB"/>
<path id="Vector_4" d="M35.2692 9.82812H-15.2695V26.7795H35.2692V9.82812Z" fill="#FFD500"/>
</g>
</g>
</g>
</g>
</g>
</g>
</g>
<path id="Vector_5" style="mix-blend-mode:multiply" opacity="0.3" d="M3.57425 0H16.4258C18.3968 0 20 1.60315 20 3.57424V16.4258C20 18.3968 18.3968 20 16.4258 20H3.57425C1.60316 20 0 18.3968 0 16.4258V3.57424C0 1.60315 1.60316 0 3.57425 0Z" fill="url(#paint0_radial_296_2790)"/>
</g>
<defs>
<radialGradient id="paint0_radial_296_2790" cx="0" cy="0" r="1" gradientUnits="userSpaceOnUse" gradientTransform="translate(7.01708 -1.05125) scale(22.7595 22.7595)">
<stop stop-color="white"/>
<stop offset="0.3" stop-color="#FCFCFC"/>
<stop offset="0.4" stop-color="#F3F3F3"/>
<stop offset="0.5" stop-color="#E4E4E5"/>
<stop offset="0.6" stop-color="#CFD0D0"/>
<stop offset="0.7" stop-color="#B4B4B5"/>
<stop offset="0.8" stop-color="#939394"/>
<stop offset="0.9" stop-color="#58595B"/>
</radialGradient>
</defs>
</svg>
